<svg width="170" height="116" viewBox="0 0 170 116" fill="none" xmlns="http://www.w3.org/2000/svg">
<path d="M167.988 75.9409H129.477V81.0622H167.988V75.9409Z" fill="#1D242E"/>
<path d="M167.988 78.7091H129.477V77.325L167.988 73.1725V78.7091Z" fill="#252C36"/>
<path d="M123.542 77.7402V75.9409H162.053V81.2006H123.542V79.4012" fill="#262B31"/>
<path d="M162.053 76.9098H123.542V78.7092H162.053V76.9098Z" fill="#364151"/>
<path d="M167.436 77.1866H123.817C122.713 77.1866 121.885 76.3562 121.885 75.2489V66.1135C121.885 65.0062 122.713 64.1758 123.817 64.1758H167.436C168.541 64.1758 169.369 65.0062 169.369 66.1135V75.2489C169.369 76.3562 168.541 77.1866 167.436 77.1866Z" fill="#2E3746"/>
<path d="M127.544 64.1758H161.363C162.191 64.1758 162.743 64.8678 162.743 65.5599V75.8025C162.743 76.633 162.053 77.1866 161.363 77.1866H123.265C122.437 77.1866 121.885 76.4946 121.885 75.8025V65.5599C121.885 64.7294 122.575 64.1758 123.265 64.1758H124.232" fill="#545D71"/>
<path d="M138.303 69.0123C138.519 68.7961 138.519 68.4455 138.303 68.2293C138.088 68.0131 137.738 68.0131 137.522 68.2293C137.307 68.4455 137.307 68.7961 137.522 69.0123C137.738 69.2285 138.088 69.2285 138.303 69.0123Z" fill="#2A2E33"/>
<path d="M138.319 71.4973C138.535 71.2811 138.535 70.9305 138.319 70.7143C138.103 70.4981 137.754 70.4981 137.538 70.7143C137.323 70.9305 137.323 71.2811 137.538 71.4973C137.754 71.7136 138.103 71.7136 138.319 71.4973Z" fill="#2A2E33"/>
<path d="M138.335 73.9822C138.55 73.766 138.55 73.4155 138.335 73.1992C138.119 72.983 137.769 72.983 137.554 73.1992C137.338 73.4155 137.338 73.766 137.554 73.9822C137.769 74.1984 138.119 74.1984 138.335 73.9822Z" fill="#2A2E33"/>
<path d="M140.807 70.3697C141.023 70.1535 141.023 69.803 140.807 69.5868C140.592 69.3705 140.242 69.3705 140.027 69.5868C139.811 69.803 139.811 70.1535 140.027 70.3697C140.242 70.586 140.592 70.586 140.807 70.3697Z" fill="#394651"/>
<path d="M140.726 72.7569C140.941 72.5407 140.941 72.1901 140.726 71.9739C140.51 71.7577 140.161 71.7577 139.945 71.9739C139.729 72.1901 139.729 72.5407 139.945 72.7569C140.161 72.9731 140.51 72.9731 140.726 72.7569Z" fill="#2A2E33"/>
<path d="M143.26 68.981C143.476 68.7648 143.476 68.4142 143.26 68.198C143.045 67.9818 142.695 67.9818 142.479 68.198C142.264 68.4142 142.264 68.7648 142.479 68.981C142.695 69.1972 143.045 69.1972 143.26 68.981Z" fill="#2A2E33"/>
<path d="M143.275 71.4659C143.491 71.2497 143.491 70.8992 143.275 70.6829C143.059 70.4667 142.71 70.4667 142.494 70.6829C142.278 70.8992 142.278 71.2497 142.494 71.4659C142.71 71.6821 143.059 71.6821 143.275 71.4659Z" fill="#2A2E33"/>
<path d="M142.867 74.1416C143.172 74.1416 143.419 73.8937 143.419 73.588C143.419 73.2822 143.172 73.0343 142.867 73.0343C142.562 73.0343 142.315 73.2822 142.315 73.588C142.315 73.8937 142.562 74.1416 142.867 74.1416Z" fill="url(#paint0_linear_23:93)"/>
<path d="M145.764 70.3385C145.98 70.1222 145.98 69.7717 145.764 69.5555C145.549 69.3392 145.199 69.3392 144.983 69.5555C144.768 69.7717 144.768 70.1222 144.983 70.3385C145.199 70.5547 145.549 70.5547 145.764 70.3385Z" fill="#394651"/>
<path d="M145.682 72.7255C145.897 72.5093 145.897 72.1587 145.682 71.9425C145.466 71.7263 145.117 71.7263 144.901 71.9425C144.685 72.1587 144.685 72.5093 144.901 72.7255C145.117 72.9417 145.466 72.9417 145.682 72.7255Z" fill="#2A2E33"/>
<path d="M148.216 68.9496C148.432 68.7333 148.432 68.3828 148.216 68.1665C148 67.9503 147.651 67.9503 147.435 68.1665C147.22 68.3828 147.22 68.7333 147.435 68.9496C147.651 69.1658 148 69.1658 148.216 68.9496Z" fill="#394651"/>
<path d="M148.232 71.4344C148.447 71.2182 148.447 70.8677 148.232 70.6514C148.016 70.4352 147.666 70.4352 147.451 70.6514C147.235 70.8677 147.235 71.2182 147.451 71.4344C147.666 71.6506 148.016 71.6506 148.232 71.4344Z" fill="#2A2E33"/>
<path d="M148.247 73.9195C148.463 73.7033 148.463 73.3527 148.247 73.1365C148.032 72.9203 147.682 72.9203 147.467 73.1365C147.251 73.3527 147.251 73.7033 147.467 73.9195C147.682 74.1357 148.032 74.1357 148.247 73.9195Z" fill="#2A2E33"/>
<path d="M150.623 70.405C150.839 70.1888 150.839 69.8382 150.623 69.622C150.407 69.4058 150.058 69.4058 149.842 69.622C149.626 69.8382 149.626 70.1888 149.842 70.405C150.058 70.6212 150.407 70.6212 150.623 70.405Z" fill="#2A2E33"/>
<path d="M150.54 72.792C150.756 72.5758 150.756 72.2252 150.54 72.009C150.325 71.7928 149.975 71.7928 149.76 72.009C149.544 72.2252 149.544 72.5758 149.76 72.792C149.975 73.0082 150.325 73.0082 150.54 72.792Z" fill="#2A2E33"/>
<path d="M153.075 69.016C153.29 68.7998 153.29 68.4493 153.075 68.233C152.859 68.0168 152.509 68.0168 152.294 68.233C152.078 68.4493 152.078 68.7998 152.294 69.0161C152.509 69.2323 152.859 69.2323 153.075 69.016Z" fill="#2A2E33"/>
<path d="M153.09 71.5009C153.306 71.2847 153.306 70.9342 153.09 70.7179C152.875 70.5017 152.525 70.5017 152.309 70.7179C152.094 70.9342 152.094 71.2847 152.309 71.5009C152.525 71.7171 152.875 71.7171 153.09 71.5009Z" fill="#394651"/>
<path d="M153.106 73.9859C153.322 73.7697 153.322 73.4191 153.106 73.2029C152.89 72.9867 152.541 72.9867 152.325 73.2029C152.11 73.4191 152.11 73.7697 152.325 73.9859C152.541 74.2021 152.89 74.2021 153.106 73.9859Z" fill="#2A2E33"/>
<path d="M155.58 70.3735C155.795 70.1573 155.795 69.8067 155.58 69.5905C155.364 69.3743 155.015 69.3743 154.799 69.5905C154.583 69.8067 154.583 70.1573 154.799 70.3735C155.015 70.5897 155.364 70.5897 155.58 70.3735Z" fill="#2A2E33"/>
<path d="M155.497 72.7607C155.713 72.5445 155.713 72.1939 155.497 71.9777C155.282 71.7615 154.932 71.7615 154.716 71.9777C154.501 72.1939 154.501 72.5445 154.716 72.7607C154.932 72.977 155.282 72.977 155.497 72.7607Z" fill="#2A2E33"/>
<path d="M158.03 68.9846C158.246 68.7684 158.246 68.4178 158.03 68.2016C157.815 67.9854 157.465 67.9854 157.25 68.2016C157.034 68.4178 157.034 68.7684 157.25 68.9846C157.465 69.2008 157.815 69.2008 158.03 68.9846Z" fill="#2A2E33"/>
<path d="M158.046 71.4696C158.262 71.2533 158.262 70.9028 158.046 70.6866C157.831 70.4704 157.481 70.4704 157.265 70.6866C157.05 70.9028 157.05 71.2533 157.265 71.4696C157.481 71.6858 157.831 71.6858 158.046 71.4696Z" fill="#394651"/>
<path d="M158.062 73.9544C158.277 73.7382 158.277 73.3877 158.062 73.1714C157.846 72.9552 157.497 72.9552 157.281 73.1714C157.065 73.3877 157.065 73.7382 157.281 73.9544C157.497 74.1706 157.846 74.1706 158.062 73.9544Z" fill="#2A2E33"/>
<path d="M131.686 71.2348C131.686 72.6189 130.72 73.7263 129.478 73.8647C129.34 73.8647 129.201 73.8647 129.063 73.8647C127.545 73.8647 126.441 72.6189 126.441 71.2348C126.441 69.7123 127.683 68.6049 129.063 68.6049C129.201 68.6049 129.34 68.6049 129.478 68.6049C130.72 68.8818 131.686 69.9891 131.686 71.2348Z" fill="#273850"/>
<path d="M167.988 92.5505H129.477V97.6718H167.988V92.5505Z" fill="#1D242E"/>
<path d="M167.988 95.3188H129.477V93.9347L167.988 93.5194V95.3188Z" fill="#252C36"/>
<path d="M123.542 94.3499V92.5505H162.053V97.8102H123.542V96.0109" fill="#262B31"/>
<path d="M162.053 93.381H123.542V95.3188H162.053V93.381Z" fill="#364151"/>
<path d="M167.437 93.7963H123.818C122.713 93.7963 121.885 92.9658 121.885 91.8585V82.7232C121.885 81.6159 122.713 80.7854 123.818 80.7854H167.437C168.541 80.7854 169.369 81.6159 169.369 82.7232V91.8585C169.369 92.9658 168.541 93.7963 167.437 93.7963Z" fill="#2E3746"/>
<path d="M127.545 80.7854H161.363C162.191 80.7854 162.744 81.4775 162.744 82.1695V92.4122C162.744 93.2426 162.053 93.7963 161.363 93.7963H123.266C122.437 93.7963 121.885 93.1042 121.885 92.4122V82.1695C121.885 81.3391 122.575 80.7854 123.266 80.7854H124.232" fill="#545D71"/>
<path d="M138.302 85.6223C138.518 85.4061 138.518 85.0555 138.302 84.8393C138.087 84.6231 137.737 84.6231 137.522 84.8393C137.306 85.0555 137.306 85.4061 137.522 85.6223C137.737 85.8385 138.087 85.8385 138.302 85.6223Z" fill="#2A2E33"/>
<path d="M138.318 88.1073C138.534 87.8911 138.534 87.5405 138.318 87.3243C138.102 87.1081 137.753 87.1081 137.537 87.3243C137.322 87.5405 137.322 87.8911 137.537 88.1073C137.753 88.3235 138.102 88.3235 138.318 88.1073Z" fill="#2A2E33"/>
<path d="M137.897 90.7511C138.202 90.7511 138.45 90.5033 138.45 90.1975C138.45 89.8917 138.202 89.6438 137.897 89.6438C137.593 89.6438 137.345 89.8917 137.345 90.1975C137.345 90.5033 137.593 90.7511 137.897 90.7511Z" fill="url(#paint1_linear_23:93)"/>
<path d="M140.806 86.9798C141.022 86.7636 141.022 86.413 140.806 86.1968C140.591 85.9806 140.241 85.9806 140.026 86.1968C139.81 86.413 139.81 86.7636 140.026 86.9798C140.241 87.196 140.591 87.196 140.806 86.9798Z" fill="#2A2E33"/>
<path d="M140.725 89.3669C140.94 89.1507 140.94 88.8002 140.725 88.5839C140.509 88.3677 140.16 88.3677 139.944 88.5839C139.728 88.8002 139.728 89.1507 139.944 89.3669C140.16 89.5831 140.509 89.5832 140.725 89.3669Z" fill="#405872"/>
<path d="M143.258 85.5909C143.474 85.3747 143.474 85.0241 143.258 84.8079C143.043 84.5917 142.693 84.5917 142.477 84.8079C142.262 85.0241 142.262 85.3747 142.477 85.5909C142.693 85.8072 143.043 85.8072 143.258 85.5909Z" fill="#2A2E33"/>
<path d="M143.274 88.0758C143.489 87.8595 143.489 87.509 143.274 87.2927C143.058 87.0765 142.709 87.0765 142.493 87.2928C142.277 87.509 142.277 87.8595 142.493 88.0758C142.709 88.292 143.058 88.292 143.274 88.0758Z" fill="#394651"/>
<path d="M143.29 90.5607C143.505 90.3445 143.505 89.9939 143.29 89.7777C143.074 89.5615 142.724 89.5615 142.509 89.7777C142.293 89.9939 142.293 90.3445 142.509 90.5607C142.724 90.7769 143.074 90.7769 143.29 90.5607Z" fill="#2A2E33"/>
<path d="M145.763 86.9484C145.979 86.7322 145.979 86.3817 145.763 86.1655C145.548 85.9492 145.198 85.9492 144.982 86.1655C144.767 86.3817 144.767 86.7322 144.982 86.9484C145.198 87.1647 145.548 87.1647 145.763 86.9484Z" fill="#2A2E33"/>
<path d="M145.681 89.3354C145.896 89.1192 145.896 88.7687 145.681 88.5525C145.465 88.3362 145.115 88.3362 144.9 88.5524C144.684 88.7687 144.684 89.1192 144.9 89.3354C145.115 89.5516 145.465 89.5516 145.681 89.3354Z" fill="#2A2E33"/>
<path d="M148.215 85.5595C148.431 85.3433 148.431 84.9928 148.215 84.7765C147.999 84.5603 147.65 84.5603 147.434 84.7765C147.218 84.9928 147.218 85.3433 147.434 85.5595C147.65 85.7757 147.999 85.7757 148.215 85.5595Z" fill="#2A2E33"/>
<path d="M148.231 88.0445C148.446 87.8283 148.446 87.4777 148.231 87.2615C148.015 87.0453 147.665 87.0453 147.45 87.2615C147.234 87.4777 147.234 87.8283 147.45 88.0445C147.665 88.2607 148.015 88.2607 148.231 88.0445Z" fill="#2A2E33"/>
<path d="M148.246 90.5294C148.462 90.3132 148.462 89.9626 148.246 89.7464C148.031 89.5301 147.681 89.5301 147.465 89.7464C147.25 89.9626 147.25 90.3132 147.465 90.5294C147.681 90.7456 148.031 90.7456 148.246 90.5294Z" fill="#2A2E33"/>
<path d="M150.622 87.0149C150.837 86.7987 150.837 86.4481 150.622 86.2319C150.406 86.0157 150.057 86.0156 149.841 86.2319C149.625 86.4481 149.625 86.7987 149.841 87.0149C150.057 87.2311 150.406 87.2311 150.622 87.0149Z" fill="#2A2E33"/>
<path d="M150.54 89.4019C150.756 89.1857 150.756 88.8352 150.54 88.619C150.325 88.4027 149.975 88.4027 149.76 88.6189C149.544 88.8352 149.544 89.1857 149.76 89.4019C149.975 89.6181 150.325 89.6181 150.54 89.4019Z" fill="#2A2E33"/>
<path d="M152.667 85.7675C152.972 85.7675 153.219 85.5196 153.219 85.2138C153.219 84.908 152.972 84.6602 152.667 84.6602C152.362 84.6602 152.115 84.908 152.115 85.2138C152.115 85.5196 152.362 85.7675 152.667 85.7675Z" fill="url(#paint2_linear_23:93)"/>
<path d="M153.089 88.111C153.305 87.8948 153.305 87.5442 153.089 87.328C152.874 87.1118 152.524 87.1118 152.309 87.328C152.093 87.5442 152.093 87.8948 152.308 88.111C152.524 88.3272 152.874 88.3272 153.089 88.111Z" fill="#394651"/>
<path d="M153.105 90.596C153.321 90.3797 153.321 90.0292 153.105 89.813C152.889 89.5968 152.54 89.5968 152.324 89.813C152.109 90.0292 152.109 90.3797 152.324 90.596C152.54 90.8122 152.889 90.8122 153.105 90.596Z" fill="#2A2E33"/>
<path d="M155.578 86.9836C155.793 86.7674 155.793 86.4168 155.578 86.2006C155.362 85.9844 155.012 85.9844 154.797 86.2006C154.581 86.4168 154.581 86.7674 154.797 86.9836C155.012 87.1998 155.362 87.1998 155.578 86.9836Z" fill="#2A2E33"/>
<path d="M155.496 89.3707C155.712 89.1544 155.712 88.8039 155.496 88.5876C155.281 88.3714 154.931 88.3714 154.715 88.5876C154.5 88.8039 154.5 89.1544 154.715 89.3707C154.931 89.5869 155.281 89.5869 155.496 89.3707Z" fill="#2A2E33"/>
<path d="M158.029 85.5946C158.245 85.3784 158.245 85.0278 158.029 84.8116C157.814 84.5954 157.464 84.5954 157.249 84.8116C157.033 85.0278 157.033 85.3784 157.249 85.5946C157.464 85.8108 157.814 85.8108 158.029 85.5946Z" fill="#2A2E33"/>
<path d="M158.045 88.0795C158.261 87.8633 158.261 87.5127 158.045 87.2965C157.83 87.0803 157.48 87.0803 157.264 87.2965C157.049 87.5127 157.049 87.8633 157.264 88.0795C157.48 88.2957 157.83 88.2957 158.045 88.0795Z" fill="#2A2E33"/>
<path d="M158.061 90.5646C158.276 90.3483 158.276 89.9978 158.061 89.7815C157.845 89.5653 157.496 89.5653 157.28 89.7815C157.064 89.9978 157.064 90.3483 157.28 90.5645C157.496 90.7808 157.845 90.7808 158.061 90.5646Z" fill="#2A2E33"/>
<path d="M131.686 87.8445C131.686 89.2286 130.72 90.3359 129.478 90.4743C129.34 90.4743 129.201 90.4743 129.063 90.4743C127.545 90.4743 126.441 89.2286 126.441 87.8445C126.441 86.3219 127.683 85.2146 129.063 85.2146C129.201 85.2146 129.34 85.2146 129.478 85.2146C130.72 85.4915 131.686 86.5988 131.686 87.8445Z" fill="#273850"/>
<path d="M167.988 109.16H129.477V114.282H167.988V109.16Z" fill="#1D242E"/>
<path d="M167.988 111.929H129.477V110.544L167.988 106.392V111.929Z" fill="#252C36"/>
<path d="M123.542 110.96V109.16H162.053V114.42H123.542V112.621" fill="#262B31"/>
<path d="M162.053 109.299H123.542V111.928H162.053V109.299Z" fill="#364151"/>
<path d="M167.437 110.406H123.818C122.713 110.406 121.885 109.575 121.885 108.468V99.3328C121.885 98.2255 122.713 97.3951 123.818 97.3951H167.437C168.541 97.3951 169.369 98.2255 169.369 99.3328V108.468C169.369 109.575 168.541 110.406 167.437 110.406Z" fill="#2E3746"/>
<path d="M127.545 97.3951H161.363C162.191 97.3951 162.744 98.0871 162.744 98.7792V109.022C162.744 109.852 162.053 110.406 161.363 110.406H123.266C122.437 110.406 121.885 109.714 121.885 109.022V98.7792C121.885 97.9487 122.575 97.3951 123.266 97.3951H124.232" fill="#545D71"/>
<path d="M138.301 102.232C138.517 102.016 138.517 101.666 138.301 101.449C138.085 101.233 137.736 101.233 137.52 101.449C137.305 101.666 137.305 102.016 137.52 102.232C137.736 102.449 138.085 102.449 138.301 102.232Z" fill="#2A2E33"/>
<path d="M138.317 104.717C138.532 104.501 138.532 104.15 138.317 103.934C138.101 103.718 137.752 103.718 137.536 103.934C137.32 104.15 137.32 104.501 137.536 104.717C137.752 104.933 138.101 104.933 138.317 104.717Z" fill="#2A2E33"/>
<path d="M138.332 107.202C138.548 106.986 138.548 106.635 138.332 106.419C138.117 106.203 137.767 106.203 137.552 106.419C137.336 106.635 137.336 106.986 137.552 107.202C137.767 107.418 138.117 107.418 138.332 107.202Z" fill="#394651"/>
<path d="M140.381 103.762C140.686 103.762 140.934 103.514 140.934 103.208C140.934 102.903 140.686 102.655 140.381 102.655C140.077 102.655 139.829 102.903 139.829 103.208C139.829 103.514 140.077 103.762 140.381 103.762Z" fill="url(#paint3_linear_23:93)"/>
<path d="M140.724 105.977C140.939 105.761 140.939 105.41 140.724 105.194C140.508 104.978 140.158 104.978 139.943 105.194C139.727 105.41 139.727 105.761 139.943 105.977C140.158 106.193 140.508 106.193 140.724 105.977Z" fill="#2A2E33"/>
<path d="M143.258 102.201C143.474 101.985 143.474 101.634 143.258 101.418C143.042 101.202 142.693 101.202 142.477 101.418C142.262 101.634 142.262 101.985 142.477 102.201C142.693 102.417 143.042 102.417 143.258 102.201Z" fill="#2A2E33"/>
<path d="M143.273 104.686C143.488 104.47 143.488 104.119 143.273 103.903C143.057 103.687 142.707 103.687 142.492 103.903C142.276 104.119 142.276 104.47 142.492 104.686C142.707 104.902 143.057 104.902 143.273 104.686Z" fill="#394651"/>
<path d="M143.288 107.171C143.504 106.954 143.504 106.604 143.288 106.388C143.073 106.171 142.723 106.171 142.507 106.388C142.292 106.604 142.292 106.954 142.507 107.171C142.723 107.387 143.073 107.387 143.288 107.171Z" fill="#394651"/>
<path d="M145.762 103.558C145.978 103.342 145.978 102.992 145.762 102.775C145.546 102.559 145.197 102.559 144.981 102.775C144.766 102.992 144.766 103.342 144.981 103.558C145.197 103.775 145.546 103.775 145.762 103.558Z" fill="#394651"/>
<path d="M145.679 105.945C145.895 105.729 145.895 105.379 145.679 105.162C145.464 104.946 145.114 104.946 144.899 105.162C144.683 105.379 144.683 105.729 144.899 105.945C145.114 106.162 145.464 106.162 145.679 105.945Z" fill="#2A2E33"/>
<path d="M148.214 102.17C148.429 101.953 148.429 101.603 148.214 101.387C147.998 101.17 147.649 101.17 147.433 101.387C147.217 101.603 147.217 101.953 147.433 102.17C147.649 102.386 147.998 102.386 148.214 102.17Z" fill="#394651"/>
<path d="M148.229 104.654C148.445 104.438 148.445 104.088 148.229 103.871C148.014 103.655 147.664 103.655 147.449 103.871C147.233 104.088 147.233 104.438 147.449 104.654C147.664 104.871 148.014 104.871 148.229 104.654Z" fill="#2A2E33"/>
<path d="M148.245 107.139C148.461 106.923 148.461 106.573 148.245 106.356C148.03 106.14 147.68 106.14 147.464 106.356C147.249 106.573 147.249 106.923 147.464 107.139C147.68 107.356 148.03 107.356 148.245 107.139Z" fill="#2A2E33"/>
<path d="M150.621 103.625C150.836 103.409 150.836 103.058 150.621 102.842C150.405 102.626 150.055 102.626 149.84 102.842C149.624 103.058 149.624 103.409 149.84 103.625C150.055 103.841 150.405 103.841 150.621 103.625Z" fill="#2A2E33"/>
<path d="M150.538 106.012C150.754 105.796 150.754 105.445 150.538 105.229C150.322 105.013 149.973 105.013 149.757 105.229C149.542 105.445 149.542 105.796 149.757 106.012C149.973 106.228 150.322 106.228 150.538 106.012Z" fill="#394651"/>
<path d="M153.072 102.236C153.288 102.02 153.288 101.669 153.072 101.453C152.857 101.237 152.507 101.237 152.292 101.453C152.076 101.669 152.076 102.02 152.292 102.236C152.507 102.452 152.857 102.452 153.072 102.236Z" fill="#2A2E33"/>
<path d="M153.088 104.721C153.304 104.505 153.304 104.154 153.088 103.938C152.872 103.722 152.523 103.722 152.307 103.938C152.092 104.154 152.092 104.505 152.307 104.721C152.523 104.937 152.872 104.937 153.088 104.721Z" fill="#2A2E33"/>
<path d="M152.667 107.361C152.971 107.361 153.219 107.113 153.219 106.807C153.219 106.501 152.971 106.254 152.667 106.254C152.362 106.254 152.114 106.501 152.114 106.807C152.114 107.113 152.362 107.361 152.667 107.361Z" fill="url(#paint4_linear_23:93)"/>
<path d="M155.577 103.593C155.793 103.377 155.793 103.027 155.577 102.81C155.362 102.594 155.012 102.594 154.797 102.81C154.581 103.027 154.581 103.377 154.797 103.593C155.012 103.81 155.362 103.81 155.577 103.593Z" fill="#394651"/>
<path d="M155.495 105.981C155.711 105.764 155.711 105.414 155.495 105.198C155.279 104.981 154.93 104.981 154.714 105.198C154.499 105.414 154.499 105.764 154.714 105.981C154.93 106.197 155.279 106.197 155.495 105.981Z" fill="#2A2E33"/>
<path d="M158.028 102.205C158.244 101.988 158.244 101.638 158.028 101.422C157.813 101.205 157.463 101.205 157.247 101.422C157.032 101.638 157.032 101.988 157.247 102.205C157.463 102.421 157.813 102.421 158.028 102.205Z" fill="#2A2E33"/>
<path d="M158.044 104.69C158.26 104.473 158.26 104.123 158.044 103.907C157.828 103.69 157.479 103.69 157.263 103.907C157.047 104.123 157.047 104.473 157.263 104.69C157.479 104.906 157.828 104.906 158.044 104.69Z" fill="#394651"/>
<path d="M158.06 107.175C158.275 106.958 158.275 106.608 158.06 106.392C157.844 106.175 157.494 106.175 157.279 106.392C157.063 106.608 157.063 106.958 157.279 107.175C157.494 107.391 157.844 107.391 158.06 107.175Z" fill="#2A2E33"/>
<path d="M131.686 104.454C131.686 105.838 130.72 106.946 129.478 107.084C129.34 107.084 129.201 107.084 129.063 107.084C127.545 107.084 126.441 105.838 126.441 104.454C126.441 102.932 127.683 101.824 129.063 101.824C129.201 101.824 129.34 101.824 129.478 101.824C130.72 102.101 131.686 103.208 131.686 104.454Z" fill="#273850"/>
<path d="M131.686 71.2348C131.686 72.6189 130.719 73.7263 129.477 73.8647C128.235 73.7263 127.269 72.4805 127.269 71.2348C127.269 69.8507 128.235 68.7434 129.477 68.6049C130.719 68.8818 131.686 69.9891 131.686 71.2348Z" fill="#364151"/>
<path d="M131.686 87.8445C131.686 89.2286 130.719 90.3359 129.477 90.4743C128.235 90.3359 127.269 89.0902 127.269 87.8445C127.269 86.4604 128.235 85.353 129.477 85.2146C130.719 85.4915 131.686 86.5988 131.686 87.8445Z" fill="#364151"/>
<path d="M131.686 104.454C131.686 105.838 130.719 106.946 129.477 107.084C128.235 106.946 127.269 105.838 127.269 104.454C127.269 103.07 128.235 101.963 129.477 101.824C130.719 102.101 131.686 103.208 131.686 104.454Z" fill="#364151"/>
<path opacity="0.1" d="M156.394 64.1757H137.759V114.282H156.394V64.1757Z" fill="black"/>
<path d="M137.344 75.9409H98.8322V81.0622H137.344V75.9409Z" fill="#25303F"/>
<path d="M137.344 78.7091H98.8322V77.325L137.344 73.1726V78.7091Z" fill="#273850"/>
<path d="M93.035 77.7403V75.9409H131.547V81.2006H93.035V79.4012" fill="#262B31"/>
<path d="M131.547 76.9098H93.035V78.7092H131.547V76.9098Z" fill="#364151"/>
<path d="M136.931 77.1867H93.3116C92.2074 77.1867 91.3792 76.3562 91.3792 75.2489V66.1136C91.3792 65.0063 92.2074 64.1758 93.3116 64.1758H136.931C138.035 64.1758 138.863 65.0063 138.863 66.1136V75.2489C138.863 76.3562 138.035 77.1867 136.931 77.1867Z" fill="#2E3746"/>
<path d="M96.9005 64.1758H130.719C131.547 64.1758 132.099 64.8679 132.099 65.5599V75.8025C132.099 76.633 131.409 77.1867 130.719 77.1867H92.7595C91.9313 77.1867 91.3792 76.4946 91.3792 75.8025V65.5599C91.3792 64.7294 92.0693 64.1758 92.7595 64.1758H93.7257" fill="#545D71"/>
<path d="M107.792 68.9973C108.007 68.7811 108.007 68.4306 107.792 68.2144C107.576 67.9982 107.226 67.9982 107.011 68.2144C106.795 68.4306 106.795 68.7811 107.011 68.9973C107.226 69.2135 107.576 69.2135 107.792 68.9973Z" fill="#2A2E33"/>
<path d="M107.807 71.4822C108.023 71.266 108.023 70.9154 107.807 70.6992C107.592 70.483 107.242 70.483 107.026 70.6992C106.811 70.9154 106.811 71.266 107.026 71.4822C107.242 71.6984 107.592 71.6984 107.807 71.4822Z" fill="#2A2E33"/>
<path d="M107.823 73.9672C108.039 73.751 108.039 73.4004 107.823 73.1842C107.607 72.968 107.258 72.968 107.042 73.1842C106.827 73.4004 106.827 73.751 107.042 73.9672C107.258 74.1834 107.607 74.1834 107.823 73.9672Z" fill="#2A2E33"/>
<path d="M110.296 70.3549C110.511 70.1387 110.511 69.7882 110.296 69.572C110.08 69.3558 109.73 69.3558 109.515 69.572C109.299 69.7882 109.299 70.1387 109.515 70.3549C109.73 70.5711 110.08 70.5711 110.296 70.3549Z" fill="#394651"/>
<path d="M110.214 72.7419C110.43 72.5257 110.43 72.1752 110.214 71.959C109.999 71.7427 109.649 71.7427 109.433 71.959C109.218 72.1752 109.218 72.5257 109.433 72.7419C109.649 72.9581 109.999 72.9581 110.214 72.7419Z" fill="#2A2E33"/>
<path d="M112.747 68.966C112.963 68.7498 112.963 68.3993 112.747 68.183C112.532 67.9668 112.182 67.9668 111.967 68.183C111.751 68.3993 111.751 68.7498 111.967 68.966C112.182 69.1822 112.532 69.1822 112.747 68.966Z" fill="#2A2E33"/>
<path d="M112.764 71.4508C112.98 71.2346 112.98 70.8841 112.764 70.6679C112.549 70.4517 112.199 70.4517 111.983 70.6679C111.768 70.8841 111.768 71.2346 111.983 71.4508C112.199 71.667 112.549 71.667 112.764 71.4508Z" fill="#2A2E33"/>
<path d="M112.36 74.1416C112.665 74.1416 112.913 73.8937 112.913 73.5879C112.913 73.2822 112.665 73.0343 112.36 73.0343C112.055 73.0343 111.808 73.2822 111.808 73.5879C111.808 73.8937 112.055 74.1416 112.36 74.1416Z" fill="url(#paint5_linear_23:93)"/>
<path d="M115.252 70.3235C115.467 70.1073 115.467 69.7568 115.252 69.5406C115.036 69.3244 114.686 69.3244 114.471 69.5406C114.255 69.7568 114.255 70.1073 114.471 70.3235C114.686 70.5397 115.036 70.5397 115.252 70.3235Z" fill="#394651"/>
<path d="M115.17 72.7106C115.386 72.4944 115.386 72.1438 115.17 71.9276C114.954 71.7114 114.605 71.7114 114.389 71.9276C114.173 72.1438 114.173 72.4944 114.389 72.7106C114.605 72.9268 114.954 72.9268 115.17 72.7106Z" fill="#2A2E33"/>
<path d="M117.606 69.0324C117.822 68.8162 117.822 68.4657 117.606 68.2495C117.391 68.0333 117.041 68.0333 116.825 68.2495C116.61 68.4657 116.61 68.8162 116.825 69.0324C117.041 69.2486 117.391 69.2486 117.606 69.0324Z" fill="#394651"/>
<path d="M117.622 71.5175C117.837 71.3012 117.837 70.9507 117.622 70.7345C117.406 70.5183 117.057 70.5183 116.841 70.7345C116.625 70.9507 116.625 71.3012 116.841 71.5175C117.057 71.7337 117.406 71.7337 117.622 71.5175Z" fill="#2A2E33"/>
<path d="M117.637 74.0023C117.853 73.7861 117.853 73.4355 117.637 73.2193C117.422 73.0031 117.072 73.0031 116.857 73.2193C116.641 73.4355 116.641 73.7861 116.857 74.0023C117.072 74.2185 117.422 74.2185 117.637 74.0023Z" fill="#2A2E33"/>
<path d="M120.111 70.39C120.327 70.1738 120.327 69.8233 120.111 69.6071C119.896 69.3909 119.546 69.3909 119.33 69.6071C119.115 69.8233 119.115 70.1738 119.33 70.39C119.546 70.6062 119.896 70.6062 120.111 70.39Z" fill="#2A2E33"/>
<path d="M120.029 72.777C120.244 72.5608 120.244 72.2103 120.029 71.9941C119.813 71.7779 119.463 71.7779 119.248 71.9941C119.032 72.2103 119.032 72.5608 119.248 72.777C119.463 72.9932 119.813 72.9932 120.029 72.777Z" fill="#2A2E33"/>
<path d="M122.563 69.0011C122.779 68.7849 122.779 68.4344 122.563 68.2182C122.347 68.002 121.998 68.002 121.782 68.2182C121.567 68.4344 121.567 68.7849 121.782 69.0011C121.998 69.2173 122.347 69.2173 122.563 69.0011Z" fill="#2A2E33"/>
<path d="M122.579 71.486C122.794 71.2698 122.794 70.9193 122.579 70.7031C122.363 70.4869 122.013 70.4869 121.798 70.7031C121.582 70.9193 121.582 71.2698 121.798 71.486C122.013 71.7022 122.363 71.7022 122.579 71.486Z" fill="#394651"/>
<path d="M122.594 73.9709C122.81 73.7547 122.81 73.4042 122.594 73.188C122.379 72.9718 122.029 72.9718 121.814 73.188C121.598 73.4042 121.598 73.7547 121.814 73.9709C122.029 74.1872 122.379 74.1872 122.594 73.9709Z" fill="#2A2E33"/>
<path d="M125.067 70.3586C125.283 70.1424 125.283 69.7918 125.067 69.5756C124.851 69.3594 124.502 69.3594 124.286 69.5756C124.071 69.7918 124.071 70.1424 124.286 70.3586C124.502 70.5748 124.851 70.5748 125.067 70.3586Z" fill="#2A2E33"/>
<path d="M124.986 72.7456C125.201 72.5294 125.201 72.1788 124.985 71.9626C124.77 71.7464 124.42 71.7464 124.205 71.9626C123.989 72.1788 123.989 72.5294 124.205 72.7456C124.42 72.9618 124.77 72.9618 124.986 72.7456Z" fill="#2A2E33"/>
<path d="M127.519 68.9695C127.734 68.7533 127.734 68.4028 127.519 68.1866C127.303 67.9703 126.954 67.9703 126.738 68.1866C126.522 68.4028 126.522 68.7533 126.738 68.9695C126.954 69.1857 127.303 69.1857 127.519 68.9695Z" fill="#2A2E33"/>
<path d="M127.534 71.4546C127.75 71.2384 127.75 70.8879 127.534 70.6717C127.319 70.4555 126.969 70.4555 126.754 70.6717C126.538 70.8879 126.538 71.2384 126.754 71.4546C126.969 71.6708 127.319 71.6708 127.534 71.4546Z" fill="#394651"/>
<path d="M127.55 73.9396C127.766 73.7234 127.766 73.3729 127.55 73.1566C127.335 72.9404 126.985 72.9404 126.769 73.1566C126.554 73.3729 126.554 73.7234 126.769 73.9396C126.985 74.1558 127.335 74.1558 127.55 73.9396Z" fill="#2A2E33"/>
<path d="M101.179 71.2348C101.179 72.619 100.213 73.7263 98.9708 73.8647C98.8328 73.8647 98.6948 73.8647 98.5567 73.8647C97.0384 73.8647 95.9341 72.619 95.9341 71.2348C95.9341 69.7123 97.1764 68.605 98.5567 68.605C98.6948 68.605 98.8328 68.605 98.9708 68.605C100.213 68.8818 101.179 69.9891 101.179 71.2348Z" fill="#273850"/>
<path d="M137.344 92.5505H98.8322V97.6719H137.344V92.5505Z" fill="#25303F"/>
<path d="M137.344 95.3188H98.8322V93.9347L137.344 93.5195V95.3188Z" fill="#273850"/>
<path d="M93.035 94.3499V92.5505H131.547V97.8103H93.035V96.0109" fill="#262B31"/>
<path d="M131.547 93.381H93.035V95.3188H131.547V93.381Z" fill="#364151"/>
<path d="M136.93 93.7963H93.311C92.2068 93.7963 91.3785 92.9658 91.3785 91.8585V82.7232C91.3785 81.6159 92.2068 80.7854 93.311 80.7854H136.93C138.034 80.7854 138.862 81.6159 138.862 82.7232V91.8585C138.862 92.9658 138.034 93.7963 136.93 93.7963Z" fill="#2E3746"/>
<path d="M96.8999 80.7854H130.718C131.547 80.7854 132.099 81.4775 132.099 82.1696V92.4122C132.099 93.2427 131.409 93.7963 130.718 93.7963H92.7589C91.9307 93.7963 91.3785 93.1043 91.3785 92.4122V82.1696C91.3785 81.3391 92.0687 80.7854 92.7589 80.7854H93.7251" fill="#545D71"/>
<path d="M107.789 85.6074C108.005 85.3912 108.005 85.0406 107.789 84.8244C107.574 84.6082 107.224 84.6082 107.009 84.8244C106.793 85.0406 106.793 85.3912 107.009 85.6074C107.224 85.8236 107.574 85.8236 107.789 85.6074Z" fill="#2A2E33"/>
<path d="M107.805 88.0923C108.021 87.8761 108.021 87.5256 107.805 87.3094C107.589 87.0932 107.24 87.0932 107.024 87.3094C106.809 87.5256 106.809 87.8761 107.024 88.0923C107.24 88.3085 107.589 88.3085 107.805 88.0923Z" fill="#2A2E33"/>
<path d="M107.39 90.7512C107.695 90.7512 107.942 90.5033 107.942 90.1975C107.942 89.8918 107.695 89.6439 107.39 89.6439C107.085 89.6439 106.838 89.8918 106.838 90.1975C106.838 90.5033 107.085 90.7512 107.39 90.7512Z" fill="url(#paint6_linear_23:93)"/>
<path d="M110.293 86.9648C110.509 86.7486 110.509 86.3981 110.293 86.1819C110.078 85.9656 109.728 85.9656 109.513 86.1819C109.297 86.3981 109.297 86.7486 109.513 86.9648C109.728 87.181 110.078 87.181 110.293 86.9648Z" fill="#2A2E33"/>
<path d="M110.212 89.352C110.428 89.1358 110.428 88.7852 110.212 88.569C109.996 88.3528 109.647 88.3528 109.431 88.569C109.215 88.7852 109.215 89.1358 109.431 89.352C109.647 89.5682 109.996 89.5682 110.212 89.352Z" fill="#405872"/>
<path d="M112.745 85.5759C112.961 85.3597 112.961 85.0091 112.745 84.7929C112.53 84.5767 112.18 84.5767 111.964 84.7929C111.749 85.0091 111.749 85.3597 111.964 85.5759C112.18 85.7921 112.53 85.7921 112.745 85.5759Z" fill="#2A2E33"/>
<path d="M112.762 88.0608C112.978 87.8446 112.978 87.494 112.762 87.2778C112.546 87.0616 112.197 87.0617 111.981 87.2779C111.766 87.494 111.766 87.8446 111.981 88.0608C112.197 88.277 112.546 88.277 112.762 88.0608Z" fill="#394651"/>
<path d="M112.777 90.546C112.992 90.3298 112.992 89.9792 112.777 89.763C112.561 89.5468 112.211 89.5468 111.996 89.763C111.78 89.9792 111.78 90.3298 111.996 90.546C112.211 90.7622 112.561 90.7622 112.777 90.546Z" fill="#2A2E33"/>
<path d="M115.25 86.9335C115.466 86.7173 115.466 86.3667 115.25 86.1505C115.035 85.9343 114.685 85.9343 114.47 86.1505C114.254 86.3667 114.254 86.7173 114.47 86.9335C114.685 87.1497 115.035 87.1497 115.25 86.9335Z" fill="#2A2E33"/>
<path d="M115.168 89.3206C115.383 89.1044 115.383 88.7538 115.168 88.5376C114.952 88.3214 114.603 88.3214 114.387 88.5376C114.171 88.7538 114.171 89.1044 114.387 89.3206C114.603 89.5368 114.952 89.5368 115.168 89.3206Z" fill="#2A2E33"/>
<path d="M117.605 85.6424C117.821 85.4262 117.821 85.0756 117.605 84.8594C117.389 84.6432 117.04 84.6432 116.824 84.8594C116.609 85.0756 116.609 85.4262 116.824 85.6424C117.04 85.8586 117.389 85.8586 117.605 85.6424Z" fill="#2A2E33"/>
<path d="M117.62 88.1273C117.835 87.9111 117.835 87.5606 117.62 87.3444C117.404 87.1282 117.054 87.1282 116.839 87.3444C116.623 87.5606 116.623 87.9111 116.839 88.1273C117.054 88.3435 117.404 88.3435 117.62 88.1273Z" fill="#2A2E33"/>
<path d="M117.635 90.6122C117.851 90.396 117.851 90.0454 117.635 89.8292C117.42 89.613 117.07 89.613 116.854 89.8292C116.639 90.0454 116.639 90.396 116.854 90.6122C117.07 90.8284 117.42 90.8284 117.635 90.6122Z" fill="#2A2E33"/>
<path d="M120.109 87C120.325 86.7838 120.325 86.4333 120.109 86.2171C119.893 86.0009 119.544 86.0009 119.328 86.2171C119.113 86.4333 119.113 86.7838 119.328 87C119.544 87.2162 119.893 87.2162 120.109 87Z" fill="#2A2E33"/>
<path d="M120.028 89.387C120.243 89.1708 120.243 88.8203 120.028 88.6041C119.812 88.3879 119.462 88.3879 119.247 88.6041C119.031 88.8203 119.031 89.1708 119.247 89.387C119.462 89.6032 119.812 89.6032 120.028 89.387Z" fill="#2A2E33"/>
<path d="M122.16 85.7677C122.465 85.7677 122.712 85.5198 122.712 85.214C122.712 84.9083 122.465 84.6604 122.16 84.6604C121.855 84.6604 121.608 84.9083 121.608 85.214C121.608 85.5198 121.855 85.7677 122.16 85.7677Z" fill="url(#paint7_linear_23:93)"/>
<path d="M122.576 88.0959C122.792 87.8797 122.792 87.5291 122.576 87.3129C122.361 87.0967 122.011 87.0967 121.796 87.3129C121.58 87.5291 121.58 87.8797 121.796 88.0959C122.011 88.3121 122.361 88.3121 122.576 88.0959Z" fill="#394651"/>
<path d="M122.592 90.5809C122.808 90.3647 122.808 90.0142 122.592 89.798C122.377 89.5818 122.027 89.5818 121.811 89.798C121.596 90.0142 121.596 90.3647 121.811 90.5809C122.027 90.7971 122.377 90.7971 122.592 90.5809Z" fill="#2A2E33"/>
<path d="M125.065 86.9686C125.28 86.7524 125.28 86.4019 125.065 86.1856C124.849 85.9694 124.5 85.9694 124.284 86.1856C124.068 86.4018 124.068 86.7524 124.284 86.9686C124.5 87.1848 124.849 87.1848 125.065 86.9686Z" fill="#2A2E33"/>
<path d="M124.983 89.3556C125.199 89.1394 125.199 88.7888 124.983 88.5726C124.768 88.3564 124.418 88.3564 124.202 88.5726C123.987 88.7888 123.987 89.1394 124.202 89.3556C124.418 89.5718 124.768 89.5718 124.983 89.3556Z" fill="#2A2E33"/>
<path d="M127.517 85.5797C127.732 85.3635 127.732 85.0129 127.517 84.7967C127.301 84.5805 126.951 84.5805 126.736 84.7967C126.52 85.0129 126.52 85.3635 126.736 85.5797C126.951 85.7959 127.301 85.7959 127.517 85.5797Z" fill="#2A2E33"/>
<path d="M127.532 88.0646C127.748 87.8484 127.748 87.4979 127.532 87.2817C127.317 87.0655 126.967 87.0655 126.751 87.2817C126.536 87.4979 126.536 87.8484 126.751 88.0646C126.967 88.2808 127.317 88.2808 127.532 88.0646Z" fill="#2A2E33"/>
<path d="M127.548 90.5495C127.764 90.3333 127.764 89.9827 127.548 89.7665C127.332 89.5503 126.983 89.5503 126.767 89.7665C126.552 89.9827 126.552 90.3333 126.767 90.5495C126.983 90.7657 127.332 90.7657 127.548 90.5495Z" fill="#2A2E33"/>
<path d="M101.179 87.8445C101.179 89.2287 100.213 90.336 98.9708 90.4744C98.8328 90.4744 98.6948 90.4744 98.5567 90.4744C97.0384 90.4744 95.9341 89.2287 95.9341 87.8445C95.9341 86.322 97.1764 85.2147 98.5567 85.2147C98.6948 85.2147 98.8328 85.2147 98.9708 85.2147C100.213 85.4915 101.179 86.5988 101.179 87.8445Z" fill="#273850"/>
<path d="M137.344 109.16H98.8322V114.282H137.344V109.16Z" fill="#25303F"/>
<path d="M137.344 111.929H98.8322V110.544L137.344 106.392V111.929Z" fill="#273850"/>
<path d="M93.035 110.96V109.16H131.547V114.42H93.035V112.621" fill="#262B31"/>
<path d="M131.547 109.299H93.035V111.929H131.547V109.299Z" fill="#364151"/>
<path d="M136.93 110.406H93.311C92.2068 110.406 91.3785 109.576 91.3785 108.468V99.3329C91.3785 98.2256 92.2068 97.3951 93.311 97.3951H136.93C138.034 97.3951 138.862 98.2256 138.862 99.3329V108.468C138.862 109.576 138.034 110.406 136.93 110.406Z" fill="#2E3746"/>
<path d="M96.8999 97.3951H130.718C131.547 97.3951 132.099 98.0871 132.099 98.7792V109.022C132.099 109.852 131.409 110.406 130.718 110.406H92.7589C91.9307 110.406 91.3785 109.714 91.3785 109.022V98.7792C91.3785 97.9487 92.0687 97.3951 92.7589 97.3951H93.7251" fill="#545D71"/>
<path d="M107.788 102.217C108.004 102.001 108.004 101.651 107.788 101.434C107.573 101.218 107.223 101.218 107.007 101.434C106.792 101.651 106.792 102.001 107.007 102.217C107.223 102.434 107.573 102.434 107.788 102.217Z" fill="#2A2E33"/>
<path d="M107.804 104.702C108.02 104.486 108.02 104.136 107.804 103.919C107.588 103.703 107.239 103.703 107.023 103.919C106.808 104.136 106.808 104.486 107.023 104.702C107.239 104.918 107.588 104.918 107.804 104.702Z" fill="#2A2E33"/>
<path d="M107.82 107.187C108.035 106.971 108.035 106.621 107.82 106.404C107.604 106.188 107.254 106.188 107.039 106.404C106.823 106.621 106.823 106.971 107.039 107.187C107.254 107.403 107.604 107.403 107.82 107.187Z" fill="#394651"/>
<path d="M109.875 103.762C110.18 103.762 110.427 103.514 110.427 103.208C110.427 102.903 110.18 102.655 109.875 102.655C109.57 102.655 109.323 102.903 109.323 103.208C109.323 103.514 109.57 103.762 109.875 103.762Z" fill="url(#paint8_linear_23:93)"/>
<path d="M110.211 105.962C110.427 105.746 110.427 105.395 110.211 105.179C109.995 104.963 109.646 104.963 109.43 105.179C109.214 105.395 109.214 105.746 109.43 105.962C109.646 106.178 109.995 106.178 110.211 105.962Z" fill="#2A2E33"/>
<path d="M112.745 102.186C112.961 101.97 112.961 101.619 112.745 101.403C112.53 101.187 112.18 101.187 111.964 101.403C111.749 101.619 111.749 101.97 111.964 102.186C112.18 102.402 112.53 102.402 112.745 102.186Z" fill="#2A2E33"/>
<path d="M112.761 104.671C112.977 104.455 112.977 104.104 112.761 103.888C112.545 103.672 112.196 103.672 111.98 103.888C111.764 104.104 111.764 104.455 111.98 104.671C112.196 104.887 112.545 104.887 112.761 104.671Z" fill="#394651"/>
<path d="M112.776 107.156C112.991 106.94 112.991 106.589 112.776 106.373C112.56 106.157 112.21 106.157 111.995 106.373C111.779 106.589 111.779 106.94 111.995 107.156C112.21 107.372 112.56 107.372 112.776 107.156Z" fill="#394651"/>
<path d="M115.249 103.543C115.465 103.327 115.465 102.977 115.249 102.761C115.034 102.544 114.684 102.544 114.468 102.761C114.253 102.977 114.253 103.327 114.468 103.543C114.684 103.76 115.034 103.76 115.249 103.543Z" fill="#394651"/>
<path d="M115.167 105.931C115.382 105.714 115.382 105.364 115.167 105.148C114.951 104.932 114.602 104.932 114.386 105.148C114.17 105.364 114.17 105.714 114.386 105.931C114.602 106.147 114.951 106.147 115.167 105.931Z" fill="#2A2E33"/>
<path d="M117.603 102.252C117.818 102.036 117.818 101.686 117.603 101.47C117.387 101.253 117.038 101.253 116.822 101.47C116.606 101.686 116.606 102.036 116.822 102.252C117.038 102.469 117.387 102.469 117.603 102.252Z" fill="#394651"/>
<path d="M117.62 104.737C117.835 104.521 117.835 104.171 117.62 103.954C117.404 103.738 117.054 103.738 116.839 103.954C116.623 104.171 116.623 104.521 116.839 104.737C117.054 104.954 117.404 104.954 117.62 104.737Z" fill="#2A2E33"/>
<path d="M117.634 107.222C117.85 107.006 117.85 106.656 117.634 106.439C117.419 106.223 117.069 106.223 116.853 106.439C116.638 106.656 116.638 107.006 116.853 107.222C117.069 107.439 117.419 107.439 117.634 107.222Z" fill="#2A2E33"/>
<path d="M120.108 103.61C120.324 103.394 120.324 103.043 120.108 102.827C119.892 102.611 119.543 102.611 119.327 102.827C119.111 103.043 119.111 103.394 119.327 103.61C119.543 103.826 119.892 103.826 120.108 103.61Z" fill="#2A2E33"/>
<path d="M120.025 105.997C120.241 105.781 120.241 105.43 120.025 105.214C119.81 104.998 119.46 104.998 119.245 105.214C119.029 105.43 119.029 105.781 119.245 105.997C119.46 106.213 119.81 106.213 120.025 105.997Z" fill="#394651"/>
<path d="M122.56 102.221C122.775 102.005 122.775 101.654 122.56 101.438C122.344 101.222 121.994 101.222 121.779 101.438C121.563 101.654 121.563 102.005 121.779 102.221C121.994 102.437 122.344 102.437 122.56 102.221Z" fill="#2A2E33"/>
<path d="M122.575 104.706C122.791 104.49 122.791 104.139 122.575 103.923C122.36 103.707 122.01 103.707 121.795 103.923C121.579 104.139 121.579 104.49 121.795 104.706C122.01 104.922 122.36 104.922 122.575 104.706Z" fill="#2A2E33"/>
<path d="M122.16 107.361C122.465 107.361 122.712 107.113 122.712 106.807C122.712 106.501 122.465 106.254 122.16 106.254C121.855 106.254 121.608 106.501 121.608 106.807C121.608 107.113 121.855 107.361 122.16 107.361Z" fill="url(#paint9_linear_23:93)"/>
<path d="M125.065 103.579C125.28 103.362 125.28 103.012 125.065 102.796C124.849 102.579 124.5 102.579 124.284 102.796C124.068 103.012 124.068 103.362 124.284 103.579C124.5 103.795 124.849 103.795 125.065 103.579Z" fill="#394651"/>
<path d="M124.982 105.966C125.198 105.749 125.198 105.399 124.982 105.183C124.767 104.967 124.417 104.967 124.201 105.183C123.986 105.399 123.986 105.749 124.201 105.966C124.417 106.182 124.767 106.182 124.982 105.966Z" fill="#2A2E33"/>
<path d="M127.516 102.19C127.731 101.973 127.731 101.623 127.516 101.407C127.3 101.19 126.95 101.19 126.735 101.407C126.519 101.623 126.519 101.973 126.735 102.19C126.95 102.406 127.3 102.406 127.516 102.19Z" fill="#2A2E33"/>
<path d="M127.531 104.675C127.747 104.458 127.747 104.108 127.531 103.892C127.316 103.675 126.966 103.675 126.75 103.892C126.535 104.108 126.535 104.458 126.75 104.675C126.966 104.891 127.316 104.891 127.531 104.675Z" fill="#394651"/>
<path d="M127.548 107.159C127.764 106.943 127.764 106.593 127.548 106.376C127.332 106.16 126.983 106.16 126.767 106.376C126.552 106.593 126.552 106.943 126.767 107.159C126.983 107.376 127.332 107.376 127.548 107.159Z" fill="#2A2E33"/>
<path d="M101.179 104.454C101.179 105.838 100.213 106.946 98.9708 107.084C98.8328 107.084 98.6948 107.084 98.5567 107.084C97.0384 107.084 95.9341 105.838 95.9341 104.454C95.9341 102.932 97.1764 101.824 98.5567 101.824C98.6948 101.824 98.8328 101.824 98.9708 101.824C100.213 102.101 101.179 103.208 101.179 104.454Z" fill="#273850"/>
<path d="M101.179 71.2348C101.179 72.619 100.213 73.7263 98.9704 73.8647C97.7281 73.7263 96.7618 72.4806 96.7618 71.2348C96.7618 69.8507 97.7281 68.7434 98.9704 68.605C100.213 68.8818 101.179 69.9891 101.179 71.2348Z" fill="#364151"/>
<path d="M101.179 87.8445C101.179 89.2287 100.213 90.336 98.9704 90.4744C97.7281 90.336 96.7618 89.0903 96.7618 87.8445C96.7618 86.4604 97.7281 85.3531 98.9704 85.2147C100.213 85.4915 101.179 86.5988 101.179 87.8445Z" fill="#364151"/>
<path d="M101.179 104.454C101.179 105.838 100.213 106.946 98.9704 107.084C97.7281 106.946 96.7618 105.838 96.7618 104.454C96.7618 103.07 97.7281 101.963 98.9704 101.824C100.213 102.101 101.179 103.208 101.179 104.454Z" fill="#364151"/>
<path opacity="0.05" d="M125.749 64.1758H107.115V114.282H125.749V64.1758Z" fill="black"/>
<path d="M152.254 56.9783H111.948V62.3764H152.254V56.9783Z" fill="#1D242E"/>
<path d="M152.116 59.7465H111.948V58.3624L152.116 53.9332V59.7465Z" fill="#252C36"/>
<path d="M105.874 58.7777V56.9783H146.042V62.3764H105.874V60.5771" fill="#262B31"/>
<path d="M146.18 57.9472H105.874V59.7466H146.18V57.9472Z" fill="#364151"/>
<path d="M151.563 58.2241H106.011C104.907 58.2241 103.941 57.2552 103.941 56.1479V46.5973C103.941 45.49 104.907 44.5211 106.011 44.5211H151.563C152.667 44.5211 153.633 45.49 153.633 46.5973V56.1479C153.633 57.3936 152.805 58.2241 151.563 58.2241Z" fill="#2E3746"/>
<path d="M109.877 44.659H145.214C146.042 44.659 146.732 45.3511 146.732 46.1816V56.8394C146.732 57.6699 146.042 58.362 145.214 58.362H105.46C104.631 58.362 103.941 57.6699 103.941 56.8394V46.1816C103.941 45.3511 104.631 44.659 105.46 44.659H106.426" fill="#545D71"/>
<path d="M121.174 49.635C121.39 49.4187 121.39 49.0682 121.174 48.852C120.959 48.6358 120.609 48.6358 120.394 48.852C120.178 49.0682 120.178 49.4187 120.394 49.635C120.609 49.8512 120.959 49.8512 121.174 49.635Z" fill="#2A2E33"/>
<path d="M121.209 52.2504C121.424 52.0342 121.424 51.6836 121.209 51.4674C120.993 51.2511 120.644 51.2512 120.428 51.4674C120.212 51.6836 120.212 52.0342 120.428 52.2504C120.644 52.4666 120.993 52.4666 121.209 52.2504Z" fill="#2A2E33"/>
<path d="M121.146 54.768C121.362 54.5517 121.362 54.2012 121.146 53.985C120.931 53.7688 120.581 53.7688 120.365 53.985C120.15 54.2012 120.15 54.5517 120.365 54.768C120.581 54.9842 120.931 54.9842 121.146 54.768Z" fill="#2A2E33"/>
<path d="M123.766 50.9913C123.982 50.775 123.982 50.4245 123.766 50.2083C123.551 49.9921 123.201 49.9921 122.985 50.2083C122.77 50.4245 122.77 50.775 122.985 50.9913C123.201 51.2075 123.551 51.2075 123.766 50.9913Z" fill="#394651"/>
<path d="M123.801 53.6066C124.016 53.3904 124.016 53.0398 123.801 52.8236C123.585 52.6074 123.236 52.6074 123.02 52.8236C122.804 53.0398 122.804 53.3904 123.02 53.6066C123.236 53.8228 123.585 53.8228 123.801 53.6066Z" fill="#2A2E33"/>
<path d="M126.293 49.6632C126.509 49.4469 126.509 49.0964 126.293 48.8801C126.078 48.6639 125.728 48.6639 125.512 48.8801C125.297 49.0964 125.297 49.4469 125.512 49.6631C125.728 49.8794 126.078 49.8794 126.293 49.6632Z" fill="#2A2E33"/>
<path d="M126.328 52.2786C126.543 52.0624 126.543 51.7118 126.328 51.4956C126.112 51.2794 125.762 51.2794 125.547 51.4956C125.331 51.7118 125.331 52.0624 125.547 52.2786C125.763 52.4948 126.112 52.4949 126.328 52.2786Z" fill="#2A2E33"/>
<path d="M125.888 54.902C126.193 54.902 126.441 54.6541 126.441 54.3483C126.441 54.0425 126.193 53.7946 125.888 53.7946C125.583 53.7946 125.336 54.0425 125.336 54.3483C125.336 54.6541 125.583 54.902 125.888 54.902Z" fill="url(#paint10_linear_23:93)"/>
<path d="M128.885 51.0195C129.101 50.8032 129.101 50.4527 128.885 50.2365C128.669 50.0203 128.32 50.0203 128.104 50.2365C127.889 50.4527 127.889 50.8032 128.104 51.0195C128.32 51.2357 128.669 51.2357 128.885 51.0195Z" fill="#394651"/>
<path d="M128.919 53.6349C129.135 53.4187 129.135 53.0681 128.919 52.8519C128.704 52.6356 128.354 52.6356 128.139 52.8519C127.923 53.0681 127.923 53.4187 128.139 53.6349C128.354 53.8511 128.704 53.8511 128.919 53.6349Z" fill="#2A2E33"/>
<path d="M131.509 49.5938C131.725 49.3776 131.725 49.027 131.509 48.8108C131.294 48.5945 130.944 48.5945 130.728 48.8108C130.513 49.027 130.513 49.3776 130.728 49.5938C130.944 49.81 131.294 49.81 131.509 49.5938Z" fill="#394651"/>
<path d="M131.545 52.2091C131.76 51.9929 131.76 51.6423 131.545 51.4261C131.329 51.2099 130.98 51.2099 130.764 51.4261C130.548 51.6423 130.548 51.9929 130.764 52.2091C130.98 52.4253 131.329 52.4253 131.545 52.2091Z" fill="#2A2E33"/>
<path d="M131.482 54.7267C131.698 54.5104 131.698 54.1599 131.482 53.9437C131.267 53.7275 130.917 53.7275 130.701 53.9437C130.486 54.1599 130.486 54.5104 130.701 54.7267C130.917 54.9429 131.267 54.9429 131.482 54.7267Z" fill="#2A2E33"/>
<path d="M134.004 51.0478C134.22 50.8316 134.22 50.481 134.004 50.2648C133.788 50.0486 133.439 50.0486 133.223 50.2648C133.008 50.481 133.008 50.8316 133.223 51.0478C133.439 51.264 133.788 51.264 134.004 51.0478Z" fill="#2A2E33"/>
<path d="M134.038 53.6633C134.254 53.4471 134.254 53.0965 134.038 52.8803C133.823 52.6641 133.473 52.6641 133.258 52.8803C133.042 53.0965 133.042 53.4471 133.258 53.6633C133.473 53.8795 133.823 53.8795 134.038 53.6633Z" fill="#2A2E33"/>
<path d="M136.628 49.6221C136.844 49.4058 136.844 49.0553 136.628 48.8391C136.413 48.6229 136.063 48.6229 135.847 48.8391C135.632 49.0553 135.632 49.4058 135.847 49.6221C136.063 49.8383 136.413 49.8383 136.628 49.6221Z" fill="#2A2E33"/>
<path d="M136.664 52.2373C136.879 52.0211 136.879 51.6705 136.664 51.4543C136.448 51.2381 136.098 51.2381 135.883 51.4543C135.667 51.6705 135.667 52.0211 135.883 52.2373C136.098 52.4536 136.448 52.4536 136.664 52.2373Z" fill="#394651"/>
<path d="M136.601 54.7549C136.817 54.5387 136.817 54.1881 136.601 53.9719C136.385 53.7557 136.036 53.7557 135.82 53.9719C135.605 54.1881 135.605 54.5386 135.82 54.7549C136.036 54.9711 136.385 54.9711 136.601 54.7549Z" fill="#2A2E33"/>
<path d="M139.22 50.9782C139.436 50.7619 139.436 50.4114 139.22 50.1952C139.004 49.979 138.655 49.979 138.439 50.1952C138.224 50.4114 138.224 50.7619 138.439 50.9782C138.655 51.1944 139.004 51.1944 139.22 50.9782Z" fill="#2A2E33"/>
<path d="M139.256 53.5936C139.471 53.3774 139.471 53.0269 139.256 52.8107C139.04 52.5944 138.69 52.5944 138.475 52.8107C138.259 53.0269 138.259 53.3774 138.475 53.5936C138.69 53.8099 139.04 53.8099 139.256 53.5936Z" fill="#2A2E33"/>
<path d="M141.747 49.6503C141.963 49.4341 141.963 49.0835 141.747 48.8673C141.531 48.6511 141.182 48.6511 140.966 48.8673C140.751 49.0835 140.751 49.4341 140.966 49.6503C141.182 49.8666 141.531 49.8666 141.747 49.6503Z" fill="#2A2E33"/>
<path d="M141.783 52.2657C141.998 52.0495 141.998 51.699 141.783 51.4827C141.567 51.2665 141.217 51.2665 141.002 51.4827C140.786 51.699 140.786 52.0495 141.002 52.2657C141.217 52.4819 141.567 52.4819 141.783 52.2657Z" fill="#394651"/>
<path d="M141.72 54.7832C141.935 54.567 141.935 54.2164 141.72 54.0002C141.504 53.784 141.155 53.784 140.939 54.0002C140.723 54.2164 140.723 54.567 140.939 54.7832C141.155 54.9994 141.504 54.9994 141.72 54.7832Z" fill="#2A2E33"/>
<path d="M114.294 51.9954C114.294 53.3795 113.328 54.4868 111.947 54.7637C111.809 54.7637 111.671 54.7637 111.533 54.7637C110.015 54.7637 108.773 53.5179 108.773 51.9954C108.773 50.4728 110.015 49.2271 111.533 49.2271C111.671 49.2271 111.809 49.2271 111.947 49.2271C113.19 49.5039 114.294 50.6113 114.294 51.9954Z" fill="#273850"/>
<path d="M114.294 51.9954C114.294 53.3795 113.327 54.4868 111.947 54.7637C110.567 54.4868 109.6 53.3795 109.6 51.9954C109.6 50.6113 110.567 49.5039 111.947 49.2271C113.189 49.5039 114.294 50.6113 114.294 51.9954Z" fill="#364151"/>
<path d="M152.254 74.1416H111.948V79.5397H152.254V74.1416Z" fill="#1D242E"/>
<path d="M152.116 77.0482H111.948V75.5256L152.116 71.2348V77.0482Z" fill="#252C36"/>
<path d="M105.874 75.941V74.1416H146.042V79.5397H105.874V77.7404" fill="#262B31"/>
<path d="M146.18 75.1104H105.874V76.9098H146.18V75.1104Z" fill="#364151"/>
<path d="M151.563 75.5257H106.012C104.907 75.5257 103.941 74.5568 103.941 73.4495V63.8989C103.941 62.7916 104.907 61.8227 106.012 61.8227H151.563C152.667 61.8227 153.634 62.7916 153.634 63.8989V73.4495C153.634 74.5568 152.805 75.5257 151.563 75.5257Z" fill="#2E3746"/>
<path d="M109.877 61.8227H145.214C146.042 61.8227 146.732 62.5148 146.732 63.3452V74.0031C146.732 74.8336 146.042 75.5257 145.214 75.5257H105.46C104.631 75.5257 103.941 74.8336 103.941 74.0031V63.3452C103.941 62.5148 104.631 61.8227 105.46 61.8227H106.426" fill="#545D71"/>
<path d="M121.146 66.8096C121.362 66.5934 121.362 66.2428 121.146 66.0266C120.931 65.8104 120.581 65.8104 120.365 66.0266C120.15 66.2428 120.15 66.5934 120.365 66.8096C120.581 67.0259 120.931 67.0259 121.146 66.8096Z" fill="#2A2E33"/>
<path d="M121.181 69.425C121.396 69.2088 121.396 68.8582 121.181 68.642C120.965 68.4258 120.615 68.4258 120.4 68.642C120.184 68.8582 120.184 69.2088 120.4 69.425C120.615 69.6412 120.965 69.6412 121.181 69.425Z" fill="#2A2E33"/>
<path d="M121.215 72.0405C121.431 71.8243 121.431 71.4737 121.215 71.2575C121 71.0413 120.65 71.0413 120.434 71.2575C120.219 71.4737 120.219 71.8243 120.434 72.0405C120.65 72.2567 121 72.2567 121.215 72.0405Z" fill="#2A2E33"/>
<path d="M123.738 68.1657C123.954 67.9494 123.954 67.5989 123.738 67.3827C123.522 67.1665 123.173 67.1665 122.957 67.3827C122.742 67.5989 122.742 67.9494 122.957 68.1657C123.173 68.3819 123.522 68.3819 123.738 68.1657Z" fill="#394651"/>
<path d="M123.772 70.7811C123.988 70.5649 123.988 70.2144 123.772 69.9982C123.557 69.7819 123.207 69.7819 122.992 69.9982C122.776 70.2144 122.776 70.5649 122.992 70.7811C123.207 70.9974 123.557 70.9974 123.772 70.7811Z" fill="#2A2E33"/>
<path d="M126.265 66.8379C126.481 66.6217 126.481 66.2711 126.265 66.0549C126.049 65.8387 125.7 65.8387 125.484 66.0549C125.269 66.2711 125.269 66.6217 125.484 66.8379C125.7 67.0541 126.049 67.0541 126.265 66.8379Z" fill="#2A2E33"/>
<path d="M126.3 69.4533C126.516 69.2371 126.516 68.8865 126.3 68.6703C126.085 68.4541 125.735 68.4541 125.52 68.6703C125.304 68.8865 125.304 69.2371 125.52 69.4533C125.735 69.6695 126.085 69.6695 126.3 69.4533Z" fill="#2A2E33"/>
<path d="M125.888 72.2038C126.193 72.2038 126.441 71.9559 126.441 71.6501C126.441 71.3443 126.193 71.0965 125.888 71.0965C125.583 71.0965 125.336 71.3443 125.336 71.6501C125.336 71.9559 125.583 72.2038 125.888 72.2038Z" fill="url(#paint11_linear_23:93)"/>
<path d="M128.857 68.1943C129.073 67.9781 129.073 67.6275 128.857 67.4113C128.641 67.1951 128.292 67.1951 128.076 67.4113C127.86 67.6275 127.86 67.9781 128.076 68.1943C128.292 68.4105 128.641 68.4105 128.857 68.1943Z" fill="#394651"/>
<path d="M128.891 70.8095C129.107 70.5933 129.107 70.2427 128.891 70.0265C128.676 69.8103 128.326 69.8103 128.111 70.0265C127.895 70.2427 127.895 70.5933 128.111 70.8095C128.326 71.0257 128.676 71.0257 128.891 70.8095Z" fill="#2A2E33"/>
<path d="M131.482 66.7683C131.698 66.552 131.698 66.2015 131.482 65.9853C131.267 65.7691 130.917 65.7691 130.701 65.9853C130.486 66.2015 130.486 66.552 130.701 66.7683C130.917 66.9845 131.267 66.9845 131.482 66.7683Z" fill="#394651"/>
<path d="M131.517 69.3837C131.732 69.1674 131.732 68.8169 131.517 68.6006C131.301 68.3844 130.951 68.3844 130.736 68.6006C130.52 68.8169 130.52 69.1674 130.736 69.3837C130.951 69.5999 131.301 69.5999 131.517 69.3837Z" fill="#2A2E33"/>
<path d="M131.551 71.9991C131.767 71.7829 131.767 71.4323 131.551 71.2161C131.335 70.9999 130.986 70.9999 130.77 71.2161C130.555 71.4323 130.555 71.7829 130.77 71.9991C130.986 72.2154 131.335 72.2154 131.551 71.9991Z" fill="#2A2E33"/>
<path d="M133.976 68.2225C134.191 68.0063 134.191 67.6557 133.976 67.4395C133.76 67.2233 133.41 67.2233 133.195 67.4395C132.979 67.6557 132.979 68.0063 133.195 68.2225C133.41 68.4387 133.76 68.4387 133.976 68.2225Z" fill="#2A2E33"/>
<path d="M134.011 70.8378C134.227 70.6216 134.227 70.271 134.011 70.0548C133.796 69.8386 133.446 69.8386 133.23 70.0548C133.015 70.271 133.015 70.6216 133.23 70.8378C133.446 71.054 133.796 71.054 134.011 70.8378Z" fill="#2A2E33"/>
<path d="M136.601 66.7966C136.817 66.5804 136.817 66.2298 136.601 66.0136C136.385 65.7974 136.036 65.7974 135.82 66.0136C135.605 66.2298 135.605 66.5804 135.82 66.7966C136.036 67.0128 136.385 67.0128 136.601 66.7966Z" fill="#2A2E33"/>
<path d="M136.635 69.4119C136.851 69.1957 136.851 68.8452 136.635 68.629C136.42 68.4127 136.07 68.4127 135.855 68.629C135.639 68.8452 135.639 69.1957 135.855 69.4119C136.07 69.6282 136.42 69.6282 136.635 69.4119Z" fill="#394651"/>
<path d="M136.67 72.0275C136.886 71.8113 136.886 71.4607 136.67 71.2445C136.454 71.0283 136.105 71.0283 135.889 71.2445C135.674 71.4607 135.674 71.8113 135.889 72.0275C136.105 72.2437 136.454 72.2437 136.67 72.0275Z" fill="#2A2E33"/>
<path d="M139.192 68.1529C139.407 67.9367 139.407 67.5861 139.192 67.3699C138.976 67.1537 138.627 67.1537 138.411 67.3699C138.195 67.5861 138.195 67.9367 138.411 68.1529C138.627 68.3691 138.976 68.3691 139.192 68.1529Z" fill="#2A2E33"/>
<path d="M139.227 70.7683C139.443 70.5521 139.443 70.2015 139.227 69.9853C139.012 69.7691 138.662 69.7691 138.446 69.9853C138.231 70.2015 138.231 70.5521 138.446 70.7683C138.662 70.9845 139.012 70.9845 139.227 70.7683Z" fill="#2A2E33"/>
<path d="M141.72 66.8249C141.935 66.6087 141.935 66.2582 141.72 66.0419C141.504 65.8257 141.155 65.8257 140.939 66.0419C140.723 66.2582 140.723 66.6087 140.939 66.8249C141.155 67.0411 141.504 67.0411 141.72 66.8249Z" fill="#2A2E33"/>
<path d="M141.754 69.4403C141.97 69.2241 141.97 68.8735 141.754 68.6573C141.539 68.4411 141.189 68.4411 140.974 68.6573C140.758 68.8735 140.758 69.2241 140.974 69.4403C141.189 69.6565 141.539 69.6565 141.754 69.4403Z" fill="#394651"/>
<path d="M141.789 72.0558C142.004 71.8396 142.004 71.489 141.789 71.2728C141.573 71.0566 141.224 71.0566 141.008 71.2728C140.792 71.489 140.792 71.8396 141.008 72.0558C141.224 72.272 141.573 72.272 141.789 72.0558Z" fill="#2A2E33"/>
<path d="M114.294 69.2972C114.294 70.6813 113.328 71.7886 111.947 72.0655C111.809 72.0655 111.671 72.0655 111.533 72.0655C110.015 72.0655 108.773 70.8197 108.773 69.2972C108.773 67.7746 110.015 66.5289 111.533 66.5289C111.671 66.5289 111.809 66.5289 111.947 66.5289C113.19 66.6673 114.294 67.913 114.294 69.2972Z" fill="#273850"/>
<path d="M152.254 91.5817H111.948V96.9799H152.254V91.5817Z" fill="#1D242E"/>
<path d="M152.116 94.35H111.948V92.9659L152.116 92.5507V94.35Z" fill="#252C36"/>
<path d="M105.874 93.3811V91.5817H146.042V96.9799H105.874V95.0421" fill="#262B31"/>
<path d="M146.18 92.2738H105.874V94.35H146.18V92.2738Z" fill="#364151"/>
<path d="M151.563 92.8275H106.012C104.907 92.8275 103.941 91.8586 103.941 90.7512V81.2007C103.941 80.0934 104.907 79.1245 106.012 79.1245H151.563C152.667 79.1245 153.634 80.0934 153.634 81.2007V90.7512C153.634 91.8586 152.805 92.8275 151.563 92.8275Z" fill="#2E3746"/>
<path d="M109.877 79.2628H145.214C146.042 79.2628 146.732 79.9549 146.732 80.7854V91.4432C146.732 92.2737 146.042 92.9658 145.214 92.9658H105.46C104.631 92.9658 103.941 92.2737 103.941 91.4432V80.7854C103.941 79.9549 104.631 79.2628 105.46 79.2628H106.426" fill="#545D71"/>
<path d="M121.202 84.2263C121.418 84.0101 121.418 83.6596 121.202 83.4433C120.986 83.2271 120.637 83.2271 120.421 83.4433C120.206 83.6596 120.206 84.0101 120.421 84.2263C120.637 84.4426 120.986 84.4426 121.202 84.2263Z" fill="#2A2E33"/>
<path d="M121.139 86.7438C121.355 86.5275 121.355 86.177 121.139 85.9608C120.924 85.7445 120.574 85.7446 120.359 85.9608C120.143 86.177 120.143 86.5275 120.359 86.7438C120.574 86.96 120.924 86.96 121.139 86.7438Z" fill="#2A2E33"/>
<path d="M120.781 89.5054C121.085 89.5054 121.333 89.2575 121.333 88.9518C121.333 88.646 121.085 88.3981 120.781 88.3981C120.476 88.3981 120.228 88.646 120.228 88.9518C120.228 89.2575 120.476 89.5054 120.781 89.5054Z" fill="url(#paint12_linear_23:93)"/>
<path d="M123.794 85.5825C124.01 85.3663 124.01 85.0158 123.794 84.7995C123.578 84.5833 123.229 84.5833 123.013 84.7995C122.797 85.0158 122.797 85.3663 123.013 85.5825C123.229 85.7987 123.578 85.7987 123.794 85.5825Z" fill="#2A2E33"/>
<path d="M123.828 88.1981C124.044 87.9819 124.044 87.6313 123.828 87.4151C123.613 87.1988 123.263 87.1988 123.048 87.4151C122.832 87.6313 122.832 87.9819 123.048 88.1981C123.263 88.4143 123.613 88.4143 123.828 88.1981Z" fill="#405872"/>
<path d="M126.321 84.2547C126.536 84.0385 126.536 83.6879 126.321 83.4717C126.105 83.2555 125.756 83.2555 125.54 83.4717C125.324 83.6879 125.324 84.0385 125.54 84.2547C125.756 84.4709 126.105 84.4709 126.321 84.2547Z" fill="#2A2E33"/>
<path d="M126.258 86.7721C126.474 86.5558 126.474 86.2053 126.258 85.989C126.043 85.7728 125.693 85.7728 125.477 85.9891C125.262 86.2053 125.262 86.5558 125.477 86.7721C125.693 86.9883 126.043 86.9883 126.258 86.7721Z" fill="#394651"/>
<path d="M126.293 89.3876C126.508 89.1714 126.508 88.8208 126.293 88.6046C126.077 88.3884 125.727 88.3884 125.512 88.6046C125.296 88.8208 125.296 89.1714 125.512 89.3876C125.727 89.6038 126.077 89.6038 126.293 89.3876Z" fill="#2A2E33"/>
<path d="M128.913 85.6108C129.128 85.3945 129.128 85.044 128.913 84.8278C128.697 84.6116 128.348 84.6116 128.132 84.8278C127.916 85.044 127.916 85.3945 128.132 85.6108C128.348 85.827 128.697 85.827 128.913 85.6108Z" fill="#2A2E33"/>
<path d="M128.947 88.2262C129.163 88.01 129.163 87.6594 128.947 87.4432C128.732 87.227 128.382 87.227 128.166 87.4432C127.951 87.6594 127.951 88.01 128.166 88.2262C128.382 88.4424 128.732 88.4424 128.947 88.2262Z" fill="#2A2E33"/>
<path d="M131.538 84.185C131.754 83.9688 131.754 83.6182 131.538 83.402C131.322 83.1858 130.973 83.1858 130.757 83.402C130.542 83.6182 130.542 83.9688 130.757 84.185C130.973 84.4012 131.322 84.4012 131.538 84.185Z" fill="#2A2E33"/>
<path d="M131.475 86.7027C131.691 86.4865 131.691 86.1359 131.475 85.9197C131.26 85.7034 130.91 85.7035 130.694 85.9197C130.479 86.1359 130.479 86.4865 130.694 86.7027C130.91 86.9189 131.26 86.9189 131.475 86.7027Z" fill="#2A2E33"/>
<path d="M131.509 89.3179C131.724 89.1017 131.724 88.7512 131.509 88.535C131.293 88.3187 130.944 88.3187 130.728 88.535C130.512 88.7512 130.512 89.1017 130.728 89.3179C130.944 89.5342 131.293 89.5342 131.509 89.3179Z" fill="#2A2E33"/>
<path d="M134.032 85.6391C134.247 85.4229 134.247 85.0723 134.032 84.8561C133.816 84.6399 133.466 84.6399 133.251 84.8561C133.035 85.0723 133.035 85.4229 133.251 85.6391C133.466 85.8553 133.816 85.8553 134.032 85.6391Z" fill="#2A2E33"/>
<path d="M134.066 88.2546C134.282 88.0383 134.282 87.6878 134.066 87.4716C133.851 87.2554 133.501 87.2554 133.285 87.4716C133.07 87.6878 133.07 88.0383 133.285 88.2546C133.501 88.4708 133.851 88.4708 134.066 88.2546Z" fill="#2A2E33"/>
<path d="M136.241 84.3834C136.546 84.3834 136.793 84.1355 136.793 83.8298C136.793 83.524 136.546 83.2761 136.241 83.2761C135.936 83.2761 135.688 83.524 135.688 83.8298C135.688 84.1355 135.936 84.3834 136.241 84.3834Z" fill="url(#paint13_linear_23:93)"/>
<path d="M136.594 86.7308C136.81 86.5146 136.81 86.164 136.594 85.9478C136.379 85.7316 136.029 85.7316 135.813 85.9478C135.598 86.1641 135.598 86.5146 135.813 86.7308C136.029 86.947 136.379 86.947 136.594 86.7308Z" fill="#394651"/>
<path d="M136.628 89.3463C136.843 89.13 136.843 88.7795 136.628 88.5632C136.412 88.347 136.062 88.347 135.847 88.5632C135.631 88.7795 135.631 89.13 135.847 89.3463C136.062 89.5625 136.412 89.5625 136.628 89.3463Z" fill="#2A2E33"/>
<path d="M139.249 85.5695C139.464 85.3533 139.464 85.0027 139.249 84.7865C139.033 84.5703 138.684 84.5703 138.468 84.7865C138.252 85.0027 138.252 85.3533 138.468 85.5695C138.684 85.7857 139.033 85.7857 139.249 85.5695Z" fill="#2A2E33"/>
<path d="M139.283 88.1849C139.499 87.9687 139.499 87.6182 139.283 87.402C139.068 87.1857 138.718 87.1857 138.502 87.402C138.287 87.6182 138.287 87.9687 138.502 88.185C138.718 88.4012 139.068 88.4012 139.283 88.1849Z" fill="#2A2E33"/>
<path d="M141.776 84.2416C141.991 84.0254 141.991 83.6748 141.776 83.4586C141.56 83.2424 141.211 83.2424 140.995 83.4586C140.779 83.6748 140.779 84.0254 140.995 84.2416C141.211 84.4579 141.56 84.4579 141.776 84.2416Z" fill="#2A2E33"/>
<path d="M141.713 86.7591C141.929 86.5429 141.929 86.1923 141.713 85.9761C141.497 85.7599 141.148 85.7599 140.932 85.9761C140.717 86.1923 140.717 86.5429 140.932 86.7591C141.148 86.9753 141.497 86.9753 141.713 86.7591Z" fill="#2A2E33"/>
<path d="M141.747 89.3746C141.962 89.1584 141.962 88.8078 141.747 88.5916C141.531 88.3754 141.181 88.3754 140.966 88.5916C140.75 88.8078 140.75 89.1584 140.966 89.3746C141.181 89.5908 141.531 89.5908 141.747 89.3746Z" fill="#2A2E33"/>
<path d="M114.294 86.5988C114.294 87.983 113.328 89.0903 111.947 89.3671C111.809 89.3671 111.671 89.3671 111.533 89.3671C110.015 89.3671 108.773 88.1214 108.773 86.5988C108.773 85.0763 110.015 83.8305 111.533 83.8305C111.671 83.8305 111.809 83.8305 111.947 83.8305C113.19 84.1074 114.294 85.2147 114.294 86.5988Z" fill="#273850"/>
<path d="M152.254 108.883H111.948V114.282H152.254V108.883Z" fill="#1D242E"/>
<path d="M152.116 111.652H111.948V110.268L152.116 105.977V111.652Z" fill="#252C36"/>
<path d="M105.874 110.683V108.883H146.042V114.282H105.874V112.482" fill="#262B31"/>
<path d="M146.18 108.883H105.874V111.652H146.18V108.883Z" fill="#364151"/>
<path d="M151.563 110.129H106.012C104.907 110.129 103.941 109.16 103.941 108.053V98.5023C103.941 97.395 104.907 96.4261 106.012 96.4261H151.563C152.667 96.4261 153.634 97.395 153.634 98.5023V108.053C153.634 109.299 152.805 110.129 151.563 110.129Z" fill="#2E3746"/>
<path d="M109.877 96.5646H145.214C146.042 96.5646 146.732 97.2566 146.732 98.0871V108.745C146.732 109.575 146.042 110.268 145.214 110.268H105.46C104.631 110.268 103.941 109.575 103.941 108.745V98.0871C103.941 97.2566 104.631 96.5646 105.46 96.5646H106.426" fill="#545D71"/>
<path d="M121.161 101.545C121.376 101.329 121.376 100.978 121.161 100.762C120.945 100.546 120.596 100.546 120.38 100.762C120.164 100.978 120.164 101.329 120.38 101.545C120.596 101.761 120.945 101.761 121.161 101.545Z" fill="#2A2E33"/>
<path d="M121.195 104.161C121.411 103.944 121.411 103.594 121.195 103.378C120.98 103.161 120.63 103.161 120.414 103.378C120.199 103.594 120.199 103.944 120.414 104.161C120.63 104.377 120.98 104.377 121.195 104.161Z" fill="#2A2E33"/>
<path d="M121.133 106.678C121.348 106.462 121.348 106.112 121.133 105.895C120.917 105.679 120.567 105.679 120.352 105.895C120.136 106.112 120.136 106.462 120.352 106.678C120.567 106.895 120.917 106.895 121.133 106.678Z" fill="#394651"/>
<path d="M123.403 103.07C123.708 103.07 123.955 102.822 123.955 102.516C123.955 102.211 123.708 101.963 123.403 101.963C123.098 101.963 122.851 102.211 122.851 102.516C122.851 102.822 123.098 103.07 123.403 103.07Z" fill="url(#paint14_linear_23:93)"/>
<path d="M123.787 105.517C124.003 105.301 124.003 104.95 123.787 104.734C123.571 104.518 123.222 104.518 123.006 104.734C122.791 104.95 122.791 105.301 123.006 105.517C123.222 105.733 123.571 105.733 123.787 105.517Z" fill="#2A2E33"/>
<path d="M126.28 101.573C126.495 101.357 126.495 101.007 126.28 100.79C126.064 100.574 125.714 100.574 125.499 100.79C125.283 101.007 125.283 101.357 125.499 101.573C125.714 101.79 126.064 101.79 126.28 101.573Z" fill="#2A2E33"/>
<path d="M126.314 104.189C126.53 103.973 126.53 103.622 126.314 103.406C126.099 103.19 125.749 103.19 125.533 103.406C125.318 103.622 125.318 103.973 125.533 104.189C125.749 104.405 126.099 104.405 126.314 104.189Z" fill="#394651"/>
<path d="M126.251 106.706C126.467 106.49 126.467 106.14 126.251 105.923C126.036 105.707 125.686 105.707 125.471 105.923C125.255 106.14 125.255 106.49 125.471 106.706C125.686 106.923 126.036 106.923 126.251 106.706Z" fill="#394651"/>
<path d="M128.871 102.93C129.087 102.713 129.087 102.363 128.871 102.147C128.656 101.93 128.306 101.93 128.091 102.147C127.875 102.363 127.875 102.713 128.091 102.93C128.306 103.146 128.656 103.146 128.871 102.93Z" fill="#394651"/>
<path d="M128.906 105.545C129.122 105.329 129.122 104.978 128.906 104.762C128.69 104.546 128.341 104.546 128.125 104.762C127.91 104.978 127.91 105.329 128.125 105.545C128.341 105.761 128.69 105.761 128.906 105.545Z" fill="#2A2E33"/>
<path d="M131.496 101.504C131.711 101.288 131.711 100.937 131.496 100.721C131.28 100.505 130.93 100.505 130.715 100.721C130.499 100.937 130.499 101.288 130.715 101.504C130.93 101.72 131.28 101.72 131.496 101.504Z" fill="#394651"/>
<path d="M131.531 104.119C131.747 103.903 131.747 103.552 131.531 103.336C131.316 103.12 130.966 103.12 130.75 103.336C130.535 103.552 130.535 103.903 130.75 104.119C130.966 104.335 131.316 104.335 131.531 104.119Z" fill="#2A2E33"/>
<path d="M131.468 106.637C131.683 106.421 131.683 106.07 131.468 105.854C131.252 105.638 130.902 105.638 130.687 105.854C130.471 106.07 130.471 106.421 130.687 106.637C130.902 106.853 131.252 106.853 131.468 106.637Z" fill="#2A2E33"/>
<path d="M133.99 102.958C134.206 102.742 134.206 102.391 133.99 102.175C133.775 101.959 133.425 101.959 133.209 102.175C132.994 102.391 132.994 102.742 133.209 102.958C133.425 103.174 133.775 103.174 133.99 102.958Z" fill="#2A2E33"/>
<path d="M134.026 105.573C134.241 105.357 134.241 105.007 134.026 104.79C133.81 104.574 133.461 104.574 133.245 104.79C133.029 105.007 133.029 105.357 133.245 105.573C133.461 105.79 133.81 105.79 134.026 105.573Z" fill="#394651"/>
<path d="M136.616 101.532C136.831 101.316 136.831 100.965 136.616 100.749C136.4 100.533 136.05 100.533 135.835 100.749C135.619 100.965 135.619 101.316 135.835 101.532C136.05 101.748 136.4 101.748 136.616 101.532Z" fill="#2A2E33"/>
<path d="M136.65 104.148C136.866 103.931 136.866 103.581 136.65 103.365C136.435 103.148 136.085 103.148 135.869 103.365C135.654 103.581 135.654 103.931 135.869 104.148C136.085 104.364 136.434 104.364 136.65 104.148Z" fill="#2A2E33"/>
<path d="M136.241 106.807C136.546 106.807 136.793 106.559 136.793 106.254C136.793 105.948 136.546 105.7 136.241 105.7C135.936 105.7 135.689 105.948 135.689 106.254C135.689 106.559 135.936 106.807 136.241 106.807Z" fill="url(#paint15_linear_23:93)"/>
<path d="M139.206 102.888C139.422 102.672 139.422 102.322 139.206 102.105C138.991 101.889 138.641 101.889 138.426 102.105C138.21 102.322 138.21 102.672 138.426 102.888C138.641 103.105 138.991 103.105 139.206 102.888Z" fill="#394651"/>
<path d="M139.241 105.504C139.457 105.288 139.457 104.937 139.241 104.721C139.025 104.505 138.676 104.505 138.46 104.721C138.244 104.937 138.244 105.288 138.46 105.504C138.676 105.72 139.025 105.72 139.241 105.504Z" fill="#2A2E33"/>
<path d="M141.734 101.56C141.95 101.344 141.95 100.994 141.734 100.777C141.519 100.561 141.169 100.561 140.954 100.777C140.738 100.994 140.738 101.344 140.954 101.56C141.169 101.777 141.519 101.777 141.734 101.56Z" fill="#2A2E33"/>
<path d="M141.769 104.176C141.985 103.96 141.985 103.609 141.769 103.393C141.553 103.177 141.204 103.177 140.988 103.393C140.773 103.609 140.773 103.96 140.988 104.176C141.204 104.392 141.553 104.392 141.769 104.176Z" fill="#394651"/>
<path d="M141.706 106.693C141.922 106.477 141.922 106.127 141.706 105.91C141.491 105.694 141.141 105.694 140.925 105.91C140.71 106.127 140.71 106.477 140.925 106.693C141.141 106.91 141.491 106.91 141.706 106.693Z" fill="#2A2E33"/>
<path d="M114.294 104.039C114.294 105.423 113.328 106.53 111.947 106.807C111.809 106.807 111.671 106.807 111.533 106.807C110.015 106.807 108.773 105.561 108.773 104.039C108.773 102.516 110.015 101.271 111.533 101.271C111.671 101.271 111.809 101.271 111.947 101.271C113.19 101.409 114.294 102.516 114.294 104.039Z" fill="#273850"/>
<path d="M114.294 69.2972C114.294 70.6813 113.327 71.7886 111.947 72.0655C110.567 71.7886 109.6 70.6813 109.6 69.2972C109.6 67.913 110.567 66.8057 111.947 66.5289C113.189 66.6673 114.294 67.913 114.294 69.2972Z" fill="#364151"/>
<path d="M114.294 86.5988C114.294 87.983 113.327 89.0903 111.947 89.3671C110.567 89.0903 109.6 87.983 109.6 86.5988C109.6 85.2147 110.567 84.1074 111.947 83.8305C113.189 84.1074 114.294 85.2147 114.294 86.5988Z" fill="#364151"/>
<path d="M114.294 104.039C114.294 105.423 113.327 106.53 111.947 106.807C110.567 106.53 109.6 105.423 109.6 104.039C109.6 102.655 110.567 101.547 111.947 101.271C113.189 101.409 114.294 102.516 114.294 104.039Z" fill="#364151"/>
<path d="M57.9742 115.943C51.7626 116.081 44.1707 115.943 38.9254 115.804C33.6801 115.943 26.0882 116.081 19.8766 115.943C26.0882 112.482 28.1587 105.838 28.5728 101.548H49.278C49.5541 105.838 51.7626 112.482 57.9742 115.943Z" fill="url(#paint16_linear_23:93)"/>
<path d="M77.9896 46.7358V100.856C77.9896 102.101 77.0234 103.209 75.643 103.209H2.34659C1.10428 103.209 0 102.24 0 100.856V46.7358C0 45.4901 0.966243 44.3828 2.34659 44.3828H75.7811C77.0234 44.3828 77.9896 45.4901 77.9896 46.7358Z" fill="#353B4A"/>
<path d="M77.9896 46.7358V93.3813H0V46.7358C0 45.4901 0.966243 44.3828 2.34659 44.3828H75.7811C77.0234 44.3828 77.9896 45.4901 77.9896 46.7358Z" fill="#262A31"/>
<path d="M75.0914 47.2893H2.62317V90.7512H75.0914V47.2893Z" fill="#474E61"/>
<path d="M38.7877 100.44C39.855 100.44 40.7202 99.5728 40.7202 98.5026C40.7202 97.4323 39.855 96.5648 38.7877 96.5648C37.7204 96.5648 36.8552 97.4323 36.8552 98.5026C36.8552 99.5728 37.7204 100.44 38.7877 100.44Z" fill="#262A31"/>
<path d="M5.93535 84.1075H4.27893V85.7685H5.93535V84.1075Z" fill="#2A2E39"/>
<path d="M5.93535 80.924H4.27893V82.585H5.93535V80.924Z" fill="#2A2E39"/>
<path d="M5.93535 77.6021H4.27893V79.263H5.93535V77.6021Z" fill="#2A2E39"/>
<path d="M5.93535 74.2801H4.27893V75.9411H5.93535V74.2801Z" fill="url(#paint17_linear_23:93)"/>
<path d="M5.93535 71.0966H4.27893V72.7576H5.93535V71.0966Z" fill="#2A2E39"/>
<path d="M5.93535 67.7747H4.27893V69.4356H5.93535V67.7747Z" fill="#3E475F"/>
<path d="M9.24834 87.4294H7.59192V89.0904H9.24834V87.4294Z" fill="#2A2E39"/>
<path d="M9.24834 84.1075H7.59192V85.7685H9.24834V84.1075Z" fill="#2A2E39"/>
<path d="M9.24834 77.6021H7.59192V79.263H9.24834V77.6021Z" fill="#2A2E39"/>
<path d="M9.24834 74.2801H7.59192V75.9411H9.24834V74.2801Z" fill="#2A2E39"/>
<path d="M9.24834 71.0966H7.59192V72.7576H9.24834V71.0966Z" fill="#2A2E39"/>
<path d="M9.24834 67.7747H7.59192V69.4356H9.24834V67.7747Z" fill="#2A2E39"/>
<path d="M9.24834 64.5912H7.59192V66.2521H9.24834V64.5912Z" fill="#2A2E39"/>
<path d="M9.24834 61.2692H7.59192V62.9302H9.24834V61.2692Z" fill="url(#paint18_linear_23:93)"/>
<path d="M12.6991 87.4294H11.0427V89.0904H12.6991V87.4294Z" fill="#2A2E39"/>
<path d="M12.6991 84.1075H11.0427V85.7685H12.6991V84.1075Z" fill="#2A2E39"/>
<path d="M12.6991 80.924H11.0427V82.585H12.6991V80.924Z" fill="#2A2E39"/>
<path d="M12.6991 77.6021H11.0427V79.263H12.6991V77.6021Z" fill="#2A2E39"/>
<path d="M12.6991 74.2801H11.0427V75.9411H12.6991V74.2801Z" fill="url(#paint19_linear_23:93)"/>
<path d="M12.6991 71.0966H11.0427V72.7576H12.6991V71.0966Z" fill="#3E475F"/>
<path d="M12.6991 67.7747H11.0427V69.4356H12.6991V67.7747Z" fill="#2A2E39"/>
<path d="M12.6991 64.5912H11.0427V66.2521H12.6991V64.5912Z" fill="#3E475F"/>
<path d="M12.6991 61.2692H11.0427V62.9302H12.6991V61.2692Z" fill="#2A2E39"/>
<path d="M12.6991 58.0857H11.0427V59.7467H12.6991V58.0857Z" fill="#3E475F"/>
<path d="M16.0121 87.4294H14.3557V89.0904H16.0121V87.4294Z" fill="#2A2E39"/>
<path d="M16.0121 84.1075H14.3557V85.7685H16.0121V84.1075Z" fill="#2A2E39"/>
<path d="M16.0121 80.924H14.3557V82.585H16.0121V80.924Z" fill="#2A2E39"/>
<path d="M16.0121 77.6021H14.3557V79.263H16.0121V77.6021Z" fill="#2A2E39"/>
<path d="M16.0121 74.2801H14.3557V75.9411H16.0121V74.2801Z" fill="#2A2E39"/>
<path d="M16.0121 71.0966H14.3557V72.7576H16.0121V71.0966Z" fill="#3E475F"/>
<path d="M16.0121 67.7747H14.3557V69.4356H16.0121V67.7747Z" fill="#2A2E39"/>
<path d="M16.0121 64.5912H14.3557V66.2521H16.0121V64.5912Z" fill="#2A2E39"/>
<path d="M19.4631 87.4294H17.8066V89.0904H19.4631V87.4294Z" fill="#2A2E39"/>
<path d="M19.4631 84.1075H17.8066V85.7685H19.4631V84.1075Z" fill="#2A2E39"/>
<path d="M19.4631 80.924H17.8066V82.585H19.4631V80.924Z" fill="#2A2E39"/>
<path d="M19.4631 74.2801H17.8066V75.9411H19.4631V74.2801Z" fill="#2A2E39"/>
<path d="M19.4631 71.0966H17.8066V72.7576H19.4631V71.0966Z" fill="url(#paint20_linear_23:93)"/>
<path d="M19.4631 67.7747H17.8066V69.4356H19.4631V67.7747Z" fill="#3E475F"/>
<path d="M22.7759 87.4294H21.1195V89.0904H22.7759V87.4294Z" fill="#2A2E39"/>
<path d="M22.7759 84.1075H21.1195V85.7685H22.7759V84.1075Z" fill="#2A2E39"/>
<path d="M22.7759 80.924H21.1195V82.585H22.7759V80.924Z" fill="#2A2E39"/>
<path d="M22.7759 77.6021H21.1195V79.263H22.7759V77.6021Z" fill="#2A2E39"/>
<path d="M22.7759 74.2801H21.1195V75.9411H22.7759V74.2801Z" fill="#2A2E39"/>
<path d="M22.7759 71.0966H21.1195V72.7576H22.7759V71.0966Z" fill="#2A2E39"/>
<path d="M22.7759 67.7747H21.1195V69.4356H22.7759V67.7747Z" fill="#3E475F"/>
<path d="M22.7759 64.5912H21.1195V66.2521H22.7759V64.5912Z" fill="#2A2E39"/>
<path d="M22.7759 61.2692H21.1195V62.9302H22.7759V61.2692Z" fill="#2A2E39"/>
<path d="M26.0878 87.4294H24.4314V89.0904H26.0878V87.4294Z" fill="#2A2E39"/>
<path d="M26.0878 84.1075H24.4314V85.7685H26.0878V84.1075Z" fill="#2A2E39"/>
<path d="M26.0878 80.924H24.4314V82.585H26.0878V80.924Z" fill="#2A2E39"/>
<path d="M26.0878 74.2801H24.4314V75.9411H26.0878V74.2801Z" fill="#2A2E39"/>
<path d="M26.0878 71.0966H24.4314V72.7576H26.0878V71.0966Z" fill="#3E475F"/>
<path d="M29.5387 87.4294H27.8823V89.0904H29.5387V87.4294Z" fill="url(#paint21_linear_23:93)"/>
<path d="M29.5387 84.1075H27.8823V85.7685H29.5387V84.1075Z" fill="#2A2E39"/>
<path d="M29.5387 80.924H27.8823V82.585H29.5387V80.924Z" fill="#2A2E39"/>
<path d="M29.5387 77.6021H27.8823V79.263H29.5387V77.6021Z" fill="#3E475F"/>
<path d="M29.5387 74.2801H27.8823V75.9411H29.5387V74.2801Z" fill="#2A2E39"/>
<path d="M29.5387 67.7747H27.8823V69.4356H29.5387V67.7747Z" fill="#2A2E39"/>
<path d="M29.5387 64.5912H27.8823V66.2521H29.5387V64.5912Z" fill="#3E475F"/>
<path d="M32.8517 87.4294H31.1953V89.0904H32.8517V87.4294Z" fill="#2A2E39"/>
<path d="M32.8517 84.1075H31.1953V85.7685H32.8517V84.1075Z" fill="#2A2E39"/>
<path d="M32.8517 80.924H31.1953V82.585H32.8517V80.924Z" fill="url(#paint22_linear_23:93)"/>
<path d="M32.8517 77.6021H31.1953V79.263H32.8517V77.6021Z" fill="#2A2E39"/>
<path d="M32.8517 74.2801H31.1953V75.9411H32.8517V74.2801Z" fill="#2A2E39"/>
<path d="M32.8517 71.0966H31.1953V72.7576H32.8517V71.0966Z" fill="#2A2E39"/>
<path d="M32.8517 67.7747H31.1953V69.4356H32.8517V67.7747Z" fill="#3E475F"/>
<path d="M32.8517 61.2692H31.1953V62.9302H32.8517V61.2692Z" fill="#2A2E39"/>
<path d="M32.8517 58.0857H31.1953V59.7467H32.8517V58.0857Z" fill="#3E475F"/>
<path d="M56.5942 84.1075H54.9377V85.7685H56.5942V84.1075Z" fill="#2A2E39"/>
<path d="M56.5942 77.6021H54.9377V79.263H56.5942V77.6021Z" fill="#2A2E39"/>
<path d="M56.5942 74.2801H54.9377V75.9411H56.5942V74.2801Z" fill="#2A2E39"/>
<path d="M56.5942 71.0966H54.9377V72.7576H56.5942V71.0966Z" fill="#3E475F"/>
<path d="M56.5942 67.7747H54.9377V69.4356H56.5942V67.7747Z" fill="#2A2E39"/>
<path d="M56.5942 64.5912H54.9377V66.2521H56.5942V64.5912Z" fill="#2A2E39"/>
<path d="M59.907 87.4294H58.2506V89.0904H59.907V87.4294Z" fill="#2A2E39"/>
<path d="M59.907 84.1075H58.2506V85.7685H59.907V84.1075Z" fill="#2A2E39"/>
<path d="M59.907 80.924H58.2506V82.585H59.907V80.924Z" fill="#2A2E39"/>
<path d="M59.907 77.6021H58.2506V79.263H59.907V77.6021Z" fill="#2A2E39"/>
<path d="M59.907 74.2801H58.2506V75.9411H59.907V74.2801Z" fill="#2A2E39"/>
<path d="M59.907 71.0966H58.2506V72.7576H59.907V71.0966Z" fill="url(#paint23_linear_23:93)"/>
<path d="M59.907 67.7747H58.2506V69.4356H59.907V67.7747Z" fill="#3E475F"/>
<path d="M63.358 87.4294H61.7015V89.0904H63.358V87.4294Z" fill="#2A2E39"/>
<path d="M63.358 84.1075H61.7015V85.7685H63.358V84.1075Z" fill="#2A2E39"/>
<path d="M63.358 80.924H61.7015V82.585H63.358V80.924Z" fill="#2A2E39"/>
<path d="M63.358 77.6021H61.7015V79.263H63.358V77.6021Z" fill="#2A2E39"/>
<path d="M63.358 74.2801H61.7015V75.9411H63.358V74.2801Z" fill="#2A2E39"/>
<path d="M63.358 71.0966H61.7015V72.7576H63.358V71.0966Z" fill="#2A2E39"/>
<path d="M63.358 67.7747H61.7015V69.4356H63.358V67.7747Z" fill="#3E475F"/>
<path d="M63.358 64.5912H61.7015V66.2521H63.358V64.5912Z" fill="#2A2E39"/>
<path d="M63.358 61.2692H61.7015V62.9302H63.358V61.2692Z" fill="#2A2E39"/>
<path d="M66.6698 87.4294H65.0134V89.0904H66.6698V87.4294Z" fill="#2A2E39"/>
<path d="M66.6698 84.1075H65.0134V85.7685H66.6698V84.1075Z" fill="#2A2E39"/>
<path d="M66.6698 80.924H65.0134V82.585H66.6698V80.924Z" fill="#2A2E39"/>
<path d="M66.6698 77.6021H65.0134V79.263H66.6698V77.6021Z" fill="#2A2E39"/>
<path d="M66.6698 74.2801H65.0134V75.9411H66.6698V74.2801Z" fill="#2A2E39"/>
<path d="M70.1208 87.4294H68.4644V89.0904H70.1208V87.4294Z" fill="url(#paint24_linear_23:93)"/>
<path d="M70.1208 84.1075H68.4644V85.7685H70.1208V84.1075Z" fill="#2A2E39"/>
<path d="M70.1208 80.924H68.4644V82.585H70.1208V80.924Z" fill="#2A2E39"/>
<path d="M70.1208 77.6021H68.4644V79.263H70.1208V77.6021Z" fill="#3E475F"/>
<path d="M70.1208 74.2801H68.4644V75.9411H70.1208V74.2801Z" fill="#2A2E39"/>
<path d="M70.1208 71.0966H68.4644V72.7576H70.1208V71.0966Z" fill="url(#paint25_linear_23:93)"/>
<path d="M70.1208 67.7747H68.4644V69.4356H70.1208V67.7747Z" fill="#2A2E39"/>
<path d="M70.1208 64.5912H68.4644V66.2521H70.1208V64.5912Z" fill="#3E475F"/>
<path d="M73.4338 87.4294H71.7773V89.0904H73.4338V87.4294Z" fill="#2A2E39"/>
<path d="M73.4338 84.1075H71.7773V85.7685H73.4338V84.1075Z" fill="#2A2E39"/>
<path d="M73.4338 80.924H71.7773V82.585H73.4338V80.924Z" fill="url(#paint26_linear_23:93)"/>
<path d="M73.4338 77.6021H71.7773V79.263H73.4338V77.6021Z" fill="#2A2E39"/>
<path d="M73.4338 74.2801H71.7773V75.9411H73.4338V74.2801Z" fill="#2A2E39"/>
<path d="M73.4338 71.0966H71.7773V72.7576H73.4338V71.0966Z" fill="#2A2E39"/>
<path d="M73.4338 67.7747H71.7773V69.4356H73.4338V67.7747Z" fill="#3E475F"/>
<path d="M73.4338 61.2692H71.7773V62.9302H73.4338V61.2692Z" fill="#2A2E39"/>
<path d="M73.4338 58.0857H71.7773V59.7467H73.4338V58.0857Z" fill="#3E475F"/>
<path d="M36.3027 87.4294H34.6462V89.0904H36.3027V87.4294Z" fill="#2A2E39"/>
<path d="M36.3027 84.1075H34.6462V85.7685H36.3027V84.1075Z" fill="#2A2E39"/>
<path d="M36.3027 80.924H34.6462V82.585H36.3027V80.924Z" fill="#2A2E39"/>
<path d="M36.3027 74.2801H34.6462V75.9411H36.3027V74.2801Z" fill="#3E475F"/>
<path d="M36.3027 67.7747H34.6462V69.4356H36.3027V67.7747Z" fill="#2A2E39"/>
<path d="M36.3027 64.5912H34.6462V66.2521H36.3027V64.5912Z" fill="#3E475F"/>
<path d="M36.3027 61.2692H34.6462V62.9302H36.3027V61.2692Z" fill="#2A2E39"/>
<path d="M36.3027 58.0857H34.6462V59.7467H36.3027V58.0857Z" fill="#3E475F"/>
<path d="M39.6155 84.1075H37.9591V85.7685H39.6155V84.1075Z" fill="#2A2E39"/>
<path d="M39.6155 80.924H37.9591V82.585H39.6155V80.924Z" fill="#3E475F"/>
<path d="M39.6155 77.6021H37.9591V79.263H39.6155V77.6021Z" fill="#2A2E39"/>
<path d="M39.6155 74.2801H37.9591V75.9411H39.6155V74.2801Z" fill="#2A2E39"/>
<path d="M39.6155 71.0966H37.9591V72.7576H39.6155V71.0966Z" fill="url(#paint27_linear_23:93)"/>
<path d="M39.6155 67.7747H37.9591V69.4356H39.6155V67.7747Z" fill="#2A2E39"/>
<path d="M39.6155 64.5912H37.9591V66.2521H39.6155V64.5912Z" fill="#2A2E39"/>
<path d="M43.0665 87.4294H41.41V89.0904H43.0665V87.4294Z" fill="#2A2E39"/>
<path d="M43.0665 80.924H41.41V82.585H43.0665V80.924Z" fill="#2A2E39"/>
<path d="M43.0665 77.6021H41.41V79.263H43.0665V77.6021Z" fill="url(#paint28_linear_23:93)"/>
<path d="M43.0665 74.2801H41.41V75.9411H43.0665V74.2801Z" fill="#2A2E39"/>
<path d="M43.0665 71.0966H41.41V72.7576H43.0665V71.0966Z" fill="#3E475F"/>
<path d="M43.0665 67.7747H41.41V69.4356H43.0665V67.7747Z" fill="url(#paint29_linear_23:93)"/>
<path d="M46.3794 87.4294H44.723V89.0904H46.3794V87.4294Z" fill="#2A2E39"/>
<path d="M46.3794 77.6021H44.723V79.263H46.3794V77.6021Z" fill="#3E475F"/>
<path d="M46.3794 74.2801H44.723V75.9411H46.3794V74.2801Z" fill="#2A2E39"/>
<path d="M46.3794 71.0966H44.723V72.7576H46.3794V71.0966Z" fill="#2A2E39"/>
<path d="M49.8302 87.4294H48.1738V89.0904H49.8302V87.4294Z" fill="#2A2E39"/>
<path d="M49.8302 84.1075H48.1738V85.7685H49.8302V84.1075Z" fill="#2A2E39"/>
<path d="M49.8302 80.924H48.1738V82.585H49.8302V80.924Z" fill="#2A2E39"/>
<path d="M49.8302 77.6021H48.1738V79.263H49.8302V77.6021Z" fill="#2A2E39"/>
<path d="M49.8302 74.2801H48.1738V75.9411H49.8302V74.2801Z" fill="#3E475F"/>
<path d="M49.8302 71.0966H48.1738V72.7576H49.8302V71.0966Z" fill="#2A2E39"/>
<path d="M49.8302 67.7747H48.1738V69.4356H49.8302V67.7747Z" fill="url(#paint30_linear_23:93)"/>
<path d="M49.8302 64.5912H48.1738V66.2521H49.8302V64.5912Z" fill="#2A2E39"/>
<path d="M53.1432 87.4294H51.4868V89.0904H53.1432V87.4294Z" fill="#2A2E39"/>
<path d="M53.1432 80.924H51.4868V82.585H53.1432V80.924Z" fill="#2A2E39"/>
<path d="M53.1432 77.6021H51.4868V79.263H53.1432V77.6021Z" fill="#3E475F"/>
<path d="M39.0636 56.0094C38.6495 56.0094 38.3734 55.7326 38.3734 55.3173V53.9332C38.3734 53.5179 38.6495 53.2411 39.0636 53.2411C39.4777 53.2411 39.7538 53.5179 39.7538 53.9332V55.3173C39.7538 55.7326 39.3397 56.0094 39.0636 56.0094Z" fill="#718CFF"/>
<path d="M39.064 50.6112C38.6498 50.6112 38.3738 50.3344 38.3738 49.9191V47.1509C38.3738 46.7356 38.6498 46.4588 39.064 46.4588C39.4781 46.4588 39.7541 46.7356 39.7541 47.1509V49.9191C39.7541 50.3344 39.34 50.6112 39.064 50.6112ZM131.271 49.0886C130.857 49.0886 130.581 48.8118 130.581 48.3966V45.6283C130.581 45.2131 130.857 44.9362 131.271 44.9362C131.685 44.9362 131.961 45.2131 131.961 45.6283V48.3966C131.961 48.6734 131.685 49.0886 131.271 49.0886ZM39.064 43.8289C38.6498 43.8289 38.3738 43.5521 38.3738 43.1369V40.3686C38.3738 39.9533 38.6498 39.6765 39.064 39.6765C39.4781 39.6765 39.7541 39.9533 39.7541 40.3686V43.1369C39.7541 43.5521 39.34 43.8289 39.064 43.8289ZM131.271 42.3064C130.857 42.3064 130.581 42.0295 130.581 41.6143V38.846C130.581 38.4308 130.857 38.154 131.271 38.154C131.685 38.154 131.961 38.4308 131.961 38.846V41.6143C131.961 41.8911 131.685 42.3064 131.271 42.3064ZM39.064 37.0466C38.6498 37.0466 38.3738 36.7698 38.3738 36.3546V33.5863C38.3738 33.1711 38.6498 32.8942 39.064 32.8942C39.4781 32.8942 39.7541 33.1711 39.7541 33.5863V36.3546C39.7541 36.7698 39.34 37.0466 39.064 37.0466ZM131.271 35.5241C130.857 35.5241 130.581 35.2473 130.581 34.832V32.0637C130.581 31.6485 130.857 31.3717 131.271 31.3717C131.685 31.3717 131.961 31.6485 131.961 32.0637V34.832C131.961 35.1089 131.685 35.5241 131.271 35.5241ZM39.064 30.126C38.6498 30.126 38.3738 29.8491 38.3738 29.4339V29.2955C38.3738 28.3266 38.6498 27.3577 39.064 26.5272C39.202 26.2504 39.6161 26.112 40.0302 26.2504C40.3063 26.3888 40.4443 26.804 40.3063 27.2193C40.0302 27.9113 39.7541 28.6034 39.7541 29.4339C39.7541 29.8491 39.34 30.126 39.064 30.126ZM131.133 28.7418C130.857 28.7418 130.581 28.6034 130.443 28.1882C130.305 27.3577 129.891 26.6656 129.339 26.112C129.063 25.8351 129.063 25.4199 129.339 25.1431C129.615 24.8662 130.029 24.8662 130.305 25.1431C130.995 25.8351 131.409 26.804 131.685 27.7729C131.823 28.1882 131.547 28.465 131.133 28.6034C131.271 28.7418 131.133 28.7418 131.133 28.7418ZM42.5148 24.8662C42.2388 24.8662 41.9627 24.7278 41.8246 24.451C41.6866 24.0357 41.8246 23.7589 42.2388 23.4821C43.067 23.2053 43.8952 22.9284 44.7234 22.9284H45.1375C45.5516 22.9284 45.8277 23.2053 45.8277 23.6205C45.8277 24.0357 45.5516 24.451 45.1375 24.451H44.7234C44.0332 24.451 43.343 24.5894 42.7909 24.8662C42.6529 24.8662 42.5148 24.8662 42.5148 24.8662ZM126.302 24.451C126.026 24.451 125.75 24.451 125.612 24.451H123.541C123.127 24.451 122.851 24.1742 122.851 23.7589C122.851 23.3437 123.127 23.0669 123.541 23.0669H125.612C125.888 23.0669 126.164 23.0669 126.44 23.0669C126.854 23.0669 127.13 23.4821 126.992 23.8973C126.992 24.1742 126.716 24.451 126.302 24.451ZM119.538 24.451H116.778C116.363 24.451 116.087 24.1742 116.087 23.7589C116.087 23.3437 116.363 23.0669 116.778 23.0669H119.538C119.952 23.0669 120.228 23.3437 120.228 23.7589C120.228 24.1742 119.952 24.451 119.538 24.451ZM112.774 24.451H110.014C109.6 24.451 109.324 24.1742 109.324 23.7589C109.324 23.3437 109.6 23.0669 110.014 23.0669H112.774C113.189 23.0669 113.465 23.3437 113.465 23.7589C113.465 24.1742 113.189 24.451 112.774 24.451ZM106.011 24.451H103.25C102.836 24.451 102.56 24.1742 102.56 23.7589C102.56 23.3437 102.836 23.0669 103.25 23.0669H106.011C106.425 23.0669 106.701 23.3437 106.701 23.7589C106.701 24.1742 106.425 24.451 106.011 24.451ZM99.2471 24.451H96.4864C96.0723 24.451 95.7962 24.1742 95.7962 23.7589C95.7962 23.3437 96.0723 23.0669 96.4864 23.0669H99.2471C99.6612 23.0669 99.9373 23.3437 99.9373 23.7589C99.9373 24.1742 99.6612 24.451 99.2471 24.451ZM92.4834 24.451H89.7227C89.3086 24.451 89.0325 24.1742 89.0325 23.7589C89.0325 23.3437 89.4466 23.0669 89.7227 23.0669H92.4834C92.8975 23.0669 93.1736 23.3437 93.1736 23.7589C93.1736 24.1742 92.8975 24.451 92.4834 24.451ZM85.7197 24.451H82.959C82.5449 24.451 82.2688 24.1742 82.2688 23.7589C82.2688 23.3437 82.5449 23.0669 82.959 23.0669H85.7197C86.1338 23.0669 86.4099 23.3437 86.4099 23.7589C86.4099 24.1742 86.1338 24.451 85.7197 24.451ZM78.956 24.451H76.1953C75.7812 24.451 75.5051 24.1742 75.5051 23.7589C75.5051 23.3437 75.9192 23.0669 76.1953 23.0669H78.956C79.3701 23.0669 79.6462 23.3437 79.6462 23.7589C79.6462 24.1742 79.3701 24.451 78.956 24.451ZM72.1923 24.451H69.4316C69.0175 24.451 68.7414 24.1742 68.7414 23.7589C68.7414 23.3437 69.0175 23.0669 69.4316 23.0669H72.1923C72.6064 23.0669 72.8825 23.3437 72.8825 23.7589C72.8825 24.1742 72.6064 24.451 72.1923 24.451ZM65.4286 24.451H62.6679C62.2538 24.451 61.9777 24.1742 61.9777 23.7589C61.9777 23.3437 62.2538 23.0669 62.6679 23.0669H65.4286C65.8427 23.0669 66.1188 23.3437 66.1188 23.7589C66.1188 24.1742 65.8427 24.451 65.4286 24.451ZM58.6649 24.451H55.9042C55.4901 24.451 55.214 24.1742 55.214 23.7589C55.214 23.3437 55.4901 23.0669 55.9042 23.0669H58.6649C59.079 23.0669 59.3551 23.3437 59.3551 23.7589C59.3551 24.1742 59.079 24.451 58.6649 24.451ZM51.9012 24.451H49.1405C48.7264 24.451 48.4503 24.1742 48.4503 23.7589C48.4503 23.3437 48.7264 23.0669 49.1405 23.0669H51.9012C52.3153 23.0669 52.5914 23.3437 52.5914 23.7589C52.5914 24.1742 52.3153 24.451 51.9012 24.451Z" fill="#718CFF"/>
<path d="M131.271 54.4868C130.857 54.4868 130.581 54.21 130.581 53.7947V52.4106C130.581 51.9954 130.857 51.7185 131.271 51.7185C131.685 51.7185 131.961 51.9954 131.961 52.4106V53.7947C131.961 54.21 131.685 54.4868 131.271 54.4868Z" fill="#718CFF"/>
<path d="M108 21.5681C108 23.8953 106.979 26.0363 105.401 27.5257C103.915 28.8289 102.059 29.6667 99.9236 29.6667C99.9236 29.6667 99.4594 29.6667 88.8765 29.6667C88.5052 29.6667 88.1338 29.6667 87.6697 29.6667C87.0198 29.6667 86.37 29.6667 85.7202 29.6667H73.0949C67.7106 29.8529 63.4403 25.4778 63.4403 20.358C63.4403 15.145 67.7106 10.863 73.0949 11.0492H73.1877C73.7447 9.37361 74.4874 7.8842 75.4157 6.67406C75.4157 6.67406 75.4157 6.67406 75.4157 6.58097C77.0867 4.34687 79.2219 2.76438 81.6355 1.92659C81.7284 1.92659 81.914 1.8335 82.0069 1.8335C85.256 0.716447 88.8765 0.809535 92.0328 2.01968C96.5816 3.69525 100.295 7.60494 101.038 13.5626C104.937 14.1211 108 17.4722 108 21.5681Z" fill="url(#paint31_linear_23:93)"/>
<path d="M99.9234 29.6669C104.384 29.6669 108 26.041 108 21.5682C108 17.0955 104.384 13.4696 99.9234 13.4696C95.4629 13.4696 91.8469 17.0955 91.8469 21.5682C91.8469 26.041 95.4629 29.6669 99.9234 29.6669Z" fill="url(#paint32_linear_23:93)"/>
<path d="M86.7416 29.6669C94.6372 29.6669 101.038 23.2487 101.038 15.3314C101.038 7.41414 94.6372 0.995911 86.7416 0.995911C78.846 0.995911 72.4453 7.41414 72.4453 15.3314C72.4453 23.2487 78.846 29.6669 86.7416 29.6669Z" fill="url(#paint33_linear_23:93)"/>
<path d="M105.449 27.5902C103.963 28.8934 102.107 29.7312 99.9716 29.7312C99.9716 29.7312 99.5075 29.7312 88.9245 29.7312L88.8317 29.6381L82.1478 22.9358L82.2406 20.5155L78.2488 16.2335L82.6119 13.3478L87.1607 10.5551L92.3594 12.51L99.8788 21.2602L105.449 27.5902Z" fill="url(#paint34_linear_23:93)"/>
<path d="M83.2624 16.3265C83.5409 16.0472 83.5409 15.4887 83.2624 15.2094C82.9839 14.9302 82.5197 14.9302 82.0555 14.9302C83.448 11.2998 88.1825 10.5551 90.5962 13.4408C91.5245 14.4647 93.0098 13.1615 92.1743 12.0445C89.575 9.06565 85.0262 8.6933 82.0555 11.2998C80.9415 12.2306 80.1989 13.5339 79.8276 14.9302C78.8064 14.9302 78.6207 14.9302 78.4351 15.2094C78.1566 15.4887 78.1566 16.0472 78.4351 16.3265C81.2201 19.1191 80.4774 19.1191 83.2624 16.3265Z" fill="url(#paint35_linear_23:93)"/>
<path d="M95.5152 18.0952L93.6585 16.2334C93.38 15.9542 92.823 15.9542 92.5445 16.2334L90.6878 18.0952C90.4094 18.3745 90.4094 18.933 90.6878 19.2122C90.9663 19.4915 91.4305 19.4915 91.8947 19.4915C90.5022 23.1219 85.6749 23.9597 83.1684 20.8878C82.7971 20.4224 82.1472 20.3293 81.6831 20.7016C80.1049 22.0049 83.8182 24.8906 87.1602 24.8906C90.4093 24.8906 93.1943 22.6565 94.1227 19.5846C95.1438 19.5846 95.3295 19.5846 95.5152 19.3053C95.7936 18.933 95.7936 18.4675 95.5152 18.0952Z" fill="url(#paint36_linear_23:93)"/>
<path d="M131.271 58.5009C132.338 58.5009 133.204 57.6333 133.204 56.5631C133.204 55.4929 132.338 54.6253 131.271 54.6253C130.204 54.6253 129.339 55.4929 129.339 56.5631C129.339 57.6333 130.204 58.5009 131.271 58.5009Z" stroke="#718CFF" stroke-miterlimit="10" stroke-linecap="round" stroke-linejoin="round"/>
<path d="M39.0636 59.4698C40.1309 59.4698 40.9961 58.6022 40.9961 57.532C40.9961 56.4618 40.1309 55.5942 39.0636 55.5942C37.9963 55.5942 37.1311 56.4618 37.1311 57.532C37.1311 58.6022 37.9963 59.4698 39.0636 59.4698Z" stroke="#718CFF" stroke-miterlimit="10" stroke-linecap="round" stroke-linejoin="round"/>
<defs>
<linearGradient id="paint0_linear_23:93" x1="142.29" y1="73.5304" x2="143.409" y2="73.5304" gradientUnits="userSpaceOnUse">
<stop stop-color="#FF66A9"/>
<stop offset="1" stop-color="#F53689"/>
</linearGradient>
<linearGradient id="paint1_linear_23:93" x1="137.365" y1="90.1414" x2="138.484" y2="90.1414" gradientUnits="userSpaceOnUse">
<stop stop-color="#FF66A9"/>
<stop offset="1" stop-color="#F53689"/>
</linearGradient>
<linearGradient id="paint2_linear_23:93" x1="152.139" y1="85.2022" x2="153.259" y2="85.2022" gradientUnits="userSpaceOnUse">
<stop stop-color="#FF66A9"/>
<stop offset="1" stop-color="#F53689"/>
</linearGradient>
<linearGradient id="paint3_linear_23:93" x1="139.827" y1="103.161" x2="140.946" y2="103.161" gradientUnits="userSpaceOnUse">
<stop stop-color="#FF66A9"/>
<stop offset="1" stop-color="#F53689"/>
</linearGradient>
<linearGradient id="paint4_linear_23:93" x1="152.139" y1="106.753" x2="153.258" y2="106.753" gradientUnits="userSpaceOnUse">
<stop stop-color="#FF66A9"/>
<stop offset="1" stop-color="#F53689"/>
</linearGradient>
<linearGradient id="paint5_linear_23:93" x1="111.763" y1="73.5303" x2="112.882" y2="73.5303" gradientUnits="userSpaceOnUse">
<stop stop-color="#FF66A9"/>
<stop offset="1" stop-color="#F53689"/>
</linearGradient>
<linearGradient id="paint6_linear_23:93" x1="106.837" y1="90.1415" x2="107.956" y2="90.1415" gradientUnits="userSpaceOnUse">
<stop stop-color="#FF66A9"/>
<stop offset="1" stop-color="#F53689"/>
</linearGradient>
<linearGradient id="paint7_linear_23:93" x1="121.612" y1="85.2024" x2="122.731" y2="85.2024" gradientUnits="userSpaceOnUse">
<stop stop-color="#FF66A9"/>
<stop offset="1" stop-color="#F53689"/>
</linearGradient>
<linearGradient id="paint8_linear_23:93" x1="109.3" y1="103.161" x2="110.419" y2="103.161" gradientUnits="userSpaceOnUse">
<stop stop-color="#FF66A9"/>
<stop offset="1" stop-color="#F53689"/>
</linearGradient>
<linearGradient id="paint9_linear_23:93" x1="121.612" y1="106.753" x2="122.731" y2="106.753" gradientUnits="userSpaceOnUse">
<stop stop-color="#FF66A9"/>
<stop offset="1" stop-color="#F53689"/>
</linearGradient>
<linearGradient id="paint10_linear_23:93" x1="125.364" y1="54.3919" x2="126.534" y2="54.3919" gradientUnits="userSpaceOnUse">
<stop stop-color="#FF66A9"/>
<stop offset="1" stop-color="#F53689"/>
</linearGradient>
<linearGradient id="paint11_linear_23:93" x1="125.364" y1="71.5941" x2="126.534" y2="71.5941" gradientUnits="userSpaceOnUse">
<stop stop-color="#FF66A9"/>
<stop offset="1" stop-color="#F53689"/>
</linearGradient>
<linearGradient id="paint12_linear_23:93" x1="120.217" y1="88.9547" x2="121.387" y2="88.9547" gradientUnits="userSpaceOnUse">
<stop stop-color="#FF66A9"/>
<stop offset="1" stop-color="#F53689"/>
</linearGradient>
<linearGradient id="paint13_linear_23:93" x1="135.658" y1="83.7927" x2="136.828" y2="83.7927" gradientUnits="userSpaceOnUse">
<stop stop-color="#FF66A9"/>
<stop offset="1" stop-color="#F53689"/>
</linearGradient>
<linearGradient id="paint14_linear_23:93" x1="122.79" y1="102.562" x2="123.96" y2="102.562" gradientUnits="userSpaceOnUse">
<stop stop-color="#FF66A9"/>
<stop offset="1" stop-color="#F53689"/>
</linearGradient>
<linearGradient id="paint15_linear_23:93" x1="135.659" y1="106.315" x2="136.829" y2="106.315" gradientUnits="userSpaceOnUse">
<stop stop-color="#FF66A9"/>
<stop offset="1" stop-color="#F53689"/>
</linearGradient>
<linearGradient id="paint16_linear_23:93" x1="38.8441" y1="115.628" x2="38.8441" y2="102.712" gradientUnits="userSpaceOnUse">
<stop stop-color="#474755"/>
<stop offset="0.9913" stop-color="#2F3338"/>
</linearGradient>
<linearGradient id="paint17_linear_23:93" x1="4.22565" y1="75.169" x2="5.88303" y2="75.169" gradientUnits="userSpaceOnUse">
<stop stop-color="#FF66A9"/>
<stop offset="1" stop-color="#F53689"/>
</linearGradient>
<linearGradient id="paint18_linear_23:93" x1="7.6042" y1="62.1297" x2="9.26159" y2="62.1297" gradientUnits="userSpaceOnUse">
<stop stop-color="#FF66A9"/>
<stop offset="1" stop-color="#F53689"/>
</linearGradient>
<linearGradient id="paint19_linear_23:93" x1="10.9825" y1="75.169" x2="12.6398" y2="75.169" gradientUnits="userSpaceOnUse">
<stop stop-color="#83A6FF"/>
<stop offset="1" stop-color="#5A78FF"/>
</linearGradient>
<linearGradient id="paint20_linear_23:93" x1="17.7396" y1="71.9092" x2="19.3968" y2="71.9092" gradientUnits="userSpaceOnUse">
<stop stop-color="#FF66A9"/>
<stop offset="1" stop-color="#F53689"/>
</linearGradient>
<linearGradient id="paint21_linear_23:93" x1="27.8738" y1="88.2083" x2="29.5311" y2="88.2083" gradientUnits="userSpaceOnUse">
<stop stop-color="#83A6FF"/>
<stop offset="1" stop-color="#5A78FF"/>
</linearGradient>
<linearGradient id="paint22_linear_23:93" x1="31.2523" y1="81.6887" x2="32.9096" y2="81.6887" gradientUnits="userSpaceOnUse">
<stop stop-color="#FF66A9"/>
<stop offset="1" stop-color="#F53689"/>
</linearGradient>
<linearGradient id="paint23_linear_23:93" x1="58.3064" y1="71.9092" x2="59.9636" y2="71.9092" gradientUnits="userSpaceOnUse">
<stop stop-color="#FF66A9"/>
<stop offset="1" stop-color="#F53689"/>
</linearGradient>
<linearGradient id="paint24_linear_23:93" x1="68.4406" y1="88.2083" x2="70.098" y2="88.2083" gradientUnits="userSpaceOnUse">
<stop stop-color="#83A6FF"/>
<stop offset="1" stop-color="#5A78FF"/>
</linearGradient>
<linearGradient id="paint25_linear_23:93" x1="68.4406" y1="71.9092" x2="70.098" y2="71.9092" gradientUnits="userSpaceOnUse">
<stop stop-color="#83A6FF"/>
<stop offset="1" stop-color="#5A78FF"/>
</linearGradient>
<linearGradient id="paint26_linear_23:93" x1="71.8192" y1="81.6887" x2="73.4766" y2="81.6887" gradientUnits="userSpaceOnUse">
<stop stop-color="#FF66A9"/>
<stop offset="1" stop-color="#F53689"/>
</linearGradient>
<linearGradient id="paint27_linear_23:93" x1="38.0092" y1="71.9092" x2="39.6665" y2="71.9092" gradientUnits="userSpaceOnUse">
<stop stop-color="#83A6FF"/>
<stop offset="1" stop-color="#5A78FF"/>
</linearGradient>
<linearGradient id="paint28_linear_23:93" x1="41.3875" y1="78.4288" x2="43.0449" y2="78.4288" gradientUnits="userSpaceOnUse">
<stop stop-color="#FF66A9"/>
<stop offset="1" stop-color="#F53689"/>
</linearGradient>
<linearGradient id="paint29_linear_23:93" x1="41.3875" y1="68.6494" x2="43.0449" y2="68.6494" gradientUnits="userSpaceOnUse">
<stop stop-color="#83A6FF"/>
<stop offset="1" stop-color="#5A78FF"/>
</linearGradient>
<linearGradient id="paint30_linear_23:93" x1="48.1444" y1="68.6494" x2="49.8018" y2="68.6494" gradientUnits="userSpaceOnUse">
<stop stop-color="#FF66A9"/>
<stop offset="1" stop-color="#F53689"/>
</linearGradient>
<linearGradient id="paint31_linear_23:93" x1="85.7446" y1="0.907434" x2="85.7446" y2="29.6877" gradientUnits="userSpaceOnUse">
<stop stop-color="#83A6FF"/>
<stop offset="1" stop-color="#5A78FF"/>
</linearGradient>
<linearGradient id="paint32_linear_23:93" x1="91.0378" y1="11.8445" x2="98.2179" y2="19.656" gradientUnits="userSpaceOnUse">
<stop stop-color="#83A6FF"/>
<stop offset="1" stop-color="#87A5FF" stop-opacity="0"/>
</linearGradient>
<linearGradient id="paint33_linear_23:93" x1="75.901" y1="6.96404" x2="80.7183" y2="10.6671" gradientUnits="userSpaceOnUse">
<stop stop-color="#83A6FF"/>
<stop offset="1" stop-color="#87A5FF" stop-opacity="0"/>
</linearGradient>
<linearGradient id="paint34_linear_23:93" x1="83.0522" y1="13.3954" x2="100.275" y2="30.571" gradientUnits="userSpaceOnUse">
<stop stop-color="#4F6AFF"/>
<stop offset="1" stop-color="#657EFF" stop-opacity="0"/>
</linearGradient>
<linearGradient id="paint35_linear_23:93" x1="93.0353" y1="21.903" x2="85.6586" y2="14.5465" gradientUnits="userSpaceOnUse">
<stop offset="0.0113208" stop-color="#C2D1FF"/>
<stop offset="1" stop-color="white"/>
</linearGradient>
<linearGradient id="paint36_linear_23:93" x1="91.631" y1="23.3101" x2="84.2542" y2="15.9536" gradientUnits="userSpaceOnUse">
<stop offset="0.0113208" stop-color="#C2D1FF"/>
<stop offset="1" stop-color="white"/>
</linearGradient>
</defs>
</svg>
