<svg width="206" height="106" viewBox="0 0 206 106" fill="none" xmlns="http://www.w3.org/2000/svg">
<path d="M51.8709 52.2281C51.2257 52.2281 50.8386 51.8422 50.8386 51.199C50.8386 50.5558 51.2257 50.1699 51.8709 50.1699C52.516 50.1699 52.9031 50.5558 52.9031 51.199C52.9031 51.8422 52.387 52.2281 51.8709 52.2281Z" fill="#6A83FF"/>
<path d="M51.8709 74.0971C51.2257 74.0971 50.8386 73.7112 50.8386 73.068C50.8386 72.4248 51.2257 72.0388 51.8709 72.0388C52.516 72.0388 52.9031 72.4248 52.9031 73.068C52.9031 73.7112 52.387 74.0971 51.8709 74.0971Z" fill="#6A83FF"/>
<path d="M15.2264 18.5243H14.9683C14.4522 18.5243 13.936 18.9102 13.936 19.5534C13.936 20.1966 14.3231 20.5825 14.9683 20.5825H15.2264C15.7425 20.5825 16.2586 20.1966 16.2586 19.5534C16.2586 18.9102 15.7425 18.5243 15.2264 18.5243Z" fill="url(#paint0_linear_23:603)"/>
<path d="M11.0972 18.5243H10.8391C10.323 18.5243 9.80688 18.9102 9.80688 19.5534C9.80688 20.1966 10.194 20.5825 10.8391 20.5825H11.0972C11.6133 20.5825 12.1295 20.1966 12.1295 19.5534C12.1295 18.9102 11.6133 18.5243 11.0972 18.5243Z" fill="url(#paint1_linear_23:603)"/>
<path d="M19.3545 18.5243H19.0965C18.5803 18.5243 18.0642 18.9102 18.0642 19.4248C18.0642 19.9393 18.4513 20.4539 18.9674 20.4539H19.2255C19.2255 20.4539 19.2255 20.4539 19.3545 20.4539C19.8707 20.4539 20.2578 20.068 20.2578 19.5534C20.2578 19.0389 19.8707 18.6529 19.3545 18.5243Z" fill="url(#paint2_linear_23:603)"/>
<path d="M28.3873 31.1312C28.3873 30.6166 28.0002 30.1021 27.355 30.1021C26.7099 30.1021 26.3228 30.488 26.3228 31.1312V31.3885C26.3228 31.903 26.7099 32.4176 27.355 32.4176C28.0002 32.4176 28.3873 32.0317 28.3873 31.3885V31.1312Z" fill="url(#paint3_linear_23:603)"/>
<path d="M26.7089 23.0268L26.5799 22.7695C26.3218 22.3836 25.6766 22.2549 25.2895 22.5122C24.9024 22.7695 24.7734 23.4127 25.0315 23.7986L25.1605 24.0559C25.2895 24.3132 25.6766 24.4418 25.9347 24.4418C26.0637 24.4418 26.3218 24.4418 26.4508 24.3132C26.967 24.0559 27.096 23.5413 26.7089 23.0268Z" fill="url(#paint4_linear_23:603)"/>
<path d="M27.355 34.2185C26.8389 34.2185 26.3228 34.6045 26.3228 35.2477V35.5049C26.3228 36.0195 26.7099 36.5341 27.355 36.5341C28.0002 36.5341 28.3873 36.0195 28.3873 35.5049V35.2477C28.3873 34.6045 27.8711 34.2185 27.355 34.2185Z" fill="url(#paint5_linear_23:603)"/>
<path d="M7.09623 18.5243H6.83817C6.32204 18.5243 5.80591 18.9102 5.80591 19.5534C5.80591 20.1966 6.19301 20.5825 6.83817 20.5825H7.09623C7.61236 20.5825 8.12849 20.1966 8.12849 19.5534C8.12849 18.9102 7.61236 18.5243 7.09623 18.5243Z" fill="url(#paint6_linear_23:603)"/>
<path d="M23.6132 19.9393L23.3551 19.8107C22.839 19.5534 22.3229 19.682 22.0648 20.1966C21.8068 20.7112 21.9358 21.2257 22.4519 21.483L22.581 21.6116C22.71 21.7403 22.968 21.7403 23.0971 21.7403C23.4842 21.7403 23.7422 21.6116 23.8713 21.2257C24.1293 20.8398 24.0003 20.1966 23.6132 19.9393Z" fill="url(#paint7_linear_23:603)"/>
<path d="M29.5479 46.568C29.2898 46.1821 28.6447 46.0534 28.2576 46.3107C27.8705 46.568 27.7414 47.2112 27.9995 47.5971L28.1285 47.8544C28.2576 48.1117 28.6447 48.2403 28.9027 48.2403C29.0318 48.2403 29.2898 48.2403 29.4188 48.1117C29.8059 47.8544 29.935 47.2112 29.6769 46.8253L29.5479 46.568Z" fill="url(#paint8_linear_23:603)"/>
<path d="M32.3876 49.1408L32.2586 49.0121C31.7424 48.7549 31.2263 48.8835 30.9682 49.2694C30.7102 49.784 30.8392 50.2986 31.2263 50.5558L31.4844 50.6845C31.6134 50.8131 31.7424 50.8131 32.0005 50.8131C32.3876 50.8131 32.6457 50.6845 32.9037 50.2986C33.0328 50.0413 32.7747 49.3981 32.3876 49.1408Z" fill="url(#paint9_linear_23:603)"/>
<path d="M35.7422 50.1699H35.4842C34.968 50.1699 34.4519 50.5558 34.4519 51.0704C34.4519 51.585 34.839 52.0995 35.3551 52.0995H35.6132C35.6132 52.0995 35.6132 52.0995 35.7422 52.0995C36.2584 52.0995 36.6455 51.7136 36.6455 51.199C36.7745 50.6845 36.3874 50.2986 35.7422 50.1699Z" fill="url(#paint10_linear_23:603)"/>
<path d="M27.3551 28.301C28.0003 28.1723 28.3874 27.7864 28.2583 27.2719V27.0146C28.1293 26.5 27.7422 26.1141 27.0971 26.2427C26.5809 26.3714 26.1938 26.7573 26.3229 27.4005V27.6578C26.4519 27.9151 26.839 28.301 27.3551 28.301Z" fill="url(#paint11_linear_23:603)"/>
<path d="M28.3867 43.352V43.0947C28.3867 42.5801 27.8705 42.1942 27.3544 42.1942C26.8383 42.1942 26.4512 42.7088 26.4512 43.2233C26.4512 43.352 26.4512 43.4806 26.4512 43.4806C26.5802 43.9952 26.9673 44.2525 27.3544 44.2525H27.4834C28.1286 44.3811 28.5157 43.8665 28.3867 43.352Z" fill="url(#paint12_linear_23:603)"/>
<path d="M27.355 40.5219C27.8711 40.5219 28.3873 40.136 28.3873 39.4928V39.2355C28.3873 38.7209 28.0002 38.2064 27.355 38.2064C26.7099 38.2064 26.3228 38.5923 26.3228 39.2355V39.4928C26.4518 40.0073 26.8389 40.5219 27.355 40.5219Z" fill="url(#paint13_linear_23:603)"/>
<path d="M2.83865 18.5243C2.32253 18.5243 1.8064 18.9102 1.8064 19.5534C1.8064 20.1967 2.19349 20.5826 2.83865 20.5826H2.96769C3.48382 20.5826 3.87091 20.1967 3.87091 19.5534C3.87091 18.9102 3.35478 18.5243 2.83865 18.5243Z" fill="url(#paint14_linear_23:603)"/>
<path d="M51.871 50.2986H47.871H47.613H43.742H43.4839H39.742H39.4839C38.9678 50.2986 38.4517 50.6845 38.4517 51.3277C38.4517 51.9709 38.8388 52.3568 39.4839 52.3568H39.742H43.4839H43.871H47.742H48H52C52.5162 52.3568 53.0323 51.9709 53.0323 51.3277C53.0323 50.6845 52.3871 50.2986 51.871 50.2986Z" fill="url(#paint15_linear_23:603)"/>
<path d="M51.8709 62.7768C51.2257 62.7768 50.8386 62.3908 50.8386 61.7476C50.8386 61.1044 51.2257 60.7185 51.8709 60.7185C52.516 60.7185 52.9031 61.1044 52.9031 61.7476C52.9031 62.3908 52.387 62.7768 51.8709 62.7768Z" fill="#EE4192"/>
<path d="M18.065 60.8472H17.8069C17.2908 60.8472 16.7747 61.2332 16.7747 61.8764C16.7747 62.5196 17.1618 62.9055 17.8069 62.9055H18.065C18.5811 62.9055 19.0972 62.5196 19.0972 61.8764C19.0972 61.2332 18.5811 60.8472 18.065 60.8472Z" fill="url(#paint16_linear_23:603)"/>
<path d="M22.3225 60.8472H22.0645C21.5484 60.8472 21.0322 61.2332 21.0322 61.8764C21.0322 62.5196 21.4193 62.9055 22.0645 62.9055H22.3225C22.8387 62.9055 23.3548 62.5196 23.3548 61.8764C23.3548 61.2332 22.8387 60.8472 22.3225 60.8472Z" fill="url(#paint17_linear_23:603)"/>
<path d="M13.8064 60.8472H13.5484C13.0322 60.8472 12.5161 61.2332 12.5161 61.8764C12.5161 62.5196 12.9032 62.9055 13.5484 62.9055H13.8064C14.3226 62.9055 14.8387 62.5196 14.8387 61.8764C14.8387 61.2332 14.3226 60.8472 13.8064 60.8472Z" fill="url(#paint18_linear_23:603)"/>
<path d="M9.54887 60.8472H9.2908C8.77467 60.8472 8.25854 61.2332 8.25854 61.8764C8.25854 62.5196 8.64564 62.9055 9.2908 62.9055H9.54887C10.065 62.9055 10.5811 62.5196 10.5811 61.8764C10.5811 61.2332 10.065 60.8472 9.54887 60.8472Z" fill="url(#paint19_linear_23:603)"/>
<path d="M5.29008 60.8472H5.03201C4.51589 60.8472 3.99976 61.2332 3.99976 61.8764C3.99976 62.5196 4.38685 62.9055 5.03201 62.9055H5.29008C5.80621 62.9055 6.32234 62.5196 6.32234 61.8764C6.32234 61.2332 5.93524 60.8472 5.29008 60.8472Z" fill="url(#paint20_linear_23:603)"/>
<path d="M35.0965 60.8472H34.8384C34.3223 60.8472 33.8062 61.2332 33.8062 61.8764C33.8062 62.5196 34.1932 62.9055 34.8384 62.9055H35.0965C35.6126 62.9055 36.1287 62.5196 36.1287 61.8764C36.1287 61.2332 35.6126 60.8472 35.0965 60.8472Z" fill="url(#paint21_linear_23:603)"/>
<path d="M26.5813 60.8472H26.3233C25.8071 60.8472 25.291 61.2332 25.291 61.8764C25.291 62.5196 25.6781 62.9055 26.3233 62.9055H26.5813C27.0975 62.9055 27.6136 62.5196 27.6136 61.8764C27.6136 61.2332 27.0975 60.8472 26.5813 60.8472Z" fill="url(#paint22_linear_23:603)"/>
<path d="M30.8389 60.8472H30.5808C30.0647 60.8472 29.5486 61.2332 29.5486 61.8764C29.5486 62.5196 29.9357 62.9055 30.5808 62.9055H30.8389C31.355 62.9055 31.8712 62.5196 31.8712 61.8764C31.8712 61.2332 31.355 60.8472 30.8389 60.8472Z" fill="url(#paint23_linear_23:603)"/>
<path d="M1.16129 60.8472H1.03226C0.516129 60.8472 0 61.2331 0 61.8763C0 62.5195 0.387097 62.9055 1.03226 62.9055H1.16129C1.67742 62.9055 2.19355 62.5195 2.19355 61.8763C2.19355 61.2331 1.67742 60.8472 1.16129 60.8472Z" fill="url(#paint24_linear_23:603)"/>
<path d="M51.8712 60.8472H47.7421H47.4841H43.4841H43.226H39.6131H39.4841H39.355H39.097C38.5808 60.8472 38.0647 61.2332 38.0647 61.8764C38.0647 62.5196 38.4518 62.9055 39.097 62.9055H39.355H39.4841H39.6131H43.226H43.4841H47.4841H47.7421H51.8712C52.3873 62.9055 52.9034 62.5196 52.9034 61.8764C52.9034 61.2332 52.3873 60.8472 51.8712 60.8472Z" fill="url(#paint25_linear_23:603)"/>
<path d="M22.581 102.784L22.4519 102.913C21.9358 103.17 21.8068 103.813 22.0648 104.199C22.1939 104.456 22.581 104.714 22.968 104.714C23.0971 104.714 23.2261 104.714 23.4842 104.585L23.7422 104.456C24.2584 104.199 24.3874 103.556 24.0003 103.17C23.6132 102.655 22.968 102.398 22.581 102.784Z" fill="url(#paint26_linear_23:603)"/>
<path d="M19.0971 103.813H18.839C18.3229 103.813 17.9358 104.328 17.9358 104.842C17.9358 105.357 18.4519 105.743 18.839 105.743H19.0971C19.6132 105.743 20.0003 105.228 20.0003 104.714C20.1293 104.199 19.6132 103.813 19.0971 103.813Z" fill="url(#paint27_linear_23:603)"/>
<path d="M27.4845 95.9661C26.9684 95.8375 26.4523 96.2234 26.4523 96.8666V97.1239C26.3232 97.6385 26.7103 98.153 27.2264 98.2817H27.3555C27.8716 98.2817 28.2587 97.8958 28.2587 97.5098V97.2526C28.3877 96.6093 28.0006 96.0948 27.4845 95.9661Z" fill="url(#paint28_linear_23:603)"/>
<path d="M15.2273 103.942H14.9693C14.4531 103.942 13.937 104.328 13.937 104.971C13.937 105.614 14.3241 106 14.9693 106H15.2273C15.7435 106 16.2596 105.614 16.2596 104.971C16.2596 104.328 15.7435 103.942 15.2273 103.942Z" fill="url(#paint29_linear_23:603)"/>
<path d="M27.356 91.9782C26.8399 91.9782 26.3237 92.3641 26.3237 93.0073V93.2646C26.3237 93.7792 26.7108 94.2937 27.356 94.2937C28.0012 94.2937 28.3882 93.9078 28.3882 93.2646V93.0073C28.3882 92.3641 27.8721 91.9782 27.356 91.9782Z" fill="url(#paint30_linear_23:603)"/>
<path d="M7.09721 103.942H6.83914C6.32301 103.942 5.80688 104.328 5.80688 104.971C5.80688 105.614 6.19398 106 6.83914 106H7.09721C7.61334 106 8.12947 105.614 8.12947 104.971C8.12947 104.328 7.61334 103.942 7.09721 103.942Z" fill="url(#paint31_linear_23:603)"/>
<path d="M11.0972 103.942H10.8391C10.323 103.942 9.80688 104.328 9.80688 104.971C9.80688 105.614 10.194 106 10.8391 106H11.0972C11.6133 106 12.1295 105.614 12.1295 104.971C12.1295 104.328 11.6133 103.942 11.0972 103.942Z" fill="url(#paint32_linear_23:603)"/>
<path d="M26.4521 99.9539C26.065 99.6966 25.4198 99.8252 25.1617 100.211L25.0327 100.468C24.7746 100.854 24.9037 101.498 25.2908 101.755C25.4198 101.883 25.6779 101.883 25.8069 101.883C26.065 101.883 26.4521 101.755 26.5811 101.498L26.7101 101.24C27.0972 100.854 26.9682 100.211 26.4521 99.9539Z" fill="url(#paint33_linear_23:603)"/>
<path d="M31.3557 73.4539L31.0976 73.5826C30.5815 73.8399 30.4525 74.4831 30.8396 74.869C30.9686 75.1263 31.3557 75.3835 31.6138 75.3835C31.7428 75.3835 32.0009 75.3835 32.1299 75.2549L32.2589 75.1263C32.7751 74.869 32.9041 74.2258 32.646 73.8399C32.388 73.4539 31.8718 73.1967 31.3557 73.4539Z" fill="url(#paint34_linear_23:603)"/>
<path d="M35.6142 72.1676H35.3561C34.84 72.1676 34.4529 72.6821 34.4529 73.1967C34.4529 73.7113 34.969 74.0972 35.3561 74.0972H35.4851H35.7432C36.2593 74.0972 36.6464 73.5826 36.6464 73.0681C36.6464 72.5535 36.1303 72.1676 35.6142 72.1676Z" fill="url(#paint35_linear_23:603)"/>
<path d="M28.1295 76.5413L28.0005 76.7986C27.7424 77.1845 27.8714 77.8277 28.2585 78.085C28.3876 78.2137 28.6456 78.2137 28.7747 78.2137C29.0327 78.2137 29.4198 78.085 29.5489 77.8277L29.6779 77.6991C29.936 77.3132 29.8069 76.67 29.4198 76.4127C29.0327 75.8981 28.3876 76.0268 28.1295 76.5413Z" fill="url(#paint36_linear_23:603)"/>
<path d="M27.356 87.8617C26.8399 87.8617 26.3237 88.2476 26.3237 88.8908V89.1481C26.3237 89.6627 26.7108 90.1772 27.356 90.1772C28.0012 90.1772 28.3882 89.7913 28.3882 89.1481V88.8908C28.3882 88.3763 27.8721 87.8617 27.356 87.8617Z" fill="url(#paint37_linear_23:603)"/>
<path d="M27.356 83.8738C26.8399 83.8738 26.3237 84.2598 26.3237 84.903V85.1602C26.3237 85.6748 26.7108 86.1894 27.356 86.1894C28.0012 86.1894 28.3882 85.8035 28.3882 85.1602V84.903C28.3882 84.2598 27.8721 83.8738 27.356 83.8738Z" fill="url(#paint38_linear_23:603)"/>
<path d="M27.6134 79.8859C27.0973 79.7573 26.5812 80.1432 26.4521 80.6578C26.4521 80.7864 26.4521 80.9151 26.4521 80.9151C26.4521 81.4296 26.8392 81.9442 27.3554 81.9442H27.4844C28.0005 81.9442 28.3876 81.5583 28.3876 81.0437V80.7864C28.5167 80.4005 28.1296 79.8859 27.6134 79.8859Z" fill="url(#paint39_linear_23:603)"/>
<path d="M2.83939 103.942C2.32326 103.942 1.80713 104.328 1.80713 104.971C1.80713 105.614 2.19423 106 2.83939 106H2.96842C3.48455 106 3.87165 105.614 3.87165 104.971C3.87165 104.328 3.35552 103.942 2.83939 103.942Z" fill="url(#paint40_linear_23:603)"/>
<path d="M51.8716 72.1676H47.8716H47.6136H43.7426H43.4845H39.6136H39.4845H39.3555C38.8394 72.1676 38.3232 72.5535 38.3232 73.1967C38.3232 73.8399 38.7103 74.2258 39.3555 74.2258H39.4845H39.6136H43.4845H43.8716H47.7426H48.0007H52.0007C52.5168 74.2258 53.0329 73.8399 53.0329 73.1967C53.0329 72.5535 52.3878 72.1676 51.8716 72.1676Z" fill="url(#paint41_linear_23:603)"/>
<path d="M153.291 52.2281C152.775 52.2281 152.259 51.8422 152.259 51.199C152.259 50.5558 152.646 50.1699 153.162 50.1699H153.291C153.807 50.1699 154.324 50.5558 154.324 51.199C154.324 51.8422 153.807 52.2281 153.291 52.2281Z" fill="#EE4192"/>
<path d="M153.291 74.0971C152.775 74.0971 152.259 73.7112 152.259 73.068C152.259 72.4248 152.646 72.0388 153.162 72.0388H153.291C153.807 72.0388 154.324 72.4248 154.324 73.068C154.324 73.7112 153.807 74.0971 153.291 74.0971Z" fill="#6A83FF"/>
<path d="M177.677 30.2306C177.161 30.2306 176.645 30.6165 176.645 31.2597V31.517C176.645 32.0316 177.032 32.5461 177.677 32.5461C178.322 32.5461 178.71 32.1602 178.71 31.517V31.2597C178.71 30.6165 178.193 30.2306 177.677 30.2306Z" fill="url(#paint42_linear_23:603)"/>
<path d="M177.677 34.2185C177.161 34.2185 176.645 34.6044 176.645 35.2476V35.5049C176.645 36.0195 177.032 36.534 177.677 36.534C178.322 36.534 178.71 36.1481 178.71 35.5049V35.2476C178.71 34.6044 178.193 34.2185 177.677 34.2185Z" fill="url(#paint43_linear_23:603)"/>
<path d="M177.678 42.3228C177.162 42.3228 176.646 42.7087 176.646 43.2233V43.4806C176.517 43.9951 176.904 44.5097 177.42 44.6383H177.549C178.065 44.6383 178.453 44.2524 178.453 43.8665C178.453 43.7379 178.453 43.6092 178.453 43.6092C178.711 42.8374 178.324 42.3228 177.678 42.3228Z" fill="url(#paint44_linear_23:603)"/>
<path d="M176.774 46.3107C176.387 46.0534 175.742 46.1821 175.484 46.568L175.355 46.6966C175.097 47.0825 175.226 47.7258 175.613 47.983C175.742 48.1117 176 48.1117 176.129 48.1117C176.387 48.1117 176.774 47.983 176.903 47.7257L177.032 47.4685C177.419 47.0825 177.29 46.568 176.774 46.3107Z" fill="url(#paint45_linear_23:603)"/>
<path d="M169.419 50.1699H169.161C168.645 50.1699 168.258 50.6845 168.258 51.199C168.258 51.7136 168.774 52.0995 169.161 52.0995C169.161 52.0995 169.161 52.0995 169.29 52.0995H169.548C170.065 52.0995 170.452 51.5849 170.452 51.0704C170.452 50.5558 170.065 50.1699 169.419 50.1699Z" fill="url(#paint46_linear_23:603)"/>
<path d="M172.904 49.0123L172.775 49.1409C172.259 49.3982 172.13 50.0414 172.388 50.4273C172.517 50.6846 172.904 50.9419 173.291 50.9419C173.42 50.9419 173.678 50.9419 173.807 50.8132L174.065 50.6846C174.582 50.4273 174.711 49.7841 174.324 49.3982C173.936 48.8836 173.291 48.755 172.904 49.0123Z" fill="url(#paint47_linear_23:603)"/>
<path d="M165.549 50.2986H165.291H161.549H161.291H157.42H157.162H153.162C152.646 50.2986 152.129 50.6846 152.129 51.3278C152.129 51.971 152.516 52.3569 153.162 52.3569H157.162H157.42H161.291H161.549H165.291H165.549C166.065 52.3569 166.581 51.971 166.581 51.3278C166.581 50.6846 166.065 50.2986 165.549 50.2986Z" fill="url(#paint48_linear_23:603)"/>
<path d="M177.677 38.335C177.161 38.335 176.645 38.7209 176.645 39.3641V39.6214C176.645 40.136 177.032 40.6506 177.677 40.6506C178.322 40.6506 178.71 40.2646 178.71 39.6214V39.3641C178.71 38.7209 178.193 38.335 177.677 38.335Z" fill="url(#paint49_linear_23:603)"/>
<path d="M194.193 18.5243H193.935C193.419 18.5243 192.903 18.9102 192.903 19.5534C192.903 20.1966 193.29 20.5825 193.935 20.5825H194.193C194.71 20.5825 195.226 20.1966 195.226 19.5534C195.226 18.9102 194.71 18.5243 194.193 18.5243Z" fill="url(#paint50_linear_23:603)"/>
<path d="M198.323 18.5243H198.065C197.549 18.5243 197.032 18.9102 197.032 19.5534C197.032 20.1966 197.42 20.5825 198.065 20.5825H198.323C198.839 20.5825 199.355 20.1966 199.355 19.5534C199.355 18.9102 198.839 18.5243 198.323 18.5243Z" fill="url(#paint51_linear_23:603)"/>
<path d="M190.194 18.5243H189.936C189.419 18.5243 188.903 18.9102 188.903 19.5534C188.903 20.1966 189.29 20.5825 189.936 20.5825H190.194C190.71 20.5825 191.226 20.1966 191.226 19.5534C191.226 18.9102 190.71 18.5243 190.194 18.5243Z" fill="url(#paint52_linear_23:603)"/>
<path d="M177.936 26.1141C177.42 25.9855 176.903 26.3714 176.774 26.886V27.1432C176.774 27.6578 177.032 28.1724 177.678 28.1724H177.807C178.323 28.1724 178.71 27.7864 178.71 27.2719V27.0146C178.839 26.7573 178.452 26.2427 177.936 26.1141Z" fill="url(#paint53_linear_23:603)"/>
<path d="M178.452 22.7695L178.323 23.0268C178.065 23.4127 178.194 24.0559 178.581 24.3132C178.71 24.4418 178.968 24.4418 179.097 24.4418C179.355 24.4418 179.742 24.3132 179.871 24.0559L180 23.7986C180.258 23.4127 180.129 22.7695 179.742 22.5122C179.355 22.2549 178.839 22.3836 178.452 22.7695Z" fill="url(#paint54_linear_23:603)"/>
<path d="M181.806 19.8106L181.548 19.9393C181.032 20.1966 180.903 20.8398 181.29 21.2257C181.419 21.483 181.806 21.7403 182.064 21.7403C182.193 21.7403 182.452 21.7403 182.581 21.6116L182.71 21.483C183.226 21.2257 183.355 20.5825 183.097 20.1966C182.839 19.682 182.193 19.5534 181.806 19.8106Z" fill="url(#paint55_linear_23:603)"/>
<path d="M186.065 18.5243H185.807C185.291 18.5243 184.904 19.0388 184.904 19.5534C184.904 20.068 185.42 20.4539 185.807 20.4539C185.807 20.4539 185.807 20.4539 185.936 20.4539H186.194C186.71 20.4539 187.097 19.9393 187.097 19.4247C186.968 18.9102 186.581 18.5243 186.065 18.5243Z" fill="url(#paint56_linear_23:603)"/>
<path d="M202.323 18.5243C201.678 18.5243 201.291 18.9102 201.291 19.5534C201.291 20.1966 201.807 20.5825 202.323 20.5825C202.839 20.5825 203.356 20.1966 203.356 19.5534C203.356 18.9102 202.839 18.5243 202.323 18.5243Z" fill="url(#paint57_linear_23:603)"/>
<path d="M153.291 62.7768C152.775 62.7768 152.259 62.3908 152.259 61.7476C152.259 61.1044 152.646 60.7185 153.162 60.7185H153.291C153.807 60.7185 154.324 61.1044 154.324 61.7476C154.324 62.3908 153.807 62.7768 153.291 62.7768Z" fill="#6A83FF"/>
<path d="M174.582 60.8472H174.324C173.808 60.8472 173.292 61.2332 173.292 61.8764C173.292 62.5196 173.679 62.9055 174.324 62.9055H174.582C175.098 62.9055 175.614 62.5196 175.614 61.8764C175.614 61.2332 175.098 60.8472 174.582 60.8472Z" fill="url(#paint58_linear_23:603)"/>
<path d="M178.839 60.8472H178.581C178.065 60.8472 177.549 61.2332 177.549 61.8764C177.549 62.5196 177.936 62.9055 178.581 62.9055H178.839C179.356 62.9055 179.872 62.5196 179.872 61.8764C179.872 61.2332 179.356 60.8472 178.839 60.8472Z" fill="url(#paint59_linear_23:603)"/>
<path d="M170.323 60.8472H170.065C169.549 60.8472 169.033 61.2332 169.033 61.8764C169.033 62.5196 169.42 62.9055 170.065 62.9055H170.323C170.839 62.9055 171.356 62.5196 171.356 61.8764C171.356 61.2332 170.839 60.8472 170.323 60.8472Z" fill="url(#paint60_linear_23:603)"/>
<path d="M166.065 60.8472H165.807H165.678H165.549H161.936H161.678H157.678H157.42H153.291C152.775 60.8472 152.259 61.2331 152.259 61.8763C152.259 62.5195 152.646 62.9055 153.291 62.9055H157.42H157.678H161.678H161.936H165.549H165.678H165.807H166.065C166.582 62.9055 167.098 62.5195 167.098 61.8763C167.098 61.2331 166.582 60.8472 166.065 60.8472Z" fill="url(#paint61_linear_23:603)"/>
<path d="M182.968 60.8472H182.71C182.194 60.8472 181.677 61.2332 181.677 61.8764C181.677 62.5196 182.065 62.9055 182.71 62.9055H182.968C183.484 62.9055 184 62.5196 184 61.8764C184 61.2332 183.613 60.8472 182.968 60.8472Z" fill="url(#paint62_linear_23:603)"/>
<path d="M195.742 60.8472H195.484C194.968 60.8472 194.452 61.2332 194.452 61.8764C194.452 62.5196 194.839 62.9055 195.484 62.9055H195.742C196.259 62.9055 196.775 62.5196 196.775 61.8764C196.775 61.2332 196.259 60.8472 195.742 60.8472Z" fill="url(#paint63_linear_23:603)"/>
<path d="M200 60.8472H199.742C199.226 60.8472 198.71 61.2332 198.71 61.8764C198.71 62.5196 199.097 62.9055 199.742 62.9055H200C200.516 62.9055 201.033 62.5196 201.033 61.8764C201.033 61.2332 200.516 60.8472 200 60.8472Z" fill="url(#paint64_linear_23:603)"/>
<path d="M191.484 60.8472H191.226C190.71 60.8472 190.194 61.2332 190.194 61.8764C190.194 62.5196 190.581 62.9055 191.226 62.9055H191.484C192 62.9055 192.516 62.5196 192.516 61.8764C192.516 61.2332 192 60.8472 191.484 60.8472Z" fill="url(#paint65_linear_23:603)"/>
<path d="M187.226 60.8472H186.968C186.452 60.8472 185.936 61.2332 185.936 61.8764C185.936 62.5196 186.323 62.9055 186.968 62.9055H187.226C187.742 62.9055 188.259 62.5196 188.259 61.8764C188.259 61.2332 187.742 60.8472 187.226 60.8472Z" fill="url(#paint66_linear_23:603)"/>
<path d="M204.13 60.8472C203.485 60.8472 203.098 61.2332 203.098 61.8764C203.098 62.5196 203.614 62.9055 204.13 62.9055C204.646 62.9055 205.162 62.5196 205.162 61.8764C205.162 61.2332 204.646 60.8472 204.13 60.8472Z" fill="url(#paint67_linear_23:603)"/>
<path d="M173.936 73.5826L173.678 73.454C173.162 73.1967 172.646 73.3254 172.388 73.8399C172.13 74.3545 172.259 74.869 172.775 75.1263L172.904 75.255C173.033 75.3836 173.291 75.3836 173.42 75.3836C173.807 75.3836 174.065 75.255 174.194 74.869C174.452 74.4831 174.323 73.9686 173.936 73.5826Z" fill="url(#paint68_linear_23:603)"/>
<path d="M177.034 76.7986L176.905 76.5413C176.647 76.1554 176.002 76.0267 175.615 76.284C175.227 76.5413 175.098 77.1845 175.356 77.5704L175.485 77.6991C175.614 77.9563 176.002 78.085 176.26 78.085C176.389 78.085 176.647 78.085 176.776 77.9563C177.292 77.8277 177.421 77.1845 177.034 76.7986Z" fill="url(#paint69_linear_23:603)"/>
<path d="M177.678 81.9441C178.323 81.9441 178.71 81.4296 178.581 80.915C178.581 80.7864 178.581 80.6577 178.581 80.6577C178.452 80.1431 177.936 79.7572 177.42 79.8859C176.904 80.0145 176.517 80.4004 176.646 81.0436V81.3009C176.775 81.6868 177.162 81.9441 177.678 81.9441Z" fill="url(#paint70_linear_23:603)"/>
<path d="M165.549 72.1675H165.42H165.291H161.42H161.162H157.291H157.032H153.032C152.516 72.1675 152 72.5535 152 73.1967C152 73.8399 152.387 74.2258 153.032 74.2258H157.032H157.291H161.162H161.42H165.291H165.42H165.549C166.065 74.2258 166.581 73.8399 166.581 73.1967C166.581 72.5535 166.065 72.1675 165.549 72.1675Z" fill="url(#paint71_linear_23:603)"/>
<path d="M177.678 87.8617C177.162 87.8617 176.646 88.2476 176.646 88.8908V89.1481C176.646 89.6626 177.033 90.1772 177.678 90.1772C178.323 90.1772 178.71 89.7913 178.71 89.1481V88.8908C178.71 88.3762 178.194 87.8617 177.678 87.8617Z" fill="url(#paint72_linear_23:603)"/>
<path d="M178.71 84.7743C178.71 84.2597 178.323 83.7452 177.678 83.7452C177.033 83.7452 176.646 84.1311 176.646 84.7743V85.0316C176.646 85.5461 177.033 86.0607 177.678 86.0607C178.323 86.0607 178.71 85.6748 178.71 85.0316V84.7743Z" fill="url(#paint73_linear_23:603)"/>
<path d="M177.678 94.165C178.194 94.165 178.71 93.7791 178.71 93.1359V92.8786C178.71 92.3641 178.323 91.8495 177.678 91.8495C177.033 91.8495 176.646 92.2354 176.646 92.8786V93.1359C176.775 93.7791 177.162 94.165 177.678 94.165Z" fill="url(#paint74_linear_23:603)"/>
<path d="M169.677 72.1675H169.419C168.903 72.1675 168.387 72.5534 168.387 73.068C168.387 73.5826 168.774 74.0971 169.29 74.0971H169.548H169.677C170.193 74.0971 170.581 73.7112 170.581 73.1966C170.581 72.6821 170.193 72.2962 169.677 72.1675Z" fill="url(#paint75_linear_23:603)"/>
<path d="M180.001 100.211C179.743 99.8252 179.098 99.6965 178.711 99.9538C178.324 100.211 178.195 100.854 178.453 101.24L178.582 101.498C178.711 101.755 179.098 101.883 179.356 101.883C179.485 101.883 179.743 101.883 179.872 101.755C180.259 101.498 180.388 100.854 180.13 100.468L180.001 100.211Z" fill="url(#paint76_linear_23:603)"/>
<path d="M178.71 97.1239V96.8666C178.71 96.352 178.194 95.9661 177.678 95.9661C177.162 95.9661 176.775 96.4807 176.775 96.9952V97.2525C176.904 97.7671 177.291 98.0243 177.678 98.0243H177.807C178.452 98.153 178.839 97.6384 178.71 97.1239Z" fill="url(#paint77_linear_23:603)"/>
<path d="M198.323 103.942H198.065C197.549 103.942 197.033 104.328 197.033 104.971C197.033 105.614 197.42 106 198.065 106H198.323C198.839 106 199.356 105.614 199.356 104.971C199.356 104.328 198.839 103.942 198.323 103.942Z" fill="url(#paint78_linear_23:603)"/>
<path d="M190.195 103.942H189.937C189.421 103.942 188.905 104.328 188.905 104.971C188.905 105.614 189.292 106 189.937 106H190.195C190.711 106 191.227 105.614 191.227 104.971C191.227 104.328 190.711 103.942 190.195 103.942Z" fill="url(#paint79_linear_23:603)"/>
<path d="M194.194 103.942H193.936C193.42 103.942 192.904 104.328 192.904 104.971C192.904 105.614 193.291 106 193.936 106H194.194C194.71 106 195.226 105.614 195.226 104.971C195.226 104.328 194.71 103.942 194.194 103.942Z" fill="url(#paint80_linear_23:603)"/>
<path d="M186.194 103.813H185.936C185.42 103.813 184.904 104.199 184.904 104.714C184.904 105.228 185.291 105.743 185.807 105.743H186.065C186.581 105.743 186.969 105.357 186.969 104.842C187.098 104.328 186.711 103.942 186.194 103.813Z" fill="url(#paint81_linear_23:603)"/>
<path d="M182.71 102.784L182.581 102.655C182.065 102.398 181.549 102.527 181.291 102.913C181.033 103.427 181.162 103.942 181.549 104.199L181.807 104.328C181.936 104.456 182.065 104.456 182.323 104.456C182.71 104.456 182.968 104.328 183.226 103.942C183.356 103.684 183.226 103.041 182.71 102.784Z" fill="url(#paint82_linear_23:603)"/>
<path d="M202.324 103.942C201.679 103.942 201.292 104.328 201.292 104.971C201.292 105.614 201.808 106 202.324 106C202.84 106 203.356 105.614 203.356 104.971C203.356 104.328 202.84 103.942 202.324 103.942Z" fill="url(#paint83_linear_23:603)"/>
<g filter="url(#filter0_d_23:603)">
<path d="M158.323 61.619C158.323 72.8107 149.162 81.9442 137.936 81.9442C137.678 81.9442 136.13 81.9442 123.872 81.9442C115.356 81.9442 101.807 81.9442 80.2589 81.9442H70.0653C56.3879 82.3302 45.6782 71.3957 45.6782 58.403C45.6782 45.2816 56.5169 34.3471 70.3234 34.8617C82.0653 -1.92957 136.001 3.21607 140.646 41.4224C150.581 42.8374 158.323 51.3277 158.323 61.619Z" fill="#5E6882"/>
</g>
<path d="M104.773 82.2017C124.798 82.2017 141.032 66.0176 141.032 46.0536C141.032 26.0896 124.798 9.90555 104.773 9.90555C84.7487 9.90555 68.5154 26.0896 68.5154 46.0536C68.5154 66.0176 84.7487 82.2017 104.773 82.2017Z" fill="url(#paint84_linear_23:603)"/>
<path d="M137.935 81.9442C149.194 81.9442 158.322 72.8443 158.322 61.619C158.322 50.3937 149.194 41.2937 137.935 41.2937C126.675 41.2937 117.548 50.3937 117.548 61.619C117.548 72.8443 126.675 81.9442 137.935 81.9442Z" fill="url(#paint85_linear_23:603)"/>
<path d="M119.096 38.335C118.193 38.335 116.258 37.5631 115.612 37.3059C112.129 35.7622 106.322 31.1311 103.225 31.1311C100.129 31.1311 94.3221 35.7622 90.8382 37.3059C90.1931 37.5631 88.2576 38.335 87.3544 38.335C86.064 38.335 85.0318 39.4928 85.1608 40.9078C85.5479 43.9952 86.3221 49.5267 88.5157 56.602C91.2253 65.3496 99.0963 70.6238 102.064 72.2962C102.838 72.6821 103.741 72.6821 104.387 72.2962C107.354 70.6238 115.225 65.3496 117.935 56.602C120.129 49.5267 121.032 43.9952 121.29 40.9078C121.419 39.4928 120.387 38.335 119.096 38.335Z" fill="url(#paint86_linear_23:603)"/>
<path d="M118.065 41.2937C117.807 43.7379 117.162 47.5971 115.742 52.4855C115.613 52.7428 115.613 53.0001 115.484 53.386C115.355 54.0292 115.097 54.801 114.839 55.4442C113.549 59.6894 110.839 63.034 108.13 65.4782C106.323 67.1505 104.388 68.437 103.226 69.2088C102.968 69.0802 102.581 68.8229 102.194 68.5656C98.9682 66.3787 93.5489 62.0049 91.6134 55.5729C89.6779 49.2695 88.7747 44.2525 88.5166 41.4224C90.065 41.1651 91.8714 40.3933 92.2585 40.2646C93.6779 39.6214 95.2263 38.5923 96.9037 37.5632C98.7102 36.4054 102.194 34.3471 103.355 34.3471C104.517 34.3471 108 36.534 109.807 37.5632C111.484 38.5923 113.033 39.6214 114.452 40.2646C114.71 40.2646 116.517 41.0365 118.065 41.2937Z" fill="url(#paint87_linear_23:603)"/>
<path opacity="0.4" d="M115.743 52.4854C115.614 52.7427 115.614 53 115.485 53.3859C115.355 54.0291 115.097 54.801 114.839 55.4442C113.549 59.6893 110.839 63.034 108.13 65.4782L98.8394 56.216L99.4845 51.3277L104.904 48.6262L101.549 48.8835L100.646 43.2233L105.42 42.1942L115.743 52.4854Z" fill="url(#paint88_linear_23:603)"/>
<path d="M106.324 47.3398V44.3811C106.324 42.966 105.163 41.551 103.872 41.2937C102.84 41.165 101.808 41.4223 101.163 42.1942C100.646 42.7087 100.259 43.4806 100.259 44.3811V47.4684C99.4852 47.983 98.711 48.7548 98.1948 49.5267C97.6787 50.2985 97.4207 51.199 97.4207 52.2281C97.2916 55.4442 99.8723 58.1456 103.098 58.2743C106.453 58.4029 109.163 55.7014 109.163 52.4854C109.163 50.2985 108.001 48.3689 106.324 47.3398ZM104.001 53V54.5437C104.001 54.801 103.872 54.9296 103.614 54.9296H102.969C102.711 54.9296 102.582 54.801 102.582 54.5437V53.5145V52.8713C101.937 52.7427 101.679 52.0995 101.808 51.4563C101.937 50.9417 102.324 50.4272 102.969 50.2985C103.872 50.0412 104.775 50.8131 104.775 51.7136C104.646 52.2281 104.388 52.7427 104.001 53ZM105.034 46.8252C104.517 46.6966 103.872 46.5679 103.227 46.5679C102.711 46.5679 102.066 46.6966 101.55 46.8252V44.5097C101.55 43.9951 101.808 43.6092 102.066 43.3519C102.453 42.966 103.227 42.7087 104.001 42.966C104.646 43.2233 105.034 43.8665 105.034 44.6383V46.8252Z" fill="url(#paint89_linear_23:603)"/>
<path d="M145.806 2.70147L144.903 10.8058L139.097 11.7063L135.097 5.66021L144.645 1.02914L145.806 2.70147Z" fill="url(#paint90_linear_23:603)"/>
<path d="M144.904 10.8058L141.162 5.01699L143.871 0.128641L144.129 0L147.871 5.78884L144.904 10.8058Z" fill="url(#paint91_linear_23:603)"/>
<path d="M144.128 0L141.419 4.75971L141.161 5.01699V5.14563L137.806 5.40291H137.677L135.096 5.66019L136.903 2.57282L137.032 2.31553L138.064 0.643204L139.612 0.514563L139.741 0.385922H139.999H140.774L142.451 0.128641H142.838L144.128 0Z" fill="#89A7FF"/>
<g opacity="0.3">
<path opacity="0.3" d="M138.709 2.05904C138.838 2.05904 138.838 2.05904 138.838 1.9304V1.02992C138.838 0.901276 138.838 0.901276 138.709 0.901276C138.58 0.901276 138.58 0.901276 138.58 1.02992V1.9304C138.58 2.05904 138.58 2.05904 138.709 2.05904Z" fill="white"/>
<path opacity="0.3" d="M141.16 0.771829L140.386 1.28639C140.386 1.28639 140.257 1.41503 140.386 1.41503H140.515C140.515 1.41503 140.515 1.41503 140.644 1.41503L141.418 0.771829C141.418 0.771829 141.547 0.643188 141.418 0.643188C141.289 0.771829 141.289 0.643189 141.16 0.771829Z" fill="white"/>
<path opacity="0.3" d="M139.225 2.95877L138.193 3.47333C138.064 3.47333 138.064 3.60197 138.064 3.60197L138.193 3.73062L139.225 3.21605C139.354 3.21605 139.354 3.08741 139.354 3.08741C139.354 2.95877 139.225 2.95877 139.225 2.95877Z" fill="white"/>
<path opacity="0.3" d="M140.773 3.08733C140.773 2.95868 140.644 2.95868 140.644 3.08733C140.515 3.08733 140.515 3.21597 140.644 3.21597L140.902 3.73053L141.031 3.85917C141.031 3.85917 141.031 3.85917 141.16 3.85917C141.289 3.85917 141.289 3.73053 141.16 3.73053L140.773 3.08733Z" fill="white"/>
<path opacity="0.3" d="M136.902 4.11643C136.773 4.11643 136.773 4.24507 136.773 4.24507V4.88827C136.773 5.01691 136.902 5.01691 136.902 5.01691C137.031 5.01691 137.031 4.88827 137.031 4.88827V4.24507C137.031 4.11643 136.902 3.98778 136.902 4.11643Z" fill="white"/>
<path opacity="0.3" d="M142.45 0.771829C142.45 0.643189 142.321 0.643188 142.321 0.643188C142.192 0.643188 142.192 0.771829 142.192 0.771829L142.321 1.67231C142.321 1.80096 142.45 1.80096 142.45 1.80096C142.579 1.80096 142.579 1.67231 142.579 1.67231L142.45 0.771829Z" fill="white"/>
</g>
<path d="M49.1611 25.4709L45.9353 19.8107L49.2901 16.466L54.7095 18.6529L50.5805 25.9855L49.1611 25.4709Z" fill="url(#paint92_linear_23:603)"/>
<path d="M45.9355 19.8107L51.0968 21.869L51.4839 26.2428L51.3549 26.5001L46.3226 24.4418L45.9355 19.8107Z" fill="url(#paint93_linear_23:603)"/>
<path d="M51.3544 26.4999L50.9673 22.1261V21.7402L53.0318 20.0679L53.1608 19.9392L54.7092 18.6528L54.9673 21.4829V21.6116L55.0963 23.2839L54.1931 24.0557L54.0641 24.1844L53.935 24.313L53.4189 24.699L52.3866 25.5994L52.2576 25.7281L51.3544 26.4999Z" fill="#F665AA"/>
<g opacity="0.3">
<path opacity="0.3" d="M54.0657 22.5121V22.6407L54.4528 23.2839H54.5818V23.1553L54.1947 22.5121H54.0657Z" fill="white"/>
<path opacity="0.3" d="M53.033 24.5703L53.291 23.7985C53.291 23.7985 53.291 23.6698 53.162 23.6698H53.033L52.7749 24.4417C52.7749 24.4417 52.7749 24.5703 52.9039 24.5703C52.9039 24.699 53.033 24.699 53.033 24.5703Z" fill="white"/>
<path opacity="0.3" d="M53.2909 22.2548L53.678 21.483V21.3543H53.549L53.1619 22.1262V22.2548C53.1619 22.2548 53.2909 22.2548 53.2909 22.2548Z" fill="white"/>
<path opacity="0.3" d="M52.2588 22.8992H52.3878V22.7701L51.8717 22.5121H51.7427V22.6411L52.2588 22.8992Z" fill="white"/>
<path opacity="0.3" d="M54.3234 20.4554V20.3264L54.0653 19.9393H53.9363V20.0683L54.1943 20.4554C54.1943 20.4554 54.1943 20.4554 54.3234 20.4554Z" fill="white"/>
<path opacity="0.3" d="M52.2588 25.0849H52.3878V24.9562L51.8717 24.4417H51.7427V24.5703L52.2588 25.0849Z" fill="white"/>
</g>
<path d="M122.579 96.7379L129.289 95.1942L131.612 99.4393L127.87 104.199L121.676 97.8956L122.579 96.7379Z" fill="url(#paint94_linear_23:603)"/>
<path d="M129.29 95.1942L125.677 99.6966L121.161 98.7961L121.032 98.6675L124.516 94.165L129.29 95.1942Z" fill="url(#paint95_linear_23:603)"/>
<path d="M120.902 98.6675L125.418 99.568H125.805L126.966 102.141V102.269L127.87 104.199L125.031 103.685L124.773 103.556L123.095 103.299L122.579 102.141L122.45 102.012V101.755L122.192 101.24L121.547 99.8253L121.418 99.568L120.902 98.6675Z" fill="#F665AA"/>
<g opacity="0.3">
<path opacity="0.3" d="M124.128 102.399L123.999 102.27L123.225 102.528L123.096 102.657L123.225 102.786L123.999 102.528C124.128 102.528 124.128 102.399 124.128 102.399Z" fill="white"/>
<path opacity="0.3" d="M122.322 100.726L122.967 101.113H123.096V100.984L122.451 100.597H122.322C122.322 100.726 122.322 100.726 122.322 100.726Z" fill="white"/>
<path opacity="0.3" d="M124.644 101.755L125.289 102.398H125.418V102.269L124.773 101.626H124.644C124.644 101.626 124.644 101.626 124.644 101.755Z" fill="white"/>
<path opacity="0.3" d="M124.258 100.47V100.599H124.387L124.774 100.212V100.083H124.645L124.258 100.47Z" fill="white"/>
<path opacity="0.3" d="M126.192 103.3C126.192 103.3 126.321 103.429 126.321 103.3L126.708 103.171C126.708 103.171 126.837 103.042 126.708 103.042C126.708 103.042 126.579 102.912 126.579 103.042L126.192 103.171C126.192 103.171 126.063 103.171 126.192 103.3Z" fill="white"/>
<path opacity="0.3" d="M122.064 99.8253C122.064 99.8253 121.935 99.9539 122.064 99.9539C122.064 99.9539 122.193 100.083 122.193 99.9539L122.838 99.568C122.838 99.568 122.967 99.4393 122.838 99.4393C122.838 99.4393 122.709 99.3107 122.709 99.4393L122.064 99.8253Z" fill="white"/>
</g>
<defs>
<filter id="filter0_d_23:603" x="32.6782" y="7.84717" width="138.645" height="98.107" filterUnits="userSpaceOnUse" color-interpolation-filters="sRGB">
<feFlood flood-opacity="0" result="BackgroundImageFix"/>
<feColorMatrix in="SourceAlpha" type="matrix" values="0 0 0 0 0 0 0 0 0 0 0 0 0 0 0 0 0 0 127 0" result="hardAlpha"/>
<feOffset dy="11"/>
<feGaussianBlur stdDeviation="6.5"/>
<feColorMatrix type="matrix" values="0 0 0 0 0 0 0 0 0 0 0 0 0 0 0 0 0 0 0.22 0"/>
<feBlend mode="normal" in2="BackgroundImageFix" result="effect1_dropShadow_23:603"/>
<feBlend mode="normal" in="SourceGraphic" in2="effect1_dropShadow_23:603" result="shape"/>
</filter>
<linearGradient id="paint0_linear_23:603" x1="-0.394937" y1="19.4693" x2="51.9213" y2="19.4693" gradientUnits="userSpaceOnUse">
<stop stop-color="#83A6FF" stop-opacity="0"/>
<stop offset="1" stop-color="#5A78FF"/>
</linearGradient>
<linearGradient id="paint1_linear_23:603" x1="-0.395051" y1="19.4693" x2="51.9212" y2="19.4693" gradientUnits="userSpaceOnUse">
<stop stop-color="#83A6FF" stop-opacity="0"/>
<stop offset="1" stop-color="#5A78FF"/>
</linearGradient>
<linearGradient id="paint2_linear_23:603" x1="-0.395791" y1="19.4989" x2="51.9205" y2="19.4989" gradientUnits="userSpaceOnUse">
<stop stop-color="#83A6FF" stop-opacity="0"/>
<stop offset="1" stop-color="#5A78FF"/>
</linearGradient>
<linearGradient id="paint3_linear_23:603" x1="-0.39532" y1="31.2672" x2="51.921" y2="31.2672" gradientUnits="userSpaceOnUse">
<stop stop-color="#83A6FF" stop-opacity="0"/>
<stop offset="1" stop-color="#5A78FF"/>
</linearGradient>
<linearGradient id="paint4_linear_23:603" x1="-0.396279" y1="23.466" x2="51.92" y2="23.466" gradientUnits="userSpaceOnUse">
<stop stop-color="#83A6FF" stop-opacity="0"/>
<stop offset="1" stop-color="#5A78FF"/>
</linearGradient>
<linearGradient id="paint5_linear_23:603" x1="-0.39532" y1="35.3174" x2="51.921" y2="35.3174" gradientUnits="userSpaceOnUse">
<stop stop-color="#83A6FF" stop-opacity="0"/>
<stop offset="1" stop-color="#5A78FF"/>
</linearGradient>
<linearGradient id="paint6_linear_23:603" x1="-0.396029" y1="19.4693" x2="51.9202" y2="19.4693" gradientUnits="userSpaceOnUse">
<stop stop-color="#83A6FF" stop-opacity="0"/>
<stop offset="1" stop-color="#5A78FF"/>
</linearGradient>
<linearGradient id="paint7_linear_23:603" x1="-0.395175" y1="20.7078" x2="51.9211" y2="20.7078" gradientUnits="userSpaceOnUse">
<stop stop-color="#83A6FF" stop-opacity="0"/>
<stop offset="1" stop-color="#5A78FF"/>
</linearGradient>
<linearGradient id="paint8_linear_23:603" x1="-0.395982" y1="47.1745" x2="51.9203" y2="47.1745" gradientUnits="userSpaceOnUse">
<stop stop-color="#83A6FF" stop-opacity="0"/>
<stop offset="1" stop-color="#5A78FF"/>
</linearGradient>
<linearGradient id="paint9_linear_23:603" x1="-0.394984" y1="49.9451" x2="51.9213" y2="49.9451" gradientUnits="userSpaceOnUse">
<stop stop-color="#83A6FF" stop-opacity="0"/>
<stop offset="1" stop-color="#5A78FF"/>
</linearGradient>
<linearGradient id="paint10_linear_23:603" x1="-0.395174" y1="51.1692" x2="51.9211" y2="51.1692" gradientUnits="userSpaceOnUse">
<stop stop-color="#83A6FF" stop-opacity="0"/>
<stop offset="1" stop-color="#5A78FF"/>
</linearGradient>
<linearGradient id="paint11_linear_23:603" x1="-0.395211" y1="27.2209" x2="51.9211" y2="27.2209" gradientUnits="userSpaceOnUse">
<stop stop-color="#83A6FF" stop-opacity="0"/>
<stop offset="1" stop-color="#5A78FF"/>
</linearGradient>
<linearGradient id="paint12_linear_23:603" x1="-0.395931" y1="43.415" x2="51.9203" y2="43.415" gradientUnits="userSpaceOnUse">
<stop stop-color="#83A6FF" stop-opacity="0"/>
<stop offset="1" stop-color="#5A78FF"/>
</linearGradient>
<linearGradient id="paint13_linear_23:603" x1="-0.39532" y1="39.3681" x2="51.921" y2="39.3681" gradientUnits="userSpaceOnUse">
<stop stop-color="#83A6FF" stop-opacity="0"/>
<stop offset="1" stop-color="#5A78FF"/>
</linearGradient>
<linearGradient id="paint14_linear_23:603" x1="-0.39554" y1="19.4693" x2="51.9207" y2="19.4693" gradientUnits="userSpaceOnUse">
<stop stop-color="#83A6FF" stop-opacity="0"/>
<stop offset="1" stop-color="#5A78FF"/>
</linearGradient>
<linearGradient id="paint15_linear_23:603" x1="-0.395436" y1="51.2011" x2="51.9208" y2="51.2011" gradientUnits="userSpaceOnUse">
<stop stop-color="#83A6FF" stop-opacity="0"/>
<stop offset="1" stop-color="#5A78FF"/>
</linearGradient>
<linearGradient id="paint16_linear_23:603" x1="0.50988" y1="61.8731" x2="52.3179" y2="61.8731" gradientUnits="userSpaceOnUse">
<stop stop-color="#FF66A9" stop-opacity="0"/>
<stop offset="1" stop-color="#F53689"/>
</linearGradient>
<linearGradient id="paint17_linear_23:603" x1="0.509372" y1="61.8731" x2="52.3174" y2="61.8731" gradientUnits="userSpaceOnUse">
<stop stop-color="#FF66A9" stop-opacity="0"/>
<stop offset="1" stop-color="#F53689"/>
</linearGradient>
<linearGradient id="paint18_linear_23:603" x1="0.5094" y1="61.8731" x2="52.3174" y2="61.8731" gradientUnits="userSpaceOnUse">
<stop stop-color="#FF66A9" stop-opacity="0"/>
<stop offset="1" stop-color="#F53689"/>
</linearGradient>
<linearGradient id="paint19_linear_23:603" x1="0.509901" y1="61.8731" x2="52.3179" y2="61.8731" gradientUnits="userSpaceOnUse">
<stop stop-color="#FF66A9" stop-opacity="0"/>
<stop offset="1" stop-color="#F53689"/>
</linearGradient>
<linearGradient id="paint20_linear_23:603" x1="0.509174" y1="61.8731" x2="52.3172" y2="61.8731" gradientUnits="userSpaceOnUse">
<stop stop-color="#FF66A9" stop-opacity="0"/>
<stop offset="1" stop-color="#F53689"/>
</linearGradient>
<linearGradient id="paint21_linear_23:603" x1="0.509131" y1="61.8731" x2="52.3171" y2="61.8731" gradientUnits="userSpaceOnUse">
<stop stop-color="#FF66A9" stop-opacity="0"/>
<stop offset="1" stop-color="#F53689"/>
</linearGradient>
<linearGradient id="paint22_linear_23:603" x1="0.510122" y1="61.8731" x2="52.3181" y2="61.8731" gradientUnits="userSpaceOnUse">
<stop stop-color="#FF66A9" stop-opacity="0"/>
<stop offset="1" stop-color="#F53689"/>
</linearGradient>
<linearGradient id="paint23_linear_23:603" x1="0.509593" y1="61.8731" x2="52.3176" y2="61.8731" gradientUnits="userSpaceOnUse">
<stop stop-color="#FF66A9" stop-opacity="0"/>
<stop offset="1" stop-color="#F53689"/>
</linearGradient>
<linearGradient id="paint24_linear_23:603" x1="0.509419" y1="61.8731" x2="52.3174" y2="61.8731" gradientUnits="userSpaceOnUse">
<stop stop-color="#FF66A9" stop-opacity="0"/>
<stop offset="1" stop-color="#F53689"/>
</linearGradient>
<linearGradient id="paint25_linear_23:603" x1="0.509593" y1="61.8731" x2="52.3176" y2="61.8731" gradientUnits="userSpaceOnUse">
<stop stop-color="#FF66A9" stop-opacity="0"/>
<stop offset="1" stop-color="#F53689"/>
</linearGradient>
<linearGradient id="paint26_linear_23:603" x1="-0.395178" y1="103.622" x2="51.9211" y2="103.622" gradientUnits="userSpaceOnUse">
<stop stop-color="#83A6FF" stop-opacity="0"/>
<stop offset="1" stop-color="#5A78FF"/>
</linearGradient>
<linearGradient id="paint27_linear_23:603" x1="-0.395185" y1="104.83" x2="51.9211" y2="104.83" gradientUnits="userSpaceOnUse">
<stop stop-color="#83A6FF" stop-opacity="0"/>
<stop offset="1" stop-color="#5A78FF"/>
</linearGradient>
<linearGradient id="paint28_linear_23:603" x1="-0.394842" y1="97.1078" x2="51.9214" y2="97.1078" gradientUnits="userSpaceOnUse">
<stop stop-color="#83A6FF" stop-opacity="0"/>
<stop offset="1" stop-color="#5A78FF"/>
</linearGradient>
<linearGradient id="paint29_linear_23:603" x1="-0.393961" y1="104.86" x2="51.9223" y2="104.86" gradientUnits="userSpaceOnUse">
<stop stop-color="#83A6FF" stop-opacity="0"/>
<stop offset="1" stop-color="#5A78FF"/>
</linearGradient>
<linearGradient id="paint30_linear_23:603" x1="-0.394344" y1="93.0619" x2="51.9219" y2="93.0619" gradientUnits="userSpaceOnUse">
<stop stop-color="#83A6FF" stop-opacity="0"/>
<stop offset="1" stop-color="#5A78FF"/>
</linearGradient>
<linearGradient id="paint31_linear_23:603" x1="-0.395052" y1="104.86" x2="51.9212" y2="104.86" gradientUnits="userSpaceOnUse">
<stop stop-color="#83A6FF" stop-opacity="0"/>
<stop offset="1" stop-color="#5A78FF"/>
</linearGradient>
<linearGradient id="paint32_linear_23:603" x1="-0.395051" y1="104.86" x2="51.9212" y2="104.86" gradientUnits="userSpaceOnUse">
<stop stop-color="#83A6FF" stop-opacity="0"/>
<stop offset="1" stop-color="#5A78FF"/>
</linearGradient>
<linearGradient id="paint33_linear_23:603" x1="-0.395059" y1="100.863" x2="51.9212" y2="100.863" gradientUnits="userSpaceOnUse">
<stop stop-color="#83A6FF" stop-opacity="0"/>
<stop offset="1" stop-color="#5A78FF"/>
</linearGradient>
<linearGradient id="paint34_linear_23:603" x1="-0.394611" y1="74.3832" x2="51.9216" y2="74.3832" gradientUnits="userSpaceOnUse">
<stop stop-color="#83A6FF" stop-opacity="0"/>
<stop offset="1" stop-color="#5A78FF"/>
</linearGradient>
<linearGradient id="paint35_linear_23:603" x1="-0.394197" y1="73.1605" x2="51.922" y2="73.1605" gradientUnits="userSpaceOnUse">
<stop stop-color="#83A6FF" stop-opacity="0"/>
<stop offset="1" stop-color="#5A78FF"/>
</linearGradient>
<linearGradient id="paint36_linear_23:603" x1="-0.395005" y1="77.1543" x2="51.9212" y2="77.1543" gradientUnits="userSpaceOnUse">
<stop stop-color="#83A6FF" stop-opacity="0"/>
<stop offset="1" stop-color="#5A78FF"/>
</linearGradient>
<linearGradient id="paint37_linear_23:603" x1="-0.394344" y1="89.0116" x2="51.9219" y2="89.0116" gradientUnits="userSpaceOnUse">
<stop stop-color="#83A6FF" stop-opacity="0"/>
<stop offset="1" stop-color="#5A78FF"/>
</linearGradient>
<linearGradient id="paint38_linear_23:603" x1="-0.394344" y1="84.9609" x2="51.9219" y2="84.9609" gradientUnits="userSpaceOnUse">
<stop stop-color="#83A6FF" stop-opacity="0"/>
<stop offset="1" stop-color="#5A78FF"/>
</linearGradient>
<linearGradient id="paint39_linear_23:603" x1="-0.394954" y1="80.9142" x2="51.9213" y2="80.9142" gradientUnits="userSpaceOnUse">
<stop stop-color="#83A6FF" stop-opacity="0"/>
<stop offset="1" stop-color="#5A78FF"/>
</linearGradient>
<linearGradient id="paint40_linear_23:603" x1="-0.394807" y1="104.86" x2="51.9215" y2="104.86" gradientUnits="userSpaceOnUse">
<stop stop-color="#83A6FF" stop-opacity="0"/>
<stop offset="1" stop-color="#5A78FF"/>
</linearGradient>
<linearGradient id="paint41_linear_23:603" x1="-0.394823" y1="73.1279" x2="51.9214" y2="73.1279" gradientUnits="userSpaceOnUse">
<stop stop-color="#83A6FF" stop-opacity="0"/>
<stop offset="1" stop-color="#5A78FF"/>
</linearGradient>
<linearGradient id="paint42_linear_23:603" x1="205.789" y1="31.267" x2="160.029" y2="31.267" gradientUnits="userSpaceOnUse">
<stop stop-color="#FF66A9" stop-opacity="0"/>
<stop offset="1" stop-color="#F53689"/>
</linearGradient>
<linearGradient id="paint43_linear_23:603" x1="205.789" y1="35.318" x2="160.029" y2="35.318" gradientUnits="userSpaceOnUse">
<stop stop-color="#FF66A9" stop-opacity="0"/>
<stop offset="1" stop-color="#F53689"/>
</linearGradient>
<linearGradient id="paint44_linear_23:603" x1="205.791" y1="43.4156" x2="160.03" y2="43.4156" gradientUnits="userSpaceOnUse">
<stop stop-color="#FF66A9" stop-opacity="0"/>
<stop offset="1" stop-color="#F53689"/>
</linearGradient>
<linearGradient id="paint45_linear_23:603" x1="205.79" y1="47.1752" x2="160.029" y2="47.1752" gradientUnits="userSpaceOnUse">
<stop stop-color="#FF66A9" stop-opacity="0"/>
<stop offset="1" stop-color="#F53689"/>
</linearGradient>
<linearGradient id="paint46_linear_23:603" x1="205.79" y1="51.1692" x2="160.029" y2="51.1692" gradientUnits="userSpaceOnUse">
<stop stop-color="#FF66A9" stop-opacity="0"/>
<stop offset="1" stop-color="#F53689"/>
</linearGradient>
<linearGradient id="paint47_linear_23:603" x1="205.79" y1="49.9452" x2="160.03" y2="49.9452" gradientUnits="userSpaceOnUse">
<stop stop-color="#FF66A9" stop-opacity="0"/>
<stop offset="1" stop-color="#F53689"/>
</linearGradient>
<linearGradient id="paint48_linear_23:603" x1="205.79" y1="51.2012" x2="160.029" y2="51.2012" gradientUnits="userSpaceOnUse">
<stop stop-color="#FF66A9" stop-opacity="0"/>
<stop offset="1" stop-color="#F53689"/>
</linearGradient>
<linearGradient id="paint49_linear_23:603" x1="205.789" y1="39.3681" x2="160.029" y2="39.3681" gradientUnits="userSpaceOnUse">
<stop stop-color="#FF66A9" stop-opacity="0"/>
<stop offset="1" stop-color="#F53689"/>
</linearGradient>
<linearGradient id="paint50_linear_23:603" x1="205.789" y1="19.4693" x2="160.029" y2="19.4693" gradientUnits="userSpaceOnUse">
<stop stop-color="#FF66A9" stop-opacity="0"/>
<stop offset="1" stop-color="#F53689"/>
</linearGradient>
<linearGradient id="paint51_linear_23:603" x1="205.79" y1="19.4693" x2="160.029" y2="19.4693" gradientUnits="userSpaceOnUse">
<stop stop-color="#FF66A9" stop-opacity="0"/>
<stop offset="1" stop-color="#F53689"/>
</linearGradient>
<linearGradient id="paint52_linear_23:603" x1="205.79" y1="19.4693" x2="160.029" y2="19.4693" gradientUnits="userSpaceOnUse">
<stop stop-color="#FF66A9" stop-opacity="0"/>
<stop offset="1" stop-color="#F53689"/>
</linearGradient>
<linearGradient id="paint53_linear_23:603" x1="205.79" y1="27.2211" x2="160.029" y2="27.2211" gradientUnits="userSpaceOnUse">
<stop stop-color="#FF66A9" stop-opacity="0"/>
<stop offset="1" stop-color="#F53689"/>
</linearGradient>
<linearGradient id="paint54_linear_23:603" x1="205.79" y1="23.466" x2="160.029" y2="23.466" gradientUnits="userSpaceOnUse">
<stop stop-color="#FF66A9" stop-opacity="0"/>
<stop offset="1" stop-color="#F53689"/>
</linearGradient>
<linearGradient id="paint55_linear_23:603" x1="205.789" y1="20.7078" x2="160.029" y2="20.7078" gradientUnits="userSpaceOnUse">
<stop stop-color="#FF66A9" stop-opacity="0"/>
<stop offset="1" stop-color="#F53689"/>
</linearGradient>
<linearGradient id="paint56_linear_23:603" x1="205.79" y1="19.4982" x2="160.029" y2="19.4982" gradientUnits="userSpaceOnUse">
<stop stop-color="#FF66A9" stop-opacity="0"/>
<stop offset="1" stop-color="#F53689"/>
</linearGradient>
<linearGradient id="paint57_linear_23:603" x1="205.79" y1="19.4693" x2="160.029" y2="19.4693" gradientUnits="userSpaceOnUse">
<stop stop-color="#FF66A9" stop-opacity="0"/>
<stop offset="1" stop-color="#F53689"/>
</linearGradient>
<linearGradient id="paint58_linear_23:603" x1="205.141" y1="61.8731" x2="152.508" y2="61.8731" gradientUnits="userSpaceOnUse">
<stop stop-color="#83A6FF" stop-opacity="0"/>
<stop offset="1" stop-color="#5A78FF"/>
</linearGradient>
<linearGradient id="paint59_linear_23:603" x1="205.141" y1="61.8731" x2="152.507" y2="61.8731" gradientUnits="userSpaceOnUse">
<stop stop-color="#83A6FF" stop-opacity="0"/>
<stop offset="1" stop-color="#5A78FF"/>
</linearGradient>
<linearGradient id="paint60_linear_23:603" x1="205.141" y1="61.8731" x2="152.507" y2="61.8731" gradientUnits="userSpaceOnUse">
<stop stop-color="#83A6FF" stop-opacity="0"/>
<stop offset="1" stop-color="#5A78FF"/>
</linearGradient>
<linearGradient id="paint61_linear_23:603" x1="205.141" y1="61.8731" x2="152.508" y2="61.8731" gradientUnits="userSpaceOnUse">
<stop stop-color="#83A6FF" stop-opacity="0"/>
<stop offset="1" stop-color="#5A78FF"/>
</linearGradient>
<linearGradient id="paint62_linear_23:603" x1="205.14" y1="61.8731" x2="152.507" y2="61.8731" gradientUnits="userSpaceOnUse">
<stop stop-color="#83A6FF" stop-opacity="0"/>
<stop offset="1" stop-color="#5A78FF"/>
</linearGradient>
<linearGradient id="paint63_linear_23:603" x1="205.141" y1="61.8731" x2="152.507" y2="61.8731" gradientUnits="userSpaceOnUse">
<stop stop-color="#83A6FF" stop-opacity="0"/>
<stop offset="1" stop-color="#5A78FF"/>
</linearGradient>
<linearGradient id="paint64_linear_23:603" x1="205.14" y1="61.8731" x2="152.507" y2="61.8731" gradientUnits="userSpaceOnUse">
<stop stop-color="#83A6FF" stop-opacity="0"/>
<stop offset="1" stop-color="#5A78FF"/>
</linearGradient>
<linearGradient id="paint65_linear_23:603" x1="205.14" y1="61.8731" x2="152.507" y2="61.8731" gradientUnits="userSpaceOnUse">
<stop stop-color="#83A6FF" stop-opacity="0"/>
<stop offset="1" stop-color="#5A78FF"/>
</linearGradient>
<linearGradient id="paint66_linear_23:603" x1="205.141" y1="61.8731" x2="152.507" y2="61.8731" gradientUnits="userSpaceOnUse">
<stop stop-color="#83A6FF" stop-opacity="0"/>
<stop offset="1" stop-color="#5A78FF"/>
</linearGradient>
<linearGradient id="paint67_linear_23:603" x1="205.141" y1="61.8731" x2="152.508" y2="61.8731" gradientUnits="userSpaceOnUse">
<stop stop-color="#83A6FF" stop-opacity="0"/>
<stop offset="1" stop-color="#5A78FF"/>
</linearGradient>
<linearGradient id="paint68_linear_23:603" x1="205.141" y1="74.3833" x2="152.507" y2="74.3833" gradientUnits="userSpaceOnUse">
<stop stop-color="#83A6FF" stop-opacity="0"/>
<stop offset="1" stop-color="#5A78FF"/>
</linearGradient>
<linearGradient id="paint69_linear_23:603" x1="205.142" y1="77.1537" x2="152.508" y2="77.1537" gradientUnits="userSpaceOnUse">
<stop stop-color="#83A6FF" stop-opacity="0"/>
<stop offset="1" stop-color="#5A78FF"/>
</linearGradient>
<linearGradient id="paint70_linear_23:603" x1="205.141" y1="80.9137" x2="152.507" y2="80.9137" gradientUnits="userSpaceOnUse">
<stop stop-color="#83A6FF" stop-opacity="0"/>
<stop offset="1" stop-color="#5A78FF"/>
</linearGradient>
<linearGradient id="paint71_linear_23:603" x1="205.14" y1="73.1278" x2="152.507" y2="73.1278" gradientUnits="userSpaceOnUse">
<stop stop-color="#83A6FF" stop-opacity="0"/>
<stop offset="1" stop-color="#5A78FF"/>
</linearGradient>
<linearGradient id="paint72_linear_23:603" x1="205.141" y1="89.0109" x2="152.507" y2="89.0109" gradientUnits="userSpaceOnUse">
<stop stop-color="#83A6FF" stop-opacity="0"/>
<stop offset="1" stop-color="#5A78FF"/>
</linearGradient>
<linearGradient id="paint73_linear_23:603" x1="205.141" y1="84.9608" x2="152.507" y2="84.9608" gradientUnits="userSpaceOnUse">
<stop stop-color="#83A6FF" stop-opacity="0"/>
<stop offset="1" stop-color="#5A78FF"/>
</linearGradient>
<linearGradient id="paint74_linear_23:603" x1="205.141" y1="93.0618" x2="152.507" y2="93.0618" gradientUnits="userSpaceOnUse">
<stop stop-color="#83A6FF" stop-opacity="0"/>
<stop offset="1" stop-color="#5A78FF"/>
</linearGradient>
<linearGradient id="paint75_linear_23:603" x1="205.14" y1="73.1604" x2="152.506" y2="73.1604" gradientUnits="userSpaceOnUse">
<stop stop-color="#83A6FF" stop-opacity="0"/>
<stop offset="1" stop-color="#5A78FF"/>
</linearGradient>
<linearGradient id="paint76_linear_23:603" x1="205.141" y1="100.863" x2="152.508" y2="100.863" gradientUnits="userSpaceOnUse">
<stop stop-color="#83A6FF" stop-opacity="0"/>
<stop offset="1" stop-color="#5A78FF"/>
</linearGradient>
<linearGradient id="paint77_linear_23:603" x1="205.141" y1="97.1078" x2="152.507" y2="97.1078" gradientUnits="userSpaceOnUse">
<stop stop-color="#83A6FF" stop-opacity="0"/>
<stop offset="1" stop-color="#5A78FF"/>
</linearGradient>
<linearGradient id="paint78_linear_23:603" x1="205.141" y1="104.86" x2="152.507" y2="104.86" gradientUnits="userSpaceOnUse">
<stop stop-color="#83A6FF" stop-opacity="0"/>
<stop offset="1" stop-color="#5A78FF"/>
</linearGradient>
<linearGradient id="paint79_linear_23:603" x1="205.142" y1="104.86" x2="152.508" y2="104.86" gradientUnits="userSpaceOnUse">
<stop stop-color="#83A6FF" stop-opacity="0"/>
<stop offset="1" stop-color="#5A78FF"/>
</linearGradient>
<linearGradient id="paint80_linear_23:603" x1="205.14" y1="104.86" x2="152.507" y2="104.86" gradientUnits="userSpaceOnUse">
<stop stop-color="#83A6FF" stop-opacity="0"/>
<stop offset="1" stop-color="#5A78FF"/>
</linearGradient>
<linearGradient id="paint81_linear_23:603" x1="205.141" y1="104.83" x2="152.508" y2="104.83" gradientUnits="userSpaceOnUse">
<stop stop-color="#83A6FF" stop-opacity="0"/>
<stop offset="1" stop-color="#5A78FF"/>
</linearGradient>
<linearGradient id="paint82_linear_23:603" x1="205.141" y1="103.621" x2="152.507" y2="103.621" gradientUnits="userSpaceOnUse">
<stop stop-color="#83A6FF" stop-opacity="0"/>
<stop offset="1" stop-color="#5A78FF"/>
</linearGradient>
<linearGradient id="paint83_linear_23:603" x1="205.141" y1="104.86" x2="152.508" y2="104.86" gradientUnits="userSpaceOnUse">
<stop stop-color="#83A6FF" stop-opacity="0"/>
<stop offset="1" stop-color="#5A78FF"/>
</linearGradient>
<linearGradient id="paint84_linear_23:603" x1="77.3521" y1="24.9219" x2="89.4907" y2="34.3072" gradientUnits="userSpaceOnUse">
<stop stop-color="#80889D"/>
<stop offset="0.9942" stop-color="#5E6882"/>
</linearGradient>
<linearGradient id="paint85_linear_23:603" x1="122.516" y1="49.7371" x2="129.342" y2="55.0142" gradientUnits="userSpaceOnUse">
<stop stop-color="#80889D"/>
<stop offset="0.9942" stop-color="#5E6882"/>
</linearGradient>
<linearGradient id="paint86_linear_23:603" x1="101.149" y1="43.8664" x2="112.856" y2="60.3412" gradientUnits="userSpaceOnUse">
<stop stop-color="#83A6FF"/>
<stop offset="1" stop-color="#5A78FF"/>
</linearGradient>
<linearGradient id="paint87_linear_23:603" x1="113.937" y1="61.0979" x2="96.2978" y2="38.567" gradientUnits="userSpaceOnUse">
<stop stop-color="#83A6FF"/>
<stop offset="1" stop-color="#5A78FF"/>
</linearGradient>
<linearGradient id="paint88_linear_23:603" x1="105.92" y1="52.9744" x2="112.398" y2="59.4722" gradientUnits="userSpaceOnUse">
<stop stop-color="#4F6AFF"/>
<stop offset="1" stop-color="#657EFF" stop-opacity="0"/>
</linearGradient>
<linearGradient id="paint89_linear_23:603" x1="109.038" y1="56.069" x2="98.1214" y2="45.1195" gradientUnits="userSpaceOnUse">
<stop offset="0.0113208" stop-color="#C2D1FF"/>
<stop offset="1" stop-color="white"/>
</linearGradient>
<linearGradient id="paint90_linear_23:603" x1="137.755" y1="9.69325" x2="146.605" y2="3.95007" gradientUnits="userSpaceOnUse">
<stop stop-color="#83A6FF"/>
<stop offset="1" stop-color="#5A78FF"/>
</linearGradient>
<linearGradient id="paint91_linear_23:603" x1="143.484" y1="8.66938" x2="145.429" y2="2.42868" gradientUnits="userSpaceOnUse">
<stop stop-color="#83A6FF"/>
<stop offset="1" stop-color="#5A78FF"/>
</linearGradient>
<linearGradient id="paint92_linear_23:603" x1="51.102" y1="17.1995" x2="47.9981" y2="25.0093" gradientUnits="userSpaceOnUse">
<stop stop-color="#FF66A9"/>
<stop offset="1" stop-color="#F53689"/>
</linearGradient>
<linearGradient id="paint93_linear_23:603" x1="47.8489" y1="20.5033" x2="49.4568" y2="25.4652" gradientUnits="userSpaceOnUse">
<stop stop-color="#FF66A9"/>
<stop offset="1" stop-color="#F53689"/>
</linearGradient>
<linearGradient id="paint94_linear_23:603" x1="130.375" y1="101.083" x2="123.494" y2="95.6212" gradientUnits="userSpaceOnUse">
<stop stop-color="#FF66A9"/>
<stop offset="1" stop-color="#F53689"/>
</linearGradient>
<linearGradient id="paint95_linear_23:603" x1="128.033" y1="96.8523" x2="122.575" y2="96.9846" gradientUnits="userSpaceOnUse">
<stop stop-color="#FF66A9"/>
<stop offset="1" stop-color="#F53689"/>
</linearGradient>
</defs>
</svg>
