<svg width="1271" height="738" viewBox="0 0 1271 738" fill="none" xmlns="http://www.w3.org/2000/svg">
<path d="M402 312.461C449.853 237.055 575.691 256.677 620.273 298.826C730.85 411.599 726.427 572.763 859.962 690.164C993.496 807.566 1208.12 685.535 1254.25 572.763C1300.37 459.99 1247.3 319.445 1143.46 298.826C1039.62 278.207 1039.83 372.465 924.623 432.428C809.412 492.391 660.093 271.528 643.442 232.13C629 197.961 659.449 128.405 620.273 36.251C581.097 -55.9028 382.902 57.0803 292.966 96.2141C203.03 135.348 81.0792 75.3848 16.4181 186.053C-48.2431 296.722 88.0298 482.923 251.473 529C414.916 575.077 342.183 406.719 402 312.461Z" fill="url(#paint0_radial_23:68)"/>
<defs>
<radialGradient id="paint0_radial_23:68" cx="0" cy="0" r="1" gradientUnits="userSpaceOnUse" gradientTransform="translate(636 368.961) rotate(90) scale(290.5 500.984)">
<stop stop-color="#00FF75"/>
<stop offset="0.734375" stop-color="#9DE7FF" stop-opacity="0.25"/>
<stop offset="1" stop-color="white" stop-opacity="0"/>
</radialGradient>
</defs>
</svg>
