<svg width="1920" height="1136" viewBox="0 0 1920 1136" fill="none" xmlns="http://www.w3.org/2000/svg">
<g filter="url(#filter0_f_85:29)">
<path d="M1291.5 175.965C1220.3 288.257 1188.83 391.125 1122.5 328.358C957.979 160.422 842.906 350.794 644.227 175.965C445.548 1.1361 109.061 160.422 40.4324 328.358C-28.1965 496.294 -19.2588 763.023 135.235 793.727C289.728 824.432 262.353 927.251 279.105 927.251C316.058 927.251 416.651 1022.69 465.999 1022.69C529.673 1022.69 719 973.692 979.5 1022.69C1126.03 1050.25 1337.19 1031.97 1471 973.692C1604.81 915.416 1769.79 1019 1866 854.192C1962.21 689.389 1951.18 292.807 1708 224.192C1464.82 155.576 1380.5 35.6007 1291.5 175.965Z" fill="url(#paint0_radial_85:29)" fill-opacity="0.4"/>
</g>
<defs>
<filter id="filter0_f_85:29" x="-100.472" y="0" width="2122.89" height="1135.28" filterUnits="userSpaceOnUse" color-interpolation-filters="sRGB">
<feFlood flood-opacity="0" result="BackgroundImageFix"/>
<feBlend mode="normal" in="SourceGraphic" in2="BackgroundImageFix" result="shape"/>
<feGaussianBlur stdDeviation="50" result="effect1_foregroundBlur_85:29"/>
</filter>
<radialGradient id="paint0_radial_85:29" cx="0" cy="0" r="1" gradientUnits="userSpaceOnUse" gradientTransform="translate(986.633 893.75) rotate(-89.581) scale(741.05 1276.86)">
<stop stop-color="#00FF75"/>
<stop offset="0.519637" stop-color="#9DE7FF" stop-opacity="0.2"/>
<stop offset="0.949018" stop-color="white" stop-opacity="0"/>
</radialGradient>
</defs>
</svg>
