<svg xmlns="http://www.w3.org/2000/svg" width="139" height="139" viewBox="0 0 139 139" fill="none">
<path d="M71.6405 21.4679L73.375 21.4679L73.375 19.7474L71.6405 19.7474L71.6405 21.4679Z" fill="#363C4D"/>
<path d="M71.6405 18.1448L73.375 18.1448L73.375 16.4243L71.6405 16.4243L71.6405 18.1448Z" fill="#2A2E38"/>
<path d="M71.6405 14.8218L73.375 14.8218L73.375 13.1013L71.6405 13.1013L71.6405 14.8218Z" fill="#363C4D"/>
<path d="M71.6405 11.5942L73.375 11.5942L73.375 9.87377L71.6405 9.87377L71.6405 11.5942Z" fill="#2A2E38"/>
<path d="M68.1269 21.4679L69.8613 21.4679L69.8613 19.7474L68.1269 19.7474L68.1269 21.4679Z" fill="#363C4D"/>
<path d="M68.1269 18.1448L69.8613 18.1448L69.8613 16.4243L68.1269 16.4243L68.1269 18.1448Z" fill="#363C4D"/>
<path d="M68.1269 14.8218L69.8613 14.8218L69.8613 13.1013L68.1269 13.1013L68.1269 14.8218Z" fill="#363C4D"/>
<path d="M68.1269 11.5942L69.8613 11.5942L69.8613 9.87377L68.1269 9.87377L68.1269 11.5942Z" fill="#363C4D"/>
<path d="M68.1269 8.271L69.8613 8.271L69.8613 6.55053L68.1269 6.55053L68.1269 8.271Z" fill="#363C4D"/>
<path d="M69.9869 3.2948H68.2524V5.01527H69.9869V3.2948Z" fill="url(#paint0_linear_23:766)"/>
<path d="M64.7096 21.4679L66.4441 21.4679L66.4441 19.7474L64.7096 19.7474L64.7096 21.4679Z" fill="#363C4D"/>
<path d="M64.7096 18.1448L66.4441 18.1448L66.4441 16.4243L64.7096 16.4243L64.7096 18.1448Z" fill="#363C4D"/>
<path d="M64.7096 14.8218L66.4441 14.8218L66.4441 13.1013L64.7096 13.1013L64.7096 14.8218Z" fill="#2A2E38"/>
<path d="M64.7096 11.5942L66.4441 11.5942L66.4441 9.87377L64.7096 9.87377L64.7096 11.5942Z" fill="#363C4D"/>
<path d="M64.7096 8.271L66.4441 8.271L66.4441 6.55053L64.7096 6.55053L64.7096 8.271Z" fill="#2A2E38"/>
<path d="M64.7096 5.04358L66.4441 5.04358L66.4441 3.32311L64.7096 3.32311L64.7096 5.04358Z" fill="#363C4D"/>
<path d="M64.7096 1.72046L66.4441 1.72046L66.4441 -1.0848e-05L64.7096 -1.0848e-05L64.7096 1.72046Z" fill="#2A2E38"/>
<path d="M61.2921 21.4679L63.0266 21.4679L63.0266 19.7474L61.2921 19.7474L61.2921 21.4679Z" fill="#363C4D"/>
<path d="M61.2921 18.1448L63.0266 18.1448L63.0266 16.4243L61.2921 16.4243L61.2921 18.1448Z" fill="#363C4D"/>
<path d="M61.2921 14.8218L63.0266 14.8218L63.0266 13.1013L61.2921 13.1013L61.2921 14.8218Z" fill="#2A2E38"/>
<path d="M61.2921 11.5942L63.0266 11.5942L63.0266 9.87377L61.2921 9.87377L61.2921 11.5942Z" fill="#363C4D"/>
<path d="M61.2921 8.271L63.0266 8.271L63.0266 6.55053L61.2921 6.55053L61.2921 8.271Z" fill="#363C4D"/>
<path d="M57.8749 21.4679L59.6094 21.4679L59.6094 19.7474L57.8749 19.7474L57.8749 21.4679Z" fill="#363C4D"/>
<path d="M57.8749 18.1448L59.6094 18.1448L59.6094 16.4243L57.8749 16.4243L57.8749 18.1448Z" fill="#363C4D"/>
<path d="M57.8749 14.8218L59.6094 14.8218L59.6094 13.1013L57.8749 13.1013L57.8749 14.8218Z" fill="#363C4D"/>
<path d="M59.5802 9.88989H57.8457V11.6104H59.5802V9.88989Z" fill="url(#paint1_linear_23:766)"/>
<path d="M54.3612 21.4679L56.0957 21.4679L56.0957 19.7474L54.3612 19.7474L54.3612 21.4679Z" fill="#363C4D"/>
<path d="M54.3612 18.1448L56.0957 18.1448L56.0957 16.4243L54.3612 16.4243L54.3612 18.1448Z" fill="#363C4D"/>
<path d="M54.3612 14.8218L56.0957 14.8218L56.0957 13.1013L54.3612 13.1013L54.3612 14.8218Z" fill="#363C4D"/>
<path d="M54.3612 11.5942L56.0957 11.5942L56.0957 9.87377L54.3612 9.87377L54.3612 11.5942Z" fill="#2A2E38"/>
<path d="M54.3612 8.271L56.0957 8.271L56.0957 6.55053L54.3612 6.55053L54.3612 8.271Z" fill="#363C4D"/>
<path d="M54.3612 5.04358L56.0957 5.04358L56.0957 3.32311L54.3612 3.32311L54.3612 5.04358Z" fill="#EF4695"/>
<path d="M50.944 21.4679L52.6785 21.4679L52.6785 19.7474L50.944 19.7474L50.944 21.4679Z" fill="#363C4D"/>
<path d="M50.944 18.1448L52.6785 18.1448L52.6785 16.4243L50.944 16.4243L50.944 18.1448Z" fill="#363C4D"/>
<path d="M50.944 14.8218L52.6785 14.8218L52.6785 13.1013L50.944 13.1013L50.944 14.8218Z" fill="#2A2E38"/>
<path d="M47.5268 28.0186L49.2612 28.0186L49.2612 26.2981L47.5268 26.2981L47.5268 28.0186Z" fill="#363C4D"/>
<path d="M47.5268 24.6954L49.2612 24.6954L49.2612 22.975L47.5268 22.975L47.5268 24.6954Z" fill="#363C4D"/>
<path d="M47.5268 21.4679L49.2612 21.4679L49.2612 19.7474L47.5268 19.7474L47.5268 21.4679Z" fill="#2A2E38"/>
<path d="M47.5268 18.1448L49.2612 18.1448L49.2612 16.4243L47.5268 16.4243L47.5268 18.1448Z" fill="#363C4D"/>
<path d="M47.5268 14.8218L49.2612 14.8218L49.2612 13.1013L47.5268 13.1013L47.5268 14.8218Z" fill="#363C4D"/>
<path d="M47.5268 11.5942L49.2612 11.5942L49.2612 9.87377L47.5268 9.87377L47.5268 11.5942Z" fill="#363C4D"/>
<path d="M47.5268 8.271L49.2612 8.271L49.2612 6.55053L47.5268 6.55053L47.5268 8.271Z" fill="#2A2E38"/>
<path d="M44.1095 28.0186L45.844 28.0186L45.844 26.2981L44.1095 26.2981L44.1095 28.0186Z" fill="#363C4D"/>
<path d="M44.1095 24.6954L45.844 24.6954L45.844 22.975L44.1095 22.975L44.1095 24.6954Z" fill="#363C4D"/>
<path d="M44.1095 21.4679L45.844 21.4679L45.844 19.7474L44.1095 19.7474L44.1095 21.4679Z" fill="#363C4D"/>
<path d="M44.1095 18.1448L45.844 18.1448L45.844 16.4243L44.1095 16.4243L44.1095 18.1448Z" fill="#363C4D"/>
<path d="M44.1095 14.8218L45.844 14.8218L45.844 13.1013L44.1095 13.1013L44.1095 14.8218Z" fill="#363C4D"/>
<path d="M44.1095 11.5942L45.844 11.5942L45.844 9.87377L44.1095 9.87377L44.1095 11.5942Z" fill="#2A2E38"/>
<path d="M44.1095 8.271L45.844 8.271L45.844 6.55053L44.1095 6.55053L44.1095 8.271Z" fill="#363C4D"/>
<path d="M44.1095 5.04358L45.844 5.04358L45.844 3.32311L44.1095 3.32311L44.1095 5.04358Z" fill="#363C4D"/>
<path d="M44.1095 1.72046L45.844 1.72046L45.844 -1.0848e-05L44.1095 -1.0848e-05L44.1095 1.72046Z" fill="#2A2E38"/>
<path d="M40.5956 28.0186L42.3301 28.0186L42.3301 26.2981L40.5956 26.2981L40.5956 28.0186Z" fill="#363C4D"/>
<path d="M40.5956 24.6954L42.3301 24.6954L42.3301 22.975L40.5956 22.975L40.5956 24.6954Z" fill="#363C4D"/>
<path d="M40.5956 21.4679L42.3301 21.4679L42.3301 19.7474L40.5956 19.7474L40.5956 21.4679Z" fill="#363C4D"/>
<path d="M40.5956 18.1448L42.3301 18.1448L42.3301 16.4243L40.5956 16.4243L40.5956 18.1448Z" fill="#2A2E38"/>
<path d="M40.5956 14.8218L42.3301 14.8218L42.3301 13.1013L40.5956 13.1013L40.5956 14.8218Z" fill="#EF4695"/>
<path d="M40.5956 11.5942L42.3301 11.5942L42.3301 9.87377L40.5956 9.87377L40.5956 11.5942Z" fill="#363C4D"/>
<path d="M40.5956 8.271L42.3301 8.271L42.3301 6.55053L40.5956 6.55053L40.5956 8.271Z" fill="#2A2E38"/>
<path d="M40.5956 5.04358L42.3301 5.04358L42.3301 3.32311L40.5956 3.32311L40.5956 5.04358Z" fill="#363C4D"/>
<path d="M40.5956 1.72046L42.3301 1.72046L42.3301 -1.0848e-05L40.5956 -1.0848e-05L40.5956 1.72046Z" fill="#2A2E38"/>
<path d="M37.1784 34.5692L38.9128 34.5692L38.9128 32.8487L37.1784 32.8487L37.1784 34.5692Z" fill="#363C4D"/>
<path d="M37.1784 31.3417L38.9128 31.3417L38.9128 29.6212L37.1784 29.6212L37.1784 31.3417Z" fill="#363C4D"/>
<path d="M37.1784 28.0186L38.9128 28.0186L38.9128 26.2981L37.1784 26.2981L37.1784 28.0186Z" fill="#363C4D"/>
<path d="M37.1784 24.6954L38.9128 24.6954L38.9128 22.975L37.1784 22.975L37.1784 24.6954Z" fill="#2A2E38"/>
<path d="M37.1784 21.4679L38.9128 21.4679L38.9128 19.7474L37.1784 19.7474L37.1784 21.4679Z" fill="#363C4D"/>
<path d="M37.1784 18.1448L38.9128 18.1448L38.9128 16.4243L37.1784 16.4243L37.1784 18.1448Z" fill="#363C4D"/>
<path d="M37.1784 14.8218L38.9128 14.8218L38.9128 13.1013L37.1784 13.1013L37.1784 14.8218Z" fill="#2A2E38"/>
<path d="M37.1784 11.5942L38.9128 11.5942L38.9128 9.87377L37.1784 9.87377L37.1784 11.5942Z" fill="#363C4D"/>
<path d="M37.1784 8.271L38.9128 8.271L38.9128 6.55053L37.1784 6.55053L37.1784 8.271Z" fill="#363C4D"/>
<path d="M33.7611 34.5692L35.4956 34.5692L35.4956 32.8487L33.7611 32.8487L33.7611 34.5692Z" fill="#363C4D"/>
<path d="M33.7611 31.3417L35.4956 31.3417L35.4956 29.6212L33.7611 29.6212L33.7611 31.3417Z" fill="#363C4D"/>
<path d="M33.7611 28.0186L35.4956 28.0186L35.4956 26.2981L33.7611 26.2981L33.7611 28.0186Z" fill="#363C4D"/>
<path d="M33.7611 24.6954L35.4956 24.6954L35.4956 22.975L33.7611 22.975L33.7611 24.6954Z" fill="#363C4D"/>
<path d="M33.7611 21.4679L35.4956 21.4679L35.4956 19.7474L33.7611 19.7474L33.7611 21.4679Z" fill="#363C4D"/>
<path d="M33.7611 18.1448L35.4956 18.1448L35.4956 16.4243L33.7611 16.4243L33.7611 18.1448Z" fill="#363C4D"/>
<path d="M33.7611 14.8218L35.4956 14.8218L35.4956 13.1013L33.7611 13.1013L33.7611 14.8218Z" fill="#2A2E38"/>
<path d="M33.7611 11.5942L35.4956 11.5942L35.4956 9.87377L33.7611 9.87377L33.7611 11.5942Z" fill="#363C4D"/>
<path d="M30.2475 37.8922L31.9819 37.8922L31.9819 36.1717L30.2475 36.1717L30.2475 37.8922Z" fill="#363C4D"/>
<path d="M30.2475 34.5692L31.9819 34.5692L31.9819 32.8487L30.2475 32.8487L30.2475 34.5692Z" fill="#363C4D"/>
<path d="M30.2475 31.3417L31.9819 31.3417L31.9819 29.6212L30.2475 29.6212L30.2475 31.3417Z" fill="#363C4D"/>
<path d="M30.2475 28.0186L31.9819 28.0186L31.9819 26.2981L30.2475 26.2981L30.2475 28.0186Z" fill="#EF4695"/>
<path d="M30.2475 24.6954L31.9819 24.6954L31.9819 22.975L30.2475 22.975L30.2475 24.6954Z" fill="#363C4D"/>
<path d="M30.2475 21.4679L31.9819 21.4679L31.9819 19.7474L30.2475 19.7474L30.2475 21.4679Z" fill="#2A2E38"/>
<path d="M30.2475 18.1448L31.9819 18.1448L31.9819 16.4243L30.2475 16.4243L30.2475 18.1448Z" fill="#363C4D"/>
<path d="M30.2475 14.8218L31.9819 14.8218L31.9819 13.1013L30.2475 13.1013L30.2475 14.8218Z" fill="#363C4D"/>
<path d="M26.8302 37.8922L28.5647 37.8922L28.5647 36.1717L26.8302 36.1717L26.8302 37.8922Z" fill="#363C4D"/>
<path d="M26.8302 34.5692L28.5647 34.5692L28.5647 32.8487L26.8302 32.8487L26.8302 34.5692Z" fill="#363C4D"/>
<path d="M26.8302 31.3417L28.5647 31.3417L28.5647 29.6212L26.8302 29.6212L26.8302 31.3417Z" fill="#363C4D"/>
<path d="M26.8302 28.0186L28.5647 28.0186L28.5647 26.2981L26.8302 26.2981L26.8302 28.0186Z" fill="#363C4D"/>
<path d="M26.8302 24.6954L28.5647 24.6954L28.5647 22.975L26.8302 22.975L26.8302 24.6954Z" fill="#363C4D"/>
<path d="M26.8302 21.4679L28.5647 21.4679L28.5647 19.7474L26.8302 19.7474L26.8302 21.4679Z" fill="#363C4D"/>
<path d="M26.8302 18.1448L28.5647 18.1448L28.5647 16.4243L26.8302 16.4243L26.8302 18.1448Z" fill="#2A2E38"/>
<path d="M26.8302 14.8218L28.5647 14.8218L28.5647 13.1013L26.8302 13.1013L26.8302 14.8218Z" fill="#EF4695"/>
<path d="M26.8302 11.5942L28.5647 11.5942L28.5647 9.87377L26.8302 9.87377L26.8302 11.5942Z" fill="#2A2E38"/>
<path d="M26.8302 8.271L28.5647 8.271L28.5647 6.55053L26.8302 6.55053L26.8302 8.271Z" fill="#363C4D"/>
<path d="M23.413 37.8922L25.1475 37.8922L25.1475 36.1717L23.413 36.1717L23.413 37.8922Z" fill="#363C4D"/>
<path d="M23.413 34.5692L25.1475 34.5692L25.1475 32.8487L23.413 32.8487L23.413 34.5692Z" fill="#363C4D"/>
<path d="M23.413 31.3417L25.1475 31.3417L25.1475 29.6212L23.413 29.6212L23.413 31.3417Z" fill="#363C4D"/>
<path d="M30.2475 41.1541L31.9819 41.1541L31.9819 39.4336L30.2475 39.4336L30.2475 41.1541Z" fill="#363C4D"/>
<path d="M26.8302 47.7048L28.5647 47.7048L28.5647 45.9844L26.8302 45.9844L26.8302 47.7048Z" fill="#363C4D"/>
<path d="M26.8302 44.4772L28.5647 44.4772L28.5647 42.7567L26.8302 42.7567L26.8302 44.4772Z" fill="#363C4D"/>
<path d="M26.8302 41.1541L28.5647 41.1541L28.5647 39.4336L26.8302 39.4336L26.8302 41.1541Z" fill="#363C4D"/>
<path d="M23.413 47.7048L25.1475 47.7048L25.1475 45.9844L23.413 45.9844L23.413 47.7048Z" fill="#363C4D"/>
<path d="M23.413 44.4772L25.1475 44.4772L25.1475 42.7567L23.413 42.7567L23.413 44.4772Z" fill="#363C4D"/>
<path d="M23.413 41.1541L25.1475 41.1541L25.1475 39.4336L23.413 39.4336L23.413 41.1541Z" fill="#363C4D"/>
<path d="M23.413 28.0186L25.1475 28.0186L25.1475 26.2981L23.413 26.2981L23.413 28.0186Z" fill="#363C4D"/>
<path d="M23.413 24.6954L25.1475 24.6954L25.1475 22.975L23.413 22.975L23.413 24.6954Z" fill="#363C4D"/>
<path d="M23.413 21.4679L25.1475 21.4679L25.1475 19.7474L23.413 19.7474L23.413 21.4679Z" fill="#2A2E38"/>
<path d="M23.413 18.1448L25.1475 18.1448L25.1475 16.4243L23.413 16.4243L23.413 18.1448Z" fill="#363C4D"/>
<path d="M63.0494 105.089H61.3149V106.81H63.0494V105.089Z" fill="#363C4D"/>
<path d="M63.0494 108.435H61.3149V110.155H63.0494V108.435Z" fill="#2A2E38"/>
<path d="M66.422 105.089H64.6875V106.81H66.422V105.089Z" fill="#363C4D"/>
<path d="M66.422 108.435H64.6875V110.155H66.422V108.435Z" fill="#363C4D"/>
<path d="M66.422 111.684H64.6875V113.405H66.422V111.684Z" fill="#363C4D"/>
<path d="M66.422 114.934H64.6875V116.655H66.422V114.934Z" fill="#363C4D"/>
<path d="M69.891 105.089H68.1565V106.81H69.891V105.089Z" fill="#2A2E38"/>
<path d="M69.891 108.435H68.1565V110.155H69.891V108.435Z" fill="#363C4D"/>
<path d="M69.891 111.684H68.1565V113.405H69.891V111.684Z" fill="#2A2E38"/>
<path d="M69.891 114.934H68.1565V116.655H69.891V114.934Z" fill="#363C4D"/>
<path d="M69.891 118.28H68.1565V120H69.891V118.28Z" fill="#2A2E38"/>
<path d="M73.36 105.089H71.6255V106.81H73.36V105.089Z" fill="#2A2E38"/>
<path d="M73.36 108.435H71.6255V110.155H73.36V108.435Z" fill="#363C4D"/>
<path d="M73.36 111.684H71.6255V113.405H73.36V111.684Z" fill="#363C4D"/>
<path d="M76.7325 105.089H74.998V106.81H76.7325V105.089Z" fill="#363C4D"/>
<path d="M76.7325 108.435H74.998V110.155H76.7325V108.435Z" fill="#2A2E38"/>
<path d="M80.2015 105.089H78.467V106.81H80.2015V105.089Z" fill="#363C4D"/>
<path d="M80.2015 108.435H78.467V110.155H80.2015V108.435Z" fill="#2A2E38"/>
<path d="M80.2015 111.684H78.467V113.405H80.2015V111.684Z" fill="url(#paint2_linear_23:766)"/>
<path d="M80.2015 114.934H78.467V116.655H80.2015V114.934Z" fill="#363C4D"/>
<path d="M83.6705 101.839H81.936V103.56H83.6705V101.839Z" fill="#363C4D"/>
<path d="M83.6705 105.089H81.936V106.81H83.6705V105.089Z" fill="#2A2E38"/>
<path d="M87.1393 101.839H85.4048V103.56H87.1393V101.839Z" fill="#363C4D"/>
<path d="M87.1393 105.089H85.4048V106.81H87.1393V105.089Z" fill="#363C4D"/>
<path d="M87.1393 108.435H85.4048V110.155H87.1393V108.435Z" fill="#363C4D"/>
<path d="M87.1393 111.684H85.4048V113.405H87.1393V111.684Z" fill="#2A2E38"/>
<path d="M90.5118 95.2444H88.7773V96.9649H90.5118V95.2444Z" fill="#363C4D"/>
<path d="M90.5118 98.4941H88.7773V100.215H90.5118V98.4941Z" fill="#363C4D"/>
<path d="M90.5118 101.839H88.7773V103.56H90.5118V101.839Z" fill="#363C4D"/>
<path d="M90.5118 105.089H88.7773V106.81H90.5118V105.089Z" fill="#363C4D"/>
<path d="M90.5118 108.435H88.7773V110.155H90.5118V108.435Z" fill="#2A2E38"/>
<path d="M90.5118 111.684H88.7773V113.405H90.5118V111.684Z" fill="#363C4D"/>
<path d="M90.5118 114.934H88.7773V116.655H90.5118V114.934Z" fill="#363C4D"/>
<path d="M90.5118 118.28H88.7773V120H90.5118V118.28Z" fill="#2A2E38"/>
<path d="M93.9808 95.2444H92.2463V96.9649H93.9808V95.2444Z" fill="#363C4D"/>
<path d="M93.9808 98.4941H92.2463V100.215H93.9808V98.4941Z" fill="#363C4D"/>
<path d="M93.9808 101.839H92.2463V103.56H93.9808V101.839Z" fill="#2A2E38"/>
<path d="M93.9808 105.089H92.2463V106.81H93.9808V105.089Z" fill="#EF4695"/>
<path d="M93.9808 108.435H92.2463V110.155H93.9808V108.435Z" fill="#363C4D"/>
<path d="M93.9808 111.684H92.2463V113.405H93.9808V111.684Z" fill="#2A2E38"/>
<path d="M93.9808 114.934H92.2463V116.655H93.9808V114.934Z" fill="#363C4D"/>
<path d="M93.9808 118.28H92.2463V120H93.9808V118.28Z" fill="#2A2E38"/>
<path d="M97.4498 95.2444H95.7153V96.9649H97.4498V95.2444Z" fill="#2A2E38"/>
<path d="M97.4498 98.4941H95.7153V100.215H97.4498V98.4941Z" fill="#363C4D"/>
<path d="M97.4498 101.839H95.7153V103.56H97.4498V101.839Z" fill="#363C4D"/>
<path d="M97.4498 105.089H95.7153V106.81H97.4498V105.089Z" fill="#2A2E38"/>
<path d="M97.4498 108.435H95.7153V110.155H97.4498V108.435Z" fill="#363C4D"/>
<path d="M97.4498 111.684H95.7153V113.405H97.4498V111.684Z" fill="#363C4D"/>
<path d="M100.919 85.3994H99.1843V87.1199H100.919V85.3994Z" fill="#363C4D"/>
<path d="M100.919 88.6492H99.1843V90.3696H100.919V88.6492Z" fill="#363C4D"/>
<path d="M100.919 91.9946H99.1843V93.7151H100.919V91.9946Z" fill="#363C4D"/>
<path d="M100.919 95.2444H99.1843V96.9649H100.919V95.2444Z" fill="#363C4D"/>
<path d="M100.919 98.4941H99.1843V100.215H100.919V98.4941Z" fill="#363C4D"/>
<path d="M100.919 101.839H99.1843V103.56H100.919V101.839Z" fill="#363C4D"/>
<path d="M100.919 105.089H99.1843V106.81H100.919V105.089Z" fill="#2A2E38"/>
<path d="M100.919 108.435H99.1843V110.155H100.919V108.435Z" fill="#363C4D"/>
<path d="M104.291 85.3994H102.557V87.1199H104.291V85.3994Z" fill="#363C4D"/>
<path d="M104.291 88.6492H102.557V90.3696H104.291V88.6492Z" fill="#363C4D"/>
<path d="M104.291 91.9946H102.557V93.7151H104.291V91.9946Z" fill="#363C4D"/>
<path d="M104.291 95.2444H102.557V96.9649H104.291V95.2444Z" fill="#363C4D"/>
<path d="M104.291 98.4941H102.557V100.215H104.291V98.4941Z" fill="#2A2E38"/>
<path d="M104.291 101.839H102.557V103.56H104.291V101.839Z" fill="#363C4D"/>
<path d="M104.291 105.089H102.557V106.81H104.291V105.089Z" fill="#363C4D"/>
<path d="M107.76 82.0541H106.026V83.7745H107.76V82.0541Z" fill="#363C4D"/>
<path d="M107.76 85.3994H106.026V87.1199H107.76V85.3994Z" fill="#363C4D"/>
<path d="M107.76 88.6492H106.026V90.3696H107.76V88.6492Z" fill="#363C4D"/>
<path d="M107.76 91.9946H106.026V93.7151H107.76V91.9946Z" fill="#363C4D"/>
<path d="M107.76 95.2444H106.026V96.9649H107.76V95.2444Z" fill="#363C4D"/>
<path d="M107.76 98.4941H106.026V100.215H107.76V98.4941Z" fill="#363C4D"/>
<path d="M107.76 101.839H106.026V103.56H107.76V101.839Z" fill="#2A2E38"/>
<path d="M107.76 105.089H106.026V106.81H107.76V105.089Z" fill="#363C4D"/>
<path d="M107.76 108.435H106.026V110.155H107.76V108.435Z" fill="#2A2E38"/>
<path d="M107.76 111.684H106.026V113.405H107.76V111.684Z" fill="#EF4695"/>
<path d="M111.229 82.0541H109.495V83.7745H111.229V82.0541Z" fill="#363C4D"/>
<path d="M111.229 85.3994H109.495V87.1199H111.229V85.3994Z" fill="#363C4D"/>
<path d="M111.229 88.6492H109.495V90.3696H111.229V88.6492Z" fill="#363C4D"/>
<path d="M107.76 78.8043H106.026V80.5248H107.76V78.8043Z" fill="#363C4D"/>
<path d="M111.229 72.2092H109.495V73.9297H111.229V72.2092Z" fill="#363C4D"/>
<path d="M111.229 75.5544H109.495V77.2749H111.229V75.5544Z" fill="#363C4D"/>
<path d="M111.229 78.8043H109.495V80.5248H111.229V78.8043Z" fill="#363C4D"/>
<path d="M111.229 91.9946H109.495V93.7151H111.229V91.9946Z" fill="#EF4695"/>
<path d="M111.229 95.2444H109.495V96.9649H111.229V95.2444Z" fill="#363C4D"/>
<path d="M111.229 98.4941H109.495V100.215H111.229V98.4941Z" fill="#2A2E38"/>
<path d="M111.229 101.839H109.495V103.56H111.229V101.839Z" fill="#363C4D"/>
<g filter="url(#filter0_d_23:766)">
<path d="M67 105.95C91.8528 105.95 112 85.965 112 61.3129C112 36.6608 91.8528 16.6763 67 16.6763C42.1472 16.6763 22 36.6608 22 61.3129C22 85.965 42.1472 105.95 67 105.95Z" fill="#464D5F"/>
</g>
<path d="M107.953 61.3129C107.953 78.0397 97.7388 92.4725 83.0921 98.6853C78.1777 100.788 72.6852 101.935 67 101.935C61.3148 101.935 55.8223 100.788 50.9079 98.6853C36.3576 92.4725 26.0471 78.0397 26.0471 61.3129C26.0471 44.5861 36.3576 30.1533 50.9079 23.9404C55.8223 21.8377 61.3148 20.6907 67 20.6907C72.6852 20.6907 78.1777 21.8377 83.0921 23.9404C97.7388 30.1533 107.953 44.5861 107.953 61.3129Z" fill="#313644"/>
<path d="M80.683 21.2642C81.4538 22.22 82.2247 23.0802 83.092 24.036C91.0898 32.0649 96.2932 45.7331 96.2932 61.4085C96.2932 76.9883 90.9935 90.752 83.092 98.7809C82.032 99.8323 81.0684 100.979 80.2012 102.126" stroke="#464D5F" stroke-width="4" stroke-miterlimit="10" stroke-linecap="round" stroke-linejoin="round"/>
<path d="M53.895 102.126C53.0277 100.884 51.9678 99.7367 50.9078 98.6853C42.91 90.752 37.7065 76.9883 37.7065 61.3129C37.7065 45.7331 43.0063 31.9693 50.9078 23.9404C51.5823 23.2714 52.2569 22.6023 52.835 21.8376" stroke="#464D5F" stroke-width="4" stroke-miterlimit="10" stroke-linecap="round" stroke-linejoin="round"/>
<path d="M67 19.1614V103.464" stroke="#464D5F" stroke-width="4" stroke-miterlimit="10" stroke-linecap="round" stroke-linejoin="round"/>
<path d="M104.87 45.9242H29.1309" stroke="#464D5F" stroke-width="4" stroke-miterlimit="10" stroke-linecap="round" stroke-linejoin="round"/>
<path d="M104.87 76.8927H29.1309" stroke="#464D5F" stroke-width="4" stroke-miterlimit="10" stroke-linecap="round" stroke-linejoin="round"/>
<path d="M38.9594 69.1506C41.5671 69.1506 43.681 67.0537 43.681 64.4671C43.681 61.8804 41.5671 59.7836 38.9594 59.7836C36.3517 59.7836 34.2378 61.8804 34.2378 64.4671C34.2378 67.0537 36.3517 69.1506 38.9594 69.1506Z" stroke="#EF4695" stroke-width="2.2" stroke-miterlimit="10" stroke-linecap="round" stroke-linejoin="round"/>
<path d="M77.5032 39.9981C80.0577 39.9981 82.1285 37.944 82.1285 35.4102C82.1285 32.8763 80.0577 30.8223 77.5032 30.8223C74.9487 30.8223 72.8779 32.8763 72.8779 35.4102C72.8779 37.944 74.9487 39.9981 77.5032 39.9981Z" stroke="#EF4695" stroke-width="2.2" stroke-miterlimit="10" stroke-linecap="round" stroke-linejoin="round"/>
<path d="M84.6337 87.2155C87.2414 87.2155 89.3554 85.1186 89.3554 82.532C89.3554 79.9454 87.2414 77.8485 84.6337 77.8485C82.0261 77.8485 79.9121 79.9454 79.9121 82.532C79.9121 85.1186 82.0261 87.2155 84.6337 87.2155Z" stroke="#EF4695" stroke-width="2.2" stroke-miterlimit="10" stroke-linecap="round" stroke-linejoin="round"/>
<path d="M77.2139 102.891C77.0212 102.891 76.8285 102.795 76.6358 102.7C76.154 102.413 76.0576 101.744 76.3467 101.266C76.7321 100.788 77.0212 100.215 77.4066 99.7367C77.6957 99.2588 78.3702 99.0676 78.852 99.45C79.3338 99.7367 79.5266 100.406 79.1411 100.884C78.7557 101.457 78.4666 102.031 78.0812 102.509C77.8884 102.795 77.503 102.891 77.2139 102.891ZM80.5865 97.156C80.3938 97.156 80.2974 97.156 80.1047 97.0604C79.6229 96.7737 79.3338 96.2002 79.6229 95.6267C79.912 95.0532 80.1047 94.4797 80.3938 93.9062C80.5865 93.3327 81.261 93.1416 81.7428 93.3327C82.321 93.5239 82.5137 94.193 82.321 94.6709C82.0319 95.2444 81.8392 95.9134 81.5501 96.4869C81.3574 96.9648 80.972 97.156 80.5865 97.156ZM82.9955 90.9432C82.8991 90.9432 82.8028 90.9432 82.7064 90.8476C82.1283 90.6564 81.8392 90.0829 82.0319 89.5095C82.2246 88.936 82.4174 88.3625 82.6101 87.6934C82.8028 87.1199 83.381 86.8332 83.9591 86.9288C84.5373 87.1199 84.8263 87.6934 84.73 88.2669C84.5373 88.936 84.3445 89.5095 84.1518 90.1785C83.8627 90.6564 83.4773 90.9432 82.9955 90.9432Z" fill="#EF4695"/>
<path d="M85.7899 76.0324C85.6936 76.0324 85.6936 76.0324 85.7899 76.0324C85.1154 76.0324 84.73 75.4589 84.73 74.8854C84.73 74.2163 84.8263 73.6428 84.8263 72.9738C84.8263 72.4003 85.3081 71.9224 85.8863 71.9224C86.4645 71.9224 86.9463 72.4003 86.9463 72.9738C86.9463 73.6428 86.8499 74.3119 86.8499 74.8854C86.7535 75.65 86.2717 76.0324 85.7899 76.0324ZM85.8863 69.3417C85.3081 69.3417 84.8263 68.8637 84.8263 68.2903C84.8263 67.6212 84.8263 67.0477 84.73 66.3786C84.73 65.8051 85.1154 65.3272 85.6936 65.2316C86.2717 65.2316 86.7535 65.614 86.8499 66.1875C86.8499 66.8565 86.9463 67.5256 86.9463 68.0991C86.9463 68.8637 86.4645 69.3417 85.8863 69.3417ZM85.5009 62.7465C84.9227 62.7465 84.5373 62.3642 84.4409 61.7907C84.3445 61.1216 84.3445 60.5481 84.2482 59.8791C84.1518 59.3056 84.5373 58.7321 85.1154 58.7321C85.6936 58.6365 86.2717 59.0188 86.2717 59.5923C86.3681 60.2614 86.4645 60.8349 86.4645 61.504C86.5608 62.0774 86.079 62.5554 85.5009 62.6509C85.5009 62.7465 85.5009 62.7465 85.5009 62.7465ZM84.4409 56.0558C83.9591 56.0558 83.4773 55.6735 83.3809 55.1956C83.2846 54.6221 83.0919 53.953 82.9955 53.3795C82.8991 52.806 83.1882 52.2325 83.7664 52.137C84.3445 52.0414 84.9227 52.3281 85.0191 52.9016C85.1154 53.5707 85.3081 54.1442 85.4045 54.8132C85.5009 55.3867 85.1154 55.9602 84.5373 56.0558C84.6336 56.0558 84.5373 56.0558 84.4409 56.0558ZM82.8991 49.5562C82.4173 49.5562 82.0319 49.2695 81.8392 48.7916C81.6465 48.2181 81.4538 47.549 81.261 46.9755C81.0683 46.4021 81.3574 45.8286 81.9356 45.6374C82.5137 45.4462 83.0919 45.733 83.2846 46.3065C83.4773 46.88 83.67 47.549 83.8627 48.1225C84.0555 48.696 83.67 49.2695 83.0919 49.4607C83.0919 49.5562 82.9955 49.5562 82.8991 49.5562ZM80.7792 43.2479C80.3938 43.2479 79.912 42.9611 79.8156 42.5788C79.6229 42.0053 79.3338 41.4318 79.1411 40.8583C78.9484 40.2848 79.1411 39.7113 79.7193 39.5202C80.2974 39.329 80.8756 39.5202 81.0683 40.0937C81.3574 40.6672 81.5501 41.2406 81.8392 41.9097C82.0319 42.4832 81.7428 43.0567 81.261 43.2479C81.0683 43.2479 80.8756 43.2479 80.7792 43.2479Z" fill="#EF4695"/>
<path d="M73.5525 29.5798C73.2634 29.5798 72.878 29.3886 72.6853 29.1019C72.2999 28.624 71.9144 28.0505 71.529 27.5726C71.1435 27.0947 71.2399 26.4256 71.7217 26.1389C72.2035 25.7565 72.878 25.8521 73.1671 26.33C73.5525 26.8079 73.938 27.3814 74.3234 27.8593C74.6125 28.3372 74.5161 29.0063 74.0343 29.2931C73.938 29.4842 73.7452 29.5798 73.5525 29.5798ZM69.3127 24.3228C69.0236 24.3228 68.7345 24.2272 68.5418 24.0361C68.1564 23.5582 67.6746 23.1758 67.1928 22.6979C66.8073 22.3156 66.8073 21.6465 67.1928 21.1686C67.5782 20.7863 68.2527 20.7863 68.7345 21.1686C69.2163 21.6465 69.6981 22.1244 70.0836 22.6023C70.469 22.9847 70.469 23.6537 70.0836 24.1317C69.7945 24.2272 69.5054 24.3228 69.3127 24.3228ZM64.302 19.8305C64.1093 19.8305 63.8202 19.7349 63.6275 19.6393C63.1457 19.257 62.5675 18.8747 62.0857 18.5879C61.6039 18.3012 61.5076 17.6321 61.7966 17.1542C62.0857 16.6763 62.7602 16.4851 63.242 16.8675C63.8202 17.2498 64.302 17.6321 64.8802 18.0144C65.362 18.3968 65.4583 19.0658 65.0729 19.4482C64.8802 19.7349 64.5911 19.8305 64.302 19.8305Z" fill="#EF4695"/>
<path d="M34.8158 61.4084C34.5268 61.4084 34.2377 61.3128 34.045 61.1216C33.5632 60.6437 33.1777 60.1658 32.6959 59.6879C32.3105 59.21 32.3105 58.6365 32.7923 58.1586C33.2741 57.7763 33.8522 57.7763 34.334 58.2542C34.7195 58.7321 35.2013 59.21 35.5867 59.5923C35.9722 59.9746 35.9722 60.6437 35.5867 61.1216C35.394 61.3128 35.1049 61.4084 34.8158 61.4084ZM30.4796 56.2469C30.1906 56.2469 29.8051 56.0558 29.6124 55.8646C29.227 55.2911 28.8415 54.8132 28.4561 54.2397C28.167 53.7618 28.2634 53.0928 28.7452 52.806C29.227 52.5193 29.9015 52.6148 30.1906 53.0928C30.576 53.5707 30.8651 54.1442 31.2505 54.6221C31.636 55.1 31.5396 55.769 31.0578 56.0558C30.9614 56.2469 30.6724 56.2469 30.4796 56.2469ZM26.9143 50.6076C26.5289 50.6076 26.1435 50.4165 25.9507 50.0341C25.6617 49.4607 25.3726 48.8872 25.0835 48.2181C24.8908 47.6446 25.0835 47.0711 25.6617 46.7844C26.2398 46.4976 26.818 46.7844 27.1071 47.3579C27.3961 47.9313 27.5889 48.5048 27.8779 48.9827C28.167 49.4607 27.9743 50.1297 27.3961 50.4165C27.2034 50.6076 27.1071 50.6076 26.9143 50.6076Z" fill="#EF4695"/>
<path d="M79.0448 82.7232H78.9484C78.2739 82.6276 77.6957 82.532 77.0212 82.4364C76.4431 82.3408 76.0576 81.7673 76.154 81.1938C76.2503 80.6204 76.8285 80.238 77.4067 80.3336C78.0812 80.4292 78.6593 80.5248 79.2375 80.6204C79.8157 80.7159 80.2011 81.1938 80.2011 81.7673C80.0084 82.3408 79.5266 82.7232 79.0448 82.7232ZM72.396 81.5762C72.2996 81.5762 72.2032 81.5762 72.2032 81.5762C71.5287 81.4806 70.9506 81.2894 70.276 81.0983C69.6979 81.0027 69.4088 80.4292 69.5052 79.8557C69.6015 79.2822 70.1797 78.9955 70.7578 79.091C71.336 79.2822 72.0105 79.3778 72.5887 79.569C73.1668 79.6645 73.5523 80.238 73.3596 80.8115C73.3596 81.2894 72.8778 81.5762 72.396 81.5762ZM65.8435 79.8557C65.7471 79.8557 65.6508 79.8557 65.5544 79.7601C64.9763 79.569 64.3017 79.3778 63.7236 79.1866C63.1454 78.9955 62.8563 78.422 63.0491 77.8485C63.2418 77.275 63.8199 76.9883 64.3981 77.1794C64.9763 77.3706 65.5544 77.5617 66.2289 77.7529C66.8071 77.9441 67.0962 78.5176 66.9035 79.091C66.7107 79.569 66.3253 79.8557 65.8435 79.8557ZM59.5801 77.5617C59.4838 77.5617 59.291 77.5617 59.1947 77.4662C58.6165 77.1794 57.942 76.9883 57.3638 76.7015C56.7857 76.5103 56.593 75.8413 56.7857 75.3634C56.9784 74.7899 57.6529 74.5987 58.1347 74.7899C58.7129 75.0766 59.291 75.2678 59.8692 75.5545C60.4474 75.7457 60.6401 76.4148 60.4474 76.8927C60.351 77.3706 59.9656 77.5617 59.5801 77.5617ZM53.4131 74.7899C53.2204 74.7899 53.124 74.7899 52.9313 74.6943C52.3531 74.4075 51.775 74.1208 51.1968 73.8341C50.715 73.5473 50.5223 72.8782 50.8114 72.4003C51.1005 71.9224 51.775 71.7313 52.2568 72.018C52.8349 72.3048 53.4131 72.5915 53.8949 72.8782C54.3767 73.165 54.6658 73.7385 54.3767 74.312C54.184 74.5987 53.7985 74.7899 53.4131 74.7899ZM47.5351 71.5401C47.3424 71.5401 47.1497 71.4445 46.957 71.3489C46.3788 70.9666 45.897 70.6799 45.3189 70.2975C44.8371 70.0108 44.7407 69.3417 45.0298 68.8638C45.3189 68.3859 45.9934 68.2903 46.4752 68.5771C46.957 68.9594 47.5351 69.2461 48.1133 69.6285C48.5951 69.9152 48.7878 70.5843 48.4024 71.0622C48.2097 71.3489 47.9206 71.5401 47.5351 71.5401Z" fill="#EF4695"/>
<path d="M92.9209 83.0099C92.3428 83.0099 91.9573 82.6276 91.861 82.0541C91.7646 81.4806 92.2464 81.0027 92.8246 80.9071C93.4991 80.8115 94.0772 80.7159 94.6554 80.7159C95.2336 80.6204 95.8117 81.0027 95.8117 81.5762C95.9081 82.1497 95.5226 82.7231 94.9445 82.7231C94.27 82.8187 93.6918 82.9143 93.0173 83.0099C93.0173 83.0099 93.0173 83.0099 92.9209 83.0099ZM99.5698 81.7673C99.088 81.7673 98.7025 81.4806 98.5098 81.0027C98.3171 80.4292 98.7025 79.8557 99.2807 79.7601C99.8588 79.569 100.533 79.4734 101.112 79.2822C101.69 79.091 102.268 79.3778 102.461 79.9513C102.653 80.5248 102.364 81.0983 101.786 81.2894C101.208 81.4806 100.533 81.6717 99.8588 81.8629C99.7625 81.7673 99.6661 81.7673 99.5698 81.7673ZM105.929 79.5689C105.544 79.5689 105.159 79.3778 104.966 78.9955C104.677 78.422 104.966 77.8485 105.448 77.5617C106.026 77.275 106.604 76.9882 107.086 76.7015C107.568 76.4148 108.242 76.6059 108.531 77.0838C108.82 77.5617 108.628 78.2308 108.146 78.5176C107.568 78.8043 106.989 79.091 106.411 79.3778C106.219 79.569 106.122 79.5689 105.929 79.5689Z" fill="#EF4695"/>
<path d="M82.9957 35.2191C82.5139 35.2191 82.0321 34.9324 81.9357 34.4545C81.8394 33.881 82.1285 33.3075 82.7066 33.2119C83.3811 33.0208 83.9593 32.9252 84.6338 32.8296C85.212 32.734 85.7901 33.1163 85.8865 33.6898C85.9829 34.2633 85.5974 34.8368 85.0193 34.9324C84.4411 35.028 83.7666 35.2191 83.1884 35.3147C83.1884 35.1236 83.0921 35.2191 82.9957 35.2191ZM89.6445 34.0722C89.0664 34.0722 88.6809 33.6898 88.5846 33.1163C88.4882 32.5429 88.97 32.0649 89.5482 31.9694C90.2227 31.8738 90.8972 31.8738 91.4754 31.7782C92.0535 31.7782 92.5353 32.1605 92.6317 32.734C92.6317 33.3075 92.2462 33.7854 91.6681 33.881C91.0899 33.881 90.4154 33.9766 89.7409 34.0722C89.7409 34.0722 89.7409 34.0722 89.6445 34.0722ZM98.3169 33.881C97.6424 33.7854 96.9679 33.7854 96.3897 33.7854C95.8115 33.7854 95.3297 33.3075 95.3297 32.734C95.3297 32.1605 95.8115 31.6826 96.3897 31.6826C97.0642 31.6826 97.7387 31.7782 98.3169 31.7782C98.8951 31.8738 99.3769 32.3517 99.2805 32.9252C99.3769 33.4987 98.8951 33.881 98.3169 33.881Z" fill="#EF4695"/>
<path d="M42.2354 60.9306C42.0427 60.9306 41.7536 60.835 41.5609 60.7394C41.0791 60.3571 41.0791 59.688 41.3682 59.3057C41.7536 58.8278 42.2354 58.3499 42.6209 57.7764C43.0063 57.2985 43.6808 57.2985 44.1626 57.6808C44.6444 58.0631 44.6444 58.7322 44.259 59.2101C43.8735 59.688 43.4881 60.1659 43.0063 60.6438C42.9099 60.835 42.5245 60.9306 42.2354 60.9306ZM46.7643 55.9603C46.4753 55.9603 46.1862 55.8648 45.9935 55.6736C45.608 55.2913 45.608 54.6222 45.9935 54.1443C46.4752 53.6664 46.8607 53.1885 47.3425 52.8062C47.7279 52.4238 48.4024 52.4238 48.8842 52.8062C49.2697 53.1885 49.2697 53.8575 48.8842 54.3355C48.4024 54.8134 48.017 55.1957 47.5352 55.6736C47.2461 55.8648 47.0534 55.9603 46.7643 55.9603ZM51.6787 51.3724C51.3896 51.3724 51.1005 51.2768 50.9078 50.9901C50.5224 50.5122 50.6187 49.8431 51.0042 49.4608C51.486 49.0785 51.9678 48.6006 52.5459 48.2182C53.0277 47.8359 53.7022 47.9315 53.9913 48.4094C54.3767 48.8873 54.2804 49.5564 53.7986 49.8431C53.3168 50.2254 52.835 50.6078 52.3532 51.0857C52.1605 51.2768 51.8714 51.3724 51.6787 51.3724ZM56.9785 47.2624C56.6894 47.2624 56.3039 47.0713 56.1112 46.7845C55.7258 46.3066 55.9185 45.6375 56.4003 45.3508C56.7857 45.064 57.2675 44.7773 57.653 44.4905L57.9421 44.2994C58.4239 44.0126 59.0984 44.1082 59.3875 44.5861C59.6765 45.064 59.5802 45.7331 59.0984 46.0199L58.8093 46.211C58.4239 46.4978 57.9421 46.7845 57.5566 47.0713C57.3639 47.1668 57.1712 47.2624 56.9785 47.2624ZM62.5673 43.5347C62.1819 43.5347 61.8928 43.3436 61.7001 43.0568C61.411 42.5789 61.6037 41.9098 62.0855 41.6231C62.6637 41.2408 63.2418 40.954 63.82 40.6673C64.3018 40.3805 64.9763 40.5717 65.2654 41.0496C65.5545 41.5275 65.3618 42.1966 64.88 42.4833C64.3018 42.7701 63.82 43.1524 63.2418 43.4392C62.9528 43.5347 62.76 43.5347 62.5673 43.5347ZM68.5416 40.3805C68.1562 40.3805 67.7708 40.1894 67.578 39.807C67.289 39.3291 67.578 38.6601 68.0598 38.3733C68.638 38.0866 69.2161 37.7998 69.7943 37.5131C70.3725 37.2263 70.9506 37.5131 71.2397 37.991C71.5288 38.5645 71.2397 39.138 70.7579 39.4247C70.1797 39.7115 69.6016 39.9982 69.0234 40.1894C68.8307 40.3805 68.638 40.3805 68.5416 40.3805Z" fill="#EF4695"/>
<path d="M31.058 87.6934C30.4798 87.6934 29.998 87.2155 29.998 86.642C29.998 85.9729 29.998 85.3038 30.0944 84.6348C30.0944 84.0613 30.6726 83.5834 31.2507 83.6789C31.8289 83.6789 32.3107 84.2524 32.2143 84.8259C32.2143 85.3994 32.118 86.0685 32.118 86.642C32.118 87.2155 31.6362 87.6934 31.058 87.6934ZM31.8289 81.0982C31.7325 81.0982 31.6362 81.0982 31.6362 81.0982C31.058 81.0027 30.6726 80.4292 30.8653 79.8557C31.058 79.1866 31.1544 78.6131 31.3471 77.944C31.5398 77.3706 32.118 77.0838 32.6961 77.1794C33.2743 77.3705 33.5634 77.944 33.467 78.5175C33.2743 79.091 33.1779 79.7601 32.9852 80.3336C32.7925 80.7159 32.3107 81.0982 31.8289 81.0982ZM33.8524 74.6943C33.7561 74.6943 33.5634 74.6943 33.467 74.5987C32.8888 74.4075 32.6961 73.7384 32.8888 73.2605C33.1779 72.687 33.3706 72.1136 33.6597 71.4445C33.9488 70.871 34.527 70.6798 35.1051 70.9666C35.6833 71.2533 35.876 71.8268 35.5869 72.4003C35.2978 72.9738 35.1051 73.5473 34.816 74.1208C34.7197 74.5031 34.3342 74.6943 33.8524 74.6943Z" fill="#EF4695"/>
<path d="M58.3276 91.0387V103.942C58.3276 105.376 57.5567 106.619 56.3041 107.383L46.0899 113.214L45.1263 113.787C43.8736 114.456 42.4283 114.456 41.1756 113.787L29.9015 107.288C28.6488 106.619 27.8779 105.28 27.8779 103.847V91.0387C27.8779 89.605 28.6488 88.3624 29.9015 87.5978L41.1756 81.0982C42.4283 80.4292 43.8736 80.4292 45.1263 81.0982L56.4004 87.5978C57.5567 88.3624 58.3276 89.605 58.3276 91.0387Z" fill="url(#paint3_linear_23:766)"/>
<path d="M58.3276 99.8322V103.942C58.3276 105.376 57.5567 106.619 56.304 107.383L46.0899 113.214L37.0321 104.229L36.8394 102.222L37.7066 98.6852V96.5824L36.9357 91.8033L39.2483 91.6122L44.8372 91.8989L48.4989 91.7078L49.7516 91.3254L58.3276 99.8322Z" fill="url(#paint4_linear_23:766)"/>
<path d="M49.4844 98.2637C49.3881 97.977 49.1954 97.6903 49.0026 97.4035C49.3881 96.83 49.6772 96.1609 49.9662 95.4919C50.6408 93.5802 50.5444 91.9554 49.5808 90.9995C48.6172 90.0437 46.9791 89.8526 45.0519 90.6172C44.3774 90.904 43.7029 91.1907 43.1247 91.573C40.523 90.0437 38.0176 89.757 36.6686 91.0951C35.3196 92.4333 35.6086 94.9184 37.1504 97.4991C37.054 97.6903 36.8613 97.977 36.765 98.1682C35.5123 100.558 35.4159 102.756 36.6686 103.903C37.2468 104.477 38.114 104.763 38.9812 104.763C40.1375 104.668 41.3902 104.381 42.4502 103.807C43.0283 103.521 43.5101 103.234 44.0883 102.852C44.9555 102.278 45.8228 101.514 46.5936 100.749C46.9791 100.367 47.3645 99.8886 47.75 99.5063C47.9427 99.3151 48.039 99.124 48.2318 98.9328C48.3281 99.2196 48.5208 99.5063 48.6172 99.793V99.8886C48.8099 100.462 48.9063 100.94 49.0026 101.514C49.0026 101.896 48.9063 102.374 48.6172 102.66C48.1354 103.138 47.0754 103.138 45.8228 102.66C45.8228 102.66 45.7264 102.66 45.7264 102.565C45.4373 102.756 45.1483 103.043 44.8592 103.234C44.6665 103.425 44.3774 103.521 44.1847 103.712C44.5701 103.903 44.9555 104.094 45.341 104.19C46.0155 104.477 46.7864 104.572 47.5572 104.668C48.039 104.668 48.4245 104.572 48.8099 104.477C49.1954 104.381 49.4844 104.094 49.7735 103.807C50.7371 102.852 50.9298 101.227 50.159 99.3151C49.8699 99.0284 49.6772 98.6461 49.4844 98.2637ZM45.63 92.1465C46.8827 91.6686 47.9427 91.6686 48.4245 92.1465C48.9063 92.6244 48.9063 93.6758 48.4245 94.9184C48.3281 95.2051 48.1354 95.5875 48.039 95.8742C47.5572 95.2051 46.9791 94.6316 46.4009 94.0581C46.0155 93.6758 45.6301 93.2935 45.2446 93.0068C45.0519 92.8156 44.7628 92.6244 44.5701 92.5288C44.9555 92.4333 45.2446 92.3377 45.63 92.1465ZM37.7286 102.756C37.2468 102.278 37.2468 101.131 37.8249 99.6975C37.9213 99.5063 38.0176 99.2196 38.114 99.0284C38.3067 99.2196 38.4994 99.5063 38.6921 99.6975C38.9812 100.08 39.3667 100.462 39.7521 100.844C40.3303 101.418 40.9084 101.896 41.5829 102.374C41.2939 102.469 41.1011 102.66 40.8121 102.756C39.463 103.234 38.3067 103.234 37.7286 102.756ZM45.2446 99.6019C44.5701 100.271 43.7992 100.844 43.0283 101.418C41.6793 100.462 40.523 99.4107 39.5594 98.1682C39.3667 97.977 39.1739 97.6903 39.0776 97.4991C39.6557 96.7344 40.2339 95.9698 40.9084 95.3007C41.3902 94.8228 41.872 94.3449 42.4502 93.9626C41.9684 93.6758 41.4866 93.3891 40.9084 93.1023C40.523 93.3891 40.1375 93.7714 39.7521 94.1537C39.1739 94.7272 38.6921 95.3007 38.2104 95.9698C37.3431 94.2493 37.2468 92.8156 37.8249 92.2421C38.114 91.9554 38.4994 91.8598 38.9812 91.8598C40.523 91.8598 43.0283 93.0068 45.341 95.3007C46.0155 95.9698 46.5936 96.7344 47.1718 97.4991C47.0754 97.6903 46.8827 97.8814 46.7864 98.0726C46.2082 98.6461 45.8228 99.124 45.2446 99.6019Z" fill="url(#paint5_linear_23:766)"/>
<path d="M43.2212 99.0285C44.0727 99.0285 44.763 98.3438 44.763 97.4992C44.763 96.6545 44.0727 95.9698 43.2212 95.9698C42.3697 95.9698 41.6794 96.6545 41.6794 97.4992C41.6794 98.3438 42.3697 99.0285 43.2212 99.0285Z" fill="url(#paint6_linear_23:766)"/>
<path d="M109.349 53.0149C113.219 51.7811 117.677 50.2084 124.913 52.4807C125.753 52.7741 126.652 52.5887 127.323 52.2015L129.502 50.9431L123.916 41.268L106.001 52.0564L109.349 53.0149Z" fill="#7C8AA0"/>
<path d="M102.896 41.8385C105.9 39.1034 109.491 36.0295 111.141 28.6267C111.307 27.7525 111.917 27.0666 112.587 26.6794L114.767 25.421L120.353 35.096L102.052 45.2171L102.896 41.8385Z" fill="#7C8AA0"/>
<path d="M101.004 42.82C106.788 39.4803 118.944 32.4621 118.944 32.4621L125.493 43.8052C125.493 43.8052 113.337 50.8234 107.553 54.1631C101.768 57.5028 97.5569 56.5979 92.6252 55.2194C93.1961 53.1105 93.7794 51.2168 94.6267 49.3931C95.7844 46.9454 97.5664 44.8045 101.004 42.82Z" fill="#A7AEC0"/>
<path d="M92.5414 55.2677C93.1123 53.1588 93.6957 51.2651 94.543 49.4414C95.7845 46.9453 97.6503 44.756 101.004 42.8199C106.788 39.4802 118.944 32.462 118.944 32.462L125.493 43.8051C125.493 43.8051 113.337 50.8234 107.553 54.1631C101.684 57.5512 97.557 56.5978 92.5414 55.2677ZM91.3678 55.9453L92.2917 56.1903C96.9112 57.4155 101.663 58.6756 108.034 54.9971L125.975 44.6392L126.813 44.1552L126.331 43.3211L119.782 31.978L119.301 31.144L118.463 31.628L100.522 41.9859C97.3365 43.8251 95.171 46.0762 93.7386 49.0162C92.8074 50.8883 92.1884 52.9138 91.7014 54.9743L91.3678 55.9453Z" fill="#4B5A72"/>
<path d="M101.004 42.8199C106.788 39.4802 118.944 32.462 118.944 32.462L121.207 36.382C120.836 36.7074 120.333 36.9979 119.83 37.2883C118.657 37.9659 117.399 38.6919 116.142 39.4179C115.387 39.8535 114.549 40.3376 113.673 40.1759C113.193 40.1193 112.785 39.7991 112.257 39.6591C111.249 39.4625 110.243 40.0433 109.405 40.5273C106.603 42.2563 103.8 43.9854 100.998 45.7145C99.9922 46.2953 98.9505 47.0079 97.9445 47.5887C97.4415 47.8791 96.8547 48.2179 96.3998 48.5917C95.9806 48.8337 95.4063 49.3878 94.807 49.5114C94.5912 49.5248 94.4592 49.4898 94.411 49.4064C95.7845 46.9452 97.5665 44.8044 101.004 42.8199Z" fill="#3D4960"/>
<path d="M104.362 48.4432C103.777 47.4298 102.477 47.085 101.458 47.6731C100.44 48.2612 100.088 49.5594 100.673 50.5728C101.258 51.5862 102.558 51.931 103.577 51.3429C104.596 50.7548 104.947 49.4566 104.362 48.4432Z" fill="#3D4960" stroke="#7D9AFF" stroke-width="2" stroke-miterlimit="10"/>
<path d="M126.674 41.0105L128.504 44.1799C128.648 44.4301 128.577 44.6937 128.325 44.8389L121.786 48.6142C120.697 49.2434 119.245 48.8584 118.619 47.7741C117.993 46.6899 118.385 45.24 119.475 44.6108L126.014 40.8354C126.134 40.6552 126.53 40.7603 126.674 41.0105Z" fill="#A7AEC0"/>
<path d="M120.173 29.7507L122.003 32.9201C122.148 33.1703 122.076 33.4339 121.825 33.5791L115.286 37.3544C114.196 37.9837 112.744 37.5986 112.118 36.5144C111.492 35.4301 111.884 33.9802 112.974 33.351L119.513 29.5757C119.681 29.4789 120.029 29.5005 120.173 29.7507Z" fill="#A7AEC0"/>
<path d="M112.89 33.3994L119.429 29.6241C119.681 29.4789 119.945 29.5489 120.089 29.7991L120.426 30.3829L114.726 33.6742C113.923 34.0264 113.265 34.6289 112.883 35.5165C112.608 36.0087 112.694 36.7378 112.419 37.23C112.239 37.1116 112.095 36.8614 111.998 36.6945C111.661 36.1107 111.624 35.4651 111.767 34.9378C111.909 34.4106 112.304 33.7382 112.89 33.3994Z" fill="#3D4960"/>
<path d="M119.343 44.5757L125.882 40.8004C126.134 40.6552 126.398 40.7252 126.542 40.9754L126.879 41.5592L121.178 44.8505C120.376 45.2027 119.718 45.8051 119.336 46.6928C119.061 47.185 119.147 47.9141 118.872 48.4063C118.692 48.2879 118.547 48.0377 118.451 47.8708C118.114 47.287 118.077 46.6414 118.219 46.1141C118.362 45.5869 118.756 44.9145 119.343 44.5757Z" fill="#3D4960"/>
<path d="M125.997 33.0609C127.254 32.3349 131.572 32.8444 131.572 32.8444C131.572 32.8444 129.855 36.8388 128.597 37.5648C127.34 38.2908 125.756 37.8708 125.033 36.6197C124.311 35.3686 124.739 33.7869 125.997 33.0609Z" fill="url(#paint7_linear_23:766)"/>
<path d="M122.198 28.8043C122.952 28.3687 125.399 28.7351 125.399 28.7351C125.399 28.7351 124.409 31.086 123.739 31.4733C123.068 31.8605 122.06 31.6638 121.627 30.9132C121.277 30.1141 121.527 29.1915 122.198 28.8043Z" fill="url(#paint8_linear_23:766)"/>
<path d="M128.795 40.2307C129.549 39.7951 131.996 40.1616 131.996 40.1616C131.996 40.1616 131.006 42.5125 130.336 42.8997C129.665 43.2869 128.657 43.0903 128.224 42.3396C127.874 41.5406 128.124 40.6179 128.795 40.2307Z" fill="url(#paint9_linear_23:766)"/>
<path d="M105.547 47.2032C105.379 47.3 105.308 47.5636 105.404 47.7304C105.5 47.8972 105.764 47.9672 105.932 47.8704L122.447 38.3353L122.062 37.6681L105.547 47.2032Z" fill="#4B5A72"/>
<defs>
<filter id="filter0_d_23:766" x="0" y="5.67627" width="134" height="133.273" filterUnits="userSpaceOnUse" color-interpolation-filters="sRGB">
<feFlood flood-opacity="0" result="BackgroundImageFix"/>
<feColorMatrix in="SourceAlpha" type="matrix" values="0 0 0 0 0 0 0 0 0 0 0 0 0 0 0 0 0 0 127 0" result="hardAlpha"/>
<feOffset dy="11"/>
<feGaussianBlur stdDeviation="11"/>
<feColorMatrix type="matrix" values="0 0 0 0 0 0 0 0 0 0 0 0 0 0 0 0 0 0 0.18 0"/>
<feBlend mode="normal" in2="BackgroundImageFix" result="effect1_dropShadow_23:766"/>
<feBlend mode="normal" in="SourceGraphic" in2="effect1_dropShadow_23:766" result="shape"/>
</filter>
<linearGradient id="paint0_linear_23:766" x1="68.2123" y1="4.16918" x2="69.9013" y2="4.16918" gradientUnits="userSpaceOnUse">
<stop stop-color="#83A6FF"/>
<stop offset="1" stop-color="#5A78FF"/>
</linearGradient>
<linearGradient id="paint1_linear_23:766" x1="57.883" y1="10.742" x2="59.5721" y2="10.742" gradientUnits="userSpaceOnUse">
<stop stop-color="#83A6FF"/>
<stop offset="1" stop-color="#5A78FF"/>
</linearGradient>
<linearGradient id="paint2_linear_23:766" x1="78.4829" y1="112.513" x2="80.172" y2="112.513" gradientUnits="userSpaceOnUse">
<stop stop-color="#83A6FF"/>
<stop offset="1" stop-color="#5A78FF"/>
</linearGradient>
<linearGradient id="paint3_linear_23:766" x1="43.0904" y1="113.513" x2="43.0904" y2="81.6191" gradientUnits="userSpaceOnUse">
<stop stop-color="#83A6FF"/>
<stop offset="1" stop-color="#5A78FF"/>
</linearGradient>
<linearGradient id="paint4_linear_23:766" x1="37.902" y1="92.3544" x2="51.8291" y2="106.395" gradientUnits="userSpaceOnUse">
<stop stop-color="#4F6AFF"/>
<stop offset="1" stop-color="#657EFF" stop-opacity="0"/>
</linearGradient>
<linearGradient id="paint5_linear_23:766" x1="49.3617" y1="103.708" x2="38.4305" y2="92.6875" gradientUnits="userSpaceOnUse">
<stop offset="0.0113208" stop-color="#C2D1FF"/>
<stop offset="1" stop-color="white"/>
</linearGradient>
<linearGradient id="paint6_linear_23:766" x1="49.423" y1="103.647" x2="38.4918" y2="92.6269" gradientUnits="userSpaceOnUse">
<stop offset="0.0113208" stop-color="#C2D1FF"/>
<stop offset="1" stop-color="white"/>
</linearGradient>
<linearGradient id="paint7_linear_23:766" x1="129.528" y1="36.9697" x2="126.937" y2="32.482" gradientUnits="userSpaceOnUse">
<stop stop-color="#FF66A9"/>
<stop offset="1" stop-color="#F53689"/>
</linearGradient>
<linearGradient id="paint8_linear_23:766" x1="124.282" y1="31.0482" x2="122.783" y2="28.4524" gradientUnits="userSpaceOnUse">
<stop stop-color="#FF66A9"/>
<stop offset="1" stop-color="#F53689"/>
</linearGradient>
<linearGradient id="paint9_linear_23:766" x1="130.883" y1="42.4819" x2="129.384" y2="39.8862" gradientUnits="userSpaceOnUse">
<stop stop-color="#FF66A9"/>
<stop offset="1" stop-color="#F53689"/>
</linearGradient>
</defs>
</svg>