<svg xmlns="http://www.w3.org/2000/svg" width="170" height="116" viewBox="0 0 170 116" fill="none">
<path d="M167.988 74.945H129.477V80.0663H167.988V74.945Z" fill="#1D242E"/>
<path d="M167.988 77.7133H129.477V76.3291L167.988 72.1767V77.7133Z" fill="#252C36"/>
<path d="M123.542 76.7444V74.945H162.053V80.2047H123.542V78.4054" fill="#262B31"/>
<path d="M162.053 75.9139H123.542V77.7133H162.053V75.9139Z" fill="#364151"/>
<path d="M167.436 76.1908H123.817C122.713 76.1908 121.885 75.3603 121.885 74.253V65.1177C121.885 64.0104 122.713 63.1799 123.817 63.1799H167.436C168.541 63.1799 169.369 64.0104 169.369 65.1177V74.253C169.369 75.3603 168.541 76.1908 167.436 76.1908Z" fill="#2E3746"/>
<path d="M127.544 63.1799H161.363C162.191 63.1799 162.743 63.872 162.743 64.564V74.8067C162.743 75.6371 162.053 76.1908 161.363 76.1908H123.265C122.437 76.1908 121.885 75.4987 121.885 74.8067V64.564C121.885 63.7336 122.575 63.1799 123.265 63.1799H124.232" fill="#545D71"/>
<path d="M138.303 68.0165C138.519 67.8002 138.519 67.4497 138.303 67.2335C138.088 67.0173 137.738 67.0173 137.522 67.2335C137.307 67.4497 137.307 67.8002 137.522 68.0165C137.738 68.2327 138.088 68.2327 138.303 68.0165Z" fill="#2A2E33"/>
<path d="M138.319 70.5015C138.535 70.2853 138.535 69.9347 138.319 69.7185C138.103 69.5023 137.754 69.5023 137.538 69.7185C137.322 69.9347 137.322 70.2853 137.538 70.5015C137.754 70.7178 138.103 70.7177 138.319 70.5015Z" fill="#2A2E33"/>
<path d="M138.335 72.9864C138.55 72.7702 138.55 72.4196 138.335 72.2034C138.119 71.9872 137.77 71.9872 137.554 72.2034C137.338 72.4196 137.338 72.7702 137.554 72.9864C137.77 73.2026 138.119 73.2026 138.335 72.9864Z" fill="#2A2E33"/>
<path d="M140.807 69.3739C141.023 69.1577 141.023 68.8072 140.807 68.5909C140.592 68.3747 140.242 68.3747 140.027 68.5909C139.811 68.8072 139.811 69.1577 140.027 69.3739C140.242 69.5901 140.592 69.5901 140.807 69.3739Z" fill="#394651"/>
<path d="M140.726 71.761C140.942 71.5448 140.942 71.1943 140.726 70.978C140.51 70.7618 140.161 70.7618 139.945 70.978C139.729 71.1943 139.729 71.5448 139.945 71.761C140.161 71.9772 140.51 71.9773 140.726 71.761Z" fill="#2A2E33"/>
<path d="M143.26 67.9852C143.476 67.769 143.476 67.4184 143.26 67.2022C143.044 66.986 142.695 66.986 142.479 67.2022C142.264 67.4184 142.264 67.769 142.479 67.9852C142.695 68.2014 143.044 68.2014 143.26 67.9852Z" fill="#2A2E33"/>
<path d="M143.275 70.4701C143.49 70.2539 143.49 69.9033 143.275 69.6871C143.059 69.4709 142.71 69.4709 142.494 69.6871C142.278 69.9033 142.278 70.2539 142.494 70.4701C142.71 70.6863 143.059 70.6863 143.275 70.4701Z" fill="#2A2E33"/>
<path d="M142.867 73.1458C143.172 73.1458 143.419 72.8979 143.419 72.5921C143.419 72.2863 143.172 72.0385 142.867 72.0385C142.562 72.0385 142.315 72.2863 142.315 72.5921C142.315 72.8979 142.562 73.1458 142.867 73.1458Z" fill="url(#paint0_linear_32:12)"/>
<path d="M145.764 69.3426C145.98 69.1264 145.98 68.7759 145.764 68.5596C145.549 68.3434 145.199 68.3434 144.983 68.5596C144.768 68.7759 144.768 69.1264 144.983 69.3427C145.199 69.5589 145.549 69.5589 145.764 69.3426Z" fill="#394651"/>
<path d="M145.682 71.7297C145.897 71.5135 145.897 71.1629 145.682 70.9467C145.466 70.7305 145.117 70.7305 144.901 70.9467C144.685 71.1629 144.685 71.5135 144.901 71.7297C145.117 71.9459 145.466 71.9459 145.682 71.7297Z" fill="#2A2E33"/>
<path d="M148.216 67.9537C148.432 67.7375 148.432 67.3869 148.216 67.1707C148.001 66.9545 147.651 66.9545 147.435 67.1707C147.22 67.3869 147.22 67.7375 147.435 67.9537C147.651 68.1699 148.001 68.1699 148.216 67.9537Z" fill="#394651"/>
<path d="M148.232 70.4386C148.447 70.2224 148.447 69.8718 148.232 69.6556C148.016 69.4394 147.667 69.4394 147.451 69.6556C147.235 69.8718 147.235 70.2224 147.451 70.4386C147.667 70.6548 148.016 70.6548 148.232 70.4386Z" fill="#2A2E33"/>
<path d="M148.247 72.9236C148.463 72.7074 148.463 72.3568 148.247 72.1406C148.032 71.9244 147.682 71.9244 147.467 72.1406C147.251 72.3568 147.251 72.7074 147.467 72.9236C147.682 73.1399 148.032 73.1399 148.247 72.9236Z" fill="#2A2E33"/>
<path d="M150.623 69.4092C150.839 69.193 150.839 68.8424 150.623 68.6262C150.407 68.41 150.058 68.41 149.842 68.6262C149.626 68.8424 149.626 69.193 149.842 69.4092C150.058 69.6254 150.407 69.6254 150.623 69.4092Z" fill="#2A2E33"/>
<path d="M150.54 71.7962C150.756 71.5799 150.756 71.2294 150.54 71.0132C150.325 70.797 149.975 70.797 149.76 71.0132C149.544 71.2294 149.544 71.5799 149.76 71.7962C149.975 72.0124 150.325 72.0124 150.54 71.7962Z" fill="#2A2E33"/>
<path d="M153.075 68.0202C153.29 67.804 153.29 67.4534 153.075 67.2372C152.859 67.021 152.509 67.021 152.294 67.2372C152.078 67.4534 152.078 67.804 152.294 68.0202C152.509 68.2364 152.859 68.2364 153.075 68.0202Z" fill="#2A2E33"/>
<path d="M153.09 70.5051C153.306 70.2889 153.306 69.9383 153.09 69.7221C152.875 69.5059 152.525 69.5059 152.31 69.7221C152.094 69.9383 152.094 70.2889 152.31 70.5051C152.525 70.7213 152.875 70.7213 153.09 70.5051Z" fill="#394651"/>
<path d="M153.106 72.9901C153.322 72.7738 153.322 72.4233 153.106 72.2071C152.89 71.9909 152.541 71.9909 152.325 72.2071C152.11 72.4233 152.11 72.7738 152.325 72.9901C152.541 73.2063 152.89 73.2063 153.106 72.9901Z" fill="#2A2E33"/>
<path d="M155.58 69.3777C155.795 69.1615 155.795 68.8109 155.58 68.5947C155.364 68.3785 155.014 68.3785 154.799 68.5947C154.583 68.8109 154.583 69.1615 154.799 69.3777C155.014 69.5939 155.364 69.5939 155.58 69.3777Z" fill="#2A2E33"/>
<path d="M155.497 71.7649C155.713 71.5487 155.713 71.1981 155.497 70.9819C155.282 70.7656 154.932 70.7656 154.716 70.9819C154.501 71.1981 154.501 71.5487 154.716 71.7649C154.932 71.9811 155.282 71.9811 155.497 71.7649Z" fill="#2A2E33"/>
<path d="M158.031 67.9888C158.246 67.7725 158.246 67.422 158.031 67.2058C157.815 66.9896 157.465 66.9896 157.25 67.2058C157.034 67.422 157.034 67.7725 157.25 67.9888C157.465 68.205 157.815 68.205 158.031 67.9888Z" fill="#2A2E33"/>
<path d="M158.046 70.4737C158.262 70.2575 158.262 69.907 158.046 69.6908C157.831 69.4745 157.481 69.4745 157.265 69.6908C157.05 69.907 157.05 70.2575 157.265 70.4737C157.481 70.69 157.831 70.69 158.046 70.4737Z" fill="#394651"/>
<path d="M158.062 72.9586C158.277 72.7424 158.277 72.3918 158.062 72.1756C157.846 71.9594 157.497 71.9594 157.281 72.1756C157.065 72.3918 157.065 72.7424 157.281 72.9586C157.497 73.1748 157.846 73.1748 158.062 72.9586Z" fill="#2A2E33"/>
<path d="M131.686 70.239C131.686 71.6231 130.72 72.7304 129.478 72.8689C129.34 72.8689 129.202 72.8689 129.064 72.8689C127.545 72.8689 126.441 71.6231 126.441 70.239C126.441 68.7164 127.683 67.6091 129.064 67.6091C129.202 67.6091 129.34 67.6091 129.478 67.6091C130.72 67.886 131.686 68.9933 131.686 70.239Z" fill="#273850"/>
<path d="M167.988 91.5547H129.477V96.676H167.988V91.5547Z" fill="#1D242E"/>
<path d="M167.988 94.323H129.477V92.9389L167.988 92.5236V94.323Z" fill="#252C36"/>
<path d="M123.542 93.3541V91.5547H162.053V96.8144H123.542V95.015" fill="#262B31"/>
<path d="M162.053 92.3851H123.542V94.3229H162.053V92.3851Z" fill="#364151"/>
<path d="M167.437 92.8004H123.818C122.713 92.8004 121.885 91.97 121.885 90.8627V81.7273C121.885 80.62 122.713 79.7896 123.818 79.7896H167.437C168.541 79.7896 169.369 80.62 169.369 81.7273V90.8627C169.369 91.97 168.541 92.8004 167.437 92.8004Z" fill="#2E3746"/>
<path d="M127.545 79.7896H161.363C162.191 79.7896 162.744 80.4816 162.744 81.1737V91.4163C162.744 92.2468 162.053 92.8004 161.363 92.8004H123.266C122.437 92.8004 121.885 92.1084 121.885 91.4163V81.1737C121.885 80.3432 122.575 79.7896 123.266 79.7896H124.232" fill="#545D71"/>
<path d="M138.302 84.6265C138.518 84.4103 138.518 84.0597 138.302 83.8435C138.087 83.6272 137.737 83.6272 137.521 83.8435C137.306 84.0597 137.306 84.4103 137.521 84.6265C137.737 84.8427 138.087 84.8427 138.302 84.6265Z" fill="#2A2E33"/>
<path d="M138.318 87.1115C138.534 86.8953 138.534 86.5447 138.318 86.3285C138.102 86.1123 137.753 86.1123 137.537 86.3285C137.322 86.5447 137.322 86.8953 137.537 87.1115C137.753 87.3277 138.102 87.3277 138.318 87.1115Z" fill="#2A2E33"/>
<path d="M137.897 89.7553C138.202 89.7553 138.449 89.5074 138.449 89.2017C138.449 88.8959 138.202 88.648 137.897 88.648C137.592 88.648 137.345 88.8959 137.345 89.2017C137.345 89.5074 137.592 89.7553 137.897 89.7553Z" fill="url(#paint1_linear_32:12)"/>
<path d="M140.807 85.984C141.022 85.7678 141.022 85.4172 140.807 85.201C140.591 84.9848 140.241 84.9848 140.026 85.201C139.81 85.4172 139.81 85.7678 140.026 85.984C140.241 86.2002 140.591 86.2002 140.807 85.984Z" fill="#2A2E33"/>
<path d="M140.725 88.3711C140.941 88.1549 140.941 87.8043 140.725 87.5881C140.509 87.3719 140.16 87.3719 139.944 87.5881C139.729 87.8043 139.729 88.1549 139.944 88.3711C140.16 88.5873 140.509 88.5873 140.725 88.3711Z" fill="#405872"/>
<path d="M143.258 84.5951C143.474 84.3789 143.474 84.0283 143.258 83.8121C143.042 83.5959 142.693 83.5959 142.477 83.8121C142.262 84.0283 142.262 84.3789 142.477 84.5951C142.693 84.8114 143.042 84.8114 143.258 84.5951Z" fill="#2A2E33"/>
<path d="M143.274 87.0799C143.489 86.8637 143.489 86.5132 143.274 86.2969C143.058 86.0807 142.709 86.0807 142.493 86.2969C142.277 86.5132 142.277 86.8637 142.493 87.0799C142.709 87.2962 143.058 87.2962 143.274 87.0799Z" fill="#394651"/>
<path d="M143.289 89.5648C143.505 89.3486 143.505 88.9981 143.289 88.7818C143.074 88.5656 142.724 88.5656 142.509 88.7818C142.293 88.9981 142.293 89.3486 142.509 89.5648C142.724 89.781 143.074 89.781 143.289 89.5648Z" fill="#2A2E33"/>
<path d="M145.763 85.9526C145.979 85.7364 145.979 85.3859 145.763 85.1696C145.548 84.9534 145.198 84.9534 144.982 85.1696C144.767 85.3858 144.767 85.7364 144.982 85.9526C145.198 86.1688 145.548 86.1688 145.763 85.9526Z" fill="#2A2E33"/>
<path d="M145.681 88.3396C145.896 88.1234 145.896 87.7728 145.681 87.5566C145.465 87.3404 145.116 87.3404 144.9 87.5566C144.684 87.7728 144.684 88.1234 144.9 88.3396C145.116 88.5558 145.465 88.5558 145.681 88.3396Z" fill="#2A2E33"/>
<path d="M148.215 84.5637C148.431 84.3475 148.431 83.9969 148.215 83.7807C147.999 83.5645 147.65 83.5645 147.434 83.7807C147.218 83.9969 147.218 84.3475 147.434 84.5637C147.65 84.7799 147.999 84.7799 148.215 84.5637Z" fill="#2A2E33"/>
<path d="M148.231 87.0487C148.446 86.8324 148.446 86.4819 148.231 86.2657C148.015 86.0494 147.666 86.0495 147.45 86.2657C147.234 86.4819 147.234 86.8324 147.45 87.0487C147.666 87.2649 148.015 87.2649 148.231 87.0487Z" fill="#2A2E33"/>
<path d="M148.246 89.5336C148.462 89.3173 148.462 88.9668 148.246 88.7505C148.031 88.5343 147.681 88.5343 147.466 88.7505C147.25 88.9668 147.25 89.3173 147.466 89.5336C147.681 89.7498 148.031 89.7498 148.246 89.5336Z" fill="#2A2E33"/>
<path d="M150.622 86.0191C150.837 85.8029 150.837 85.4523 150.622 85.2361C150.406 85.0198 150.057 85.0198 149.841 85.2361C149.625 85.4523 149.625 85.8029 149.841 86.0191C150.057 86.2353 150.406 86.2353 150.622 86.0191Z" fill="#2A2E33"/>
<path d="M150.54 88.4061C150.756 88.1899 150.756 87.8393 150.54 87.6231C150.325 87.4069 149.975 87.4069 149.76 87.6231C149.544 87.8393 149.544 88.1899 149.76 88.4061C149.975 88.6223 150.325 88.6223 150.54 88.4061Z" fill="#2A2E33"/>
<path d="M152.667 84.7717C152.972 84.7717 153.219 84.5238 153.219 84.218C153.219 83.9122 152.972 83.6643 152.667 83.6643C152.362 83.6643 152.115 83.9122 152.115 84.218C152.115 84.5238 152.362 84.7717 152.667 84.7717Z" fill="url(#paint2_linear_32:12)"/>
<path d="M153.089 87.1152C153.305 86.8989 153.305 86.5484 153.089 86.3322C152.874 86.1159 152.524 86.1159 152.309 86.3322C152.093 86.5484 152.093 86.8989 152.309 87.1152C152.524 87.3314 152.874 87.3314 153.089 87.1152Z" fill="#394651"/>
<path d="M153.105 89.6001C153.321 89.3839 153.321 89.0333 153.105 88.8171C152.889 88.6009 152.54 88.6009 152.324 88.8171C152.109 89.0333 152.109 89.3839 152.324 89.6001C152.54 89.8163 152.889 89.8163 153.105 89.6001Z" fill="#2A2E33"/>
<path d="M155.578 85.9878C155.793 85.7716 155.793 85.421 155.578 85.2048C155.362 84.9886 155.013 84.9886 154.797 85.2048C154.581 85.421 154.581 85.7716 154.797 85.9878C155.013 86.204 155.362 86.204 155.578 85.9878Z" fill="#2A2E33"/>
<path d="M155.496 88.3748C155.712 88.1586 155.712 87.8081 155.496 87.5918C155.281 87.3756 154.931 87.3756 154.715 87.5918C154.5 87.8081 154.5 88.1586 154.715 88.3748C154.931 88.5911 155.281 88.5911 155.496 88.3748Z" fill="#2A2E33"/>
<path d="M158.03 84.5988C158.245 84.3826 158.245 84.032 158.03 83.8158C157.814 83.5995 157.464 83.5995 157.249 83.8158C157.033 84.032 157.033 84.3826 157.249 84.5988C157.464 84.815 157.814 84.815 158.03 84.5988Z" fill="#2A2E33"/>
<path d="M158.045 87.0837C158.261 86.8674 158.261 86.5169 158.045 86.3007C157.83 86.0845 157.48 86.0845 157.264 86.3007C157.049 86.5169 157.049 86.8674 157.264 87.0837C157.48 87.2999 157.83 87.2999 158.045 87.0837Z" fill="#2A2E33"/>
<path d="M158.061 89.5687C158.276 89.3525 158.276 89.0019 158.061 88.7857C157.845 88.5695 157.496 88.5695 157.28 88.7857C157.064 89.0019 157.064 89.3525 157.28 89.5687C157.496 89.785 157.845 89.785 158.061 89.5687Z" fill="#2A2E33"/>
<path d="M131.686 86.8486C131.686 88.2328 130.72 89.3401 129.478 89.4785C129.34 89.4785 129.202 89.4785 129.064 89.4785C127.545 89.4785 126.441 88.2328 126.441 86.8486C126.441 85.3261 127.683 84.2188 129.064 84.2188C129.202 84.2188 129.34 84.2188 129.478 84.2188C130.72 84.4956 131.686 85.6029 131.686 86.8486Z" fill="#273850"/>
<path d="M167.988 108.164H129.477V113.286H167.988V108.164Z" fill="#1D242E"/>
<path d="M167.988 110.933H129.477V109.549L167.988 105.396V110.933Z" fill="#252C36"/>
<path d="M123.542 109.964V108.164H162.053V113.424H123.542V111.625" fill="#262B31"/>
<path d="M162.053 108.303H123.542V110.933H162.053V108.303Z" fill="#364151"/>
<path d="M167.437 109.41H123.818C122.713 109.41 121.885 108.58 121.885 107.472V98.337C121.885 97.2297 122.713 96.3992 123.818 96.3992H167.437C168.541 96.3992 169.369 97.2297 169.369 98.337V107.472C169.369 108.58 168.541 109.41 167.437 109.41Z" fill="#2E3746"/>
<path d="M127.545 96.3992H161.363C162.191 96.3992 162.744 97.0913 162.744 97.7833V108.026C162.744 108.856 162.053 109.41 161.363 109.41H123.266C122.437 109.41 121.885 108.718 121.885 108.026V97.7833C121.885 96.9529 122.575 96.3992 123.266 96.3992H124.232" fill="#545D71"/>
<path d="M138.301 101.237C138.517 101.02 138.517 100.67 138.301 100.453C138.085 100.237 137.736 100.237 137.52 100.453C137.305 100.67 137.305 101.02 137.52 101.237C137.736 101.453 138.085 101.453 138.301 101.237Z" fill="#2A2E33"/>
<path d="M138.317 103.721C138.532 103.505 138.532 103.155 138.317 102.938C138.101 102.722 137.752 102.722 137.536 102.938C137.32 103.155 137.32 103.505 137.536 103.721C137.752 103.938 138.101 103.938 138.317 103.721Z" fill="#2A2E33"/>
<path d="M138.332 106.206C138.548 105.99 138.548 105.64 138.332 105.423C138.117 105.207 137.767 105.207 137.552 105.423C137.336 105.64 137.336 105.99 137.552 106.206C137.767 106.423 138.117 106.423 138.332 106.206Z" fill="#394651"/>
<path d="M140.381 102.766C140.686 102.766 140.934 102.518 140.934 102.213C140.934 101.907 140.686 101.659 140.381 101.659C140.077 101.659 139.829 101.907 139.829 102.213C139.829 102.518 140.077 102.766 140.381 102.766Z" fill="url(#paint3_linear_32:12)"/>
<path d="M140.724 104.981C140.939 104.765 140.939 104.414 140.724 104.198C140.508 103.982 140.159 103.982 139.943 104.198C139.727 104.414 139.727 104.765 139.943 104.981C140.159 105.197 140.508 105.197 140.724 104.981Z" fill="#2A2E33"/>
<path d="M143.258 101.205C143.474 100.989 143.474 100.638 143.258 100.422C143.042 100.206 142.693 100.206 142.477 100.422C142.261 100.638 142.261 100.989 142.477 101.205C142.693 101.421 143.042 101.421 143.258 101.205Z" fill="#2A2E33"/>
<path d="M143.273 103.69C143.488 103.474 143.488 103.123 143.273 102.907C143.057 102.691 142.707 102.691 142.492 102.907C142.276 103.123 142.276 103.474 142.492 103.69C142.707 103.906 143.057 103.906 143.273 103.69Z" fill="#394651"/>
<path d="M143.288 106.175C143.504 105.959 143.504 105.608 143.288 105.392C143.073 105.176 142.723 105.176 142.508 105.392C142.292 105.608 142.292 105.959 142.508 106.175C142.723 106.391 143.073 106.391 143.288 106.175Z" fill="#394651"/>
<path d="M145.762 102.563C145.978 102.346 145.978 101.996 145.762 101.78C145.546 101.563 145.197 101.563 144.981 101.78C144.766 101.996 144.766 102.346 144.981 102.563C145.197 102.779 145.546 102.779 145.762 102.563Z" fill="#394651"/>
<path d="M145.68 104.95C145.895 104.733 145.895 104.383 145.68 104.167C145.464 103.95 145.114 103.95 144.899 104.167C144.683 104.383 144.683 104.733 144.899 104.95C145.114 105.166 145.464 105.166 145.68 104.95Z" fill="#2A2E33"/>
<path d="M148.214 101.174C148.429 100.957 148.429 100.607 148.214 100.391C147.998 100.174 147.648 100.174 147.433 100.391C147.217 100.607 147.217 100.957 147.433 101.174C147.648 101.39 147.998 101.39 148.214 101.174Z" fill="#394651"/>
<path d="M148.23 103.659C148.445 103.442 148.445 103.092 148.23 102.876C148.014 102.659 147.664 102.659 147.449 102.876C147.233 103.092 147.233 103.442 147.449 103.659C147.664 103.875 148.014 103.875 148.23 103.659Z" fill="#2A2E33"/>
<path d="M148.245 106.144C148.461 105.927 148.461 105.577 148.245 105.361C148.03 105.144 147.68 105.144 147.464 105.361C147.249 105.577 147.249 105.927 147.464 106.144C147.68 106.36 148.03 106.36 148.245 106.144Z" fill="#2A2E33"/>
<path d="M150.621 102.629C150.836 102.413 150.836 102.062 150.621 101.846C150.405 101.63 150.055 101.63 149.84 101.846C149.624 102.062 149.624 102.413 149.84 102.629C150.055 102.845 150.405 102.845 150.621 102.629Z" fill="#2A2E33"/>
<path d="M150.538 105.016C150.754 104.8 150.754 104.449 150.538 104.233C150.323 104.017 149.973 104.017 149.757 104.233C149.542 104.449 149.542 104.8 149.757 105.016C149.973 105.232 150.323 105.232 150.538 105.016Z" fill="#394651"/>
<path d="M153.073 101.24C153.288 101.024 153.288 100.673 153.073 100.457C152.857 100.241 152.507 100.241 152.292 100.457C152.076 100.673 152.076 101.024 152.292 101.24C152.507 101.456 152.857 101.456 153.073 101.24Z" fill="#2A2E33"/>
<path d="M153.088 103.725C153.304 103.509 153.304 103.158 153.088 102.942C152.873 102.726 152.523 102.726 152.307 102.942C152.092 103.158 152.092 103.509 152.307 103.725C152.523 103.941 152.873 103.941 153.088 103.725Z" fill="#2A2E33"/>
<path d="M152.667 106.365C152.972 106.365 153.219 106.117 153.219 105.811C153.219 105.506 152.972 105.258 152.667 105.258C152.362 105.258 152.115 105.506 152.115 105.811C152.115 106.117 152.362 106.365 152.667 106.365Z" fill="url(#paint4_linear_32:12)"/>
<path d="M155.577 102.598C155.793 102.381 155.793 102.031 155.577 101.815C155.362 101.598 155.012 101.598 154.797 101.815C154.581 102.031 154.581 102.381 154.797 102.598C155.012 102.814 155.362 102.814 155.577 102.598Z" fill="#394651"/>
<path d="M155.495 104.985C155.711 104.768 155.711 104.418 155.495 104.202C155.279 103.985 154.93 103.985 154.714 104.202C154.499 104.418 154.499 104.768 154.714 104.985C154.93 105.201 155.279 105.201 155.495 104.985Z" fill="#2A2E33"/>
<path d="M158.028 101.209C158.244 100.993 158.244 100.642 158.028 100.426C157.813 100.21 157.463 100.21 157.247 100.426C157.032 100.642 157.032 100.993 157.247 101.209C157.463 101.425 157.813 101.425 158.028 101.209Z" fill="#2A2E33"/>
<path d="M158.044 103.694C158.26 103.477 158.26 103.127 158.044 102.911C157.828 102.695 157.479 102.695 157.263 102.911C157.048 103.127 157.048 103.477 157.263 103.694C157.479 103.91 157.828 103.91 158.044 103.694Z" fill="#394651"/>
<path d="M158.06 106.179C158.275 105.962 158.275 105.612 158.06 105.396C157.844 105.179 157.494 105.179 157.279 105.396C157.063 105.612 157.063 105.962 157.279 106.179C157.494 106.395 157.844 106.395 158.06 106.179Z" fill="#2A2E33"/>
<path d="M131.686 103.458C131.686 104.842 130.72 105.95 129.478 106.088C129.34 106.088 129.202 106.088 129.064 106.088C127.545 106.088 126.441 104.842 126.441 103.458C126.441 101.936 127.683 100.828 129.064 100.828C129.202 100.828 129.34 100.828 129.478 100.828C130.72 101.105 131.686 102.213 131.686 103.458Z" fill="#273850"/>
<path d="M131.686 70.239C131.686 71.6231 130.719 72.7304 129.477 72.8689C128.235 72.7304 127.269 71.4847 127.269 70.239C127.269 68.8549 128.235 67.7475 129.477 67.6091C130.719 67.886 131.686 68.9933 131.686 70.239Z" fill="#364151"/>
<path d="M131.686 86.8486C131.686 88.2328 130.719 89.3401 129.477 89.4785C128.235 89.3401 127.269 88.0944 127.269 86.8486C127.269 85.4645 128.235 84.3572 129.477 84.2188C130.719 84.4956 131.686 85.6029 131.686 86.8486Z" fill="#364151"/>
<path d="M131.686 103.458C131.686 104.842 130.719 105.95 129.477 106.088C128.235 105.95 127.269 104.842 127.269 103.458C127.269 102.074 128.235 100.967 129.477 100.828C130.719 101.105 131.686 102.213 131.686 103.458Z" fill="#364151"/>
<path opacity="0.1" d="M156.394 63.1799H137.759V113.286H156.394V63.1799Z" fill="black"/>
<path d="M137.344 74.945H98.8323V80.0663H137.344V74.945Z" fill="#25303F"/>
<path d="M137.344 77.7132H98.8323V76.3291L137.344 72.1767V77.7132Z" fill="#273850"/>
<path d="M93.0352 76.7444V74.945H131.547V80.2047H93.0352V78.4053" fill="#262B31"/>
<path d="M131.547 75.9139H93.0352V77.7133H131.547V75.9139Z" fill="#364151"/>
<path d="M136.931 76.1908H93.3119C92.2076 76.1908 91.3794 75.3603 91.3794 74.253V65.1177C91.3794 64.0104 92.2076 63.1799 93.3119 63.1799H136.931C138.035 63.1799 138.863 64.0104 138.863 65.1177V74.253C138.863 75.3603 138.035 76.1908 136.931 76.1908Z" fill="#2E3746"/>
<path d="M96.9008 63.1799H130.719C131.548 63.1799 132.1 63.8719 132.1 64.564V74.8066C132.1 75.6371 131.409 76.1908 130.719 76.1908H92.7597C91.9315 76.1908 91.3794 75.4987 91.3794 74.8066V64.564C91.3794 63.7335 92.0696 63.1799 92.7597 63.1799H93.726" fill="#545D71"/>
<path d="M107.792 68.0014C108.008 67.7852 108.008 67.4347 107.792 67.2185C107.576 67.0023 107.227 67.0023 107.011 67.2185C106.795 67.4347 106.795 67.7852 107.011 68.0014C107.227 68.2176 107.576 68.2176 107.792 68.0014Z" fill="#2A2E33"/>
<path d="M107.808 70.4863C108.023 70.2701 108.023 69.9195 107.808 69.7033C107.592 69.4871 107.242 69.4871 107.027 69.7033C106.811 69.9195 106.811 70.2701 107.027 70.4863C107.242 70.7025 107.592 70.7025 107.808 70.4863Z" fill="#2A2E33"/>
<path d="M107.823 72.9713C108.039 72.755 108.039 72.4045 107.823 72.1883C107.608 71.9721 107.258 71.9721 107.042 72.1883C106.827 72.4045 106.827 72.755 107.042 72.9713C107.258 73.1875 107.608 73.1875 107.823 72.9713Z" fill="#2A2E33"/>
<path d="M110.296 69.359C110.512 69.1428 110.512 68.7923 110.296 68.5761C110.08 68.3598 109.731 68.3598 109.515 68.5761C109.3 68.7923 109.3 69.1428 109.515 69.359C109.731 69.5752 110.08 69.5752 110.296 69.359Z" fill="#394651"/>
<path d="M110.215 71.746C110.43 71.5298 110.43 71.1792 110.215 70.963C109.999 70.7468 109.649 70.7468 109.434 70.963C109.218 71.1793 109.218 71.5298 109.434 71.746C109.649 71.9622 109.999 71.9622 110.215 71.746Z" fill="#2A2E33"/>
<path d="M112.748 67.9701C112.963 67.7539 112.963 67.4033 112.748 67.1871C112.532 66.9709 112.182 66.9709 111.967 67.1871C111.751 67.4033 111.751 67.7539 111.967 67.9701C112.182 68.1863 112.532 68.1863 112.748 67.9701Z" fill="#2A2E33"/>
<path d="M112.765 70.4549C112.98 70.2387 112.98 69.8882 112.765 69.672C112.549 69.4558 112.199 69.4558 111.984 69.672C111.768 69.8882 111.768 70.2387 111.984 70.4549C112.199 70.6711 112.549 70.6711 112.765 70.4549Z" fill="#2A2E33"/>
<path d="M112.36 73.1456C112.665 73.1456 112.913 72.8978 112.913 72.592C112.913 72.2862 112.665 72.0383 112.36 72.0383C112.056 72.0383 111.808 72.2862 111.808 72.592C111.808 72.8978 112.056 73.1456 112.36 73.1456Z" fill="url(#paint5_linear_32:12)"/>
<path d="M115.252 69.3276C115.468 69.1114 115.468 68.7609 115.252 68.5447C115.036 68.3285 114.687 68.3285 114.471 68.5447C114.255 68.7609 114.255 69.1114 114.471 69.3276C114.687 69.5438 115.036 69.5438 115.252 69.3276Z" fill="#394651"/>
<path d="M115.17 71.7147C115.386 71.4985 115.386 71.1479 115.17 70.9317C114.955 70.7155 114.605 70.7155 114.389 70.9317C114.174 71.1479 114.174 71.4984 114.389 71.7147C114.605 71.9309 114.955 71.9309 115.17 71.7147Z" fill="#2A2E33"/>
<path d="M117.606 68.0365C117.822 67.8203 117.822 67.4698 117.606 67.2536C117.391 67.0374 117.041 67.0374 116.826 67.2536C116.61 67.4698 116.61 67.8203 116.826 68.0365C117.041 68.2527 117.391 68.2527 117.606 68.0365Z" fill="#394651"/>
<path d="M117.622 70.5215C117.838 70.3053 117.838 69.9548 117.622 69.7386C117.406 69.5224 117.057 69.5224 116.841 69.7386C116.625 69.9548 116.625 70.3053 116.841 70.5215C117.057 70.7377 117.406 70.7377 117.622 70.5215Z" fill="#2A2E33"/>
<path d="M117.638 73.0064C117.853 72.7902 117.853 72.4396 117.638 72.2234C117.422 72.0072 117.072 72.0072 116.857 72.2234C116.641 72.4396 116.641 72.7902 116.857 73.0064C117.072 73.2226 117.422 73.2226 117.638 73.0064Z" fill="#2A2E33"/>
<path d="M120.112 69.3941C120.327 69.1779 120.327 68.8273 120.112 68.6111C119.896 68.3949 119.546 68.3949 119.331 68.6111C119.115 68.8273 119.115 69.1779 119.331 69.3941C119.546 69.6103 119.896 69.6103 120.112 69.3941Z" fill="#2A2E33"/>
<path d="M120.029 71.7811C120.245 71.5649 120.245 71.2143 120.029 70.9981C119.813 70.7819 119.464 70.7819 119.248 70.9981C119.032 71.2143 119.032 71.5648 119.248 71.781C119.464 71.9972 119.813 71.9972 120.029 71.7811Z" fill="#2A2E33"/>
<path d="M122.563 68.0052C122.779 67.789 122.779 67.4385 122.563 67.2223C122.348 67.0061 121.998 67.0061 121.782 67.2223C121.567 67.4385 121.567 67.789 121.782 68.0052C121.998 68.2214 122.348 68.2214 122.563 68.0052Z" fill="#2A2E33"/>
<path d="M122.579 70.4901C122.795 70.2739 122.795 69.9234 122.579 69.7072C122.363 69.491 122.014 69.491 121.798 69.7072C121.583 69.9234 121.583 70.2739 121.798 70.4901C122.014 70.7063 122.363 70.7063 122.579 70.4901Z" fill="#394651"/>
<path d="M122.595 72.975C122.81 72.7588 122.81 72.4083 122.595 72.1921C122.379 71.9759 122.029 71.9759 121.814 72.1921C121.598 72.4083 121.598 72.7588 121.814 72.975C122.029 73.1912 122.379 73.1912 122.595 72.975Z" fill="#2A2E33"/>
<path d="M125.067 69.3627C125.283 69.1465 125.283 68.7959 125.067 68.5797C124.852 68.3635 124.502 68.3635 124.286 68.5797C124.071 68.7959 124.071 69.1465 124.286 69.3627C124.502 69.5789 124.852 69.5789 125.067 69.3627Z" fill="#2A2E33"/>
<path d="M124.986 71.7497C125.201 71.5335 125.201 71.1829 124.986 70.9667C124.77 70.7505 124.421 70.7505 124.205 70.9667C123.989 71.1829 123.989 71.5335 124.205 71.7497C124.421 71.9659 124.77 71.9659 124.986 71.7497Z" fill="#2A2E33"/>
<path d="M127.519 67.9736C127.735 67.7574 127.735 67.4069 127.519 67.1906C127.303 66.9744 126.954 66.9744 126.738 67.1906C126.522 67.4069 126.522 67.7574 126.738 67.9736C126.954 68.1898 127.303 68.1898 127.519 67.9736Z" fill="#2A2E33"/>
<path d="M127.535 70.4587C127.75 70.2425 127.75 69.892 127.535 69.6758C127.319 69.4595 126.97 69.4595 126.754 69.6758C126.538 69.892 126.538 70.2425 126.754 70.4587C126.97 70.6749 127.319 70.6749 127.535 70.4587Z" fill="#394651"/>
<path d="M127.55 72.9437C127.766 72.7275 127.766 72.3769 127.55 72.1607C127.335 71.9445 126.985 71.9445 126.77 72.1607C126.554 72.3769 126.554 72.7275 126.77 72.9437C126.985 73.1599 127.335 73.1599 127.55 72.9437Z" fill="#2A2E33"/>
<path d="M101.18 70.2389C101.18 71.6231 100.213 72.7304 98.9711 72.8688C98.8331 72.8688 98.695 72.8688 98.557 72.8688C97.0386 72.8688 95.9343 71.6231 95.9343 70.2389C95.9343 68.7164 97.1766 67.6091 98.557 67.6091C98.695 67.6091 98.8331 67.6091 98.9711 67.6091C100.213 67.8859 101.18 68.9932 101.18 70.2389Z" fill="#273850"/>
<path d="M137.344 91.5546H98.8323V96.6759H137.344V91.5546Z" fill="#25303F"/>
<path d="M137.344 94.3229H98.8323V92.9388L137.344 92.5236V94.3229Z" fill="#273850"/>
<path d="M93.0352 93.354V91.5546H131.547V96.8144H93.0352V95.015" fill="#262B31"/>
<path d="M131.547 92.3851H93.0352V94.3229H131.547V92.3851Z" fill="#364151"/>
<path d="M136.93 92.8004H93.3112C92.2069 92.8004 91.3787 91.9699 91.3787 90.8626V81.7273C91.3787 80.62 92.2069 79.7895 93.3112 79.7895H136.93C138.034 79.7895 138.863 80.62 138.863 81.7273V90.8626C138.863 91.9699 138.034 92.8004 136.93 92.8004Z" fill="#2E3746"/>
<path d="M96.9001 79.7895H130.719C131.547 79.7895 132.099 80.4816 132.099 81.1736V91.4162C132.099 92.2467 131.409 92.8004 130.719 92.8004H92.759C91.9308 92.8004 91.3787 92.1083 91.3787 91.4162V81.1736C91.3787 80.3431 92.0688 79.7895 92.759 79.7895H93.7253" fill="#545D71"/>
<path d="M107.79 84.6115C108.005 84.3953 108.005 84.0447 107.79 83.8285C107.574 83.6123 107.224 83.6123 107.009 83.8285C106.793 84.0447 106.793 84.3953 107.009 84.6115C107.224 84.8277 107.574 84.8277 107.79 84.6115Z" fill="#2A2E33"/>
<path d="M107.805 87.0965C108.021 86.8803 108.021 86.5297 107.805 86.3135C107.59 86.0973 107.24 86.0973 107.024 86.3135C106.809 86.5297 106.809 86.8803 107.024 87.0965C107.24 87.3127 107.59 87.3127 107.805 87.0965Z" fill="#2A2E33"/>
<path d="M107.39 89.7553C107.695 89.7553 107.942 89.5074 107.942 89.2017C107.942 88.8959 107.695 88.648 107.39 88.648C107.085 88.648 106.838 88.8959 106.838 89.2017C106.838 89.5074 107.085 89.7553 107.39 89.7553Z" fill="url(#paint6_linear_32:12)"/>
<path d="M110.294 85.9689C110.509 85.7527 110.509 85.4022 110.294 85.186C110.078 84.9698 109.729 84.9698 109.513 85.186C109.297 85.4022 109.297 85.7527 109.513 85.9689C109.729 86.1851 110.078 86.1851 110.294 85.9689Z" fill="#2A2E33"/>
<path d="M110.212 88.356C110.428 88.1398 110.428 87.7893 110.212 87.5731C109.997 87.3569 109.647 87.3569 109.431 87.5731C109.216 87.7893 109.216 88.1398 109.431 88.356C109.647 88.5723 109.997 88.5723 110.212 88.356Z" fill="#405872"/>
<path d="M112.746 84.58C112.961 84.3638 112.961 84.0133 112.746 83.7971C112.53 83.5809 112.18 83.5809 111.965 83.7971C111.749 84.0133 111.749 84.3638 111.965 84.58C112.18 84.7962 112.53 84.7962 112.746 84.58Z" fill="#2A2E33"/>
<path d="M112.762 87.0649C112.978 86.8487 112.978 86.4982 112.762 86.282C112.547 86.0658 112.197 86.0658 111.982 86.282C111.766 86.4982 111.766 86.8487 111.982 87.0649C112.197 87.2811 112.547 87.2811 112.762 87.0649Z" fill="#394651"/>
<path d="M112.777 89.5501C112.992 89.3339 112.992 88.9833 112.777 88.7671C112.561 88.5509 112.212 88.5509 111.996 88.7671C111.78 88.9833 111.78 89.3339 111.996 89.5501C112.212 89.7663 112.561 89.7663 112.777 89.5501Z" fill="#2A2E33"/>
<path d="M115.251 85.9376C115.466 85.7214 115.466 85.3708 115.251 85.1546C115.035 84.9384 114.685 84.9384 114.47 85.1546C114.254 85.3708 114.254 85.7214 114.47 85.9376C114.685 86.1538 115.035 86.1538 115.251 85.9376Z" fill="#2A2E33"/>
<path d="M115.168 88.3247C115.384 88.1085 115.384 87.758 115.168 87.5418C114.952 87.3256 114.603 87.3256 114.387 87.5418C114.172 87.758 114.172 88.1085 114.387 88.3247C114.603 88.5409 114.952 88.5409 115.168 88.3247Z" fill="#2A2E33"/>
<path d="M117.605 84.6465C117.821 84.4303 117.821 84.0797 117.605 83.8635C117.39 83.6473 117.04 83.6473 116.824 83.8635C116.609 84.0797 116.609 84.4303 116.824 84.6465C117.04 84.8627 117.39 84.8627 117.605 84.6465Z" fill="#2A2E33"/>
<path d="M117.62 87.1315C117.835 86.9153 117.835 86.5647 117.62 86.3485C117.404 86.1323 117.055 86.1323 116.839 86.3485C116.623 86.5647 116.623 86.9153 116.839 87.1315C117.055 87.3477 117.404 87.3477 117.62 87.1315Z" fill="#2A2E33"/>
<path d="M117.636 89.6163C117.851 89.4001 117.851 89.0496 117.636 88.8333C117.42 88.6171 117.07 88.6171 116.855 88.8333C116.639 89.0496 116.639 89.4001 116.855 89.6163C117.07 89.8325 117.42 89.8325 117.636 89.6163Z" fill="#2A2E33"/>
<path d="M120.109 86.0041C120.325 85.7879 120.325 85.4374 120.109 85.2212C119.894 85.005 119.544 85.005 119.328 85.2212C119.113 85.4374 119.113 85.7879 119.328 86.0041C119.544 86.2203 119.894 86.2203 120.109 86.0041Z" fill="#2A2E33"/>
<path d="M120.028 88.3911C120.243 88.1749 120.243 87.8244 120.028 87.6082C119.812 87.392 119.463 87.392 119.247 87.6082C119.031 87.8244 119.031 88.1749 119.247 88.3911C119.463 88.6073 119.812 88.6073 120.028 88.3911Z" fill="#2A2E33"/>
<path d="M122.16 84.7718C122.465 84.7718 122.712 84.5239 122.712 84.2181C122.712 83.9124 122.465 83.6645 122.16 83.6645C121.855 83.6645 121.608 83.9124 121.608 84.2181C121.608 84.5239 121.855 84.7718 122.16 84.7718Z" fill="url(#paint7_linear_32:12)"/>
<path d="M122.577 87.1C122.792 86.8838 122.792 86.5332 122.577 86.317C122.361 86.1008 122.012 86.1008 121.796 86.317C121.58 86.5332 121.58 86.8838 121.796 87.1C122.012 87.3162 122.361 87.3162 122.577 87.1Z" fill="#394651"/>
<path d="M122.592 89.585C122.808 89.3688 122.808 89.0183 122.592 88.8021C122.377 88.5859 122.027 88.5859 121.812 88.8021C121.596 89.0183 121.596 89.3688 121.812 89.585C122.027 89.8012 122.377 89.8012 122.592 89.585Z" fill="#2A2E33"/>
<path d="M125.065 85.9727C125.281 85.7565 125.281 85.406 125.065 85.1898C124.849 84.9736 124.5 84.9736 124.284 85.1898C124.069 85.406 124.069 85.7565 124.284 85.9727C124.5 86.1889 124.849 86.1889 125.065 85.9727Z" fill="#2A2E33"/>
<path d="M124.984 88.3597C125.199 88.1435 125.199 87.793 124.984 87.5768C124.768 87.3606 124.418 87.3605 124.203 87.5768C123.987 87.793 123.987 88.1435 124.203 88.3597C124.418 88.5759 124.768 88.5759 124.984 88.3597Z" fill="#2A2E33"/>
<path d="M127.517 84.5838C127.733 84.3676 127.733 84.0171 127.517 83.8008C127.301 83.5846 126.952 83.5846 126.736 83.8008C126.521 84.0171 126.521 84.3676 126.736 84.5838C126.952 84.8 127.301 84.8 127.517 84.5838Z" fill="#2A2E33"/>
<path d="M127.533 87.0687C127.748 86.8525 127.748 86.502 127.533 86.2858C127.317 86.0696 126.967 86.0696 126.752 86.2858C126.536 86.502 126.536 86.8525 126.752 87.0687C126.967 87.285 127.317 87.285 127.533 87.0687Z" fill="#2A2E33"/>
<path d="M127.548 89.5536C127.764 89.3374 127.764 88.9869 127.548 88.7707C127.333 88.5545 126.983 88.5545 126.767 88.7707C126.552 88.9869 126.552 89.3374 126.767 89.5536C126.983 89.7698 127.333 89.7698 127.548 89.5536Z" fill="#2A2E33"/>
<path d="M101.18 86.8486C101.18 88.2328 100.213 89.3401 98.9711 89.4785C98.8331 89.4785 98.695 89.4785 98.557 89.4785C97.0386 89.4785 95.9343 88.2328 95.9343 86.8486C95.9343 85.3261 97.1766 84.2188 98.557 84.2188C98.695 84.2188 98.8331 84.2188 98.9711 84.2188C100.213 84.4956 101.18 85.6029 101.18 86.8486Z" fill="#273850"/>
<path d="M137.344 108.164H98.8323V113.286H137.344V108.164Z" fill="#25303F"/>
<path d="M137.344 110.933H98.8323V109.549L137.344 105.396V110.933Z" fill="#273850"/>
<path d="M93.0352 109.964V108.164H131.547V113.424H93.0352V111.625" fill="#262B31"/>
<path d="M131.547 108.303H93.0352V110.933H131.547V108.303Z" fill="#364151"/>
<path d="M136.93 109.41H93.3112C92.2069 109.41 91.3787 108.58 91.3787 107.472V98.337C91.3787 97.2297 92.2069 96.3992 93.3112 96.3992H136.93C138.034 96.3992 138.863 97.2297 138.863 98.337V107.472C138.863 108.58 138.034 109.41 136.93 109.41Z" fill="#2E3746"/>
<path d="M96.9001 96.3992H130.719C131.547 96.3992 132.099 97.0912 132.099 97.7833V108.026C132.099 108.856 131.409 109.41 130.719 109.41H92.759C91.9308 109.41 91.3787 108.718 91.3787 108.026V97.7833C91.3787 96.9528 92.0688 96.3992 92.759 96.3992H93.7253" fill="#545D71"/>
<path d="M107.788 101.221C108.004 101.005 108.004 100.655 107.788 100.438C107.573 100.222 107.223 100.222 107.008 100.438C106.792 100.655 106.792 101.005 107.008 101.221C107.223 101.438 107.573 101.438 107.788 101.221Z" fill="#2A2E33"/>
<path d="M107.804 103.706C108.02 103.49 108.02 103.14 107.804 102.923C107.588 102.707 107.239 102.707 107.023 102.923C106.808 103.14 106.808 103.49 107.023 103.706C107.239 103.923 107.588 103.923 107.804 103.706Z" fill="#2A2E33"/>
<path d="M107.82 106.191C108.035 105.975 108.035 105.625 107.82 105.408C107.604 105.192 107.254 105.192 107.039 105.408C106.823 105.625 106.823 105.975 107.039 106.191C107.254 106.408 107.604 106.408 107.82 106.191Z" fill="#394651"/>
<path d="M109.875 102.766C110.18 102.766 110.427 102.518 110.427 102.213C110.427 101.907 110.18 101.659 109.875 101.659C109.57 101.659 109.323 101.907 109.323 102.213C109.323 102.518 109.57 102.766 109.875 102.766Z" fill="url(#paint8_linear_32:12)"/>
<path d="M110.211 104.966C110.427 104.75 110.427 104.399 110.211 104.183C109.995 103.967 109.646 103.967 109.43 104.183C109.215 104.399 109.215 104.75 109.43 104.966C109.646 105.182 109.995 105.182 110.211 104.966Z" fill="#2A2E33"/>
<path d="M112.745 101.19C112.961 100.974 112.961 100.623 112.745 100.407C112.53 100.191 112.18 100.191 111.964 100.407C111.749 100.623 111.749 100.974 111.964 101.19C112.18 101.406 112.53 101.406 112.745 101.19Z" fill="#2A2E33"/>
<path d="M112.761 103.675C112.977 103.459 112.977 103.108 112.761 102.892C112.546 102.676 112.196 102.676 111.98 102.892C111.765 103.108 111.765 103.459 111.98 103.675C112.196 103.891 112.546 103.891 112.761 103.675Z" fill="#394651"/>
<path d="M112.776 106.16C112.991 105.944 112.991 105.593 112.776 105.377C112.56 105.161 112.211 105.161 111.995 105.377C111.779 105.593 111.779 105.944 111.995 106.16C112.211 106.376 112.56 106.376 112.776 106.16Z" fill="#394651"/>
<path d="M115.249 102.548C115.465 102.331 115.465 101.981 115.249 101.765C115.034 101.548 114.684 101.548 114.469 101.765C114.253 101.981 114.253 102.331 114.469 102.548C114.684 102.764 115.034 102.764 115.249 102.548Z" fill="#394651"/>
<path d="M115.167 104.935C115.383 104.719 115.383 104.368 115.167 104.152C114.951 103.936 114.602 103.936 114.386 104.152C114.17 104.368 114.17 104.719 114.386 104.935C114.602 105.151 114.951 105.151 115.167 104.935Z" fill="#2A2E33"/>
<path d="M117.603 101.257C117.819 101.04 117.819 100.69 117.603 100.474C117.387 100.257 117.038 100.257 116.822 100.474C116.606 100.69 116.606 101.04 116.822 101.257C117.038 101.473 117.387 101.473 117.603 101.257Z" fill="#394651"/>
<path d="M117.62 103.741C117.835 103.525 117.835 103.175 117.62 102.959C117.404 102.742 117.055 102.742 116.839 102.959C116.623 103.175 116.623 103.525 116.839 103.741C117.055 103.958 117.404 103.958 117.62 103.741Z" fill="#2A2E33"/>
<path d="M117.634 106.226C117.85 106.01 117.85 105.66 117.634 105.444C117.419 105.227 117.069 105.227 116.853 105.444C116.638 105.66 116.638 106.01 116.853 106.226C117.069 106.443 117.419 106.443 117.634 106.226Z" fill="#2A2E33"/>
<path d="M120.108 102.614C120.324 102.398 120.324 102.047 120.108 101.831C119.892 101.615 119.543 101.615 119.327 101.831C119.112 102.047 119.112 102.398 119.327 102.614C119.543 102.83 119.892 102.83 120.108 102.614Z" fill="#2A2E33"/>
<path d="M120.026 105.001C120.241 104.785 120.241 104.434 120.026 104.218C119.81 104.002 119.46 104.002 119.245 104.218C119.029 104.434 119.029 104.785 119.245 105.001C119.46 105.217 119.81 105.217 120.026 105.001Z" fill="#394651"/>
<path d="M122.56 101.225C122.775 101.009 122.775 100.658 122.56 100.442C122.344 100.226 121.994 100.226 121.779 100.442C121.563 100.658 121.563 101.009 121.779 101.225C121.994 101.441 122.344 101.441 122.56 101.225Z" fill="#2A2E33"/>
<path d="M122.576 103.71C122.791 103.494 122.791 103.143 122.576 102.927C122.36 102.711 122.01 102.711 121.795 102.927C121.579 103.143 121.579 103.494 121.795 103.71C122.01 103.926 122.36 103.926 122.576 103.71Z" fill="#2A2E33"/>
<path d="M122.16 106.365C122.465 106.365 122.712 106.117 122.712 105.811C122.712 105.506 122.465 105.258 122.16 105.258C121.855 105.258 121.608 105.506 121.608 105.811C121.608 106.117 121.855 106.365 122.16 106.365Z" fill="url(#paint9_linear_32:12)"/>
<path d="M125.065 102.583C125.28 102.366 125.28 102.016 125.065 101.8C124.849 101.584 124.5 101.584 124.284 101.8C124.068 102.016 124.068 102.366 124.284 102.583C124.5 102.799 124.849 102.799 125.065 102.583Z" fill="#394651"/>
<path d="M124.982 104.97C125.198 104.754 125.198 104.403 124.982 104.187C124.767 103.971 124.417 103.971 124.201 104.187C123.986 104.403 123.986 104.754 124.201 104.97C124.417 105.186 124.767 105.186 124.982 104.97Z" fill="#2A2E33"/>
<path d="M127.516 101.194C127.731 100.978 127.731 100.627 127.516 100.411C127.3 100.195 126.95 100.195 126.735 100.411C126.519 100.627 126.519 100.978 126.735 101.194C126.95 101.41 127.3 101.41 127.516 101.194Z" fill="#2A2E33"/>
<path d="M127.531 103.679C127.747 103.462 127.747 103.112 127.531 102.896C127.316 102.68 126.966 102.68 126.751 102.896C126.535 103.112 126.535 103.462 126.751 103.679C126.966 103.895 127.316 103.895 127.531 103.679Z" fill="#394651"/>
<path d="M127.548 106.164C127.764 105.947 127.764 105.597 127.548 105.381C127.332 105.164 126.983 105.164 126.767 105.381C126.552 105.597 126.552 105.947 126.767 106.164C126.983 106.38 127.332 106.38 127.548 106.164Z" fill="#2A2E33"/>
<path d="M101.18 103.458C101.18 104.842 100.213 105.95 98.9711 106.088C98.8331 106.088 98.695 106.088 98.557 106.088C97.0386 106.088 95.9343 104.842 95.9343 103.458C95.9343 101.936 97.1766 100.828 98.557 100.828C98.695 100.828 98.8331 100.828 98.9711 100.828C100.213 101.105 101.18 102.213 101.18 103.458Z" fill="#273850"/>
<path d="M101.179 70.2389C101.179 71.6231 100.213 72.7304 98.9705 72.8688C97.7282 72.7304 96.762 71.4847 96.762 70.2389C96.762 68.8548 97.7282 67.7475 98.9705 67.6091C100.213 67.8859 101.179 68.9932 101.179 70.2389Z" fill="#364151"/>
<path d="M101.179 86.8486C101.179 88.2328 100.213 89.3401 98.9705 89.4785C97.7282 89.3401 96.762 88.0943 96.762 86.8486C96.762 85.4645 97.7282 84.3572 98.9705 84.2188C100.213 84.4956 101.179 85.6029 101.179 86.8486Z" fill="#364151"/>
<path d="M101.179 103.458C101.179 104.842 100.213 105.95 98.9705 106.088C97.7282 105.95 96.762 104.842 96.762 103.458C96.762 102.074 97.7282 100.967 98.9705 100.828C100.213 101.105 101.179 102.213 101.179 103.458Z" fill="#364151"/>
<path opacity="0.05" d="M125.749 63.1799H107.115V113.286H125.749V63.1799Z" fill="black"/>
<path d="M152.254 55.9824H111.948V61.3806H152.254V55.9824Z" fill="#1D242E"/>
<path d="M152.116 58.7507H111.948V57.3665L152.116 52.9373V58.7507Z" fill="#252C36"/>
<path d="M105.873 57.7818V55.9824H146.041V61.3806H105.873V59.5812" fill="#262B31"/>
<path d="M146.179 56.9514H105.873V58.7507H146.179V56.9514Z" fill="#364151"/>
<path d="M151.563 57.2282H106.011C104.907 57.2282 103.941 56.2593 103.941 55.152V45.6014C103.941 44.4941 104.907 43.5252 106.011 43.5252H151.563C152.667 43.5252 153.633 44.4941 153.633 45.6014V55.152C153.633 56.3977 152.805 57.2282 151.563 57.2282Z" fill="#2E3746"/>
<path d="M109.876 43.6631H145.213C146.042 43.6631 146.732 44.3552 146.732 45.1857V55.8436C146.732 56.6741 146.042 57.3661 145.213 57.3661H105.459C104.631 57.3661 103.941 56.6741 103.941 55.8436V45.1857C103.941 44.3552 104.631 43.6631 105.459 43.6631H106.426" fill="#545D71"/>
<path d="M121.174 48.6391C121.39 48.4229 121.39 48.0723 121.174 47.8561C120.959 47.6399 120.609 47.6399 120.394 47.8561C120.178 48.0723 120.178 48.4229 120.394 48.6391C120.609 48.8553 120.959 48.8553 121.174 48.6391Z" fill="#2A2E33"/>
<path d="M121.209 51.2545C121.424 51.0383 121.424 50.6877 121.209 50.4715C120.993 50.2553 120.644 50.2553 120.428 50.4715C120.212 50.6877 120.212 51.0383 120.428 51.2545C120.644 51.4707 120.993 51.4707 121.209 51.2545Z" fill="#2A2E33"/>
<path d="M121.146 53.7721C121.362 53.5559 121.362 53.2053 121.146 52.9891C120.93 52.7729 120.581 52.7729 120.365 52.9891C120.15 53.2053 120.15 53.5559 120.365 53.7721C120.581 53.9883 120.93 53.9883 121.146 53.7721Z" fill="#2A2E33"/>
<path d="M123.766 49.9954C123.982 49.7792 123.982 49.4286 123.766 49.2124C123.551 48.9962 123.201 48.9962 122.985 49.2124C122.77 49.4286 122.77 49.7792 122.985 49.9954C123.201 50.2116 123.551 50.2116 123.766 49.9954Z" fill="#394651"/>
<path d="M123.801 52.6107C124.016 52.3945 124.016 52.044 123.801 51.8277C123.585 51.6115 123.235 51.6115 123.02 51.8277C122.804 52.044 122.804 52.3945 123.02 52.6107C123.235 52.8269 123.585 52.8269 123.801 52.6107Z" fill="#2A2E33"/>
<path d="M126.293 48.6673C126.509 48.451 126.509 48.1005 126.293 47.8843C126.077 47.668 125.728 47.668 125.512 47.8843C125.297 48.1005 125.297 48.451 125.512 48.6673C125.728 48.8835 126.077 48.8835 126.293 48.6673Z" fill="#2A2E33"/>
<path d="M126.328 51.2828C126.543 51.0665 126.543 50.716 126.328 50.4997C126.112 50.2835 125.762 50.2835 125.547 50.4997C125.331 50.716 125.331 51.0665 125.547 51.2827C125.762 51.499 126.112 51.499 126.328 51.2828Z" fill="#2A2E33"/>
<path d="M125.888 53.9061C126.193 53.9061 126.44 53.6582 126.44 53.3524C126.44 53.0466 126.193 52.7988 125.888 52.7988C125.583 52.7988 125.336 53.0466 125.336 53.3524C125.336 53.6582 125.583 53.9061 125.888 53.9061Z" fill="url(#paint10_linear_32:12)"/>
<path d="M128.885 50.0236C129.101 49.8074 129.101 49.4568 128.885 49.2406C128.669 49.0244 128.32 49.0244 128.104 49.2406C127.889 49.4568 127.889 49.8074 128.104 50.0236C128.32 50.2398 128.669 50.2398 128.885 50.0236Z" fill="#394651"/>
<path d="M128.919 52.639C129.135 52.4228 129.135 52.0722 128.919 51.856C128.704 51.6398 128.354 51.6398 128.139 51.856C127.923 52.0722 127.923 52.4228 128.139 52.639C128.354 52.8552 128.704 52.8552 128.919 52.639Z" fill="#2A2E33"/>
<path d="M131.509 48.5979C131.725 48.3817 131.725 48.0311 131.509 47.8149C131.293 47.5987 130.944 47.5987 130.728 47.8149C130.513 48.0311 130.513 48.3817 130.728 48.5979C130.944 48.8141 131.293 48.8141 131.509 48.5979Z" fill="#394651"/>
<path d="M131.545 51.2133C131.76 50.997 131.76 50.6465 131.545 50.4302C131.329 50.214 130.98 50.214 130.764 50.4302C130.548 50.6465 130.548 50.997 130.764 51.2133C130.98 51.4295 131.329 51.4295 131.545 51.2133Z" fill="#2A2E33"/>
<path d="M131.482 53.7308C131.698 53.5146 131.698 53.164 131.482 52.9478C131.266 52.7316 130.917 52.7316 130.701 52.9478C130.486 53.164 130.486 53.5146 130.701 53.7308C130.917 53.947 131.266 53.947 131.482 53.7308Z" fill="#2A2E33"/>
<path d="M134.004 50.0519C134.219 49.8357 134.219 49.4852 134.004 49.2689C133.788 49.0527 133.439 49.0527 133.223 49.2689C133.007 49.4852 133.007 49.8357 133.223 50.0519C133.439 50.2681 133.788 50.2681 134.004 50.0519Z" fill="#2A2E33"/>
<path d="M134.038 52.6674C134.254 52.4512 134.254 52.1006 134.038 51.8844C133.823 51.6682 133.473 51.6682 133.258 51.8844C133.042 52.1006 133.042 52.4512 133.258 52.6674C133.473 52.8836 133.823 52.8836 134.038 52.6674Z" fill="#2A2E33"/>
<path d="M136.628 48.6262C136.844 48.41 136.844 48.0594 136.628 47.8432C136.412 47.627 136.063 47.627 135.847 47.8432C135.632 48.0594 135.632 48.41 135.847 48.6262C136.063 48.8424 136.412 48.8424 136.628 48.6262Z" fill="#2A2E33"/>
<path d="M136.664 51.2415C136.879 51.0252 136.879 50.6747 136.664 50.4584C136.448 50.2422 136.098 50.2422 135.883 50.4584C135.667 50.6747 135.667 51.0252 135.883 51.2415C136.098 51.4577 136.448 51.4577 136.664 51.2415Z" fill="#394651"/>
<path d="M136.601 53.759C136.817 53.5428 136.817 53.1922 136.601 52.976C136.385 52.7598 136.036 52.7598 135.82 52.976C135.604 53.1922 135.604 53.5428 135.82 53.759C136.036 53.9752 136.385 53.9752 136.601 53.759Z" fill="#2A2E33"/>
<path d="M139.22 49.9823C139.435 49.7661 139.435 49.4155 139.22 49.1993C139.004 48.9831 138.655 48.9831 138.439 49.1993C138.223 49.4155 138.223 49.7661 138.439 49.9823C138.655 50.1985 139.004 50.1985 139.22 49.9823Z" fill="#2A2E33"/>
<path d="M139.255 52.5978C139.471 52.3816 139.471 52.031 139.255 51.8148C139.04 51.5986 138.69 51.5986 138.475 51.8148C138.259 52.031 138.259 52.3816 138.475 52.5978C138.69 52.814 139.04 52.814 139.255 52.5978Z" fill="#2A2E33"/>
<path d="M141.747 48.6545C141.962 48.4383 141.962 48.0877 141.747 47.8715C141.531 47.6552 141.182 47.6552 140.966 47.8715C140.75 48.0877 140.75 48.4383 140.966 48.6545C141.182 48.8707 141.531 48.8707 141.747 48.6545Z" fill="#2A2E33"/>
<path d="M141.783 51.2699C141.998 51.0537 141.998 50.7031 141.783 50.4869C141.567 50.2707 141.217 50.2707 141.002 50.4869C140.786 50.7031 140.786 51.0537 141.002 51.2699C141.217 51.4861 141.567 51.4861 141.783 51.2699Z" fill="#394651"/>
<path d="M141.72 53.7874C141.935 53.5711 141.935 53.2206 141.72 53.0044C141.504 52.7882 141.155 52.7882 140.939 53.0044C140.723 53.2206 140.723 53.5711 140.939 53.7874C141.155 54.0036 141.504 54.0036 141.72 53.7874Z" fill="#2A2E33"/>
<path d="M114.294 50.9995C114.294 52.3836 113.328 53.491 111.947 53.7678C111.809 53.7678 111.671 53.7678 111.533 53.7678C110.015 53.7678 108.772 52.5221 108.772 50.9995C108.772 49.477 110.015 48.2312 111.533 48.2312C111.671 48.2312 111.809 48.2312 111.947 48.2312C113.19 48.5081 114.294 49.6154 114.294 50.9995Z" fill="#273850"/>
<path d="M114.293 50.9995C114.293 52.3836 113.327 53.491 111.947 53.7678C110.566 53.491 109.6 52.3836 109.6 50.9995C109.6 49.6154 110.566 48.5081 111.947 48.2312C113.189 48.5081 114.293 49.6154 114.293 50.9995Z" fill="#364151"/>
<path d="M152.254 73.1457H111.948V78.5439H152.254V73.1457Z" fill="#1D242E"/>
<path d="M152.116 76.0523H111.948V74.5298L152.116 70.2389V76.0523Z" fill="#252C36"/>
<path d="M105.873 74.9451V73.1457H146.041V78.5439H105.873V76.7445" fill="#262B31"/>
<path d="M146.179 74.1145H105.873V75.9139H146.179V74.1145Z" fill="#364151"/>
<path d="M151.563 74.5298H106.011C104.907 74.5298 103.941 73.5609 103.941 72.4536V62.9031C103.941 61.7957 104.907 60.8268 106.011 60.8268H151.563C152.667 60.8268 153.633 61.7957 153.633 62.9031V72.4536C153.633 73.5609 152.805 74.5298 151.563 74.5298Z" fill="#2E3746"/>
<path d="M109.876 60.8268H145.213C146.042 60.8268 146.732 61.5189 146.732 62.3494V73.0073C146.732 73.8377 146.042 74.5298 145.213 74.5298H105.459C104.631 74.5298 103.941 73.8377 103.941 73.0073V62.3494C103.941 61.5189 104.631 60.8268 105.459 60.8268H106.426" fill="#545D71"/>
<path d="M121.146 65.8137C121.362 65.5975 121.362 65.247 121.146 65.0307C120.93 64.8145 120.581 64.8145 120.365 65.0307C120.15 65.247 120.15 65.5975 120.365 65.8137C120.581 66.03 120.93 66.03 121.146 65.8137Z" fill="#2A2E33"/>
<path d="M121.181 68.4291C121.396 68.2129 121.396 67.8624 121.181 67.6462C120.965 67.4299 120.615 67.4299 120.4 67.6462C120.184 67.8624 120.184 68.2129 120.4 68.4292C120.615 68.6454 120.965 68.6454 121.181 68.4291Z" fill="#2A2E33"/>
<path d="M121.215 71.0446C121.431 70.8284 121.431 70.4779 121.215 70.2616C121 70.0454 120.65 70.0454 120.434 70.2616C120.219 70.4779 120.219 70.8284 120.434 71.0446C120.65 71.2608 121 71.2608 121.215 71.0446Z" fill="#2A2E33"/>
<path d="M123.738 67.1698C123.954 66.9536 123.954 66.603 123.738 66.3868C123.522 66.1706 123.173 66.1706 122.957 66.3868C122.741 66.603 122.741 66.9536 122.957 67.1698C123.173 67.386 123.522 67.386 123.738 67.1698Z" fill="#394651"/>
<path d="M123.772 69.7853C123.988 69.5691 123.988 69.2185 123.772 69.0023C123.557 68.7861 123.207 68.7861 122.991 69.0023C122.776 69.2185 122.776 69.5691 122.991 69.7853C123.207 70.0015 123.557 70.0015 123.772 69.7853Z" fill="#2A2E33"/>
<path d="M126.265 65.842C126.481 65.6258 126.481 65.2752 126.265 65.059C126.049 64.8428 125.7 64.8428 125.484 65.059C125.269 65.2752 125.269 65.6258 125.484 65.842C125.7 66.0582 126.049 66.0582 126.265 65.842Z" fill="#2A2E33"/>
<path d="M126.3 68.4574C126.516 68.2412 126.516 67.8906 126.3 67.6744C126.085 67.4582 125.735 67.4582 125.52 67.6744C125.304 67.8906 125.304 68.2412 125.52 68.4574C125.735 68.6736 126.085 68.6737 126.3 68.4574Z" fill="#2A2E33"/>
<path d="M125.888 71.2079C126.193 71.2079 126.44 70.96 126.44 70.6542C126.44 70.3485 126.193 70.1006 125.888 70.1006C125.583 70.1006 125.336 70.3485 125.336 70.6542C125.336 70.96 125.583 71.2079 125.888 71.2079Z" fill="url(#paint11_linear_32:12)"/>
<path d="M128.857 67.1984C129.072 66.9822 129.072 66.6316 128.857 66.4154C128.641 66.1992 128.292 66.1992 128.076 66.4154C127.86 66.6316 127.86 66.9822 128.076 67.1984C128.292 67.4146 128.641 67.4146 128.857 67.1984Z" fill="#394651"/>
<path d="M128.891 69.8136C129.107 69.5974 129.107 69.2469 128.891 69.0307C128.676 68.8144 128.326 68.8144 128.11 69.0307C127.895 69.2469 127.895 69.5974 128.11 69.8136C128.326 70.0299 128.676 70.0299 128.891 69.8136Z" fill="#2A2E33"/>
<path d="M131.482 65.7724C131.698 65.5562 131.698 65.2056 131.482 64.9894C131.266 64.7732 130.917 64.7732 130.701 64.9894C130.486 65.2056 130.486 65.5562 130.701 65.7724C130.917 65.9886 131.266 65.9886 131.482 65.7724Z" fill="#394651"/>
<path d="M131.516 68.3878C131.732 68.1716 131.732 67.821 131.516 67.6048C131.301 67.3886 130.951 67.3886 130.736 67.6048C130.52 67.821 130.52 68.1716 130.736 68.3878C130.951 68.604 131.301 68.604 131.516 68.3878Z" fill="#2A2E33"/>
<path d="M131.551 71.0033C131.767 70.7871 131.767 70.4365 131.551 70.2203C131.335 70.004 130.986 70.0041 130.77 70.2203C130.555 70.4365 130.555 70.7871 130.77 71.0033C130.986 71.2195 131.335 71.2195 131.551 71.0033Z" fill="#2A2E33"/>
<path d="M133.976 67.2266C134.191 67.0104 134.191 66.6598 133.976 66.4436C133.76 66.2274 133.41 66.2274 133.195 66.4436C132.979 66.6598 132.979 67.0104 133.195 67.2266C133.41 67.4428 133.76 67.4428 133.976 67.2266Z" fill="#2A2E33"/>
<path d="M134.011 69.8419C134.227 69.6257 134.227 69.2751 134.011 69.0589C133.795 68.8427 133.446 68.8427 133.23 69.0589C133.015 69.2751 133.015 69.6257 133.23 69.8419C133.446 70.0581 133.795 70.0581 134.011 69.8419Z" fill="#2A2E33"/>
<path d="M136.601 65.8007C136.817 65.5845 136.817 65.2339 136.601 65.0177C136.385 64.8015 136.036 64.8015 135.82 65.0177C135.604 65.2339 135.604 65.5845 135.82 65.8007C136.036 66.0169 136.385 66.0169 136.601 65.8007Z" fill="#2A2E33"/>
<path d="M136.635 68.4161C136.851 68.1999 136.851 67.8493 136.635 67.6331C136.42 67.4169 136.07 67.4169 135.855 67.6331C135.639 67.8493 135.639 68.1999 135.855 68.4161C136.07 68.6323 136.42 68.6323 136.635 68.4161Z" fill="#394651"/>
<path d="M136.67 71.0316C136.885 70.8154 136.885 70.4649 136.67 70.2486C136.454 70.0324 136.105 70.0324 135.889 70.2486C135.673 70.4649 135.673 70.8154 135.889 71.0316C136.105 71.2479 136.454 71.2479 136.67 71.0316Z" fill="#2A2E33"/>
<path d="M139.192 67.157C139.407 66.9408 139.407 66.5902 139.192 66.374C138.976 66.1578 138.627 66.1578 138.411 66.374C138.195 66.5902 138.195 66.9408 138.411 67.157C138.627 67.3732 138.976 67.3732 139.192 67.157Z" fill="#2A2E33"/>
<path d="M139.227 69.7724C139.443 69.5562 139.443 69.2056 139.227 68.9894C139.012 68.7732 138.662 68.7732 138.446 68.9894C138.231 69.2056 138.231 69.5562 138.446 69.7724C138.662 69.9887 139.011 69.9886 139.227 69.7724Z" fill="#2A2E33"/>
<path d="M141.72 65.8291C141.935 65.6129 141.935 65.2623 141.72 65.0461C141.504 64.8299 141.155 64.8299 140.939 65.0461C140.723 65.2623 140.723 65.6129 140.939 65.8291C141.155 66.0453 141.504 66.0453 141.72 65.8291Z" fill="#2A2E33"/>
<path d="M141.754 68.4444C141.97 68.2282 141.97 67.8777 141.754 67.6615C141.539 67.4452 141.189 67.4452 140.973 67.6615C140.758 67.8777 140.758 68.2282 140.973 68.4444C141.189 68.6606 141.539 68.6606 141.754 68.4444Z" fill="#394651"/>
<path d="M141.789 71.0599C142.004 70.8437 142.004 70.4931 141.789 70.2769C141.573 70.0607 141.223 70.0607 141.008 70.2769C140.792 70.4932 140.792 70.8437 141.008 71.0599C141.223 71.2761 141.573 71.2761 141.789 71.0599Z" fill="#2A2E33"/>
<path d="M114.294 68.3013C114.294 69.6854 113.328 70.7927 111.947 71.0696C111.809 71.0696 111.671 71.0696 111.533 71.0696C110.015 71.0696 108.772 69.8238 108.772 68.3013C108.772 66.7787 110.015 65.533 111.533 65.533C111.671 65.533 111.809 65.533 111.947 65.533C113.19 65.6714 114.294 66.9172 114.294 68.3013Z" fill="#273850"/>
<path d="M152.254 90.5858H111.948V95.984H152.254V90.5858Z" fill="#1D242E"/>
<path d="M152.116 93.3542H111.948V91.97L152.116 91.5548V93.3542Z" fill="#252C36"/>
<path d="M105.873 92.3852V90.5858H146.041V95.984H105.873V94.0462" fill="#262B31"/>
<path d="M146.179 91.278H105.873V93.3542H146.179V91.278Z" fill="#364151"/>
<path d="M151.563 91.8316H106.011C104.907 91.8316 103.941 90.8627 103.941 89.7554V80.2048C103.941 79.0975 104.907 78.1286 106.011 78.1286H151.563C152.667 78.1286 153.633 79.0975 153.633 80.2048V89.7554C153.633 90.8627 152.805 91.8316 151.563 91.8316Z" fill="#2E3746"/>
<path d="M109.876 78.2669H145.213C146.042 78.2669 146.732 78.959 146.732 79.7895V90.4474C146.732 91.2778 146.042 91.9699 145.213 91.9699H105.459C104.631 91.9699 103.941 91.2778 103.941 90.4474V79.7895C103.941 78.959 104.631 78.2669 105.459 78.2669H106.426" fill="#545D71"/>
<path d="M121.202 83.2305C121.418 83.0142 121.418 82.6637 121.202 82.4474C120.986 82.2312 120.637 82.2312 120.421 82.4474C120.206 82.6637 120.206 83.0142 120.421 83.2305C120.637 83.4467 120.986 83.4467 121.202 83.2305Z" fill="#2A2E33"/>
<path d="M121.139 85.7479C121.355 85.5317 121.355 85.1811 121.139 84.9649C120.924 84.7487 120.574 84.7487 120.358 84.9649C120.143 85.1811 120.143 85.5317 120.358 85.7479C120.574 85.9641 120.924 85.9641 121.139 85.7479Z" fill="#2A2E33"/>
<path d="M120.78 88.5095C121.085 88.5095 121.333 88.2617 121.333 87.9559C121.333 87.6501 121.085 87.4022 120.78 87.4022C120.475 87.4022 120.228 87.6501 120.228 87.9559C120.228 88.2617 120.475 88.5095 120.78 88.5095Z" fill="url(#paint12_linear_32:12)"/>
<path d="M123.794 84.5867C124.009 84.3704 124.009 84.0199 123.794 83.8037C123.578 83.5875 123.229 83.5875 123.013 83.8037C122.797 84.0199 122.797 84.3704 123.013 84.5867C123.229 84.8029 123.578 84.8029 123.794 84.5867Z" fill="#2A2E33"/>
<path d="M123.828 87.2022C124.044 86.986 124.044 86.6354 123.828 86.4192C123.613 86.203 123.263 86.203 123.047 86.4192C122.832 86.6354 122.832 86.986 123.047 87.2022C123.263 87.4184 123.613 87.4184 123.828 87.2022Z" fill="#405872"/>
<path d="M126.321 83.2588C126.536 83.0426 126.536 82.692 126.321 82.4758C126.105 82.2596 125.756 82.2596 125.54 82.4758C125.324 82.692 125.324 83.0426 125.54 83.2588C125.756 83.475 126.105 83.475 126.321 83.2588Z" fill="#2A2E33"/>
<path d="M126.258 85.7762C126.474 85.56 126.474 85.2094 126.258 84.9932C126.042 84.7769 125.693 84.7769 125.477 84.9932C125.262 85.2094 125.262 85.56 125.477 85.7762C125.693 85.9924 126.042 85.9924 126.258 85.7762Z" fill="#394651"/>
<path d="M126.293 88.3917C126.508 88.1755 126.508 87.8249 126.293 87.6087C126.077 87.3925 125.727 87.3925 125.512 87.6087C125.296 87.8249 125.296 88.1755 125.512 88.3917C125.727 88.6079 126.077 88.6079 126.293 88.3917Z" fill="#2A2E33"/>
<path d="M128.913 84.6149C129.128 84.3987 129.128 84.0481 128.913 83.8319C128.697 83.6157 128.347 83.6157 128.132 83.8319C127.916 84.0481 127.916 84.3987 128.132 84.6149C128.347 84.8311 128.697 84.8311 128.913 84.6149Z" fill="#2A2E33"/>
<path d="M128.947 87.2303C129.163 87.0141 129.163 86.6636 128.947 86.4473C128.732 86.2311 128.382 86.2311 128.166 86.4473C127.951 86.6636 127.951 87.0141 128.166 87.2303C128.382 87.4465 128.732 87.4465 128.947 87.2303Z" fill="#2A2E33"/>
<path d="M131.538 83.1891C131.754 82.9729 131.754 82.6223 131.538 82.4061C131.322 82.1899 130.973 82.1899 130.757 82.4061C130.541 82.6223 130.541 82.9729 130.757 83.1891C130.973 83.4053 131.322 83.4053 131.538 83.1891Z" fill="#2A2E33"/>
<path d="M131.475 85.7068C131.691 85.4906 131.691 85.14 131.475 84.9238C131.26 84.7076 130.91 84.7076 130.694 84.9238C130.479 85.14 130.479 85.4906 130.694 85.7068C130.91 85.923 131.26 85.923 131.475 85.7068Z" fill="#2A2E33"/>
<path d="M131.509 88.3221C131.724 88.1058 131.724 87.7553 131.509 87.5391C131.293 87.3229 130.943 87.3229 130.728 87.5391C130.512 87.7553 130.512 88.1058 130.728 88.3221C130.943 88.5383 131.293 88.5383 131.509 88.3221Z" fill="#2A2E33"/>
<path d="M134.032 84.6432C134.247 84.427 134.247 84.0764 134.032 83.8602C133.816 83.644 133.466 83.644 133.251 83.8602C133.035 84.0764 133.035 84.427 133.251 84.6432C133.466 84.8594 133.816 84.8594 134.032 84.6432Z" fill="#2A2E33"/>
<path d="M134.066 87.2587C134.282 87.0425 134.282 86.6919 134.066 86.4757C133.85 86.2595 133.501 86.2595 133.285 86.4757C133.07 86.6919 133.07 87.0425 133.285 87.2587C133.501 87.4749 133.85 87.4749 134.066 87.2587Z" fill="#2A2E33"/>
<path d="M136.24 83.3875C136.545 83.3875 136.793 83.1396 136.793 82.8339C136.793 82.5281 136.545 82.2802 136.24 82.2802C135.935 82.2802 135.688 82.5281 135.688 82.8339C135.688 83.1396 135.935 83.3875 136.24 83.3875Z" fill="url(#paint13_linear_32:12)"/>
<path d="M136.594 85.7349C136.81 85.5187 136.81 85.1682 136.594 84.9519C136.378 84.7357 136.029 84.7357 135.813 84.952C135.598 85.1682 135.598 85.5187 135.813 85.7349C136.029 85.9512 136.378 85.9512 136.594 85.7349Z" fill="#394651"/>
<path d="M136.627 88.3504C136.843 88.1342 136.843 87.7836 136.627 87.5674C136.412 87.3511 136.062 87.3511 135.847 87.5674C135.631 87.7836 135.631 88.1341 135.847 88.3504C136.062 88.5666 136.412 88.5666 136.627 88.3504Z" fill="#2A2E33"/>
<path d="M139.249 84.5736C139.464 84.3574 139.464 84.0068 139.249 83.7906C139.033 83.5744 138.683 83.5744 138.468 83.7906C138.252 84.0068 138.252 84.3574 138.468 84.5736C138.683 84.7898 139.033 84.7898 139.249 84.5736Z" fill="#2A2E33"/>
<path d="M139.283 87.1891C139.499 86.9728 139.499 86.6223 139.283 86.4061C139.067 86.1899 138.718 86.1899 138.502 86.4061C138.287 86.6223 138.287 86.9729 138.502 87.1891C138.718 87.4053 139.067 87.4053 139.283 87.1891Z" fill="#2A2E33"/>
<path d="M141.776 83.2458C141.991 83.0295 141.991 82.679 141.776 82.4627C141.56 82.2465 141.211 82.2465 140.995 82.4627C140.779 82.679 140.779 83.0295 140.995 83.2458C141.211 83.462 141.56 83.462 141.776 83.2458Z" fill="#2A2E33"/>
<path d="M141.713 85.7632C141.929 85.547 141.929 85.1964 141.713 84.9802C141.497 84.764 141.148 84.764 140.932 84.9802C140.717 85.1964 140.717 85.547 140.932 85.7632C141.148 85.9795 141.497 85.9795 141.713 85.7632Z" fill="#2A2E33"/>
<path d="M141.746 88.3787C141.962 88.1625 141.962 87.8119 141.746 87.5957C141.531 87.3795 141.181 87.3795 140.966 87.5957C140.75 87.8119 140.75 88.1625 140.966 88.3787C141.181 88.5949 141.531 88.5949 141.746 88.3787Z" fill="#2A2E33"/>
<path d="M114.294 85.6029C114.294 86.9871 113.328 88.0944 111.947 88.3712C111.809 88.3712 111.671 88.3712 111.533 88.3712C110.015 88.3712 108.772 87.1255 108.772 85.6029C108.772 84.0804 110.015 82.8347 111.533 82.8347C111.671 82.8347 111.809 82.8347 111.947 82.8347C113.19 83.1115 114.294 84.2188 114.294 85.6029Z" fill="#273850"/>
<path d="M152.254 107.887H111.948V113.286H152.254V107.887Z" fill="#1D242E"/>
<path d="M152.116 110.656H111.948V109.272L152.116 104.981V110.656Z" fill="#252C36"/>
<path d="M105.873 109.687V107.887H146.041V113.286H105.873V111.486" fill="#262B31"/>
<path d="M146.179 107.887H105.873V110.656H146.179V107.887Z" fill="#364151"/>
<path d="M151.563 109.133H106.011C104.907 109.133 103.941 108.164 103.941 107.057V97.5064C103.941 96.3991 104.907 95.4302 106.011 95.4302H151.563C152.667 95.4302 153.633 96.3991 153.633 97.5064V107.057C153.633 108.303 152.805 109.133 151.563 109.133Z" fill="#2E3746"/>
<path d="M109.876 95.5687H145.213C146.042 95.5687 146.732 96.2608 146.732 97.0913V107.749C146.732 108.58 146.042 109.272 145.213 109.272H105.459C104.631 109.272 103.941 108.58 103.941 107.749V97.0913C103.941 96.2608 104.631 95.5687 105.459 95.5687H106.426" fill="#545D71"/>
<path d="M121.161 100.549C121.376 100.333 121.376 99.9826 121.161 99.7664C120.945 99.5501 120.596 99.5501 120.38 99.7664C120.164 99.9826 120.164 100.333 120.38 100.549C120.596 100.766 120.945 100.766 121.161 100.549Z" fill="#2A2E33"/>
<path d="M121.195 103.165C121.411 102.949 121.411 102.598 121.195 102.382C120.98 102.166 120.63 102.166 120.414 102.382C120.199 102.598 120.199 102.949 120.414 103.165C120.63 103.381 120.98 103.381 121.195 103.165Z" fill="#2A2E33"/>
<path d="M121.132 105.682C121.348 105.466 121.348 105.116 121.132 104.899C120.917 104.683 120.567 104.683 120.352 104.899C120.136 105.116 120.136 105.466 120.352 105.682C120.567 105.899 120.917 105.899 121.132 105.682Z" fill="#394651"/>
<path d="M123.403 102.074C123.708 102.074 123.955 101.826 123.955 101.521C123.955 101.215 123.708 100.967 123.403 100.967C123.098 100.967 122.851 101.215 122.851 101.521C122.851 101.826 123.098 102.074 123.403 102.074Z" fill="url(#paint14_linear_32:12)"/>
<path d="M123.787 104.521C124.003 104.305 124.003 103.954 123.787 103.738C123.571 103.522 123.222 103.522 123.006 103.738C122.791 103.954 122.791 104.305 123.006 104.521C123.222 104.737 123.571 104.737 123.787 104.521Z" fill="#2A2E33"/>
<path d="M126.279 100.578C126.495 100.361 126.495 100.011 126.279 99.7946C126.064 99.5784 125.714 99.5784 125.499 99.7946C125.283 100.011 125.283 100.361 125.499 100.578C125.714 100.794 126.064 100.794 126.279 100.578Z" fill="#2A2E33"/>
<path d="M126.314 103.193C126.53 102.977 126.53 102.626 126.314 102.41C126.098 102.194 125.749 102.194 125.533 102.41C125.318 102.626 125.318 102.977 125.533 103.193C125.749 103.409 126.098 103.409 126.314 103.193Z" fill="#394651"/>
<path d="M126.251 105.711C126.467 105.494 126.467 105.144 126.251 104.928C126.036 104.711 125.686 104.711 125.47 104.928C125.255 105.144 125.255 105.494 125.47 105.711C125.686 105.927 126.036 105.927 126.251 105.711Z" fill="#394651"/>
<path d="M128.871 101.934C129.087 101.718 129.087 101.367 128.871 101.151C128.656 100.935 128.306 100.935 128.091 101.151C127.875 101.367 127.875 101.718 128.091 101.934C128.306 102.15 128.656 102.15 128.871 101.934Z" fill="#394651"/>
<path d="M128.906 104.549C129.121 104.333 129.121 103.982 128.906 103.766C128.69 103.55 128.341 103.55 128.125 103.766C127.909 103.982 127.909 104.333 128.125 104.549C128.341 104.765 128.69 104.765 128.906 104.549Z" fill="#2A2E33"/>
<path d="M131.495 100.508C131.711 100.292 131.711 99.9412 131.495 99.7249C131.28 99.5087 130.93 99.5087 130.715 99.7249C130.499 99.9412 130.499 100.292 130.715 100.508C130.93 100.724 131.28 100.724 131.495 100.508Z" fill="#394651"/>
<path d="M131.531 103.123C131.747 102.907 131.747 102.557 131.531 102.34C131.315 102.124 130.966 102.124 130.75 102.34C130.535 102.557 130.535 102.907 130.75 103.123C130.966 103.34 131.315 103.34 131.531 103.123Z" fill="#2A2E33"/>
<path d="M131.467 105.641C131.683 105.425 131.683 105.074 131.467 104.858C131.252 104.642 130.902 104.642 130.687 104.858C130.471 105.074 130.471 105.425 130.687 105.641C130.902 105.857 131.252 105.857 131.467 105.641Z" fill="#2A2E33"/>
<path d="M133.99 101.962C134.206 101.746 134.206 101.395 133.99 101.179C133.774 100.963 133.425 100.963 133.209 101.179C132.994 101.395 132.994 101.746 133.209 101.962C133.425 102.178 133.774 102.178 133.99 101.962Z" fill="#2A2E33"/>
<path d="M134.026 104.577C134.241 104.361 134.241 104.011 134.026 103.794C133.81 103.578 133.461 103.578 133.245 103.794C133.029 104.011 133.029 104.361 133.245 104.577C133.461 104.794 133.81 104.794 134.026 104.577Z" fill="#394651"/>
<path d="M136.616 100.536C136.831 100.32 136.831 99.9695 136.616 99.7533C136.4 99.537 136.05 99.537 135.835 99.7533C135.619 99.9695 135.619 100.32 135.835 100.536C136.05 100.752 136.4 100.752 136.616 100.536Z" fill="#2A2E33"/>
<path d="M136.65 103.152C136.866 102.936 136.866 102.585 136.65 102.369C136.434 102.153 136.085 102.153 135.869 102.369C135.654 102.585 135.654 102.936 135.869 103.152C136.085 103.368 136.434 103.368 136.65 103.152Z" fill="#2A2E33"/>
<path d="M136.241 105.811C136.546 105.811 136.793 105.564 136.793 105.258C136.793 104.952 136.546 104.704 136.241 104.704C135.936 104.704 135.689 104.952 135.689 105.258C135.689 105.564 135.936 105.811 136.241 105.811Z" fill="url(#paint15_linear_32:12)"/>
<path d="M139.206 101.892C139.422 101.676 139.422 101.326 139.206 101.109C138.991 100.893 138.641 100.893 138.425 101.109C138.21 101.326 138.21 101.676 138.425 101.892C138.641 102.109 138.991 102.109 139.206 101.892Z" fill="#394651"/>
<path d="M139.241 104.508C139.456 104.292 139.456 103.941 139.241 103.725C139.025 103.509 138.676 103.509 138.46 103.725C138.244 103.941 138.244 104.292 138.46 104.508C138.676 104.724 139.025 104.724 139.241 104.508Z" fill="#2A2E33"/>
<path d="M141.734 100.565C141.95 100.348 141.95 99.9978 141.734 99.7816C141.519 99.5654 141.169 99.5654 140.953 99.7816C140.738 99.9978 140.738 100.348 140.953 100.565C141.169 100.781 141.519 100.781 141.734 100.565Z" fill="#2A2E33"/>
<path d="M141.769 103.18C141.985 102.964 141.985 102.613 141.769 102.397C141.553 102.181 141.204 102.181 140.988 102.397C140.772 102.613 140.772 102.964 140.988 103.18C141.204 103.396 141.553 103.396 141.769 103.18Z" fill="#394651"/>
<path d="M141.706 105.698C141.922 105.481 141.922 105.131 141.706 104.915C141.491 104.698 141.141 104.698 140.925 104.915C140.71 105.131 140.71 105.481 140.925 105.698C141.141 105.914 141.491 105.914 141.706 105.698Z" fill="#2A2E33"/>
<path d="M114.294 103.043C114.294 104.427 113.328 105.535 111.947 105.811C111.809 105.811 111.671 105.811 111.533 105.811C110.015 105.811 108.772 104.566 108.772 103.043C108.772 101.521 110.015 100.275 111.533 100.275C111.671 100.275 111.809 100.275 111.947 100.275C113.19 100.413 114.294 101.521 114.294 103.043Z" fill="#273850"/>
<path d="M114.293 68.3013C114.293 69.6854 113.327 70.7927 111.947 71.0696C110.566 70.7927 109.6 69.6854 109.6 68.3013C109.6 66.9172 110.566 65.8098 111.947 65.533C113.189 65.6714 114.293 66.9172 114.293 68.3013Z" fill="#364151"/>
<path d="M114.293 85.6029C114.293 86.9871 113.327 88.0944 111.947 88.3712C110.566 88.0944 109.6 86.9871 109.6 85.6029C109.6 84.2188 110.566 83.1115 111.947 82.8347C113.189 83.1115 114.293 84.2188 114.293 85.6029Z" fill="#364151"/>
<path d="M114.293 103.043C114.293 104.427 113.327 105.535 111.947 105.811C110.566 105.535 109.6 104.427 109.6 103.043C109.6 101.659 110.566 100.552 111.947 100.275C113.189 100.413 114.293 101.521 114.293 103.043Z" fill="#364151"/>
<path d="M57.9743 114.947C51.7627 115.085 44.1708 114.947 38.9255 114.808C33.6802 114.947 26.0883 115.085 19.8767 114.947C26.0883 111.486 28.1588 104.843 28.5729 100.552H49.2781C49.5542 104.843 51.7627 111.486 57.9743 114.947Z" fill="url(#paint16_linear_32:12)"/>
<path d="M77.9896 45.7399V99.8597C77.9896 101.105 77.0234 102.213 75.643 102.213H2.34659C1.10428 102.213 0 101.244 0 99.8597V45.7399C0 44.4942 0.966243 43.3869 2.34659 43.3869H75.7811C77.0234 43.3869 77.9896 44.4942 77.9896 45.7399Z" fill="#353B4A"/>
<path d="M77.9896 45.7399V92.3854H0V45.7399C0 44.4942 0.966243 43.3869 2.34659 43.3869H75.7811C77.0234 43.3869 77.9896 44.4942 77.9896 45.7399Z" fill="#262A31"/>
<path d="M75.0915 46.2934H2.62329V89.7553H75.0915V46.2934Z" fill="#474E61"/>
<path d="M38.7877 99.4444C39.855 99.4444 40.7202 98.5769 40.7202 97.5066C40.7202 96.4364 39.855 95.5688 38.7877 95.5688C37.7204 95.5688 36.8552 96.4364 36.8552 97.5066C36.8552 98.5769 37.7204 99.4444 38.7877 99.4444Z" fill="#262A31"/>
<path d="M5.93523 83.1116H4.27881V84.7726H5.93523V83.1116Z" fill="#2A2E39"/>
<path d="M5.93523 79.9281H4.27881V81.5891H5.93523V79.9281Z" fill="#2A2E39"/>
<path d="M5.93523 76.6062H4.27881V78.2671H5.93523V76.6062Z" fill="#2A2E39"/>
<path d="M5.93523 73.2842H4.27881V74.9452H5.93523V73.2842Z" fill="url(#paint17_linear_32:12)"/>
<path d="M5.93523 70.1007H4.27881V71.7617H5.93523V70.1007Z" fill="#2A2E39"/>
<path d="M5.93523 66.7787H4.27881V68.4397H5.93523V66.7787Z" fill="#3E475F"/>
<path d="M9.24821 86.4336H7.5918V88.0945H9.24821V86.4336Z" fill="#2A2E39"/>
<path d="M9.24821 83.1116H7.5918V84.7726H9.24821V83.1116Z" fill="#2A2E39"/>
<path d="M9.24821 76.6062H7.5918V78.2671H9.24821V76.6062Z" fill="#2A2E39"/>
<path d="M9.24821 73.2842H7.5918V74.9452H9.24821V73.2842Z" fill="#2A2E39"/>
<path d="M9.24821 70.1007H7.5918V71.7617H9.24821V70.1007Z" fill="#2A2E39"/>
<path d="M9.24821 66.7787H7.5918V68.4397H9.24821V66.7787Z" fill="#2A2E39"/>
<path d="M9.24821 63.5953H7.5918V65.2562H9.24821V63.5953Z" fill="#2A2E39"/>
<path d="M9.24821 60.2733H7.5918V61.9343H9.24821V60.2733Z" fill="url(#paint18_linear_32:12)"/>
<path d="M12.6991 86.4336H11.0427V88.0945H12.6991V86.4336Z" fill="#2A2E39"/>
<path d="M12.6991 83.1116H11.0427V84.7726H12.6991V83.1116Z" fill="#2A2E39"/>
<path d="M12.6991 79.9281H11.0427V81.5891H12.6991V79.9281Z" fill="#2A2E39"/>
<path d="M12.6991 76.6062H11.0427V78.2671H12.6991V76.6062Z" fill="#2A2E39"/>
<path d="M12.6991 73.2842H11.0427V74.9452H12.6991V73.2842Z" fill="url(#paint19_linear_32:12)"/>
<path d="M12.6991 70.1007H11.0427V71.7617H12.6991V70.1007Z" fill="#3E475F"/>
<path d="M12.6991 66.7787H11.0427V68.4397H12.6991V66.7787Z" fill="#2A2E39"/>
<path d="M12.6991 63.5953H11.0427V65.2562H12.6991V63.5953Z" fill="#3E475F"/>
<path d="M12.6991 60.2733H11.0427V61.9343H12.6991V60.2733Z" fill="#2A2E39"/>
<path d="M12.6991 57.0898H11.0427V58.7508H12.6991V57.0898Z" fill="#3E475F"/>
<path d="M16.0119 86.4336H14.3555V88.0945H16.0119V86.4336Z" fill="#2A2E39"/>
<path d="M16.0119 83.1116H14.3555V84.7726H16.0119V83.1116Z" fill="#2A2E39"/>
<path d="M16.0119 79.9281H14.3555V81.5891H16.0119V79.9281Z" fill="#2A2E39"/>
<path d="M16.0119 76.6062H14.3555V78.2671H16.0119V76.6062Z" fill="#2A2E39"/>
<path d="M16.0119 73.2842H14.3555V74.9452H16.0119V73.2842Z" fill="#2A2E39"/>
<path d="M16.0119 70.1007H14.3555V71.7617H16.0119V70.1007Z" fill="#3E475F"/>
<path d="M16.0119 66.7787H14.3555V68.4397H16.0119V66.7787Z" fill="#2A2E39"/>
<path d="M16.0119 63.5953H14.3555V65.2562H16.0119V63.5953Z" fill="#2A2E39"/>
<path d="M19.4628 86.4336H17.8064V88.0945H19.4628V86.4336Z" fill="#2A2E39"/>
<path d="M19.4628 83.1116H17.8064V84.7726H19.4628V83.1116Z" fill="#2A2E39"/>
<path d="M19.4628 79.9281H17.8064V81.5891H19.4628V79.9281Z" fill="#2A2E39"/>
<path d="M19.4628 73.2842H17.8064V74.9452H19.4628V73.2842Z" fill="#2A2E39"/>
<path d="M19.4628 70.1007H17.8064V71.7617H19.4628V70.1007Z" fill="url(#paint20_linear_32:12)"/>
<path d="M19.4628 66.7787H17.8064V68.4397H19.4628V66.7787Z" fill="#3E475F"/>
<path d="M22.7758 86.4336H21.1194V88.0945H22.7758V86.4336Z" fill="#2A2E39"/>
<path d="M22.7758 83.1116H21.1194V84.7726H22.7758V83.1116Z" fill="#2A2E39"/>
<path d="M22.7758 79.9281H21.1194V81.5891H22.7758V79.9281Z" fill="#2A2E39"/>
<path d="M22.7758 76.6062H21.1194V78.2671H22.7758V76.6062Z" fill="#2A2E39"/>
<path d="M22.7758 73.2842H21.1194V74.9452H22.7758V73.2842Z" fill="#2A2E39"/>
<path d="M22.7758 70.1007H21.1194V71.7617H22.7758V70.1007Z" fill="#2A2E39"/>
<path d="M22.7758 66.7787H21.1194V68.4397H22.7758V66.7787Z" fill="#3E475F"/>
<path d="M22.7758 63.5953H21.1194V65.2562H22.7758V63.5953Z" fill="#2A2E39"/>
<path d="M22.7758 60.2733H21.1194V61.9343H22.7758V60.2733Z" fill="#2A2E39"/>
<path d="M26.0878 86.4336H24.4314V88.0945H26.0878V86.4336Z" fill="#2A2E39"/>
<path d="M26.0878 83.1116H24.4314V84.7726H26.0878V83.1116Z" fill="#2A2E39"/>
<path d="M26.0878 79.9281H24.4314V81.5891H26.0878V79.9281Z" fill="#2A2E39"/>
<path d="M26.0878 73.2842H24.4314V74.9452H26.0878V73.2842Z" fill="#2A2E39"/>
<path d="M26.0878 70.1007H24.4314V71.7617H26.0878V70.1007Z" fill="#3E475F"/>
<path d="M29.5387 86.4336H27.8823V88.0945H29.5387V86.4336Z" fill="url(#paint21_linear_32:12)"/>
<path d="M29.5387 83.1116H27.8823V84.7726H29.5387V83.1116Z" fill="#2A2E39"/>
<path d="M29.5387 79.9281H27.8823V81.5891H29.5387V79.9281Z" fill="#2A2E39"/>
<path d="M29.5387 76.6062H27.8823V78.2671H29.5387V76.6062Z" fill="#3E475F"/>
<path d="M29.5387 73.2842H27.8823V74.9452H29.5387V73.2842Z" fill="#2A2E39"/>
<path d="M29.5387 66.7787H27.8823V68.4397H29.5387V66.7787Z" fill="#2A2E39"/>
<path d="M29.5387 63.5953H27.8823V65.2562H29.5387V63.5953Z" fill="#3E475F"/>
<path d="M32.8515 86.4336H31.1951V88.0945H32.8515V86.4336Z" fill="#2A2E39"/>
<path d="M32.8515 83.1116H31.1951V84.7726H32.8515V83.1116Z" fill="#2A2E39"/>
<path d="M32.8515 79.9281H31.1951V81.5891H32.8515V79.9281Z" fill="url(#paint22_linear_32:12)"/>
<path d="M32.8515 76.6062H31.1951V78.2671H32.8515V76.6062Z" fill="#2A2E39"/>
<path d="M32.8515 73.2842H31.1951V74.9452H32.8515V73.2842Z" fill="#2A2E39"/>
<path d="M32.8515 70.1007H31.1951V71.7617H32.8515V70.1007Z" fill="#2A2E39"/>
<path d="M32.8515 66.7787H31.1951V68.4397H32.8515V66.7787Z" fill="#3E475F"/>
<path d="M32.8515 60.2733H31.1951V61.9343H32.8515V60.2733Z" fill="#2A2E39"/>
<path d="M32.8515 57.0898H31.1951V58.7508H32.8515V57.0898Z" fill="#3E475F"/>
<path d="M56.5939 83.1116H54.9375V84.7726H56.5939V83.1116Z" fill="#2A2E39"/>
<path d="M56.5939 76.6062H54.9375V78.2671H56.5939V76.6062Z" fill="#2A2E39"/>
<path d="M56.5939 73.2842H54.9375V74.9452H56.5939V73.2842Z" fill="#2A2E39"/>
<path d="M56.5939 70.1007H54.9375V71.7617H56.5939V70.1007Z" fill="#3E475F"/>
<path d="M56.5939 66.7787H54.9375V68.4397H56.5939V66.7787Z" fill="#2A2E39"/>
<path d="M56.5939 63.5953H54.9375V65.2562H56.5939V63.5953Z" fill="#2A2E39"/>
<path d="M59.9069 86.4336H58.2505V88.0945H59.9069V86.4336Z" fill="#2A2E39"/>
<path d="M59.9069 83.1116H58.2505V84.7726H59.9069V83.1116Z" fill="#2A2E39"/>
<path d="M59.9069 79.9281H58.2505V81.5891H59.9069V79.9281Z" fill="#2A2E39"/>
<path d="M59.9069 76.6062H58.2505V78.2671H59.9069V76.6062Z" fill="#2A2E39"/>
<path d="M59.9069 73.2842H58.2505V74.9452H59.9069V73.2842Z" fill="#2A2E39"/>
<path d="M59.9069 70.1007H58.2505V71.7617H59.9069V70.1007Z" fill="url(#paint23_linear_32:12)"/>
<path d="M59.9069 66.7787H58.2505V68.4397H59.9069V66.7787Z" fill="#3E475F"/>
<path d="M63.3578 86.4336H61.7014V88.0945H63.3578V86.4336Z" fill="#2A2E39"/>
<path d="M63.3578 83.1116H61.7014V84.7726H63.3578V83.1116Z" fill="#2A2E39"/>
<path d="M63.3578 79.9281H61.7014V81.5891H63.3578V79.9281Z" fill="#2A2E39"/>
<path d="M63.3578 76.6062H61.7014V78.2671H63.3578V76.6062Z" fill="#2A2E39"/>
<path d="M63.3578 73.2842H61.7014V74.9452H63.3578V73.2842Z" fill="#2A2E39"/>
<path d="M63.3578 70.1007H61.7014V71.7617H63.3578V70.1007Z" fill="#2A2E39"/>
<path d="M63.3578 66.7787H61.7014V68.4397H63.3578V66.7787Z" fill="#3E475F"/>
<path d="M63.3578 63.5953H61.7014V65.2562H63.3578V63.5953Z" fill="#2A2E39"/>
<path d="M63.3578 60.2733H61.7014V61.9343H63.3578V60.2733Z" fill="#2A2E39"/>
<path d="M66.6698 86.4336H65.0134V88.0945H66.6698V86.4336Z" fill="#2A2E39"/>
<path d="M66.6698 83.1116H65.0134V84.7726H66.6698V83.1116Z" fill="#2A2E39"/>
<path d="M66.6698 79.9281H65.0134V81.5891H66.6698V79.9281Z" fill="#2A2E39"/>
<path d="M66.6698 76.6062H65.0134V78.2671H66.6698V76.6062Z" fill="#2A2E39"/>
<path d="M66.6698 73.2842H65.0134V74.9452H66.6698V73.2842Z" fill="#2A2E39"/>
<path d="M70.1205 86.4336H68.4641V88.0945H70.1205V86.4336Z" fill="url(#paint24_linear_32:12)"/>
<path d="M70.1205 83.1116H68.4641V84.7726H70.1205V83.1116Z" fill="#2A2E39"/>
<path d="M70.1205 79.9281H68.4641V81.5891H70.1205V79.9281Z" fill="#2A2E39"/>
<path d="M70.1205 76.6062H68.4641V78.2671H70.1205V76.6062Z" fill="#3E475F"/>
<path d="M70.1205 73.2842H68.4641V74.9452H70.1205V73.2842Z" fill="#2A2E39"/>
<path d="M70.1205 70.1007H68.4641V71.7617H70.1205V70.1007Z" fill="url(#paint25_linear_32:12)"/>
<path d="M70.1205 66.7787H68.4641V68.4397H70.1205V66.7787Z" fill="#2A2E39"/>
<path d="M70.1205 63.5953H68.4641V65.2562H70.1205V63.5953Z" fill="#3E475F"/>
<path d="M73.4335 86.4336H71.7771V88.0945H73.4335V86.4336Z" fill="#2A2E39"/>
<path d="M73.4335 83.1116H71.7771V84.7726H73.4335V83.1116Z" fill="#2A2E39"/>
<path d="M73.4335 79.9281H71.7771V81.5891H73.4335V79.9281Z" fill="url(#paint26_linear_32:12)"/>
<path d="M73.4335 76.6062H71.7771V78.2671H73.4335V76.6062Z" fill="#2A2E39"/>
<path d="M73.4335 73.2842H71.7771V74.9452H73.4335V73.2842Z" fill="#2A2E39"/>
<path d="M73.4335 70.1007H71.7771V71.7617H73.4335V70.1007Z" fill="#2A2E39"/>
<path d="M73.4335 66.7787H71.7771V68.4397H73.4335V66.7787Z" fill="#3E475F"/>
<path d="M73.4335 60.2733H71.7771V61.9343H73.4335V60.2733Z" fill="#2A2E39"/>
<path d="M73.4335 57.0898H71.7771V58.7508H73.4335V57.0898Z" fill="#3E475F"/>
<path d="M36.3024 86.4336H34.646V88.0945H36.3024V86.4336Z" fill="#2A2E39"/>
<path d="M36.3024 83.1116H34.646V84.7726H36.3024V83.1116Z" fill="#2A2E39"/>
<path d="M36.3024 79.9281H34.646V81.5891H36.3024V79.9281Z" fill="#2A2E39"/>
<path d="M36.3024 73.2842H34.646V74.9452H36.3024V73.2842Z" fill="#3E475F"/>
<path d="M36.3024 66.7787H34.646V68.4397H36.3024V66.7787Z" fill="#2A2E39"/>
<path d="M36.3024 63.5953H34.646V65.2562H36.3024V63.5953Z" fill="#3E475F"/>
<path d="M36.3024 60.2733H34.646V61.9343H36.3024V60.2733Z" fill="#2A2E39"/>
<path d="M36.3024 57.0898H34.646V58.7508H36.3024V57.0898Z" fill="#3E475F"/>
<path d="M39.6154 83.1116H37.959V84.7726H39.6154V83.1116Z" fill="#2A2E39"/>
<path d="M39.6154 79.9281H37.959V81.5891H39.6154V79.9281Z" fill="#3E475F"/>
<path d="M39.6154 76.6062H37.959V78.2671H39.6154V76.6062Z" fill="#2A2E39"/>
<path d="M39.6154 73.2842H37.959V74.9452H39.6154V73.2842Z" fill="#2A2E39"/>
<path d="M39.6154 70.1007H37.959V71.7617H39.6154V70.1007Z" fill="url(#paint27_linear_32:12)"/>
<path d="M39.6154 66.7787H37.959V68.4397H39.6154V66.7787Z" fill="#2A2E39"/>
<path d="M39.6154 63.5953H37.959V65.2562H39.6154V63.5953Z" fill="#2A2E39"/>
<path d="M43.0663 86.4336H41.4099V88.0945H43.0663V86.4336Z" fill="#2A2E39"/>
<path d="M43.0663 79.9281H41.4099V81.5891H43.0663V79.9281Z" fill="#2A2E39"/>
<path d="M43.0663 76.6062H41.4099V78.2671H43.0663V76.6062Z" fill="url(#paint28_linear_32:12)"/>
<path d="M43.0663 73.2842H41.4099V74.9452H43.0663V73.2842Z" fill="#2A2E39"/>
<path d="M43.0663 70.1007H41.4099V71.7617H43.0663V70.1007Z" fill="#3E475F"/>
<path d="M43.0663 66.7787H41.4099V68.4397H43.0663V66.7787Z" fill="url(#paint29_linear_32:12)"/>
<path d="M46.3793 86.4336H44.7229V88.0945H46.3793V86.4336Z" fill="#2A2E39"/>
<path d="M46.3793 76.6062H44.7229V78.2671H46.3793V76.6062Z" fill="#3E475F"/>
<path d="M46.3793 73.2842H44.7229V74.9452H46.3793V73.2842Z" fill="#2A2E39"/>
<path d="M46.3793 70.1007H44.7229V71.7617H46.3793V70.1007Z" fill="#2A2E39"/>
<path d="M49.8302 86.4336H48.1738V88.0945H49.8302V86.4336Z" fill="#2A2E39"/>
<path d="M49.8302 83.1116H48.1738V84.7726H49.8302V83.1116Z" fill="#2A2E39"/>
<path d="M49.8302 79.9281H48.1738V81.5891H49.8302V79.9281Z" fill="#2A2E39"/>
<path d="M49.8302 76.6062H48.1738V78.2671H49.8302V76.6062Z" fill="#2A2E39"/>
<path d="M49.8302 73.2842H48.1738V74.9452H49.8302V73.2842Z" fill="#3E475F"/>
<path d="M49.8302 70.1007H48.1738V71.7617H49.8302V70.1007Z" fill="#2A2E39"/>
<path d="M49.8302 66.7787H48.1738V68.4397H49.8302V66.7787Z" fill="url(#paint30_linear_32:12)"/>
<path d="M49.8302 63.5953H48.1738V65.2562H49.8302V63.5953Z" fill="#2A2E39"/>
<path d="M53.1432 86.4336H51.4868V88.0945H53.1432V86.4336Z" fill="#2A2E39"/>
<path d="M53.1432 79.9281H51.4868V81.5891H53.1432V79.9281Z" fill="#2A2E39"/>
<path d="M53.1432 76.6062H51.4868V78.2671H53.1432V76.6062Z" fill="#3E475F"/>
<path d="M39.0637 55.0135C38.6496 55.0135 38.3735 54.7367 38.3735 54.3214V52.9373C38.3735 52.5221 38.6496 52.2452 39.0637 52.2452C39.4778 52.2452 39.7539 52.5221 39.7539 52.9373V54.3214C39.7539 54.7367 39.3398 55.0135 39.0637 55.0135Z" fill="#718CFF"/>
<path d="M39.064 49.6153C38.6498 49.6153 38.3738 49.3385 38.3738 48.9233V46.155C38.3738 45.7397 38.6498 45.4629 39.064 45.4629C39.4781 45.4629 39.7541 45.7397 39.7541 46.155V48.9233C39.7541 49.3385 39.34 49.6153 39.064 49.6153ZM131.271 48.0928C130.857 48.0928 130.581 47.8159 130.581 47.4007V44.6324C130.581 44.2172 130.857 43.9404 131.271 43.9404C131.685 43.9404 131.961 44.2172 131.961 44.6324V47.4007C131.961 47.6775 131.685 48.0928 131.271 48.0928ZM39.064 42.833C38.6498 42.833 38.3738 42.5562 38.3738 42.141V39.3727C38.3738 38.9575 38.6498 38.6806 39.064 38.6806C39.4781 38.6806 39.7541 38.9575 39.7541 39.3727V42.141C39.7541 42.5562 39.34 42.833 39.064 42.833ZM131.271 41.3105C130.857 41.3105 130.581 41.0337 130.581 40.6184V37.8501C130.581 37.4349 130.857 37.1581 131.271 37.1581C131.685 37.1581 131.961 37.4349 131.961 37.8501V40.6184C131.961 40.8953 131.685 41.3105 131.271 41.3105ZM39.064 36.0508C38.6498 36.0508 38.3738 35.7739 38.3738 35.3587V32.5904C38.3738 32.1752 38.6498 31.8984 39.064 31.8984C39.4781 31.8984 39.7541 32.1752 39.7541 32.5904V35.3587C39.7541 35.7739 39.34 36.0508 39.064 36.0508ZM131.271 34.5282C130.857 34.5282 130.581 34.2514 130.581 33.8361V31.0679C130.581 30.6526 130.857 30.3758 131.271 30.3758C131.685 30.3758 131.961 30.6526 131.961 31.0679V33.8361C131.961 34.113 131.685 34.5282 131.271 34.5282ZM39.064 29.1301C38.6498 29.1301 38.3738 28.8532 38.3738 28.438V28.2996C38.3738 27.3307 38.6498 26.3618 39.064 25.5313C39.202 25.2545 39.6161 25.1161 40.0302 25.2545C40.3063 25.3929 40.4443 25.8081 40.3063 26.2234C40.0302 26.9155 39.7541 27.6075 39.7541 28.438C39.7541 28.8532 39.34 29.1301 39.064 29.1301ZM131.133 27.7459C130.857 27.7459 130.581 27.6075 130.443 27.1923C130.305 26.3618 129.891 25.6697 129.339 25.1161C129.063 24.8392 129.063 24.424 129.339 24.1472C129.615 23.8704 130.029 23.8704 130.305 24.1472C130.995 24.8392 131.409 25.8081 131.685 26.777C131.823 27.1923 131.547 27.4691 131.133 27.6075C131.271 27.7459 131.133 27.7459 131.133 27.7459ZM42.5148 23.8703C42.2388 23.8703 41.9627 23.7319 41.8246 23.4551C41.6866 23.0399 41.8246 22.763 42.2388 22.4862C43.067 22.2094 43.8952 21.9326 44.7234 21.9326H45.1375C45.5516 21.9326 45.8277 22.2094 45.8277 22.6246C45.8277 23.0399 45.5516 23.4551 45.1375 23.4551H44.7234C44.0332 23.4551 43.343 23.5935 42.7909 23.8703C42.6529 23.8703 42.5148 23.8703 42.5148 23.8703ZM126.302 23.4551C126.026 23.4551 125.75 23.4551 125.612 23.4551H123.541C123.127 23.4551 122.851 23.1783 122.851 22.763C122.851 22.3478 123.127 22.071 123.541 22.071H125.612C125.888 22.071 126.164 22.071 126.44 22.071C126.854 22.071 127.13 22.4862 126.992 22.9015C126.992 23.1783 126.716 23.4551 126.302 23.4551ZM119.538 23.4551H116.778C116.363 23.4551 116.087 23.1783 116.087 22.763C116.087 22.3478 116.363 22.071 116.778 22.071H119.538C119.952 22.071 120.228 22.3478 120.228 22.763C120.228 23.1783 119.952 23.4551 119.538 23.4551ZM112.774 23.4551H110.014C109.6 23.4551 109.324 23.1783 109.324 22.763C109.324 22.3478 109.6 22.071 110.014 22.071H112.774C113.189 22.071 113.465 22.3478 113.465 22.763C113.465 23.1783 113.189 23.4551 112.774 23.4551ZM106.011 23.4551H103.25C102.836 23.4551 102.56 23.1783 102.56 22.763C102.56 22.3478 102.836 22.071 103.25 22.071H106.011C106.425 22.071 106.701 22.3478 106.701 22.763C106.701 23.1783 106.425 23.4551 106.011 23.4551ZM99.2471 23.4551H96.4864C96.0723 23.4551 95.7962 23.1783 95.7962 22.763C95.7962 22.3478 96.0723 22.071 96.4864 22.071H99.2471C99.6612 22.071 99.9373 22.3478 99.9373 22.763C99.9373 23.1783 99.6612 23.4551 99.2471 23.4551ZM92.4834 23.4551H89.7227C89.3086 23.4551 89.0325 23.1783 89.0325 22.763C89.0325 22.3478 89.4466 22.071 89.7227 22.071H92.4834C92.8975 22.071 93.1736 22.3478 93.1736 22.763C93.1736 23.1783 92.8975 23.4551 92.4834 23.4551ZM85.7197 23.4551H82.959C82.5449 23.4551 82.2688 23.1783 82.2688 22.763C82.2688 22.3478 82.5449 22.071 82.959 22.071H85.7197C86.1338 22.071 86.4099 22.3478 86.4099 22.763C86.4099 23.1783 86.1338 23.4551 85.7197 23.4551ZM78.956 23.4551H76.1953C75.7812 23.4551 75.5051 23.1783 75.5051 22.763C75.5051 22.3478 75.9192 22.071 76.1953 22.071H78.956C79.3701 22.071 79.6462 22.3478 79.6462 22.763C79.6462 23.1783 79.3701 23.4551 78.956 23.4551ZM72.1923 23.4551H69.4316C69.0175 23.4551 68.7414 23.1783 68.7414 22.763C68.7414 22.3478 69.0175 22.071 69.4316 22.071H72.1923C72.6064 22.071 72.8825 22.3478 72.8825 22.763C72.8825 23.1783 72.6064 23.4551 72.1923 23.4551ZM65.4286 23.4551H62.6679C62.2538 23.4551 61.9777 23.1783 61.9777 22.763C61.9777 22.3478 62.2538 22.071 62.6679 22.071H65.4286C65.8427 22.071 66.1188 22.3478 66.1188 22.763C66.1188 23.1783 65.8427 23.4551 65.4286 23.4551ZM58.6649 23.4551H55.9042C55.4901 23.4551 55.214 23.1783 55.214 22.763C55.214 22.3478 55.4901 22.071 55.9042 22.071H58.6649C59.079 22.071 59.3551 22.3478 59.3551 22.763C59.3551 23.1783 59.079 23.4551 58.6649 23.4551ZM51.9012 23.4551H49.1405C48.7264 23.4551 48.4503 23.1783 48.4503 22.763C48.4503 22.3478 48.7264 22.071 49.1405 22.071H51.9012C52.3153 22.071 52.5914 22.3478 52.5914 22.763C52.5914 23.1783 52.3153 23.4551 51.9012 23.4551Z" fill="#718CFF"/>
<path d="M131.271 53.4909C130.857 53.4909 130.581 53.2141 130.581 52.7989V51.4147C130.581 50.9995 130.857 50.7227 131.271 50.7227C131.685 50.7227 131.961 50.9995 131.961 51.4147V52.7989C131.961 53.2141 131.685 53.4909 131.271 53.4909Z" fill="#718CFF"/>
<path d="M108 20.5722C108 22.8994 106.979 25.0404 105.401 26.5298C103.915 27.833 102.059 28.6708 99.9235 28.6708C99.9235 28.6708 99.4593 28.6708 88.8764 28.6708C88.505 28.6708 88.1337 28.6708 87.6695 28.6708C87.0197 28.6708 86.3699 28.6708 85.7201 28.6708H73.0948C67.7105 28.857 63.4402 24.4819 63.4402 19.362C63.4402 14.1491 67.7105 9.8671 73.0948 10.0533H73.1876C73.7446 8.3777 74.4873 6.88829 75.4156 5.67815C75.4156 5.67815 75.4156 5.67815 75.4156 5.58506C77.0866 3.35096 79.2218 1.76847 81.6354 0.930677C81.7282 0.930677 81.9139 0.837589 82.0067 0.837589C85.2559 -0.279464 88.8764 -0.186376 92.0327 1.02376C96.5815 2.69934 100.295 6.60903 101.037 12.5666C104.936 13.1252 108 16.4763 108 20.5722Z" fill="url(#paint31_linear_32:12)"/>
<path d="M99.9231 28.671C104.384 28.671 108 25.0451 108 20.5723C108 16.0996 104.384 12.4737 99.9231 12.4737C95.4626 12.4737 91.8467 16.0996 91.8467 20.5723C91.8467 25.0451 95.4626 28.671 99.9231 28.671Z" fill="url(#paint32_linear_32:12)"/>
<path d="M86.7413 28.671C94.6369 28.671 101.038 22.2528 101.038 14.3355C101.038 6.41823 94.6369 0 86.7413 0C78.8457 0 72.4451 6.41823 72.4451 14.3355C72.4451 22.2528 78.8457 28.671 86.7413 28.671Z" fill="url(#paint33_linear_32:12)"/>
<path d="M105.449 26.5943C103.963 27.8975 102.107 28.7353 99.9714 28.7353C99.9714 28.7353 99.5072 28.7353 88.9243 28.7353L88.8315 28.6422L82.1475 21.9399L82.2403 19.5196L78.2485 15.2376L82.6117 12.3519L87.1605 9.55923L92.3591 11.5141L99.8786 20.2643L105.449 26.5943Z" fill="url(#paint34_linear_32:12)"/>
<path d="M83.2622 15.3306C83.5407 15.0513 83.5407 14.4928 83.2622 14.2136C82.9838 13.9343 82.5196 13.9343 82.0554 13.9343C83.4479 10.3039 88.1824 9.55917 90.596 12.4449C91.5244 13.4689 93.0097 12.1656 92.1742 11.0486C89.5749 8.06977 85.0261 7.69742 82.0554 10.3039C80.9414 11.2348 80.1988 12.538 79.8274 13.9343C78.8063 13.9343 78.6206 13.9343 78.4349 14.2136C78.1564 14.4928 78.1564 15.0513 78.4349 15.3306C81.2199 18.1232 80.4773 18.1232 83.2622 15.3306Z" fill="url(#paint35_linear_32:12)"/>
<path d="M95.5152 17.0993L93.6585 15.2375C93.38 14.9583 92.823 14.9583 92.5445 15.2375L90.6878 17.0993C90.4094 17.3785 90.4094 17.9371 90.6878 18.2163C90.9663 18.4956 91.4305 18.4956 91.8947 18.4956C90.5022 22.126 85.6749 22.9638 83.1684 19.8919C82.7971 19.4265 82.1472 19.3334 81.6831 19.7057C80.1049 21.009 83.8182 23.8947 87.1602 23.8947C90.4093 23.8947 93.1943 21.6606 94.1227 18.5887C95.1438 18.5887 95.3295 18.5887 95.5152 18.3094C95.7936 17.9371 95.7936 17.4716 95.5152 17.0993Z" fill="url(#paint36_linear_32:12)"/>
<path d="M131.271 57.505C132.338 57.505 133.204 56.6374 133.204 55.5672C133.204 54.497 132.338 53.6294 131.271 53.6294C130.204 53.6294 129.339 54.497 129.339 55.5672C129.339 56.6374 130.204 57.505 131.271 57.505Z" stroke="#718CFF" stroke-miterlimit="10" stroke-linecap="round" stroke-linejoin="round"/>
<path d="M39.0636 58.4739C40.1309 58.4739 40.9961 57.6063 40.9961 56.5361C40.9961 55.4659 40.1309 54.5983 39.0636 54.5983C37.9963 54.5983 37.1311 55.4659 37.1311 56.5361C37.1311 57.6063 37.9963 58.4739 39.0636 58.4739Z" stroke="#718CFF" stroke-miterlimit="10" stroke-linecap="round" stroke-linejoin="round"/>
<defs>
<linearGradient id="paint0_linear_32:12" x1="142.29" y1="72.5345" x2="143.409" y2="72.5345" gradientUnits="userSpaceOnUse">
<stop stop-color="#FF66A9"/>
<stop offset="1" stop-color="#F53689"/>
</linearGradient>
<linearGradient id="paint1_linear_32:12" x1="137.365" y1="89.1456" x2="138.484" y2="89.1456" gradientUnits="userSpaceOnUse">
<stop stop-color="#FF66A9"/>
<stop offset="1" stop-color="#F53689"/>
</linearGradient>
<linearGradient id="paint2_linear_32:12" x1="152.139" y1="84.2064" x2="153.259" y2="84.2064" gradientUnits="userSpaceOnUse">
<stop stop-color="#FF66A9"/>
<stop offset="1" stop-color="#F53689"/>
</linearGradient>
<linearGradient id="paint3_linear_32:12" x1="139.827" y1="102.165" x2="140.946" y2="102.165" gradientUnits="userSpaceOnUse">
<stop stop-color="#FF66A9"/>
<stop offset="1" stop-color="#F53689"/>
</linearGradient>
<linearGradient id="paint4_linear_32:12" x1="152.139" y1="105.757" x2="153.259" y2="105.757" gradientUnits="userSpaceOnUse">
<stop stop-color="#FF66A9"/>
<stop offset="1" stop-color="#F53689"/>
</linearGradient>
<linearGradient id="paint5_linear_32:12" x1="111.763" y1="72.5344" x2="112.882" y2="72.5344" gradientUnits="userSpaceOnUse">
<stop stop-color="#FF66A9"/>
<stop offset="1" stop-color="#F53689"/>
</linearGradient>
<linearGradient id="paint6_linear_32:12" x1="106.837" y1="89.1456" x2="107.956" y2="89.1456" gradientUnits="userSpaceOnUse">
<stop stop-color="#FF66A9"/>
<stop offset="1" stop-color="#F53689"/>
</linearGradient>
<linearGradient id="paint7_linear_32:12" x1="121.612" y1="84.2065" x2="122.731" y2="84.2065" gradientUnits="userSpaceOnUse">
<stop stop-color="#FF66A9"/>
<stop offset="1" stop-color="#F53689"/>
</linearGradient>
<linearGradient id="paint8_linear_32:12" x1="109.3" y1="102.165" x2="110.419" y2="102.165" gradientUnits="userSpaceOnUse">
<stop stop-color="#FF66A9"/>
<stop offset="1" stop-color="#F53689"/>
</linearGradient>
<linearGradient id="paint9_linear_32:12" x1="121.612" y1="105.757" x2="122.731" y2="105.757" gradientUnits="userSpaceOnUse">
<stop stop-color="#FF66A9"/>
<stop offset="1" stop-color="#F53689"/>
</linearGradient>
<linearGradient id="paint10_linear_32:12" x1="125.364" y1="53.396" x2="126.534" y2="53.396" gradientUnits="userSpaceOnUse">
<stop stop-color="#FF66A9"/>
<stop offset="1" stop-color="#F53689"/>
</linearGradient>
<linearGradient id="paint11_linear_32:12" x1="125.364" y1="70.5982" x2="126.534" y2="70.5982" gradientUnits="userSpaceOnUse">
<stop stop-color="#FF66A9"/>
<stop offset="1" stop-color="#F53689"/>
</linearGradient>
<linearGradient id="paint12_linear_32:12" x1="120.217" y1="87.9588" x2="121.386" y2="87.9588" gradientUnits="userSpaceOnUse">
<stop stop-color="#FF66A9"/>
<stop offset="1" stop-color="#F53689"/>
</linearGradient>
<linearGradient id="paint13_linear_32:12" x1="135.658" y1="82.7968" x2="136.828" y2="82.7968" gradientUnits="userSpaceOnUse">
<stop stop-color="#FF66A9"/>
<stop offset="1" stop-color="#F53689"/>
</linearGradient>
<linearGradient id="paint14_linear_32:12" x1="122.79" y1="101.566" x2="123.96" y2="101.566" gradientUnits="userSpaceOnUse">
<stop stop-color="#FF66A9"/>
<stop offset="1" stop-color="#F53689"/>
</linearGradient>
<linearGradient id="paint15_linear_32:12" x1="135.658" y1="105.32" x2="136.828" y2="105.32" gradientUnits="userSpaceOnUse">
<stop stop-color="#FF66A9"/>
<stop offset="1" stop-color="#F53689"/>
</linearGradient>
<linearGradient id="paint16_linear_32:12" x1="38.8442" y1="114.632" x2="38.8442" y2="101.716" gradientUnits="userSpaceOnUse">
<stop stop-color="#474755"/>
<stop offset="0.9913" stop-color="#2F3338"/>
</linearGradient>
<linearGradient id="paint17_linear_32:12" x1="4.22553" y1="74.1731" x2="5.88291" y2="74.1731" gradientUnits="userSpaceOnUse">
<stop stop-color="#FF66A9"/>
<stop offset="1" stop-color="#F53689"/>
</linearGradient>
<linearGradient id="paint18_linear_32:12" x1="7.60408" y1="61.1338" x2="9.26146" y2="61.1338" gradientUnits="userSpaceOnUse">
<stop stop-color="#FF66A9"/>
<stop offset="1" stop-color="#F53689"/>
</linearGradient>
<linearGradient id="paint19_linear_32:12" x1="10.9825" y1="74.1731" x2="12.6398" y2="74.1731" gradientUnits="userSpaceOnUse">
<stop stop-color="#83A6FF"/>
<stop offset="1" stop-color="#5A78FF"/>
</linearGradient>
<linearGradient id="paint20_linear_32:12" x1="17.7393" y1="70.9133" x2="19.3966" y2="70.9133" gradientUnits="userSpaceOnUse">
<stop stop-color="#FF66A9"/>
<stop offset="1" stop-color="#F53689"/>
</linearGradient>
<linearGradient id="paint21_linear_32:12" x1="27.8738" y1="87.2124" x2="29.5311" y2="87.2124" gradientUnits="userSpaceOnUse">
<stop stop-color="#83A6FF"/>
<stop offset="1" stop-color="#5A78FF"/>
</linearGradient>
<linearGradient id="paint22_linear_32:12" x1="31.2521" y1="80.6929" x2="32.9093" y2="80.6929" gradientUnits="userSpaceOnUse">
<stop stop-color="#FF66A9"/>
<stop offset="1" stop-color="#F53689"/>
</linearGradient>
<linearGradient id="paint23_linear_32:12" x1="58.3063" y1="70.9133" x2="59.9635" y2="70.9133" gradientUnits="userSpaceOnUse">
<stop stop-color="#FF66A9"/>
<stop offset="1" stop-color="#F53689"/>
</linearGradient>
<linearGradient id="paint24_linear_32:12" x1="68.4404" y1="87.2124" x2="70.0978" y2="87.2124" gradientUnits="userSpaceOnUse">
<stop stop-color="#83A6FF"/>
<stop offset="1" stop-color="#5A78FF"/>
</linearGradient>
<linearGradient id="paint25_linear_32:12" x1="68.4404" y1="70.9133" x2="70.0978" y2="70.9133" gradientUnits="userSpaceOnUse">
<stop stop-color="#83A6FF"/>
<stop offset="1" stop-color="#5A78FF"/>
</linearGradient>
<linearGradient id="paint26_linear_32:12" x1="71.8189" y1="80.6929" x2="73.4763" y2="80.6929" gradientUnits="userSpaceOnUse">
<stop stop-color="#FF66A9"/>
<stop offset="1" stop-color="#F53689"/>
</linearGradient>
<linearGradient id="paint27_linear_32:12" x1="38.0091" y1="70.9133" x2="39.6663" y2="70.9133" gradientUnits="userSpaceOnUse">
<stop stop-color="#83A6FF"/>
<stop offset="1" stop-color="#5A78FF"/>
</linearGradient>
<linearGradient id="paint28_linear_32:12" x1="41.3874" y1="77.4329" x2="43.0448" y2="77.4329" gradientUnits="userSpaceOnUse">
<stop stop-color="#FF66A9"/>
<stop offset="1" stop-color="#F53689"/>
</linearGradient>
<linearGradient id="paint29_linear_32:12" x1="41.3874" y1="67.6535" x2="43.0448" y2="67.6535" gradientUnits="userSpaceOnUse">
<stop stop-color="#83A6FF"/>
<stop offset="1" stop-color="#5A78FF"/>
</linearGradient>
<linearGradient id="paint30_linear_32:12" x1="48.1444" y1="67.6535" x2="49.8018" y2="67.6535" gradientUnits="userSpaceOnUse">
<stop stop-color="#FF66A9"/>
<stop offset="1" stop-color="#F53689"/>
</linearGradient>
<linearGradient id="paint31_linear_32:12" x1="85.7445" y1="-0.0884763" x2="85.7445" y2="28.6918" gradientUnits="userSpaceOnUse">
<stop stop-color="#83A6FF"/>
<stop offset="1" stop-color="#5A78FF"/>
</linearGradient>
<linearGradient id="paint32_linear_32:12" x1="91.0375" y1="10.8486" x2="98.2177" y2="18.66" gradientUnits="userSpaceOnUse">
<stop stop-color="#83A6FF"/>
<stop offset="1" stop-color="#87A5FF" stop-opacity="0"/>
</linearGradient>
<linearGradient id="paint33_linear_32:12" x1="75.9008" y1="5.96813" x2="80.718" y2="9.67123" gradientUnits="userSpaceOnUse">
<stop stop-color="#83A6FF"/>
<stop offset="1" stop-color="#87A5FF" stop-opacity="0"/>
</linearGradient>
<linearGradient id="paint34_linear_32:12" x1="83.052" y1="12.3995" x2="100.275" y2="29.5751" gradientUnits="userSpaceOnUse">
<stop stop-color="#4F6AFF"/>
<stop offset="1" stop-color="#657EFF" stop-opacity="0"/>
</linearGradient>
<linearGradient id="paint35_linear_32:12" x1="93.0352" y1="20.9071" x2="85.6585" y2="13.5506" gradientUnits="userSpaceOnUse">
<stop offset="0.0113208" stop-color="#C2D1FF"/>
<stop offset="1" stop-color="white"/>
</linearGradient>
<linearGradient id="paint36_linear_32:12" x1="91.631" y1="22.3141" x2="84.2542" y2="14.9576" gradientUnits="userSpaceOnUse">
<stop offset="0.0113208" stop-color="#C2D1FF"/>
<stop offset="1" stop-color="white"/>
</linearGradient>
</defs>
</svg>