<svg xmlns="http://www.w3.org/2000/svg" width="42" height="42" viewBox="0 0 42 42" fill="none">
<path fillRule="evenodd" clipRule="evenodd" d="M3.13433 21C3.13433 30.8669 11.1331 38.8657 21 38.8657C30.8669 38.8657 38.8657 30.8669 38.8657 21C38.8657 11.1331 30.8669 3.13433 21 3.13433C11.1331 3.13433 3.13433 11.1331 3.13433 21ZM21 0C9.40202 0 0 9.40202 0 21C0 32.598 9.40202 42 21 42C32.598 42 42 32.598 42 21C42 9.40202 32.598 0 21 0ZM11.0786 21C11.0786 26.4794 15.5206 30.9214 21 30.9214C26.4794 30.9214 30.9214 26.4794 30.9214 21C30.9214 15.5206 26.4794 11.0786 21 11.0786C15.5206 11.0786 11.0786 15.5206 11.0786 21ZM21 8.88461C14.3089 8.88461 8.88461 14.3089 8.88461 21C8.88461 27.6911 14.3089 33.1154 21 33.1154C27.6911 33.1154 33.1154 27.6911 33.1154 21C33.1154 14.3089 27.6911 8.88461 21 8.88461ZM19.8266 28.5385C19.8266 32.9038 23.3654 36.4426 27.7308 36.4426C32.0961 36.4426 35.6349 32.9038 35.6349 28.5385C35.6349 24.1731 32.0961 20.6343 27.7308 20.6343C23.3654 20.6343 19.8266 24.1731 19.8266 28.5385ZM27.7308 17.5C21.6344 17.5 16.6923 22.4421 16.6923 28.5385C16.6923 34.6348 21.6344 39.5769 27.7308 39.5769C33.8271 39.5769 38.7692 34.6348 38.7692 28.5385C38.7692 22.4421 33.8271 17.5 27.7308 17.5ZM17.1343 21C17.1343 23.135 18.865 24.8657 21 24.8657C23.135 24.8657 24.8657 23.135 24.8657 21C24.8657 18.865 23.135 17.1343 21 17.1343C18.865 17.1343 17.1343 18.865 17.1343 21ZM21 14C17.134 14 14 17.134 14 21C14 24.866 17.134 28 21 28C24.866 28 28 24.866 28 21C28 17.134 24.866 14 21 14Z" fill="url(#paint0_linear_23:1248)"/>
<defs>
<linearGradient id="paint0_linear_23:1248" x1="7.20896" y1="9.5597" x2="34.791" y2="38.5522" gradientUnits="userSpaceOnUse">
<stop stop-color="#01FFFF"/>
<stop offset="1" stop-color="#00FF75"/>
</linearGradient>
</defs>
</svg>