<svg xmlns="http://www.w3.org/2000/svg" width="170" height="223" viewBox="0 0 170 223" fill="none">
<path d="M6 189C6 190.657 4.65685 192 3 192C1.34315 192 0 190.657 0 189C0 187.343 1.34315 186 3 186C4.65685 186 6 187.343 6 189Z" fill="url(#paint0_radial_23:1226)"/>
<path d="M47 189C47 190.657 45.6569 192 44 192C42.3431 192 41 190.657 41 189C41 187.343 42.3431 186 44 186C45.6569 186 47 187.343 47 189Z" fill="url(#paint1_radial_23:1226)"/>
<path d="M88 189C88 190.657 86.6569 192 85 192C83.3431 192 82 190.657 82 189C82 187.343 83.3431 186 85 186C86.6569 186 88 187.343 88 189Z" fill="url(#paint2_radial_23:1226)"/>
<path d="M129 189C129 190.657 127.657 192 126 192C124.343 192 123 190.657 123 189C123 187.343 124.343 186 126 186C127.657 186 129 187.343 129 189Z" fill="url(#paint3_radial_23:1226)"/>
<path d="M170 189C170 190.657 168.657 192 167 192C165.343 192 164 190.657 164 189C164 187.343 165.343 186 167 186C168.657 186 170 187.343 170 189Z" fill="url(#paint4_radial_23:1226)"/>
<path d="M6 220C6 221.657 4.65685 223 3 223C1.34315 223 0 221.657 0 220C0 218.343 1.34315 217 3 217C4.65685 217 6 218.343 6 220Z" fill="url(#paint5_radial_23:1226)"/>
<path d="M47 220C47 221.657 45.6569 223 44 223C42.3431 223 41 221.657 41 220C41 218.343 42.3431 217 44 217C45.6569 217 47 218.343 47 220Z" fill="url(#paint6_radial_23:1226)"/>
<path d="M88 220C88 221.657 86.6569 223 85 223C83.3431 223 82 221.657 82 220C82 218.343 83.3431 217 85 217C86.6569 217 88 218.343 88 220Z" fill="url(#paint7_radial_23:1226)"/>
<path d="M129 220C129 221.657 127.657 223 126 223C124.343 223 123 221.657 123 220C123 218.343 124.343 217 126 217C127.657 217 129 218.343 129 220Z" fill="url(#paint8_radial_23:1226)"/>
<path d="M170 220C170 221.657 168.657 223 167 223C165.343 223 164 221.657 164 220C164 218.343 165.343 217 167 217C168.657 217 170 218.343 170 220Z" fill="url(#paint9_radial_23:1226)"/>
<path d="M6 3C6 4.65685 4.65685 6 3 6C1.34315 6 0 4.65685 0 3C0 1.34315 1.34315 0 3 0C4.65685 0 6 1.34315 6 3Z" fill="url(#paint10_radial_23:1226)"/>
<path d="M47 3C47 4.65685 45.6569 6 44 6C42.3431 6 41 4.65685 41 3C41 1.34315 42.3431 0 44 0C45.6569 0 47 1.34315 47 3Z" fill="url(#paint11_radial_23:1226)"/>
<path d="M88 3C88 4.65685 86.6569 6 85 6C83.3431 6 82 4.65685 82 3C82 1.34315 83.3431 0 85 0C86.6569 0 88 1.34315 88 3Z" fill="url(#paint12_radial_23:1226)"/>
<path d="M129 3C129 4.65685 127.657 6 126 6C124.343 6 123 4.65685 123 3C123 1.34315 124.343 0 126 0C127.657 0 129 1.34315 129 3Z" fill="url(#paint13_radial_23:1226)"/>
<path d="M170 3C170 4.65685 168.657 6 167 6C165.343 6 164 4.65685 164 3C164 1.34315 165.343 0 167 0C168.657 0 170 1.34315 170 3Z" fill="url(#paint14_radial_23:1226)"/>
<path d="M6 34C6 35.6569 4.65685 37 3 37C1.34315 37 0 35.6569 0 34C0 32.3431 1.34315 31 3 31C4.65685 31 6 32.3431 6 34Z" fill="url(#paint15_radial_23:1226)"/>
<path d="M47 34C47 35.6569 45.6569 37 44 37C42.3431 37 41 35.6569 41 34C41 32.3431 42.3431 31 44 31C45.6569 31 47 32.3431 47 34Z" fill="url(#paint16_radial_23:1226)"/>
<path d="M88 34C88 35.6569 86.6569 37 85 37C83.3431 37 82 35.6569 82 34C82 32.3431 83.3431 31 85 31C86.6569 31 88 32.3431 88 34Z" fill="url(#paint17_radial_23:1226)"/>
<path d="M129 34C129 35.6569 127.657 37 126 37C124.343 37 123 35.6569 123 34C123 32.3431 124.343 31 126 31C127.657 31 129 32.3431 129 34Z" fill="url(#paint18_radial_23:1226)"/>
<path d="M170 34C170 35.6569 168.657 37 167 37C165.343 37 164 35.6569 164 34C164 32.3431 165.343 31 167 31C168.657 31 170 32.3431 170 34Z" fill="url(#paint19_radial_23:1226)"/>
<path d="M6 65C6 66.6569 4.65685 68 3 68C1.34315 68 0 66.6569 0 65C0 63.3431 1.34315 62 3 62C4.65685 62 6 63.3431 6 65Z" fill="url(#paint20_radial_23:1226)"/>
<path d="M47 65C47 66.6569 45.6569 68 44 68C42.3431 68 41 66.6569 41 65C41 63.3431 42.3431 62 44 62C45.6569 62 47 63.3431 47 65Z" fill="url(#paint21_radial_23:1226)"/>
<path d="M88 65C88 66.6569 86.6569 68 85 68C83.3431 68 82 66.6569 82 65C82 63.3431 83.3431 62 85 62C86.6569 62 88 63.3431 88 65Z" fill="url(#paint22_radial_23:1226)"/>
<path d="M129 65C129 66.6569 127.657 68 126 68C124.343 68 123 66.6569 123 65C123 63.3431 124.343 62 126 62C127.657 62 129 63.3431 129 65Z" fill="url(#paint23_radial_23:1226)"/>
<path d="M170 65C170 66.6569 168.657 68 167 68C165.343 68 164 66.6569 164 65C164 63.3431 165.343 62 167 62C168.657 62 170 63.3431 170 65Z" fill="url(#paint24_radial_23:1226)"/>
<path d="M6 96C6 97.6569 4.65685 99 3 99C1.34315 99 0 97.6569 0 96C0 94.3431 1.34315 93 3 93C4.65685 93 6 94.3431 6 96Z" fill="url(#paint25_radial_23:1226)"/>
<path d="M47 96C47 97.6569 45.6569 99 44 99C42.3431 99 41 97.6569 41 96C41 94.3431 42.3431 93 44 93C45.6569 93 47 94.3431 47 96Z" fill="url(#paint26_radial_23:1226)"/>
<path d="M88 96C88 97.6569 86.6569 99 85 99C83.3431 99 82 97.6569 82 96C82 94.3431 83.3431 93 85 93C86.6569 93 88 94.3431 88 96Z" fill="url(#paint27_radial_23:1226)"/>
<path d="M129 96C129 97.6569 127.657 99 126 99C124.343 99 123 97.6569 123 96C123 94.3431 124.343 93 126 93C127.657 93 129 94.3431 129 96Z" fill="url(#paint28_radial_23:1226)"/>
<path d="M170 96C170 97.6569 168.657 99 167 99C165.343 99 164 97.6569 164 96C164 94.3431 165.343 93 167 93C168.657 93 170 94.3431 170 96Z" fill="url(#paint29_radial_23:1226)"/>
<path d="M6 127C6 128.657 4.65685 130 3 130C1.34315 130 0 128.657 0 127C0 125.343 1.34315 124 3 124C4.65685 124 6 125.343 6 127Z" fill="url(#paint30_radial_23:1226)"/>
<path d="M47 127C47 128.657 45.6569 130 44 130C42.3431 130 41 128.657 41 127C41 125.343 42.3431 124 44 124C45.6569 124 47 125.343 47 127Z" fill="url(#paint31_radial_23:1226)"/>
<path d="M88 127C88 128.657 86.6569 130 85 130C83.3431 130 82 128.657 82 127C82 125.343 83.3431 124 85 124C86.6569 124 88 125.343 88 127Z" fill="url(#paint32_radial_23:1226)"/>
<path d="M129 127C129 128.657 127.657 130 126 130C124.343 130 123 128.657 123 127C123 125.343 124.343 124 126 124C127.657 124 129 125.343 129 127Z" fill="url(#paint33_radial_23:1226)"/>
<path d="M170 127C170 128.657 168.657 130 167 130C165.343 130 164 128.657 164 127C164 125.343 165.343 124 167 124C168.657 124 170 125.343 170 127Z" fill="url(#paint34_radial_23:1226)"/>
<path d="M6 158C6 159.657 4.65685 161 3 161C1.34315 161 0 159.657 0 158C0 156.343 1.34315 155 3 155C4.65685 155 6 156.343 6 158Z" fill="url(#paint35_radial_23:1226)"/>
<path d="M47 158C47 159.657 45.6569 161 44 161C42.3431 161 41 159.657 41 158C41 156.343 42.3431 155 44 155C45.6569 155 47 156.343 47 158Z" fill="url(#paint36_radial_23:1226)"/>
<path d="M88 158C88 159.657 86.6569 161 85 161C83.3431 161 82 159.657 82 158C82 156.343 83.3431 155 85 155C86.6569 155 88 156.343 88 158Z" fill="url(#paint37_radial_23:1226)"/>
<path d="M129 158C129 159.657 127.657 161 126 161C124.343 161 123 159.657 123 158C123 156.343 124.343 155 126 155C127.657 155 129 156.343 129 158Z" fill="url(#paint38_radial_23:1226)"/>
<path d="M170 158C170 159.657 168.657 161 167 161C165.343 161 164 159.657 164 158C164 156.343 165.343 155 167 155C168.657 155 170 156.343 170 158Z" fill="url(#paint39_radial_23:1226)"/>
<defs>
<radialGradient id="paint0_radial_23:1226" cx="0" cy="0" r="1" gradientUnits="userSpaceOnUse" gradientTransform="translate(85 65) rotate(90) scale(123.5 94.148)">
<stop stop-color="#01FFFF"/>
<stop offset="1" stop-color="#0FCD66" stop-opacity="0"/>
</radialGradient>
<radialGradient id="paint1_radial_23:1226" cx="0" cy="0" r="1" gradientUnits="userSpaceOnUse" gradientTransform="translate(85 65) rotate(90) scale(123.5 94.148)">
<stop stop-color="#01FFFF"/>
<stop offset="1" stop-color="#0FCD66" stop-opacity="0"/>
</radialGradient>
<radialGradient id="paint2_radial_23:1226" cx="0" cy="0" r="1" gradientUnits="userSpaceOnUse" gradientTransform="translate(85 65) rotate(90) scale(123.5 94.148)">
<stop stop-color="#01FFFF"/>
<stop offset="1" stop-color="#0FCD66" stop-opacity="0"/>
</radialGradient>
<radialGradient id="paint3_radial_23:1226" cx="0" cy="0" r="1" gradientUnits="userSpaceOnUse" gradientTransform="translate(85 65) rotate(90) scale(123.5 94.148)">
<stop stop-color="#01FFFF"/>
<stop offset="1" stop-color="#0FCD66" stop-opacity="0"/>
</radialGradient>
<radialGradient id="paint4_radial_23:1226" cx="0" cy="0" r="1" gradientUnits="userSpaceOnUse" gradientTransform="translate(85 65) rotate(90) scale(123.5 94.148)">
<stop stop-color="#01FFFF"/>
<stop offset="1" stop-color="#0FCD66" stop-opacity="0"/>
</radialGradient>
<radialGradient id="paint5_radial_23:1226" cx="0" cy="0" r="1" gradientUnits="userSpaceOnUse" gradientTransform="translate(85 65) rotate(90) scale(123.5 94.148)">
<stop stop-color="#01FFFF"/>
<stop offset="1" stop-color="#0FCD66" stop-opacity="0"/>
</radialGradient>
<radialGradient id="paint6_radial_23:1226" cx="0" cy="0" r="1" gradientUnits="userSpaceOnUse" gradientTransform="translate(85 65) rotate(90) scale(123.5 94.148)">
<stop stop-color="#01FFFF"/>
<stop offset="1" stop-color="#0FCD66" stop-opacity="0"/>
</radialGradient>
<radialGradient id="paint7_radial_23:1226" cx="0" cy="0" r="1" gradientUnits="userSpaceOnUse" gradientTransform="translate(85 65) rotate(90) scale(123.5 94.148)">
<stop stop-color="#01FFFF"/>
<stop offset="1" stop-color="#0FCD66" stop-opacity="0"/>
</radialGradient>
<radialGradient id="paint8_radial_23:1226" cx="0" cy="0" r="1" gradientUnits="userSpaceOnUse" gradientTransform="translate(85 65) rotate(90) scale(123.5 94.148)">
<stop stop-color="#01FFFF"/>
<stop offset="1" stop-color="#0FCD66" stop-opacity="0"/>
</radialGradient>
<radialGradient id="paint9_radial_23:1226" cx="0" cy="0" r="1" gradientUnits="userSpaceOnUse" gradientTransform="translate(85 65) rotate(90) scale(123.5 94.148)">
<stop stop-color="#01FFFF"/>
<stop offset="1" stop-color="#0FCD66" stop-opacity="0"/>
</radialGradient>
<radialGradient id="paint10_radial_23:1226" cx="0" cy="0" r="1" gradientUnits="userSpaceOnUse" gradientTransform="translate(85 65) rotate(90) scale(123.5 94.148)">
<stop stop-color="#01FFFF"/>
<stop offset="1" stop-color="#0FCD66" stop-opacity="0"/>
</radialGradient>
<radialGradient id="paint11_radial_23:1226" cx="0" cy="0" r="1" gradientUnits="userSpaceOnUse" gradientTransform="translate(85 65) rotate(90) scale(123.5 94.148)">
<stop stop-color="#01FFFF"/>
<stop offset="1" stop-color="#0FCD66" stop-opacity="0"/>
</radialGradient>
<radialGradient id="paint12_radial_23:1226" cx="0" cy="0" r="1" gradientUnits="userSpaceOnUse" gradientTransform="translate(85 65) rotate(90) scale(123.5 94.148)">
<stop stop-color="#01FFFF"/>
<stop offset="1" stop-color="#0FCD66" stop-opacity="0"/>
</radialGradient>
<radialGradient id="paint13_radial_23:1226" cx="0" cy="0" r="1" gradientUnits="userSpaceOnUse" gradientTransform="translate(85 65) rotate(90) scale(123.5 94.148)">
<stop stop-color="#01FFFF"/>
<stop offset="1" stop-color="#0FCD66" stop-opacity="0"/>
</radialGradient>
<radialGradient id="paint14_radial_23:1226" cx="0" cy="0" r="1" gradientUnits="userSpaceOnUse" gradientTransform="translate(85 65) rotate(90) scale(123.5 94.148)">
<stop stop-color="#01FFFF"/>
<stop offset="1" stop-color="#0FCD66" stop-opacity="0"/>
</radialGradient>
<radialGradient id="paint15_radial_23:1226" cx="0" cy="0" r="1" gradientUnits="userSpaceOnUse" gradientTransform="translate(85 65) rotate(90) scale(123.5 94.148)">
<stop stop-color="#01FFFF"/>
<stop offset="1" stop-color="#0FCD66" stop-opacity="0"/>
</radialGradient>
<radialGradient id="paint16_radial_23:1226" cx="0" cy="0" r="1" gradientUnits="userSpaceOnUse" gradientTransform="translate(85 65) rotate(90) scale(123.5 94.148)">
<stop stop-color="#01FFFF"/>
<stop offset="1" stop-color="#0FCD66" stop-opacity="0"/>
</radialGradient>
<radialGradient id="paint17_radial_23:1226" cx="0" cy="0" r="1" gradientUnits="userSpaceOnUse" gradientTransform="translate(85 65) rotate(90) scale(123.5 94.148)">
<stop stop-color="#01FFFF"/>
<stop offset="1" stop-color="#0FCD66" stop-opacity="0"/>
</radialGradient>
<radialGradient id="paint18_radial_23:1226" cx="0" cy="0" r="1" gradientUnits="userSpaceOnUse" gradientTransform="translate(85 65) rotate(90) scale(123.5 94.148)">
<stop stop-color="#01FFFF"/>
<stop offset="1" stop-color="#0FCD66" stop-opacity="0"/>
</radialGradient>
<radialGradient id="paint19_radial_23:1226" cx="0" cy="0" r="1" gradientUnits="userSpaceOnUse" gradientTransform="translate(85 65) rotate(90) scale(123.5 94.148)">
<stop stop-color="#01FFFF"/>
<stop offset="1" stop-color="#0FCD66" stop-opacity="0"/>
</radialGradient>
<radialGradient id="paint20_radial_23:1226" cx="0" cy="0" r="1" gradientUnits="userSpaceOnUse" gradientTransform="translate(85 65) rotate(90) scale(123.5 94.148)">
<stop stop-color="#01FFFF"/>
<stop offset="1" stop-color="#0FCD66" stop-opacity="0"/>
</radialGradient>
<radialGradient id="paint21_radial_23:1226" cx="0" cy="0" r="1" gradientUnits="userSpaceOnUse" gradientTransform="translate(85 65) rotate(90) scale(123.5 94.148)">
<stop stop-color="#01FFFF"/>
<stop offset="1" stop-color="#0FCD66" stop-opacity="0"/>
</radialGradient>
<radialGradient id="paint22_radial_23:1226" cx="0" cy="0" r="1" gradientUnits="userSpaceOnUse" gradientTransform="translate(85 65) rotate(90) scale(123.5 94.148)">
<stop stop-color="#01FFFF"/>
<stop offset="1" stop-color="#0FCD66" stop-opacity="0"/>
</radialGradient>
<radialGradient id="paint23_radial_23:1226" cx="0" cy="0" r="1" gradientUnits="userSpaceOnUse" gradientTransform="translate(85 65) rotate(90) scale(123.5 94.148)">
<stop stop-color="#01FFFF"/>
<stop offset="1" stop-color="#0FCD66" stop-opacity="0"/>
</radialGradient>
<radialGradient id="paint24_radial_23:1226" cx="0" cy="0" r="1" gradientUnits="userSpaceOnUse" gradientTransform="translate(85 65) rotate(90) scale(123.5 94.148)">
<stop stop-color="#01FFFF"/>
<stop offset="1" stop-color="#0FCD66" stop-opacity="0"/>
</radialGradient>
<radialGradient id="paint25_radial_23:1226" cx="0" cy="0" r="1" gradientUnits="userSpaceOnUse" gradientTransform="translate(85 65) rotate(90) scale(123.5 94.148)">
<stop stop-color="#01FFFF"/>
<stop offset="1" stop-color="#0FCD66" stop-opacity="0"/>
</radialGradient>
<radialGradient id="paint26_radial_23:1226" cx="0" cy="0" r="1" gradientUnits="userSpaceOnUse" gradientTransform="translate(85 65) rotate(90) scale(123.5 94.148)">
<stop stop-color="#01FFFF"/>
<stop offset="1" stop-color="#0FCD66" stop-opacity="0"/>
</radialGradient>
<radialGradient id="paint27_radial_23:1226" cx="0" cy="0" r="1" gradientUnits="userSpaceOnUse" gradientTransform="translate(85 65) rotate(90) scale(123.5 94.148)">
<stop stop-color="#01FFFF"/>
<stop offset="1" stop-color="#0FCD66" stop-opacity="0"/>
</radialGradient>
<radialGradient id="paint28_radial_23:1226" cx="0" cy="0" r="1" gradientUnits="userSpaceOnUse" gradientTransform="translate(85 65) rotate(90) scale(123.5 94.148)">
<stop stop-color="#01FFFF"/>
<stop offset="1" stop-color="#0FCD66" stop-opacity="0"/>
</radialGradient>
<radialGradient id="paint29_radial_23:1226" cx="0" cy="0" r="1" gradientUnits="userSpaceOnUse" gradientTransform="translate(85 65) rotate(90) scale(123.5 94.148)">
<stop stop-color="#01FFFF"/>
<stop offset="1" stop-color="#0FCD66" stop-opacity="0"/>
</radialGradient>
<radialGradient id="paint30_radial_23:1226" cx="0" cy="0" r="1" gradientUnits="userSpaceOnUse" gradientTransform="translate(85 65) rotate(90) scale(123.5 94.148)">
<stop stop-color="#01FFFF"/>
<stop offset="1" stop-color="#0FCD66" stop-opacity="0"/>
</radialGradient>
<radialGradient id="paint31_radial_23:1226" cx="0" cy="0" r="1" gradientUnits="userSpaceOnUse" gradientTransform="translate(85 65) rotate(90) scale(123.5 94.148)">
<stop stop-color="#01FFFF"/>
<stop offset="1" stop-color="#0FCD66" stop-opacity="0"/>
</radialGradient>
<radialGradient id="paint32_radial_23:1226" cx="0" cy="0" r="1" gradientUnits="userSpaceOnUse" gradientTransform="translate(85 65) rotate(90) scale(123.5 94.148)">
<stop stop-color="#01FFFF"/>
<stop offset="1" stop-color="#0FCD66" stop-opacity="0"/>
</radialGradient>
<radialGradient id="paint33_radial_23:1226" cx="0" cy="0" r="1" gradientUnits="userSpaceOnUse" gradientTransform="translate(85 65) rotate(90) scale(123.5 94.148)">
<stop stop-color="#01FFFF"/>
<stop offset="1" stop-color="#0FCD66" stop-opacity="0"/>
</radialGradient>
<radialGradient id="paint34_radial_23:1226" cx="0" cy="0" r="1" gradientUnits="userSpaceOnUse" gradientTransform="translate(85 65) rotate(90) scale(123.5 94.148)">
<stop stop-color="#01FFFF"/>
<stop offset="1" stop-color="#0FCD66" stop-opacity="0"/>
</radialGradient>
<radialGradient id="paint35_radial_23:1226" cx="0" cy="0" r="1" gradientUnits="userSpaceOnUse" gradientTransform="translate(85 65) rotate(90) scale(123.5 94.148)">
<stop stop-color="#01FFFF"/>
<stop offset="1" stop-color="#0FCD66" stop-opacity="0"/>
</radialGradient>
<radialGradient id="paint36_radial_23:1226" cx="0" cy="0" r="1" gradientUnits="userSpaceOnUse" gradientTransform="translate(85 65) rotate(90) scale(123.5 94.148)">
<stop stop-color="#01FFFF"/>
<stop offset="1" stop-color="#0FCD66" stop-opacity="0"/>
</radialGradient>
<radialGradient id="paint37_radial_23:1226" cx="0" cy="0" r="1" gradientUnits="userSpaceOnUse" gradientTransform="translate(85 65) rotate(90) scale(123.5 94.148)">
<stop stop-color="#01FFFF"/>
<stop offset="1" stop-color="#0FCD66" stop-opacity="0"/>
</radialGradient>
<radialGradient id="paint38_radial_23:1226" cx="0" cy="0" r="1" gradientUnits="userSpaceOnUse" gradientTransform="translate(85 65) rotate(90) scale(123.5 94.148)">
<stop stop-color="#01FFFF"/>
<stop offset="1" stop-color="#0FCD66" stop-opacity="0"/>
</radialGradient>
<radialGradient id="paint39_radial_23:1226" cx="0" cy="0" r="1" gradientUnits="userSpaceOnUse" gradientTransform="translate(85 65) rotate(90) scale(123.5 94.148)">
<stop stop-color="#01FFFF"/>
<stop offset="1" stop-color="#0FCD66" stop-opacity="0"/>
</radialGradient>
</defs>
</svg>